<?xml version="1.0" encoding="UTF-8" standalone="no"?>
<!-- Created with Inkscape (http://www.inkscape.org/) -->

<svg
   xmlns:ns0="http://www.iki.fi/pav/software/textext/"
   xmlns:dc="http://purl.org/dc/elements/1.1/"
   xmlns:cc="http://creativecommons.org/ns#"
   xmlns:rdf="http://www.w3.org/1999/02/22-rdf-syntax-ns#"
   xmlns:svg="http://www.w3.org/2000/svg"
   xmlns="http://www.w3.org/2000/svg"
   xmlns:sodipodi="http://sodipodi.sourceforge.net/DTD/sodipodi-0.dtd"
   xmlns:inkscape="http://www.inkscape.org/namespaces/inkscape"
   sodipodi:docname="gaussian-x-t-comp.svg"
   inkscape:version="0.92.3 (2405546, 2018-03-11)"
   id="svg8"
   version="1.1"
   viewBox="0 0 120 39.999998"
   height="4cm"
   width="12cm">
  <sodipodi:namedview
     showguides="true"
     inkscape:snap-global="false"
     inkscape:window-maximized="1"
     inkscape:window-y="27"
     inkscape:window-x="67"
     inkscape:window-height="1025"
     inkscape:window-width="1853"
     units="cm"
     showgrid="false"
     inkscape:current-layer="layer1"
     inkscape:document-units="mm"
     inkscape:cy="-28.598884"
     inkscape:cx="270.7804"
     inkscape:zoom="1.4"
     inkscape:pageshadow="2"
     inkscape:pageopacity="0.0"
     borderopacity="1.0"
     bordercolor="#666666"
     pagecolor="#ffffff"
     id="base" />
  <defs
     id="defs2">
    <marker
       inkscape:isstock="true"
       style="overflow:visible"
       id="marker1584"
       refX="0"
       refY="0"
       orient="auto"
       inkscape:stockid="Arrow2MendH">
      <path
         transform="scale(-0.6,-0.6)"
         d="M 8.7185878,4.0337352 -2.2072895,0.01601326 8.7185884,-4.0017078 c -1.7454984,2.3720609 -1.7354408,5.6174519 -6e-7,8.035443 z"
         style="fill:#ee7219;fill-opacity:1;fill-rule:evenodd;stroke:#ee7219;stroke-width:0.625;stroke-linejoin:round;stroke-opacity:1"
         id="path1582"
         inkscape:connector-curvature="0" />
    </marker>
    <marker
       inkscape:isstock="true"
       style="overflow:visible"
       id="Arrow2Mend"
       refX="0"
       refY="0"
       orient="auto"
       inkscape:stockid="Arrow2Mend">
      <path
         transform="scale(-0.6,-0.6)"
         d="M 8.7185878,4.0337352 -2.2072895,0.01601326 8.7185884,-4.0017078 c -1.7454984,2.3720609 -1.7354408,5.6174519 -6e-7,8.035443 z"
         style="fill:#000000;fill-opacity:1;fill-rule:evenodd;stroke:#9278d1;stroke-width:0.625;stroke-linejoin:round;stroke-opacity:1"
         id="path1104"
         inkscape:connector-curvature="0" />
    </marker>
    <marker
       inkscape:isstock="true"
       style="overflow:visible"
       id="Arrow1Send"
       refX="0"
       refY="0"
       orient="auto"
       inkscape:stockid="Arrow1Send">
      <path
         transform="matrix(-0.2,0,0,-0.2,-1.2,0)"
         style="fill:#000000;fill-opacity:1;fill-rule:evenodd;stroke:#000000;stroke-width:1pt;stroke-opacity:1"
         d="M 0,0 5,-5 -12.5,0 5,5 0,0 Z"
         id="path1092"
         inkscape:connector-curvature="0" />
    </marker>
    <clipPath
       id="clipPath247"
       clipPathUnits="userSpaceOnUse">
      <rect
         style="color:#000000;display:inline;overflow:visible;visibility:visible;opacity:1;fill:#ab1f2d;fill-opacity:1;fill-rule:nonzero;stroke:none;stroke-width:0.19843748;stroke-linecap:butt;stroke-linejoin:miter;stroke-miterlimit:10;stroke-dasharray:none;stroke-dashoffset:0;stroke-opacity:1;marker:none;marker-start:none;marker-mid:none;marker-end:none;enable-background:accumulate"
         id="rect249"
         width="1.0753164"
         height="45.56945"
         x="142.97461"
         y="233.79077"
         ry="0" />
    </clipPath>
    <clipPath
       clipPathUnits="userSpaceOnUse"
       id="clipPath3677">
      <path
         d="m -2.54e-6,1.272e-5 570.0000225399999,0 0,324.99999728 -570.0000225399999,0 0,-324.99999728 z"
         id="path3679"
         inkscape:connector-curvature="0" />
    </clipPath>
    <clipPath
       clipPathUnits="userSpaceOnUse"
       id="clipPath23193">
      <path
         d="m 3.81e-6,1.272e-5 521.00000619,0 0,231.99999728 -521.00000619,0 0,-231.99999728 z"
         id="path23195"
         inkscape:connector-curvature="0" />
    </clipPath>
    <clipPath
       clipPathUnits="userSpaceOnUse"
       id="clipPath23569">
      <path
         d="m -2.54e-6,2.035e-5 578.99998254,0 0,248.99999965 -578.99998254,0 0,-248.99999965 z"
         id="path23571"
         inkscape:connector-curvature="0" />
    </clipPath>
    <clipPath
       id="clipPath60734"
       clipPathUnits="userSpaceOnUse">
      <path
         inkscape:connector-curvature="0"
         id="path60736"
         d="m 3.81e-6,-1.272e-5 560.00000619,0 0,317.00004272 -560.00000619,0 0,-317.00004272 z" />
    </clipPath>
    <clipPath
       clipPathUnits="userSpaceOnUse"
       id="clipPath69639">
      <rect
         style="color:#000000;clip-rule:nonzero;display:inline;overflow:visible;visibility:visible;opacity:1;isolation:auto;mix-blend-mode:normal;color-interpolation:sRGB;color-interpolation-filters:linearRGB;solid-color:#000000;solid-opacity:1;fill:#0cc6de;fill-opacity:1;fill-rule:evenodd;stroke:#002f5f;stroke-width:0.24999999;stroke-linecap:butt;stroke-linejoin:miter;stroke-miterlimit:4;stroke-dasharray:none;stroke-dashoffset:0;stroke-opacity:1;marker:none;color-rendering:auto;image-rendering:auto;shape-rendering:auto;text-rendering:auto;enable-background:accumulate"
         id="rect69641"
         width="54.736801"
         height="26.370592"
         x="-18.673229"
         y="-61.491138" />
    </clipPath>
    <clipPath
       clipPathUnits="userSpaceOnUse"
       id="clipPath81171">
      <path
         d="m 3.81e-6,2.035e-5 560.00000619,0 0,419.99999965 -560.00000619,0 0,-419.99999965 z"
         id="path81173"
         inkscape:connector-curvature="0" />
    </clipPath>
    <clipPath
       clipPathUnits="userSpaceOnUse"
       id="clipPath83365">
      <rect
         style="color:#000000;clip-rule:nonzero;display:inline;overflow:visible;visibility:visible;opacity:1;isolation:auto;mix-blend-mode:normal;color-interpolation:sRGB;color-interpolation-filters:linearRGB;solid-color:#000000;solid-opacity:1;fill:#ffff00;fill-opacity:1;fill-rule:evenodd;stroke:none;stroke-width:0.24999999;stroke-linecap:butt;stroke-linejoin:miter;stroke-miterlimit:4;stroke-dasharray:none;stroke-dashoffset:0;stroke-opacity:1;marker:none;color-rendering:auto;image-rendering:auto;shape-rendering:auto;text-rendering:auto;enable-background:accumulate"
         id="rect83367"
         width="49.792061"
         height="29.734123"
         x="16.126984"
         y="6.0325375" />
    </clipPath>
  </defs>
  <metadata
     id="metadata5">
    <rdf:RDF>
      <cc:Work
         rdf:about="">
        <dc:format>image/svg+xml</dc:format>
        <dc:type
           rdf:resource="http://purl.org/dc/dcmitype/StillImage" />
        <dc:title></dc:title>
      </cc:Work>
    </rdf:RDF>
  </metadata>
  <g
     transform="translate(0,-257.00002)"
     id="layer1"
     inkscape:groupmode="layer"
     inkscape:label="Layer 1">
    <g
       transform="translate(31.787256,-1.2116218)"
       id="g13440" />
    <g
       transform="matrix(0.35277777,0,0,-0.35277777,83.744977,451.25797)"
       inkscape:label="inkscape-clipboard-import"
       inkscape:groupmode="layer"
       id="g2209">
      <path
         inkscape:connector-curvature="0"
         id="path2223"
         style="fill:none;stroke:#262626;stroke-width:0.70866144;stroke-linecap:square;stroke-linejoin:round;stroke-miterlimit:10;stroke-dasharray:none;stroke-opacity:1"
         d="M -235.40355,493.26832 H 100.49314" />
      <path
         inkscape:connector-curvature="0"
         id="path2515"
         style="fill:none;stroke:#0cc6de;stroke-width:0.70866144;stroke-linecap:butt;stroke-linejoin:round;stroke-miterlimit:10;stroke-dasharray:none;stroke-opacity:1"
         d="m -225.8875,493.48215 0.72271,0.005 0.72271,-0.0146 0.36135,-0.0164 0.36135,-0.023 0.36136,-0.0297 0.36136,-0.036 0.85245,-0.10483 0.85246,-0.11379 0.42623,-0.0496 0.21311,-0.0206 0.21312,-0.0169 0.2131,-0.0124 0.21312,-0.007 0.21311,-10e-4 0.21312,0.005 0.20614,0.0118 0.10307,0.009 0.10308,0.0105 0.10307,0.0123 0.10307,0.0143 0.10307,0.0162 0.10307,0.0183 0.10308,0.0203 0.10307,0.0223 0.10307,0.0244 0.10307,0.0264 0.20614,0.0589 0.20615,0.0667 0.20614,0.0742 0.20615,0.0812 0.20614,0.0874 0.20614,0.0926 0.4123,0.19665 0.41228,0.20249 0.37529,0.17817 0.18765,0.0832 0.18765,0.0772 0.0938,0.0359 0.0938,0.0338 0.0938,0.0315 0.0938,0.029 0.0938,0.0263 0.0938,0.0234 0.0938,0.0203 0.0938,0.017 0.0938,0.0136 0.0938,0.01 0.0938,0.006 0.0938,0.002 0.0938,-0.002 0.0938,-0.006 0.0938,-0.0109 0.0938,-0.0155 0.0938,-0.0203 0.0938,-0.0251 0.0938,-0.0301 0.0938,-0.0352 0.0938,-0.0403 0.0938,-0.0455 0.0938,-0.0507 0.0938,-0.056 0.0966,-0.0631 0.0966,-0.0687 0.0966,-0.0742 0.0966,-0.0797 0.0966,-0.0851 0.0966,-0.0905 0.0966,-0.0957 0.0966,-0.10075 0.19319,-0.21599 0.19318,-0.23392 0.19319,-0.24982 0.19319,-0.2633 0.38638,-0.55552 0.38637,-0.57128 0.38637,-0.55538 0.19319,-0.26076 0.19318,-0.24327 0.10031,-0.11784 0.1003,-0.11119 0.1003,-0.10386 0.1003,-0.0959 0.10031,-0.0872 0.1003,-0.078 0.1003,-0.068 0.1003,-0.0575 0.1003,-0.0464 0.10031,-0.0347 0.1003,-0.0225 0.1003,-0.01 0.1003,0.003 0.10031,0.0171 0.1003,0.0312 0.1003,0.0457 0.1003,0.0605 0.1003,0.0756 0.10031,0.0909 0.1003,0.10635 0.1003,0.12197 0.1003,0.13765 0.1003,0.15334 0.10031,0.16901 0.1003,0.18454 0.1003,0.19991 0.2006,0.44494 0.20061,0.5027 0.2006,0.55671 0.43451,1.36634 0.43451,1.52879 0.43451,1.60301 0.4345,1.57104 0.4345,1.42071 0.21726,0.61544 0.10863,0.27729 0.10863,0.2545 0.10863,0.2299 0.10862,0.20354 0.10862,0.17547 0.10863,0.14577 0.10863,0.11455 0.10863,0.0818 0.10862,0.0478 0.10863,0.0125 0.0883,-0.0166 0.0883,-0.0412 0.0883,-0.0662 0.0883,-0.0917 0.0883,-0.11757 0.0883,-0.14369 0.0883,-0.17005 0.0883,-0.19654 0.0883,-0.22312 0.0883,-0.2497 0.17654,-0.57871 0.17654,-0.68306 0.17652,-0.7845 0.17655,-0.88178 0.17653,-0.97352 0.17654,-1.05842 0.17654,-1.13518 0.17654,-1.20254 0.17654,-1.25929 0.35307,-2.64097 0.43889,-3.37247 0.21945,-1.65804 0.21944,-1.59904 0.21944,-1.50917 0.10973,-0.71124 0.10972,-0.67725 0.10972,-0.63952 0.10973,-0.59811 0.10972,-0.55312 0.10971,-0.5047 0.10973,-0.4529 0.10972,-0.39797 0.10972,-0.34 0.10973,-0.27922 0.10972,-0.21581 0.10971,-0.15 0.10973,-0.082 0.10973,-0.0121 0.10972,0.0594 0.10972,0.13227 0.10972,0.20626 0.10973,0.28101 0.10971,0.35623 0.10973,0.43159 0.10972,0.50676 0.10972,0.58141 0.0872,0.51458 0.0872,0.56059 0.0872,0.60586 0.0872,0.65028 0.0872,0.69369 0.0872,0.73598 0.0872,0.777 0.0872,0.81661 0.0872,0.85468 0.0872,0.8911 0.0872,0.92572 0.0872,0.95842 0.0872,0.98909 0.0872,1.01761 0.17435,2.11158 0.17434,2.19711 0.17435,2.26171 0.3487,4.62699 0.34869,4.60482 0.17434,2.23157 0.17435,2.15045 0.095,1.1283 0.095,1.0927 0.095,1.05312 0.095,1.00963 0.095,0.96233 0.095,0.91131 0.095,0.85668 0.095,0.79856 0.095,0.7371 0.095,0.67246 0.095,0.60479 0.095,0.53428 0.095,0.46111 0.095,0.38548 0.095,0.30763 0.095,0.22774 0.095,0.14607 0.095,0.0629 0.095,-0.0216 0.095,-0.10718 0.095,-0.19349 0.095,-0.2803 0.095,-0.36735 0.095,-0.45433 0.095,-0.54099 0.095,-0.62702 0.095,-0.71216 0.095,-0.79609 0.095,-0.87855 0.095,-0.95926 0.095,-1.03791 0.095,-1.11424 0.10192,-1.27767 0.10192,-1.35905 0.10192,-1.43651 0.10192,-1.50975 0.10191,-1.57846 0.10192,-1.64228 0.10193,-1.70096 0.10192,-1.75422 0.10192,-1.80178 0.10192,-1.84342 0.10192,-1.87891 0.10193,-1.90805 0.20383,-3.87728 0.20384,-3.91374 0.20384,-3.89466 0.20384,-3.81922 0.10193,-1.8637 0.10191,-1.82374 0.10193,-1.7769 0.10191,-1.72326 0.10192,-1.66298 0.10192,-1.59618 0.10192,-1.52312 0.10192,-1.44395 0.10193,-1.35893 0.10192,-1.26834 0.10192,-1.17245 0.10192,-1.0716 0.0946,-0.90064 0.0946,-0.80622 0.0946,-0.70862 0.0946,-0.60813 0.0947,-0.50504 0.0946,-0.39969 0.0946,-0.29238 0.0947,-0.18344 0.0946,-0.0732 0.0946,0.038 0.0946,0.14975 0.0946,0.26178 0.0946,0.37372 0.0946,0.48518 0.0947,0.59582 0.0946,0.7053 0.0946,0.81324 0.0946,0.91931 0.0946,1.02313 0.0946,1.1244 0.0946,1.22275 0.0946,1.31786 0.0946,1.40945 0.0946,1.49715 0.0946,1.58071 0.0947,1.6598 0.0946,1.73421 0.0946,1.80362 0.0947,1.86784 0.0946,1.9266 0.0946,1.97971 0.0946,2.027 0.10225,2.23634 0.10226,2.27673 0.20452,4.64259 0.20451,4.70672 0.2045,4.70408 0.20452,4.63422 0.10226,2.27005 0.10225,2.22771 0.10226,2.17732 0.10225,2.11903 0.10227,2.05305 0.10225,1.97959 0.10226,1.89892 0.10225,1.8113 0.10226,1.71708 0.10226,1.61655 0.10226,1.5101 0.10225,1.39812 0.10226,1.28099 0.10225,1.15916 0.10225,1.03305 0.10227,0.90314 0.10225,0.76992 0.10226,0.63384 0.10225,0.49542 0.10227,0.35519 0.10225,0.21364 0.10226,0.0713 0.10981,-0.0822 0.10982,-0.24635 0.10983,-0.40942 0.10982,-0.57075 0.10981,-0.72965 0.10982,-0.88544 0.10983,-1.03748 0.10981,-1.18509 0.10983,-1.32769 0.10982,-1.46464 0.10981,-1.59539 0.10982,-1.71939 0.10983,-1.83612 0.10981,-1.94508 0.10982,-2.04585 0.10982,-2.13799 0.10982,-2.22117 0.10982,-2.295 0.10982,-2.35924 0.10983,-2.41361 0.10981,-2.45792 0.10982,-2.49202 0.21964,-5.04492 0.21965,-5.05669 0.10981,-2.50683 0.10982,-2.47884 0.10982,-2.44079 0.10981,-2.3929 0.10983,-2.33541 0.10982,-2.2686 0.0871,-1.74534 0.0871,-1.69335 0.0871,-1.63722 0.0871,-1.57709 0.0871,-1.51314 0.0871,-1.44556 0.0871,-1.37454 0.0871,-1.30029 0.0871,-1.22304 0.0871,-1.14296 0.0871,-1.06035 0.0871,-0.97538 0.0871,-0.88831 0.0871,-0.79939 0.0871,-0.70887 0.0871,-0.61699 0.0871,-0.524 0.0871,-0.43017 0.0871,-0.33574 0.0871,-0.24097 0.0871,-0.14613 0.0871,-0.0514 0.0871,0.0428 0.0871,0.13637 0.0871,0.22903 0.0871,0.32052 0.0871,0.4106 0.0871,0.49907 0.0871,0.58566 0.0871,0.67016 0.0871,0.75238 0.0871,0.8321 0.10558,1.11204 0.10559,1.2201 0.10558,1.32261 0.10559,1.41919 0.10558,1.50955 0.1056,1.59336 0.10557,1.67034 0.1056,1.74028 0.10558,1.80294 0.10559,1.85816 0.10558,1.90577 0.10559,1.94571 0.21117,3.97991 0.21117,4.04562 0.21117,4.04881 0.21118,3.99075 0.10558,1.95503 0.10559,1.9186 0.10558,1.87528 0.10558,1.82531 0.10559,1.76898 0.10558,1.70658 0.10559,1.63842 0.10558,1.56484 0.1056,1.48621 0.10557,1.40288 0.1056,1.31525 0.10558,1.22369 0.0913,0.98173 0.0913,0.90863 0.0913,0.83377 0.0913,0.75737 0.0913,0.67968 0.0913,0.60096 0.0913,0.52143 0.0913,0.44134 0.0913,0.36096 0.0913,0.28049 0.0913,0.2002 0.0913,0.12032 0.0913,0.0411 0.0913,-0.0373 0.0913,-0.11462 0.0913,-0.19063 0.0913,-0.26512 0.0913,-0.3379 0.0913,-0.40878 0.0913,-0.47756 0.0913,-0.54408 0.0913,-0.60816 0.0913,-0.66965 0.0913,-0.72839 0.0913,-0.78426 0.0913,-0.83712 0.0913,-0.88686 0.0913,-0.93336 0.0913,-0.97655 0.0913,-1.01632 0.0913,-1.05262 0.0913,-1.08539 0.20724,-2.56609 0.20725,-2.67392 0.41449,-5.50093 0.20724,-2.74351 0.20725,-2.68559 0.20725,-2.59035 0.10361,-1.24854 0.10363,-1.21202 0.10362,-1.17167 0.10363,-1.12773 0.10361,-1.08043 0.10362,-1.03002 0.10363,-0.97674 0.10361,-0.92085 0.10363,-0.86262 0.10362,-0.80231 0.10363,-0.7402 0.10361,-0.67656 0.10363,-0.61165 0.10362,-0.54577 0.10363,-0.47917 0.10361,-0.41213 0.10363,-0.34492 0.10362,-0.2778 0.0933,-0.19292 0.0933,-0.13924 0.0933,-0.0861 0.0933,-0.0338 0.0933,0.0177 0.0933,0.0682 0.0933,0.11743 0.0933,0.16539 0.0933,0.21194 0.0933,0.25693 0.0933,0.30027 0.0933,0.34184 0.0933,0.38156 0.0933,0.41933 0.0933,0.45507 0.0933,0.48873 0.18655,1.06969 0.18655,1.17767 0.18655,1.26711 0.18655,1.33766 0.37309,2.81107 0.37309,2.86841 0.39013,2.9095 0.19508,1.37611 0.19506,1.30261 0.19508,1.2154 0.19506,1.1163 0.19508,1.00721 0.19506,0.89012 0.19508,0.76697 0.19506,0.63978 0.0975,0.27144 0.0975,0.239 0.0975,0.20656 0.0975,0.17429 0.0975,0.14223 0.0975,0.11054 0.0975,0.0793 0.0975,0.0486 0.0975,0.0186 0.0975,-0.0108 0.0975,-0.0393 0.0975,-0.0669 0.0994,-0.0956 0.0994,-0.12214 0.0994,-0.14755 0.0994,-0.17177 0.0994,-0.1947 0.0994,-0.21632 0.19872,-0.49201 0.19872,-0.56171 0.19872,-0.61977 0.39745,-1.36632 0.79488,-2.91754 0.39744,-1.38402 0.39745,-1.24236 0.19695,-0.54703 0.19694,-0.49505 0.19695,-0.43948 0.0985,-0.19804 0.0985,-0.18326 0.0985,-0.16829 0.0985,-0.15322 0.0985,-0.13809 0.0985,-0.12296 0.0985,-0.1079 0.0985,-0.0929 0.0985,-0.0781 0.0985,-0.0635 0.0985,-0.0492 0.0985,-0.0352 0.0985,-0.0215 0.0985,-0.008 0.0985,0.005 0.0985,0.0173 0.0985,0.0292 0.0985,0.0407 0.0985,0.0517 0.0985,0.0621 0.0985,0.0719 0.0985,0.0812 0.0985,0.0898 0.0985,0.0978 0.0985,0.10524 0.0985,0.11202 0.19685,0.24173 0.19684,0.26128 0.39368,0.5614 0.39369,0.58194 0.39369,0.5685 0.19684,0.27001 0.19685,0.25637 0.19684,0.24014 0.19684,0.2217 0.0984,0.10337 0.0984,0.0981 0.0984,0.0928 0.0984,0.0872 0.0984,0.0816 0.0984,0.0759 0.0984,0.0702 0.0984,0.0644 0.10237,0.0608 0.10236,0.0545 0.10236,0.0483 0.10236,0.0422 0.10236,0.0361 0.10236,0.0301 0.10236,0.0243 0.10236,0.0186 0.10236,0.013 0.10237,0.008 0.10235,0.002 0.10237,-0.002 0.10236,-0.007 0.10235,-0.0117 0.10237,-0.016 0.10236,-0.0201 0.10236,-0.0239 0.10236,-0.0274 0.10236,-0.0307 0.10236,-0.0338 0.10236,-0.0365 0.10236,-0.039 0.20472,-0.0846 0.20472,-0.0915 0.20474,-0.0965 0.40944,-0.20019 0.37814,-0.18376 0.37814,-0.17328 0.18906,-0.0804 0.18908,-0.0752 0.18906,-0.0695 0.18907,-0.0633 0.18907,-0.0568 0.18907,-0.05 0.18907,-0.0432 0.18907,-0.0363 0.18906,-0.0295 0.18908,-0.023 0.18906,-0.0166 0.18908,-0.0106 0.21267,-0.005 0.21267,0.001 0.21268,0.007 0.21268,0.0124 0.21268,0.0168 0.21267,0.0205 0.42536,0.0494 0.8507,0.11352 0.85071,0.10479 0.36224,0.0362 0.36222,0.0299 0.36223,0.0231 0.36222,0.0165 0.72447,0.0147 0.72446,-0.005" />
      <path
         inkscape:connector-curvature="0"
         id="path2519"
         style="fill:none;stroke:#ee7219;stroke-width:0.70866144;stroke-linecap:butt;stroke-linejoin:round;stroke-miterlimit:10;stroke-dasharray:none;stroke-opacity:1"
         d="m -225.8875,493.41314 1.44542,0.0873 0.7227,0.0452 0.36136,0.0181 0.36136,0.0127 0.42623,0.006 0.2131,-0.002 0.21312,-0.006 0.21312,-0.009 0.21311,-0.0136 0.21311,-0.018 0.21312,-0.0225 0.21312,-0.0271 0.21311,-0.0317 0.21311,-0.0362 0.21312,-0.0406 0.42622,-0.0928 0.42623,-0.10507 0.41229,-0.1081 0.41228,-0.10778 0.20615,-0.0513 0.20614,-0.0482 0.20614,-0.0438 0.20615,-0.0383 0.10307,-0.0167 0.10307,-0.0149 0.10308,-0.0129 0.10307,-0.0108 0.10307,-0.008 0.10307,-0.006 0.10307,-0.003 0.10307,-8.1e-4 0.10308,0.002 0.10307,0.005 0.10307,0.008 0.10308,0.0113 0.10306,0.0146 0.10308,0.018 0.10307,0.0214 0.10307,0.0249 0.0938,0.0258 0.0938,0.0288 0.0938,0.0319 0.0938,0.0349 0.0938,0.038 0.0938,0.041 0.0938,0.044 0.0938,0.047 0.0938,0.05 0.0938,0.0529 0.18766,0.1143 0.18764,0.12502 0.18765,0.13486 0.18765,0.1436 0.18764,0.15107 0.3753,0.31826 0.3753,0.32741 0.37529,0.3192 0.19318,0.15477 0.1932,0.14456 0.0966,0.0676 0.0966,0.0639 0.0966,0.0599 0.0966,0.0555 0.0966,0.0507 0.0966,0.0456 0.0966,0.0401 0.0966,0.0343 0.0966,0.0281 0.0966,0.0216 0.0966,0.0148 0.0966,0.008 0.0966,2.4e-4 0.0966,-0.007 0.0966,-0.0154 0.0966,-0.0236 0.0966,-0.032 0.0966,-0.0407 0.0966,-0.0494 0.0966,-0.0584 0.0966,-0.0674 0.0966,-0.0765 0.0966,-0.0857 0.0966,-0.0949 0.0966,-0.10416 0.0966,-0.11333 0.0966,-0.12243 0.0966,-0.13142 0.20061,-0.30097 0.2006,-0.33724 0.20061,-0.37098 0.2006,-0.40146 0.40121,-0.8778 0.40121,-0.94316 0.40121,-0.95846 0.40121,-0.91557 0.2006,-0.42196 0.2006,-0.38713 0.10031,-0.17795 0.1003,-0.16616 0.1003,-0.15338 0.1003,-0.1396 0.10863,-0.13453 0.10863,-0.11604 0.10863,-0.0964 0.10862,-0.0757 0.10863,-0.0539 0.10862,-0.0311 0.10863,-0.007 0.10863,0.0171 0.10862,0.0424 0.10863,0.0684 0.10863,0.095 0.10863,0.12198 0.10861,0.14936 0.10863,0.17702 0.10863,0.20482 0.10863,0.23264 0.10863,0.26038 0.10863,0.28787 0.21724,0.65672 0.21726,0.76075 0.21726,0.85818 0.21725,0.94683 0.21725,1.02456 0.43451,2.22829 0.70615,3.83243 0.35308,1.83618 0.17654,0.85785 0.17652,0.80195 0.17655,0.73436 0.17653,0.65529 0.17654,0.56521 0.0883,0.24553 0.0883,0.21913 0.0883,0.19153 0.0883,0.1628 0.0883,0.13297 0.0883,0.10213 0.0883,0.0703 0.0883,0.0376 0.0883,0.004 0.0883,-0.0301 0.10972,-0.0861 0.10973,-0.14097 0.10972,-0.19672 0.10972,-0.25308 0.10973,-0.30981 0.10972,-0.36667 0.10972,-0.42342 0.10972,-0.47978 0.10972,-0.5355 0.10972,-0.59033 0.10973,-0.64399 0.10972,-0.69622 0.10972,-0.74676 0.10973,-0.79531 0.10972,-0.84165 0.10971,-0.88551 0.10973,-0.92663 0.10972,-0.96475 0.21945,-2.03077 0.21943,-2.14168 0.21946,-2.22082 0.43889,-4.53804 0.21944,-2.24142 0.21944,-2.17014 0.17434,-1.64652 0.17436,-1.55582 0.0872,-0.73768 0.0872,-0.70761 0.0872,-0.67514 0.0872,-0.64034 0.0872,-0.60326 0.0872,-0.56396 0.0872,-0.52253 0.0872,-0.47903 0.0872,-0.43358 0.0872,-0.38622 0.0872,-0.33711 0.0872,-0.28632 0.0872,-0.23398 0.0872,-0.18022 0.0872,-0.12514 0.0872,-0.0689 0.0872,-0.0116 0.0872,0.0466 0.0872,0.1055 0.0872,0.16501 0.0872,0.22498 0.0872,0.28522 0.0872,0.34558 0.0872,0.40591 0.0872,0.46601 0.0872,0.52573 0.0872,0.58492 0.0872,0.6434 0.095,0.76646 0.095,0.83343 0.095,0.89877 0.095,0.96227 0.095,1.02366 0.095,1.08275 0.095,1.13929 0.095,1.19306 0.095,1.24386 0.095,1.29148 0.095,1.3357 0.095,1.37635 0.095,1.41326 0.095,1.44623 0.18995,2.97488 0.18995,3.05588 0.18995,3.10052 0.18995,3.10728 0.18996,3.07509 0.18995,3.0034 0.095,1.46246 0.095,1.42973 0.095,1.39215 0.095,1.34978 0.095,1.30269 0.095,1.25098 0.10192,1.2798 0.10192,1.20969 0.10192,1.13436 0.10192,1.05405 0.10191,0.96902 0.10192,0.87948 0.10193,0.78576 0.10192,0.68813 0.10192,0.58695 0.10192,0.4825 0.10192,0.37517 0.10193,0.26532 0.10191,0.15332 0.10192,0.0396 0.10191,-0.0755 0.10193,-0.19152 0.10192,-0.30804 0.10192,-0.42465 0.10192,-0.5409 0.10192,-0.65639 0.10193,-0.77064 0.10191,-0.88325 0.10193,-0.99376 0.10191,-1.10176 0.10192,-1.20683 0.10192,-1.30854 0.10192,-1.40648 0.10192,-1.50028 0.10193,-1.58954 0.10192,-1.67388 0.10192,-1.75298 0.10192,-1.82645 0.0946,-1.75663 0.0946,-1.80993 0.0946,-1.85806 0.0946,-1.90083 0.0947,-1.93808 0.0946,-1.96963 0.18928,-4.01044 0.37855,-8.13583 0.18928,-4.02605 0.0947,-1.98065 0.0946,-1.95077 0.0946,-1.91474 0.0946,-1.87263 0.0946,-1.82454 0.0946,-1.77061 0.0946,-1.71095 0.0946,-1.64575 0.0946,-1.57518 0.0946,-1.49941 0.0946,-1.4187 0.0947,-1.33326 0.0946,-1.24333 0.0946,-1.14918 0.0947,-1.05113 0.0946,-0.9494 0.0946,-0.84437 0.0946,-0.73631 0.10225,-0.67103 0.10226,-0.53883 0.10226,-0.40417 0.10226,-0.26752 0.10225,-0.12942 0.10226,0.01 0.10225,0.14916 0.10225,0.28861 0.10227,0.42749 0.10225,0.56527 0.10226,0.70143 0.10225,0.8355 0.10226,0.96694 0.10225,1.09527 0.10227,1.22001 0.10225,1.34068 0.10226,1.45684 0.10225,1.56805 0.10226,1.67387 0.10226,1.77392 0.10226,1.86781 0.10225,1.95519 0.10226,2.03574 0.10225,2.1091 0.10225,2.17507 0.10227,2.23333 0.10225,2.28369 0.10226,2.32597 0.20452,4.74556 0.20451,4.81404 0.21963,5.16822 0.10983,2.55758 0.10982,2.52586 0.10981,2.48381 0.10982,2.43159 0.10983,2.36942 0.10981,2.29759 0.10983,2.21643 0.10982,2.12626 0.10981,2.0275 0.10982,1.92058 0.10983,1.80596 0.10981,1.68416 0.10982,1.5557 0.10982,1.42113 0.10982,1.28104 0.10982,1.13607 0.10982,0.9868 0.10983,0.83392 0.10981,0.67806 0.10982,0.51991 0.10982,0.36013 0.10982,0.19944 0.10982,0.0385 0.10983,-0.12202 0.10981,-0.2814 0.10982,-0.43899 0.10982,-0.59413 0.10981,-0.74615 0.10983,-0.89443 0.10982,-1.03837 0.0871,-0.92237 0.0871,-1.00705 0.0871,-1.08877 0.0871,-1.16736 0.0871,-1.24261 0.0871,-1.31433 0.0871,-1.38234 0.0871,-1.44648 0.0871,-1.5066 0.0871,-1.56255 0.0871,-1.6142 0.0871,-1.66143 0.0871,-1.70415 0.0871,-1.74223 0.0871,-1.77564 0.0871,-1.80429 0.17416,-3.67523 0.17415,-3.73167 0.17415,-3.74906 0.17415,-3.72767 0.17415,-3.66817 0.0871,-1.80014 0.0871,-1.77151 0.0871,-1.73846 0.0871,-1.70114 0.0871,-1.65968 0.0871,-1.61421 0.10558,-1.89082 0.10559,-1.81172 0.10558,-1.72643 0.10559,-1.63532 0.10558,-1.5388 0.1056,-1.43732 0.10557,-1.33129 0.1056,-1.22118 0.10558,-1.10748 0.10559,-0.99065 0.10558,-0.87118 0.10559,-0.74958 0.10558,-0.62634 0.10559,-0.50196 0.10558,-0.37694 0.10559,-0.25179 0.10558,-0.12699 0.10559,-0.003 0.10559,0.11959 0.10559,0.24041 0.10558,0.35899 0.10559,0.47488 0.10558,0.58765 0.10558,0.69687 0.10559,0.80218 0.10558,0.90322 0.10559,0.99959 0.10558,1.09101 0.1056,1.17715 0.10557,1.25775 0.1056,1.33257 0.10558,1.40136 0.0913,1.26257 0.0913,1.30524 0.0913,1.34372 0.0913,1.37793 0.18261,2.84112 0.18262,2.92561 0.36524,5.96424 0.18262,2.9694 0.18262,2.91627 0.18262,2.83137 0.0913,1.37438 0.0913,1.34208 0.0913,1.30634 0.0913,1.26733 0.0913,1.22523 0.0913,1.18017 0.0913,1.13235 0.0913,1.08193 0.0913,1.02911 0.0913,0.97406 0.0913,0.917 0.0913,0.85811 0.0913,0.79758 0.0913,0.73564 0.10363,0.75825 0.10361,0.67544 0.10363,0.59152 0.10362,0.50678 0.10361,0.42162 0.10363,0.33633 0.10362,0.25125 0.10363,0.16672 0.10361,0.083 0.10363,5.4e-4 0.10362,-0.0806 0.10363,-0.15996 0.10362,-0.2373 0.10363,-0.31237 0.10361,-0.38493 0.10363,-0.45475 0.10362,-0.52158 0.10363,-0.58525 0.10361,-0.64556 0.10362,-0.70236 0.10363,-0.75546 0.10361,-0.80475 0.10363,-0.85012 0.10362,-0.89145 0.10363,-0.92867 0.10361,-0.96172 0.20725,-2.00564 0.20724,-2.08687 0.20725,-2.13416 0.37309,-3.8556 0.18655,-1.88695 0.18655,-1.83096 0.18654,-1.75519 0.18655,-1.66133 0.18656,-1.55123 0.0933,-0.72981 0.0933,-0.69709 0.0933,-0.66295 0.0933,-0.62747 0.0933,-0.59082 0.0933,-0.55314 0.0933,-0.51454 0.0933,-0.47519 0.0933,-0.43522 0.0933,-0.39476 0.0933,-0.35396 0.0933,-0.31294 0.0933,-0.27185 0.0933,-0.23081 0.0933,-0.18994 0.0933,-0.14939 0.0933,-0.10926 0.0933,-0.0697 0.0975,-0.0312 0.0975,0.0105 0.0975,0.0512 0.0975,0.0907 0.0975,0.12908 0.0975,0.16609 0.0975,0.20167 0.0975,0.23575 0.0975,0.26821 0.0975,0.29899 0.19506,0.68337 0.19508,0.78492 0.19506,0.8712 0.19508,0.94176 0.19506,0.99638 0.39014,2.09328 0.39014,2.1255 0.39013,2.04506 0.39746,1.9002 0.19872,0.85445 0.19872,0.77935 0.19872,0.69766 0.19872,0.61089 0.19873,0.52054 0.0994,0.22568 0.0994,0.20244 0.0994,0.17914 0.0994,0.15591 0.0994,0.13281 0.0994,0.10992 0.0994,0.0873 0.0994,0.0651 0.0994,0.0433 0.0994,0.022 0.0994,10e-4 0.0994,-0.0189 0.0994,-0.0383 0.0994,-0.057 0.0994,-0.075 0.0994,-0.0921 0.0994,-0.10837 0.0994,-0.12376 0.0985,-0.13694 0.0985,-0.15022 0.0985,-0.16259 0.0985,-0.17399 0.19695,-0.37834 0.19694,-0.41233 0.3939,-0.8956 0.39391,-0.94017 0.39389,-0.92925 0.39389,-0.87023 0.19695,-0.40045 0.19695,-0.37191 0.19694,-0.34012 0.19695,-0.30576 0.0984,-0.1393 0.0984,-0.13006 0.0984,-0.12066 0.0984,-0.11118 0.0984,-0.10164 0.0984,-0.0921 0.0984,-0.0825 0.0984,-0.073 0.0984,-0.0636 0.0984,-0.0542 0.0984,-0.045 0.0984,-0.036 0.0984,-0.0272 0.0984,-0.0186 0.0984,-0.0102 0.0984,-0.002 0.0984,0.006 0.0984,0.0131 0.0984,0.0203 0.0984,0.0271 0.0984,0.0336 0.0984,0.0397 0.0984,0.0455 0.0984,0.0509 0.0984,0.0559 0.0984,0.0605 0.0984,0.0647 0.0984,0.0685 0.19684,0.14695 0.19685,0.15761 0.40945,0.34893 0.40944,0.35674 0.40945,0.34251 0.20471,0.16017 0.20473,0.15029 0.20472,0.13891 0.10236,0.0648 0.10236,0.0615 0.10236,0.0582 0.10236,0.0547 0.10236,0.0512 0.10236,0.0476 0.10236,0.044 0.10236,0.0403 0.10237,0.0367 0.10237,0.0331 0.10235,0.0295 0.10237,0.026 0.10236,0.0224 0.10236,0.019 0.0945,0.0146 0.0945,0.0118 0.0945,0.009 0.0945,0.006 0.0945,0.004 0.0945,0.001 0.0945,-0.001 0.0946,-0.003 0.0945,-0.005 0.0945,-0.007 0.0945,-0.009 0.0945,-0.0113 0.18906,-0.0275 0.18907,-0.0334 0.18907,-0.0384 0.18907,-0.0425 0.37814,-0.0935 0.75628,-0.19838 0.42534,-0.10486 0.42536,-0.0926 0.21268,-0.0405 0.21267,-0.0362 0.21269,-0.0317 0.21267,-0.0272 0.21267,-0.0225 0.21268,-0.018 0.21268,-0.0137 0.21267,-0.01 0.21268,-0.006 0.21268,-0.002 0.42535,0.005 0.36224,0.0126 0.36222,0.0181 0.72445,0.0453 1.44893,0.0875" />
      <path
         inkscape:connector-curvature="0"
         id="path2523"
         style="fill:none;stroke:#0cc6de;stroke-width:0.70866144;stroke-linecap:butt;stroke-linejoin:round;stroke-miterlimit:10;stroke-dasharray:none;stroke-opacity:1"
         d="m -103.9853,493.45472 6.464103,-0.0839 1.906167,-0.0849 1.906143,-0.0681 0.953076,-0.0118 0.953071,0.0113 0.953072,0.0389 0.953071,0.068 0.921904,0.0914 0.921904,0.11049 0.921903,0.11927 0.921904,0.11397 0.46095,0.0498 0.460953,0.0421 0.46095,0.0321 0.460954,0.02 0.46095,0.006 0.230475,-0.003 0.230475,-0.007 0.230478,-0.0113 0.230475,-0.0157 0.230475,-0.0202 0.230475,-0.0248 0.209796,-0.0266 0.209793,-0.0304 0.419588,-0.0721 0.419588,-0.0866 0.419613,-0.10001 0.419588,-0.11181 0.419588,-0.1215 0.839173,-0.26126 0.839201,-0.26324 0.419588,-0.12269 0.419588,-0.11113 0.209797,-0.0499 0.209792,-0.0454 0.20982,-0.0404 0.209792,-0.0348 0.209792,-0.0288 0.209796,-0.0223 0.209793,-0.0154 0.209796,-0.008 0.215986,-1.9e-4 0.215989,0.008 0.21599,0.0172 0.21599,0.0263 0.215986,0.0356 0.21599,0.045 0.215989,0.0544 0.21599,0.0639 0.21601,0.0732 0.215966,0.0824 0.216014,0.0912 0.215965,0.0998 0.21601,0.10787 0.21599,0.11546 0.21599,0.12242 0.21599,0.1287 0.431975,0.27307 0.43198,0.28787 0.863951,0.58611 0.43198,0.27904 0.21599,0.13153 0.215985,0.12445 0.21599,0.11605 0.21599,0.10635 0.21599,0.0954 0.215986,0.0832 0.224281,0.0722 0.224305,0.0565 0.224281,0.0397 0.224258,0.0218 0.224305,0.003 0.224281,-0.0166 0.224281,-0.0368 0.224282,-0.0576 0.224281,-0.0786 0.224281,-0.0998 0.224282,-0.12084 0.224281,-0.14166 0.224281,-0.16197 0.224277,-0.18161 0.224282,-0.20031 0.224281,-0.21789 0.224281,-0.23413 0.224281,-0.2488 0.448563,-0.53441 0.448587,-0.56947 0.448562,-0.58541 0.448563,-0.57998 0.448562,-0.55164 0.224281,-0.25781 0.224278,-0.24184 0.224281,-0.22296 0.224281,-0.20122 0.24289,-0.19022 0.242915,-0.15818 0.24289,-0.12306 0.24289,-0.0851 0.242914,-0.0448 0.24289,-0.002 0.24289,0.0419 0.24289,0.0873 0.242914,0.13351 0.242891,0.17991 0.24289,0.226 0.24289,0.27124 0.242914,0.31501 0.242886,0.35677 0.24289,0.3959 0.242914,0.43185 0.485781,0.95602 0.485804,1.04799 0.971584,2.19097 0.485805,1.03976 0.24289,0.48205 0.24289,0.44771 0.24289,0.4067 0.242914,0.35928 0.24289,0.3058 0.242886,0.24671 0.197381,0.15341 0.197381,0.10859 0.197381,0.0616 0.197377,0.0128 0.197357,-0.0374 0.197381,-0.0888 0.197381,-0.14081 0.197377,-0.19313 0.197381,-0.2453 0.197357,-0.29688 0.197377,-0.34742 0.197381,-0.39647 0.197381,-0.44356 0.197381,-0.48824 0.394734,-1.0987 0.394761,-1.23761 0.394758,-1.34214 0.789496,-2.83344 0.789496,-2.72108 0.394758,-1.19541 0.197381,-0.53519 0.197357,-0.48586 0.245351,-0.52707 0.245356,-0.43287 0.245328,-0.32999 0.245351,-0.21954 0.245356,-0.10277 0.245328,0.0189 0.245351,0.14401 0.245356,0.27091 0.245351,0.39791 0.245328,0.52327 0.245356,0.64518 0.245351,0.76187 0.245352,0.87151 0.245331,0.97238 0.245352,1.06277 0.245352,1.14111 0.490683,2.46171 0.490683,2.59632 0.490703,2.59232 0.490683,2.44147 0.245352,1.11798 0.245356,1.02557 0.245351,0.91617 0.245328,0.79087 0.245355,0.65099 0.245352,0.49815 0.245352,0.33419 0.245331,0.16117 0.194916,1.2e-4 0.194939,-0.11574 0.19492,-0.23289 0.194939,-0.35032 0.194916,-0.4669 0.194919,-0.58156 0.19494,-0.69318 0.194915,-0.80066 0.19492,-0.90292 0.194939,-0.99889 0.194916,-1.08751 0.194943,-1.16785 0.194915,-1.23892 0.194916,-1.29989 0.389859,-2.73844 0.779714,-5.68787 0.389859,-2.73921 0.194915,-1.29629 0.19492,-1.22973 0.194939,-1.15035 0.194916,-1.05867 0.194943,-0.95531 0.194916,-0.84105 0.194915,-0.71675 0.194943,-0.58344 0.194916,-0.44223 0.194915,-0.29436 0.212382,-0.1461 0.212377,0.0409 0.212358,0.23083 0.212378,0.42165 0.212377,0.61114 0.212382,0.79704 0.212353,0.97714 0.212382,1.14917 0.212377,1.311 0.212354,1.46049 0.212381,1.59565 0.212378,1.71462 0.212353,1.81566 0.212382,1.89723 0.424735,3.95481 0.424755,4.01829 0.212357,1.97426 0.212378,1.91922 0.212381,1.84055 0.212354,1.73876 0.212378,1.61465 0.212381,1.46932 0.212378,1.30414 0.212353,1.12074 0.212382,0.92105 0.212377,0.70718 0.212358,0.48152 0.212377,0.24659 0.212378,0.005 0.212357,-0.24007 0.22789,-0.53115 0.227913,-0.8114 0.227894,-1.0847 0.227913,-1.34701 0.22789,-1.59444 0.227913,-1.82316 0.227894,-2.02958 0.22789,-2.21036 0.227913,-2.36245 0.227894,-2.48318 0.227913,-2.57027 0.22789,-2.62191 0.455807,-5.25068 0.227889,-2.55325 0.227914,-2.45493 0.227894,-2.3198 0.227913,-2.14926 0.22789,-1.94524 0.227889,-1.71023 0.227918,-1.4472 0.227889,-1.15959 0.22789,-0.85131 0.227917,-0.52658 0.227914,-0.18997 0.227889,0.15365 0.227894,0.49931 0.227914,0.84185 0.227889,1.17611 0.22789,1.49694 0.227917,1.79938 0.227914,2.07858 0.211598,2.15588 0.211622,2.34725 0.211627,2.51034 0.211622,2.64267 0.211622,2.74211 0.211623,2.80697 0.423224,5.66426 0.211622,2.78361 0.211623,2.7021 0.211622,2.58436 0.211622,2.43158 0.211627,2.24539 0.211598,2.02785 0.211622,1.78158 0.211623,1.5095 0.211622,1.21498 0.211622,0.90176 0.211626,0.57381 0.211623,0.23542 0.211598,-0.10896 0.211622,-0.45476 0.211623,-0.79727 0.211626,-1.13186 0.211622,-1.45386 0.211623,-1.7588 0.211622,-2.04233 0.211598,-2.30038 0.211626,-2.52917 0.211623,-2.7253 0.211622,-2.88576 0.211622,-3.00803 0.228649,-3.3411 0.228645,-3.38419 0.228649,-3.37341 0.228645,-3.30844 0.228672,-3.18984 0.228645,-3.01905 0.228645,-2.7984 0.228673,-2.53101 0.228644,-2.22093 0.228649,-1.87279 0.228645,-1.49206 0.2286492,-1.0847 0.228668,-0.6572 0.228649,-0.21648 0.228645,0.23025 0.228673,0.67569 0.228645,1.11238 0.228648,1.533 0.228645,1.93044 0.228649,2.29788 0.228669,2.62895 0.228648,2.91788 0.228669,3.1595 0.228649,3.34946 0.228621,3.48421 0.228673,3.56114 0.228644,3.57858 0.228649,3.5359 0.228669,3.43346 0.228649,3.27265 0.228644,3.05593 0.228649,2.78667 0.245572,2.63803 0.245571,2.21899 0.245571,1.75501 0.245552,1.25505 0.245571,0.72894 0.245548,0.18702 0.245571,-0.35994 0.245575,-0.901 0.245548,-1.42527 0.245571,-1.92212 0.245575,-2.38141 0.245548,-2.79375 0.245571,-3.15057 0.245572,-3.44446 0.245575,-3.66923 0.245547,-3.82004 0.245572,-3.89364 0.24554698,-3.88825 0.245575,-3.80377 0.245548,-3.64175 0.245571,-3.40531 0.245572,-3.09916 0.245575,-2.72949 0.245571,-2.30382 0.245548,-1.83087 0.24557102,-1.3204 0.245552,-0.78301 0.245571,-0.22985 0.245571,0.3275 0.245548,0.87739 0.245575,1.40823 0.245547,1.90888 0.19472,1.84276 0.194724,2.10732 0.194696,2.34363 0.194723,2.54853 0.194696,2.71929 0.194696,2.85362 0.194723,2.94973 0.194696,3.00634 0.389419,6.02134 0.1947,2.93446 0.19472,2.83108 0.194696,2.68994 0.194723,2.51297 0.194696,2.3026 0.1947,2.06176 0.194719,1.79373 0.194696,1.50222 0.194724,1.19124 0.194719,0.86507 0.194676,0.5282 0.19472,0.18529 0.194723,-0.15896 0.194696,-0.49978 0.19472,-0.83252 0.1947,-1.15255 0.194695,-1.45551 0.194724,-1.73721 0.194696,-1.99383 0.194719,-2.22182 0.1947,-2.41813 0.194696,-2.58006 0.236109,-3.29315 0.236085,-3.40921 0.236109,-3.45487 0.236113,-3.42947 0.236085,-3.3338 0.2360848,-3.17016 0.23611,-2.94219 0.236085,-2.65494 0.236109,-2.31465 0.236085,-1.92868 0.236109,-1.50531 0.236109,-1.05357 0.236061,-0.58313 0.236109,-0.10395 0.23611,0.37384 0.236085,0.84015 0.236113,1.2852 0.236085,1.69968 0.236109,2.07497 0.236085,2.40336 0.236085,2.67813 0.236109,2.89376 0.236086,3.04606 0.236109,3.13216 0.236109,3.15068 0.236085,3.10171 0.236085,2.98676 0.236109,2.80883 0.236085,2.57222 0.236113,2.28249 0.236085,1.94635 0.23611,1.57149 0.204158,1.03322 0.204186,0.71598 0.204157,0.38994 0.204186,0.0605 0.204186,-0.26694 0.204182,-0.58697 0.204162,-0.89438 0.204186,-1.18423 0.204158,-1.45182 0.204186,-1.69296 0.204158,-1.9038 0.204186,-2.08114 0.204182,-2.22229 0.204162,-2.3252 0.408368,-4.79989 0.204186,-2.39398 0.204158,-2.33682 0.204186,-2.24125 0.204162,-2.10922 0.204182,-1.9433 0.204162,-1.74659 0.204182,-1.52271 0.204162,-1.2757 0.204186,-1.00999 0.204182,-0.73025 0.204185,-0.44137 0.204158,-0.14838 0.204186,0.14368 0.204186,0.42985 0.204158,0.70528 0.204186,0.96536 0.231694,1.38553 0.231698,1.66025 0.231717,1.89451 0.231694,2.08359 0.231721,2.22387 0.231694,2.31283 0.463415,4.68177 0.231722,2.26442 0.231694,2.14666 0.231721,1.98271 0.231694,1.77681 0.231694,1.53424 0.231721,1.26095 0.231694,0.96354 0.231721,0.64913 0.231694,0.32505 0.231722,-10e-4 0.231717,-0.322 0.231698,-0.63028 0.231718,-0.91909 0.231669,-1.18213 0.231722,-1.41374 0.231694,-1.60903 0.231721,-1.76412 0.231718,-1.87598 0.463415,-3.90629 0.231698,-1.93863 0.231717,-1.86932 0.231698,-1.75792 0.231718,-1.60773 0.208549,-1.28996 0.20855,-1.11823 0.208577,-0.92817 0.208573,-0.7237 0.208574,-0.50894 0.208549,-0.28814 0.208578,-0.0656 0.208549,0.15433 0.208574,0.36752 0.208549,0.56997 0.208573,0.75793 0.208578,0.92803 0.208573,1.07726 0.20855,1.20307 0.208573,1.3034 0.208554,1.37674 0.417147,2.86114 0.417126,2.81663 0.208574,1.3237 0.208549,1.23391 0.208574,1.12171 0.208577,0.98968 0.208574,0.84078 0.208549,0.67823 0.20855,0.50548 0.208573,0.32613 0.208553,0.14385 0.208574,-0.0377 0.208573,-0.21489 0.208574,-0.38431 0.218087,-0.5711 0.218112,-0.72824 0.21806,-0.86623 0.218111,-0.98239 0.218088,-1.07465 0.218108,-1.14141 0.436175,-2.37698 0.436195,-2.32567 0.218088,-1.08033 0.218107,-0.99476 0.218088,-0.88911 0.218088,-0.76613 0.218083,-0.62893 0.218112,-0.48087 0.218088,-0.32548 0.218107,-0.1664 0.218088,-0.007 0.218088,0.14832 0.218083,0.29696 0.218112,0.43547 0.218087,0.56092 0.218108,0.67078 0.218088,0.76289 0.218087,0.83558 0.436196,1.80592 0.436195,1.84257 0.436175,1.71282 0.222184,0.77412 0.222159,0.68523 0.222184,0.58232 0.222183,0.46816 0.222183,0.34578 0.222184,0.21832 0.222159,0.0889 0.222184,-0.0392 0.222183,-0.16305 0.222184,-0.2797 0.222159,-0.38654 0.222183,-0.48121 0.222184,-0.56172 0.222183,-0.62648 0.444343,-1.3788 0.444367,-1.42784 0.444343,-1.33781 0.222183,-0.59567 0.222184,-0.52882 0.222183,-0.45085 0.222184,-0.36399 0.222159,-0.27061 0.222184,-0.17321 0.222183,-0.0743 0.222183,0.0236 0.22216,0.11812 0.222183,0.20699 0.222184,0.28812 0.222183,0.35973 0.220182,0.41628 0.220185,0.46379 0.440415,1.01849 0.440367,1.05062 0.22021,0.50461 0.220185,0.4746 0.220206,0.4337 0.220185,0.38326 0.220182,0.3248 0.220209,0.26003 0.220181,0.19072 0.22021,0.11878 0.220185,0.0461 0.220182,-0.0256 0.220209,-0.0943 0.220182,-0.15861 0.220209,-0.21688 0.220186,-0.26784 0.220181,-0.31043 0.22021,-0.34383 0.440391,-0.74842 0.440367,-0.76229 0.220209,-0.36197 0.220206,-0.33732 0.220185,-0.30482 0.220182,-0.26558 0.220185,-0.22079 0.220206,-0.1718 0.220089,-0.11994 0.220086,-0.0668 0.220061,-0.0137 0.220086,0.038 0.220062,0.087 0.220085,0.13205 0.220062,0.17219 0.220085,0.20651 0.220086,0.23428 0.220086,0.255 0.440151,0.54258 0.440171,0.53682 0.220086,0.24884 0.220061,0.22757 0.220086,0.20103 0.220061,0.17011 0.220086,0.13579 0.220062,0.0991 0.220085,0.061 0.220088,0.0227 0.22009,-0.0149 0.22006,-0.0507 0.22008,-0.0839 0.22009,-0.11364 0.22009,-0.13928 0.22006,-0.16026 0.22008,-0.17619 0.22006,-0.18679 0.44015,-0.38377 0.22892,-0.19372 0.22886,-0.1825 0.2289,-0.16637 0.22888,-0.14597 0.2289,-0.12208 0.22888,-0.0955 0.22887,-0.0672 0.22892,-0.038 0.22886,-0.009 0.22889,0.0195 0.2289,0.0461 0.22888,0.0702 0.22887,0.0914 0.22889,0.10892 0.22889,0.12253 0.22889,0.13193 0.45776,0.27479 0.22892,0.13437 0.22886,0.12708 0.22889,0.11625 0.22889,0.10236 0.22889,0.0859 0.22889,0.0676 0.22887,0.048 0.22889,0.0277 0.22889,0.007 0.22889,-0.0121 0.22887,-0.0306 0.22891,-0.0473 0.22887,-0.062 0.22889,-0.074 0.21138,-0.0767 0.21138,-0.0823 0.42278,-0.17185 0.2114,-0.0849 0.21138,-0.0812 0.21138,-0.0756 0.21138,-0.0682 0.21138,-0.0592 0.2114,-0.0491 0.21138,-0.0381 0.21141,-0.0264 0.21137,-0.0146 0.21138,-0.003 0.21139,0.008 0.2114,0.0191 0.21138,0.0288 0.21137,0.0374 0.21138,0.0446 0.21139,0.0502 0.42278,0.11109 0.42278,0.1144 0.21138,0.0545 0.21138,0.0509 0.21138,0.046 0.2114,0.04 0.21138,0.0333 0.21141,0.0259 0.21137,0.0181 0.21138,0.0101 0.47556,-0.006 0.47556,-0.0407 0.47556,-0.067 0.47557,-0.0817 0.47555,-0.084 0.47554,-0.0747 0.47559,-0.0562 0.47556,-0.0317 0.47556,-0.005 0.47553,0.0191 0.47556,0.0386 0.47556,0.0508 0.47559,0.0547 0.47556,0.0507 0.47554,0.04 0.47556,0.0248 0.80998,0.003 0.80997,-0.0383 0.80997,-0.0579 0.80997,-0.0518 0.80996,-0.0267 0.80997,0.005 0.80997,0.0284 0.80996,0.0369" />
      <path
         inkscape:connector-curvature="0"
         id="path2527"
         style="fill:none;stroke:#ee7219;stroke-width:0.70866144;stroke-linecap:butt;stroke-linejoin:round;stroke-miterlimit:10;stroke-dasharray:none;stroke-opacity:1"
         d="m -103.9853,493.38981 3.23205,0.0697 1.616039,0.0376 1.616014,0.0198 1.906167,-0.0225 1.906143,-0.0874 1.906147,-0.13891 0.953072,-0.0735 0.953071,-0.0631 0.921904,-0.0404 0.460954,-0.009 0.46095,-2.7e-4 0.460949,0.01 0.460954,0.0203 0.46095,0.0315 0.460954,0.043 0.46095,0.0543 0.460953,0.065 0.46095,0.0749 0.460954,0.0832 0.9219,0.18365 0.921903,0.18927 0.419589,0.0812 0.419588,0.0745 0.419588,0.065 0.419613,0.0528 0.209792,0.021 0.209796,0.017 0.209792,0.0126 0.209796,0.008 0.209792,0.003 0.209797,-0.002 0.209792,-0.007 0.209792,-0.0128 0.209796,-0.0185 0.209816,-0.0243 0.209797,-0.0302 0.209792,-0.0361 0.209796,-0.0421 0.209792,-0.0479 0.209796,-0.0537 0.209792,-0.0594 0.209797,-0.0649 0.209792,-0.0702 0.20982,-0.0751 0.209792,-0.0798 0.419588,-0.17192 0.419589,-0.18531 0.863955,-0.40431 0.431976,-0.20202 0.431979,-0.19319 0.21601,-0.0911 0.215966,-0.0863 0.216014,-0.0805 0.215965,-0.0739 0.21601,-0.0664 0.21599,-0.058 0.21599,-0.0489 0.21599,-0.0389 0.215985,-0.0283 0.21599,-0.0169 0.21599,-0.005 0.21599,0.008 0.215986,0.0205 0.215989,0.0338 0.21599,0.0474 0.215986,0.0611 0.21599,0.0749 0.21599,0.0887 0.21599,0.10227 0.215985,0.11557 0.21599,0.12843 0.21599,0.14076 0.21599,0.15241 0.215986,0.16326 0.224281,0.17999 0.224305,0.18951 0.448539,0.40209 0.897149,0.85154 0.448562,0.41999 0.224282,0.20149 0.224281,0.19302 0.224281,0.18242 0.224277,0.16972 0.224282,0.15492 0.224281,0.13812 0.224281,0.11936 0.224281,0.0987 0.224282,0.0764 0.224281,0.0525 0.224305,0.0272 0.224282,5.4e-4 0.224281,-0.027 0.224281,-0.0554 0.224281,-0.0843 0.224282,-0.11357 0.224281,-0.14284 0.224281,-0.17184 0.224281,-0.20028 0.224278,-0.22785 0.224281,-0.25425 0.224281,-0.27919 0.24289,-0.32841 0.242915,-0.35291 0.48578,-0.7667 0.971584,-1.66895 0.485805,-0.83022 0.48578,-0.77428 0.242914,-0.35328 0.242886,-0.32393 0.24289,-0.28966 0.242914,-0.25068 0.24289,-0.20729 0.242891,-0.15981 0.24289,-0.10868 0.242914,-0.0544 0.24289,0.003 0.242914,0.0616 0.24289,0.1221 0.24289,0.18329 0.24289,0.24448 0.242915,0.30495 0.24289,0.36388 0.24289,0.42052 0.24289,0.47406 0.242914,0.52374 0.485776,1.17714 0.394762,1.05739 0.394758,1.11618 0.789496,2.27215 0.394738,1.08157 0.394758,0.9938 0.197381,0.45205 0.197381,0.41597 0.197353,0.37547 0.197381,0.33078 0.19738,0.28213 0.197381,0.22984 0.197377,0.17424 0.197381,0.11573 0.197357,0.0547 0.197381,-0.008 0.197377,-0.073 0.197381,-0.13871 0.197357,-0.20492 0.197377,-0.27111 0.197381,-0.33666 0.197381,-0.40105 0.197381,-0.46362 0.197377,-0.52384 0.394738,-1.21581 0.490707,-1.78267 0.490679,-2.01029 0.981391,-4.30931 0.490679,-2.07295 0.490707,-1.85962 0.245352,-0.81338 0.245331,-0.71745 0.245352,-0.6089 0.245352,-0.48883 0.245331,-0.35859 0.245352,-0.21969 0.245351,-0.0738 0.245332,0.0771 0.245352,0.23124 0.245351,0.38638 0.245356,0.54035 0.245327,0.69096 0.245352,0.83593 0.245356,0.97302 0.245351,1.10003 0.245328,1.21482 0.245355,1.31541 0.245352,1.39989 0.490683,2.9807 0.779714,4.88636 0.389835,2.32461 0.19494,1.09322 0.194915,1.03242 0.19492,0.96096 0.194939,0.87927 0.194916,0.78789 0.194943,0.68748 0.194915,0.57876 0.194916,0.46262 0.194943,0.33996 0.194916,0.21182 0.194939,0.0793 0.19492,-0.0565 0.194915,-0.19425 0.19494,-0.33275 0.194919,-0.47069 0.19494,-0.60676 0.194915,-0.73959 0.19492,-0.86785 0.194939,-0.99025 0.194916,-1.10545 0.194943,-1.21225 0.194916,-1.30941 0.194915,-1.39584 0.194943,-1.47047 0.389831,-3.11304 0.424759,-3.54162 0.424736,-3.5453 0.212377,-1.72302 0.212382,-1.66253 0.212353,-1.58178 0.212382,-1.48134 0.212377,-1.36195 0.212354,-1.22468 0.212381,-1.07076 0.212378,-0.9017 0.212353,-0.71918 0.212382,-0.52512 0.212377,-0.32159 0.212358,-0.11083 0.212377,0.1048 0.212378,0.3228 0.212357,0.54062 0.212378,0.75565 0.212381,0.96525 0.212354,1.16682 0.212378,1.35777 0.212381,1.5356 0.212378,1.69794 0.212353,1.84254 0.212382,1.96732 0.212377,2.07041 0.212358,2.15021 0.212377,2.2053 0.424735,4.47189 0.22789,2.37303 0.227913,2.31128 0.227894,2.21615 0.227913,2.08839 0.22789,1.92922 0.227913,1.74039 0.227894,1.52408 0.22789,1.28289 0.227913,1.01989 0.227894,0.73848 0.227913,0.4424 0.22789,0.13571 0.227889,-0.17736 0.227918,-0.49233 0.227889,-0.80468 0.227914,-1.1098 0.227894,-1.40313 0.227913,-1.68017 0.22789,-1.93662 0.227889,-2.16838 0.227918,-2.37165 0.227889,-2.54302 0.22789,-2.67943 0.227917,-2.77836 0.455803,-5.69397 0.227894,-2.83277 0.227914,-2.76722 0.227889,-2.65992 0.22789,-2.51189 0.227917,-2.32476 0.227914,-2.10084 0.211598,-1.72052 0.211622,-1.47361 0.211627,-1.20503 0.211622,-0.9181 0.211622,-0.61628 0.211623,-0.30339 0.211622,0.0166 0.211602,0.33956 0.211622,0.66128 0.211623,0.97744 0.211622,1.28388 0.211622,1.57634 0.211627,1.85081 0.211598,2.10342 0.211622,2.33056 0.211623,2.52892 0.211622,2.69552 0.211622,2.82779 0.211626,2.92357 0.211623,2.9812 0.42322,5.97734 0.211623,2.91605 0.211626,2.81461 0.211622,2.6745 0.211623,2.49723 0.211622,2.28486 0.211598,2.03998 0.211626,1.76559 0.211623,1.46522 0.211622,1.14273 0.211622,0.80236 0.228649,0.4691 0.228645,0.0457 0.228649,-0.38157 0.228645,-0.80575 0.228672,-1.21996 0.228645,-1.61738 0.228645,-1.99136 0.228673,-2.33564 0.228644,-2.64427 0.228649,-2.91196 0.228645,-3.13392 0.2286492,-3.30616 0.228668,-3.4254 0.228649,-3.48931 0.228645,-3.49635 0.228673,-3.44599 0.228645,-3.33864 0.228648,-3.17566 0.228645,-2.95936 0.228649,-2.69299 0.228669,-2.38066 0.228648,-2.0273 0.228669,-1.63853 0.228649,-1.22074 0.228621,-0.78074 0.228673,-0.32584 0.228644,0.13634 0.228649,0.59801 0.228669,1.05132 0.228649,1.48848 0.228644,1.90196 0.228649,2.28458 0.245572,2.83659 0.245571,3.18004 0.245571,3.46198 0.245552,3.67648 0.245571,3.81897 0.245548,3.88621 0.245571,3.87652 0.245575,3.78977 0.245548,3.62731 0.245571,3.39214 0.245575,3.08869 0.245548,2.7228 0.245571,2.30169 0.245572,1.83367 0.245575,1.32812 0.245547,0.79521 0.245572,0.24571 0.24554698,-0.30914 0.245575,-0.85802 0.245548,-1.38964 0.245571,-1.89299 0.245572,-2.35764 0.245575,-2.77391 0.245571,-3.13309 0.245548,-3.42759 0.24557102,-3.65122 0.245552,-3.79919 0.245571,-3.86831 0.245571,-3.85706 0.245548,-3.76558 0.245575,-3.59572 0.245547,-3.351 0.19472,-2.4367 0.194724,-2.20701 0.194696,-1.9485 0.194723,-1.6646 0.194696,-1.35914 0.194696,-1.03617 0.194723,-0.70003 0.194696,-0.35526 0.194724,-0.006 0.194695,0.34164 0.1947,0.68437 0.19472,1.01707 0.194696,1.3353 0.194723,1.63471 0.194696,1.9113 0.1947,2.16129 0.194719,2.38134 0.194696,2.56847 0.194724,2.72019 0.194719,2.83446 0.194676,2.90978 0.19472,2.94517 0.194723,2.94025 0.194696,2.89512 0.19472,2.81051 0.1947,2.68768 0.194695,2.52838 0.194724,2.33492 0.194696,2.11008 0.194719,1.85703 0.1947,1.5794 0.194696,1.28111 0.236109,1.13002 0.236085,0.64704 0.236109,0.1536 0.236113,-0.34011 0.236085,-0.82385 0.2360848,-1.28768 0.23611,-1.72203 0.236085,-2.11802 0.236109,-2.46757 0.236085,-2.76363 0.236109,-3.00024 0.236109,-3.17276 0.236061,-3.27788 0.236109,-3.31377 0.23611,-3.28004 0.236085,-3.17779 0.236113,-3.00956 0.236085,-2.77931 0.236109,-2.49231 0.236085,-2.155 0.236085,-1.77486 0.236109,-1.36032 0.236086,-0.92045 0.236109,-0.46482 0.236109,-0.003 0.236085,0.45401 0.236085,0.89747 0.236109,1.3175 0.236085,1.70525 0.236113,2.05253 0.236085,2.35215 0.23611,2.59794 0.204158,2.39975 0.204186,2.49951 0.408343,5.13136 0.204186,2.5475 0.204182,2.47993 0.204162,2.37237 0.204186,2.22692 0.204158,2.04628 0.204186,1.83372 0.204158,1.59301 0.204186,1.32838 0.204182,1.04446 0.204162,0.74609 0.204186,0.4384 0.204182,0.1266 0.204186,-0.18403 0.204158,-0.48834 0.204186,-0.78123 0.204162,-1.05792 0.204182,-1.31386 0.204162,-1.54496 0.204182,-1.74752 0.204162,-1.9184 0.204186,-2.05501 0.204182,-2.15535 0.408343,-4.46056 0.204186,-2.22857 0.204186,-2.17694 0.204158,-2.08887 0.204186,-1.96624 0.231694,-2.04232 0.231698,-1.801 0.231717,-1.52336 0.231694,-1.21603 0.231721,-0.88621 0.231694,-0.54151 0.231722,-0.18984 0.231693,0.16088 0.231722,0.50276 0.231694,0.8283 0.231721,1.13037 0.231694,1.40249 0.231694,1.63892 0.231721,1.83482 0.231694,1.98631 0.231721,2.09057 0.463416,4.29764 0.231717,2.10868 0.231698,2.0184 0.231718,1.88365 0.231669,1.70819 0.231722,1.49666 0.231694,1.25445 0.231721,0.98763 0.231718,0.70271 0.231697,0.40659 0.231718,0.10627 0.231698,-0.1912 0.231717,-0.47894 0.231698,-0.75043 0.231718,-0.99959 0.208549,-1.08996 0.20855,-1.24583 0.208577,-1.37551 0.208573,-1.47693 0.208574,-1.54862 0.208549,-1.58961 0.417127,-3.17858 0.208574,-1.52845 0.208549,-1.44957 0.208573,-1.3443 0.208578,-1.21503 0.208573,-1.06473 0.20855,-0.89657 0.208573,-0.71416 0.208554,-0.52123 0.208573,-0.32173 0.208574,-0.11963 0.208573,0.081 0.208553,0.27644 0.208574,0.46281 0.208549,0.63665 0.208574,0.79476 0.208577,0.93434 0.208574,1.05293 0.208549,1.14857 0.20855,1.21979 0.208573,1.26558 0.417127,2.56524 0.208573,1.24866 0.208574,1.19348 0.218087,1.1645 0.218112,1.05598 0.21806,0.92677 0.218111,0.78011 0.218088,0.61956 0.218108,0.4489 0.218087,0.27211 0.218088,0.0932 0.218084,-0.0839 0.218111,-0.25521 0.218088,-0.41712 0.218107,-0.56623 0.218088,-0.69948 0.218088,-0.81425 0.218083,-0.90836 0.218112,-0.98015 0.436195,-2.08125 0.436176,-2.08265 0.218083,-0.9838 0.218112,-0.91695 0.218087,-0.83105 0.218108,-0.7285 0.218088,-0.61194 0.218087,-0.48436 0.218084,-0.34888 0.218112,-0.20879 0.218087,-0.0673 0.218108,0.0722 0.218064,0.20663 0.218111,0.33306 0.222184,0.45818 0.222159,0.56432 0.222184,0.65435 0.222183,0.72649 0.444367,1.59189 0.444343,1.64282 0.444367,1.53654 0.222159,0.68378 0.222183,0.60702 0.222184,0.51766 0.222183,0.41815 0.222184,0.31121 0.222159,0.19962 0.222184,0.0862 0.222183,-0.0262 0.222184,-0.13491 0.222159,-0.23729 0.222183,-0.33104 0.222184,-0.41406 0.222183,-0.48459 0.222184,-0.54123 0.444343,-1.19204 0.444366,-1.23364 0.444343,-1.15322 0.222184,-0.51198 0.222183,-0.45321 0.220182,-0.38175 0.220185,-0.30719 0.22021,-0.22728 0.220205,-0.1441 0.220186,-0.0598 0.220181,0.0234 0.22021,0.10364 0.220185,0.1789 0.220206,0.24745 0.220185,0.30779 0.220182,0.35866 0.220209,0.39903 0.440391,0.87404 0.440367,0.89777 0.220209,0.42941 0.220182,0.40247 0.220209,0.36622 0.220186,0.32187 0.220181,0.27076 0.22021,0.21442 0.220181,0.15443 0.22021,0.0924 0.220181,0.03 0.220186,-0.0311 0.220209,-0.0895 0.220206,-0.14371 0.220185,-0.1925 0.220182,-0.23475 0.220185,-0.26962 0.220206,-0.29639 0.440175,-0.63853 0.440147,-0.64225 0.220062,-0.30183 0.220085,-0.279 0.220062,-0.2497 0.220085,-0.2149 0.220086,-0.17568 0.220086,-0.1332 0.220061,-0.0887 0.22009,-0.0434 0.220085,10e-4 0.220086,0.0448 0.220086,0.0854 0.220061,0.12237 0.220086,0.15482 0.220061,0.18205 0.220086,0.20352 0.220062,0.21883 0.440173,0.45823 0.22009,0.22679 0.22006,0.21727 0.22008,0.20228 0.22009,0.18243 0.22009,0.15841 0.22006,0.13101 0.22008,0.10109 0.22006,0.0695 0.22009,0.0373 0.22006,0.005 0.22892,-0.0275 0.22886,-0.059 0.2289,-0.0876 0.22888,-0.11244 0.2289,-0.13305 0.22888,-0.14896 0.22887,-0.15985 0.22892,-0.16559 0.22886,-0.16623 0.22889,-0.16192 0.2289,-0.15298 0.22888,-0.13985 0.22887,-0.12308 0.22889,-0.10333 0.22889,-0.0813 0.22889,-0.0577 0.22889,-0.0333 0.22887,-0.009 0.22892,0.0147 0.22886,0.037 0.22889,0.0572 0.22889,0.0749 0.22889,0.0896 0.22889,0.10095 0.22887,0.1088 0.22889,0.11301 0.22889,0.11364 0.22889,0.11077 0.22887,0.10464 0.22891,0.0956 0.22887,0.084 0.22889,0.0703 0.21138,0.0514 0.21138,0.0376 0.2114,0.0233 0.21138,0.009 0.2114,-0.005 0.21138,-0.0184 0.21138,-0.0307 0.21138,-0.0417 0.21138,-0.0511 0.2114,-0.0589 0.21138,-0.0647 0.21141,-0.0686 0.42275,-0.14085 0.21139,-0.0684 0.2114,-0.0648 0.21138,-0.0595 0.21137,-0.0528 0.21138,-0.045 0.21139,-0.0363 0.2114,-0.027 0.21138,-0.0174 0.2114,-0.008 0.21138,0.002 0.21138,0.011 0.21138,0.0193 0.21138,0.0269 0.2114,0.0333 0.21138,0.0386 0.21141,0.0426 0.42275,0.0919 0.47556,0.10282 0.23777,0.047 0.23779,0.0421 0.23777,0.0359 0.23779,0.0288 0.23777,0.021 0.2378,0.0128 0.23776,0.005 0.23779,-0.003 0.23777,-0.0107 0.23777,-0.0174 0.23779,-0.0231 0.2378,-0.0278 0.47556,-0.0646 0.47556,-0.0681 0.47553,-0.0619 0.2378,-0.026 0.23776,-0.0217 0.2378,-0.0169 0.23776,-0.0116 0.2378,-0.006 0.23779,-10e-4 0.23777,0.004 0.23779,0.009 0.47554,0.0292 0.47556,0.0398 0.80998,0.0733 0.80997,0.0547 0.80997,0.0183 0.80997,-0.019 0.80996,-0.0424 0.80997,-0.0452 1.61993,-0.0353" />
    </g>
    <g
       transform="matrix(0.4,0,0,0.4,-18.594439,211.87233)"
       ns0:version="0.11.0"
       ns0:texconverter="pdflatex"
       ns0:pdfconverter="pdf2svg"
       ns0:text="$\\mathrm{Re} \\Psi(x,t)$"
       ns0:preamble="/home/phyps/Dropbox/Talks/1710 Bristol Colloquium teleportation/preamble.tex"
       ns0:scale="2.83464566935"
       ns0:alignment="middle center"
       inkscapeversion="0.91"
       ns0:jacobian_sqrt="0.4"
       style="fill:#ee7219;fill-opacity:1;stroke:#000000;stroke-opacity:1"
       id="g2969">
      <g
         id="surface1"
         style="fill:#ee7219;fill-opacity:1;stroke:#000000;stroke-opacity:1">
        <g
           style="fill:#ee7219;fill-opacity:1;stroke:#000000;stroke-opacity:1"
           id="g2952">
          <path
             inkscape:connector-curvature="0"
             style="fill:#ee7219;fill-opacity:1;stroke:#000000;stroke-width:0;stroke-opacity:1"
             d="M 2.234375,-3.515625 V -6.09375 c 0,-0.234375 0,-0.359375 0.21875,-0.390625 C 2.546875,-6.5 2.84375,-6.5 3.046875,-6.5 c 0.890625,0 2,0.046875 2,1.484375 0,0.6875 -0.234375,1.5 -1.703125,1.5 z m 2.109375,0.125 C 5.296875,-3.625 6.078125,-4.234375 6.078125,-5.015625 6.078125,-5.96875 4.9375,-6.8125 3.484375,-6.8125 H 0.34375 V -6.5 h 0.25 c 0.765625,0 0.78125,0.109375 0.78125,0.46875 v 5.25 c 0,0.359375 -0.015625,0.46875 -0.78125,0.46875 h -0.25 V 0 c 0.359375,-0.03125 1.078125,-0.03125 1.453125,-0.03125 0.390625,0 1.109375,0 1.46875,0.03125 v -0.3125 h -0.25 c -0.765625,0 -0.78125,-0.109375 -0.78125,-0.46875 V -3.296875 H 3.375 c 0.15625,0 0.578125,0 0.9375,0.34375 0.375,0.34375 0.375,0.65625 0.375,1.328125 0,0.640625 0,1.046875 0.40625,1.421875 0.40625,0.359375 0.953125,0.421875 1.25,0.421875 0.78125,0 0.953125,-0.8125 0.953125,-1.09375 0,-0.0625 0,-0.171875 -0.125,-0.171875 -0.109375,0 -0.109375,0.09375 -0.125,0.15625 C 6.984375,-0.171875 6.640625,0 6.390625,0 5.90625,0 5.828125,-0.515625 5.6875,-1.4375 L 5.546875,-2.234375 C 5.375,-2.875 4.890625,-3.203125 4.34375,-3.390625 Z m 0,0"
             transform="translate(148.712,134.765)"
             id="path2944" />
          <path
             inkscape:connector-curvature="0"
             style="fill:#ee7219;fill-opacity:1;stroke:#000000;stroke-width:0;stroke-opacity:1"
             d="M 1.109375,-2.515625 C 1.171875,-4 2.015625,-4.25 2.359375,-4.25 c 1.015625,0 1.125,1.34375 1.125,1.734375 z m 0,0.21875 h 2.78125 c 0.21875,0 0.25,0 0.25,-0.21875 0,-0.984375 -0.546875,-1.953125 -1.78125,-1.953125 -1.15625,0 -2.078125,1.03125 -2.078125,2.28125 0,1.328125 1.046875,2.296875 2.1875,2.296875 C 3.6875,0.109375 4.140625,-1 4.140625,-1.1875 4.140625,-1.28125 4.0625,-1.3125 4,-1.3125 c -0.078125,0 -0.109375,0.0625 -0.125,0.140625 -0.34375,1.03125 -1.25,1.03125 -1.34375,1.03125 -0.5,0 -0.890625,-0.296875 -1.125,-0.671875 -0.296875,-0.46875 -0.296875,-1.125 -0.296875,-1.484375 z m 0,0"
             transform="translate(156.04547,134.765)"
             id="path2946" />
          <path
             inkscape:connector-curvature="0"
             style="fill:#ee7219;fill-opacity:1;stroke:#000000;stroke-width:0;stroke-opacity:1"
             d="M 4.25,-6.015625 C 4.25,-6.359375 4.25,-6.5 5.203125,-6.5 H 5.53125 v -0.3125 c -0.359375,0.03125 -1.28125,0.03125 -1.6875,0.03125 -0.40625,0 -1.328125,0 -1.6875,-0.03125 V -6.5 h 0.328125 c 0.9375,0 0.9375,0.125 0.9375,0.484375 V -1.59375 C 2.125,-1.9375 2.078125,-3.484375 2.078125,-4.125 2.0625,-5.328125 1.625,-5.515625 1.1875,-5.515625 h -0.375 c -0.140625,0 -0.25,0 -0.25,0.109375 0,0.046875 0.03125,0.09375 0.09375,0.109375 0.328125,0.03125 0.578125,0.171875 0.59375,1.34375 0,0.234375 0.03125,1.015625 0.5,1.6875 0.390625,0.546875 1,0.828125 1.671875,0.921875 v 0.5625 c 0,0.328125 0,0.46875 -0.9375,0.46875 H 2.15625 V 0 c 0.359375,-0.03125 1.265625,-0.03125 1.6875,-0.03125 0.40625,0 1.328125,0 1.6875,0.03125 V -0.3125 H 5.203125 C 4.25,-0.3125 4.25,-0.4375 4.25,-0.78125 v -0.5625 C 4.96875,-1.4375 5.578125,-1.734375 5.96875,-2.25 6.484375,-2.953125 6.5,-3.75 6.5,-4.1875 c 0,-0.15625 0.015625,-1.046875 0.546875,-1.109375 0.0625,-0.015625 0.125,-0.03125 0.125,-0.109375 0,-0.109375 -0.078125,-0.109375 -0.234375,-0.109375 h -0.375 c -0.390625,0 -0.875,0.0625 -0.890625,1.515625 C 5.65625,-2.90625 5.328125,-1.859375 4.25,-1.59375 Z m 0,0"
             transform="translate(160.47285,134.765)"
             id="path2948" />
          <path
             inkscape:connector-curvature="0"
             style="fill:#ee7219;fill-opacity:1;stroke:#000000;stroke-width:0;stroke-opacity:1"
             d="m 3.296875,2.390625 c 0,-0.03125 0,-0.046875 -0.171875,-0.21875 C 1.890625,0.921875 1.5625,-0.96875 1.5625,-2.5 c 0,-1.734375 0.375,-3.46875 1.609375,-4.703125 0.125,-0.125 0.125,-0.140625 0.125,-0.171875 0,-0.078125 -0.03125,-0.109375 -0.09375,-0.109375 -0.109375,0 -1,0.6875 -1.59375,1.953125 -0.5,1.09375 -0.625,2.203125 -0.625,3.03125 0,0.78125 0.109375,1.984375 0.65625,3.125 C 2.25,1.84375 3.09375,2.5 3.203125,2.5 c 0.0625,0 0.09375,-0.03125 0.09375,-0.109375 z m 0,0"
             transform="translate(168.22176,134.765)"
             id="path2950" />
        </g>
        <g
           style="fill:#ee7219;fill-opacity:1;stroke:#000000;stroke-opacity:1"
           id="g2958">
          <path
             inkscape:connector-curvature="0"
             style="fill:#ee7219;fill-opacity:1;stroke:#000000;stroke-width:0;stroke-opacity:1"
             d="M 3.328125,-3.015625 C 3.390625,-3.265625 3.625,-4.1875 4.3125,-4.1875 c 0.046875,0 0.296875,0 0.5,0.125 C 4.53125,-4 4.34375,-3.765625 4.34375,-3.515625 c 0,0.15625 0.109375,0.34375 0.375,0.34375 0.21875,0 0.53125,-0.171875 0.53125,-0.578125 0,-0.515625 -0.578125,-0.65625 -0.921875,-0.65625 -0.578125,0 -0.921875,0.53125 -1.046875,0.75 -0.25,-0.65625 -0.78125,-0.75 -1.078125,-0.75 -1.03125,0 -1.609375,1.28125 -1.609375,1.53125 0,0.109375 0.109375,0.109375 0.125,0.109375 0.078125,0 0.109375,-0.03125 0.125,-0.109375 0.34375,-1.0625 1,-1.3125 1.34375,-1.3125 0.1875,0 0.53125,0.09375 0.53125,0.671875 0,0.3125 -0.171875,0.96875 -0.53125,2.375 -0.15625,0.609375 -0.515625,1.03125 -0.953125,1.03125 -0.0625,0 -0.28125,0 -0.5,-0.125 0.25,-0.0625 0.46875,-0.265625 0.46875,-0.546875 0,-0.265625 -0.21875,-0.34375 -0.359375,-0.34375 -0.3125,0 -0.546875,0.25 -0.546875,0.578125 0,0.453125 0.484375,0.65625 0.921875,0.65625 0.671875,0 1.03125,-0.703125 1.046875,-0.75 0.125,0.359375 0.484375,0.75 1.078125,0.75 1.03125,0 1.59375,-1.28125 1.59375,-1.53125 0,-0.109375 -0.078125,-0.109375 -0.109375,-0.109375 -0.09375,0 -0.109375,0.046875 -0.140625,0.109375 -0.328125,1.078125 -1,1.3125 -1.3125,1.3125 -0.390625,0 -0.546875,-0.3125 -0.546875,-0.65625 0,-0.21875 0.046875,-0.4375 0.15625,-0.875 z m 0,0"
             transform="translate(172.097,134.765)"
             id="path2954" />
          <path
             inkscape:connector-curvature="0"
             style="fill:#ee7219;fill-opacity:1;stroke:#000000;stroke-width:0;stroke-opacity:1"
             d="m 2.03125,-0.015625 c 0,-0.65625 -0.25,-1.046875 -0.640625,-1.046875 -0.328125,0 -0.53125,0.25 -0.53125,0.53125 C 0.859375,-0.265625 1.0625,0 1.390625,0 1.5,0 1.640625,-0.046875 1.734375,-0.125 1.765625,-0.15625 1.78125,-0.15625 1.78125,-0.15625 c 0.015625,0 0.015625,0 0.015625,0.140625 0,0.75 -0.34375,1.34375 -0.671875,1.671875 -0.109375,0.109375 -0.109375,0.125 -0.109375,0.15625 0,0.078125 0.046875,0.109375 0.09375,0.109375 0.109375,0 0.921875,-0.765625 0.921875,-1.9375 z m 0,0"
             transform="translate(177.79063,134.765)"
             id="path2956" />
        </g>
        <g
           style="fill:#ee7219;fill-opacity:1;stroke:#000000;stroke-opacity:1"
           id="g2962">
          <path
             inkscape:connector-curvature="0"
             style="fill:#ee7219;fill-opacity:1;stroke:#000000;stroke-width:0;stroke-opacity:1"
             d="m 2.046875,-3.984375 h 0.9375 c 0.203125,0 0.3125,0 0.3125,-0.203125 0,-0.109375 -0.109375,-0.109375 -0.28125,-0.109375 h -0.875 C 2.5,-5.71875 2.546875,-5.90625 2.546875,-5.96875 c 0,-0.171875 -0.125,-0.265625 -0.296875,-0.265625 -0.03125,0 -0.3125,0 -0.390625,0.359375 L 1.46875,-4.296875 h -0.9375 c -0.203125,0 -0.296875,0 -0.296875,0.1875 0,0.125 0.078125,0.125 0.28125,0.125 h 0.875 C 0.671875,-1.15625 0.625,-0.984375 0.625,-0.8125 0.625,-0.265625 1,0.109375 1.546875,0.109375 2.5625,0.109375 3.125,-1.34375 3.125,-1.421875 3.125,-1.53125 3.046875,-1.53125 3.015625,-1.53125 2.921875,-1.53125 2.90625,-1.5 2.859375,-1.390625 2.4375,-0.34375 1.90625,-0.109375 1.5625,-0.109375 c -0.203125,0 -0.3125,-0.125 -0.3125,-0.453125 0,-0.25 0.03125,-0.3125 0.0625,-0.484375 z m 0,0"
             transform="translate(182.22199,134.765)"
             id="path2960" />
        </g>
        <g
           style="fill:#ee7219;fill-opacity:1;stroke:#000000;stroke-opacity:1"
           id="g2966">
          <path
             inkscape:connector-curvature="0"
             style="fill:#ee7219;fill-opacity:1;stroke:#000000;stroke-width:0;stroke-opacity:1"
             d="m 2.875,-2.5 c 0,-0.765625 -0.109375,-1.96875 -0.65625,-3.109375 -0.59375,-1.21875 -1.453125,-1.875 -1.546875,-1.875 -0.0625,0 -0.109375,0.046875 -0.109375,0.109375 0,0.03125 0,0.046875 0.1875,0.234375 0.984375,0.984375 1.546875,2.5625 1.546875,4.640625 0,1.71875 -0.359375,3.46875 -1.59375,4.71875 C 0.5625,2.34375 0.5625,2.359375 0.5625,2.390625 0.5625,2.453125 0.609375,2.5 0.671875,2.5 0.765625,2.5 1.671875,1.8125 2.25,0.546875 2.765625,-0.546875 2.875,-1.65625 2.875,-2.5 Z m 0,0"
             transform="translate(185.816,134.765)"
             id="path2964" />
        </g>
      </g>
    </g>
    <g
       id="g4302"
       style="fill:#0cc6de;fill-opacity:1;stroke:#000000;stroke-opacity:1"
       ns0:jacobian_sqrt="0.4"
       inkscapeversion="0.91"
       ns0:alignment="middle center"
       ns0:scale="2.83464566935"
       ns0:preamble="/home/phyps/Dropbox/Talks/1710 Bristol Colloquium teleportation/preamble.tex"
       ns0:text="$\\mathrm{Im} \\Psi(x,t)$"
       ns0:pdfconverter="pdf2svg"
       ns0:texconverter="pdflatex"
       ns0:version="0.11.0"
       transform="matrix(0.4,0,0,0.4,-28.93171,236.34169)">
      <g
         style="fill:#0cc6de;fill-opacity:1;stroke:#000000;stroke-opacity:1"
         id="g4300">
        <g
           id="g4284"
           style="fill:#0cc6de;fill-opacity:1;stroke:#000000;stroke-opacity:1">
          <path
             id="path4276"
             transform="translate(148.712,134.765)"
             d="M 2.25,-6.03125 C 2.25,-6.390625 2.265625,-6.5 3.0625,-6.5 h 0.25 v -0.3125 c -0.34375,0.03125 -1.125,0.03125 -1.515625,0.03125 -0.375,0 -1.171875,0 -1.515625,-0.03125 V -6.5 h 0.25 c 0.796875,0 0.828125,0.109375 0.828125,0.46875 v 5.25 c 0,0.359375 -0.03125,0.46875 -0.828125,0.46875 h -0.25 V 0 c 0.34375,-0.03125 1.140625,-0.03125 1.515625,-0.03125 0.390625,0 1.171875,0 1.515625,0.03125 v -0.3125 h -0.25 C 2.265625,-0.3125 2.25,-0.421875 2.25,-0.78125 Z m 0,0"
             style="fill:#0cc6de;fill-opacity:1;stroke:#000000;stroke-width:0;stroke-opacity:1"
             inkscape:connector-curvature="0" />
          <path
             id="path4278"
             transform="translate(152.30949,134.765)"
             d="M 1.09375,-3.421875 V -0.75 c 0,0.4375 -0.109375,0.4375 -0.78125,0.4375 V 0 c 0.359375,-0.015625 0.859375,-0.03125 1.140625,-0.03125 0.25,0 0.765625,0.015625 1.109375,0.03125 v -0.3125 c -0.671875,0 -0.78125,0 -0.78125,-0.4375 V -2.59375 C 1.78125,-3.625 2.5,-4.1875 3.125,-4.1875 c 0.640625,0 0.75,0.53125 0.75,1.109375 V -0.75 c 0,0.4375 -0.109375,0.4375 -0.78125,0.4375 V 0 c 0.34375,-0.015625 0.859375,-0.03125 1.125,-0.03125 0.25,0 0.78125,0.015625 1.109375,0.03125 v -0.3125 c -0.65625,0 -0.765625,0 -0.765625,-0.4375 v -1.84375 c 0,-1.03125 0.703125,-1.59375 1.34375,-1.59375 0.625,0 0.734375,0.53125 0.734375,1.109375 V -0.75 c 0,0.4375 -0.109375,0.4375 -0.78125,0.4375 V 0 c 0.34375,-0.015625 0.859375,-0.03125 1.125,-0.03125 0.265625,0 0.78125,0.015625 1.125,0.03125 v -0.3125 c -0.515625,0 -0.765625,0 -0.78125,-0.296875 v -1.90625 c 0,-0.859375 0,-1.15625 -0.3125,-1.515625 -0.140625,-0.171875 -0.46875,-0.375 -1.046875,-0.375 -0.828125,0 -1.28125,0.59375 -1.4375,0.984375 C 4.390625,-4.296875 3.65625,-4.40625 3.203125,-4.40625 2.46875,-4.40625 2,-3.984375 1.71875,-3.359375 V -4.40625 L 0.3125,-4.296875 v 0.3125 c 0.703125,0 0.78125,0.0625 0.78125,0.5625 z m 0,0"
             style="fill:#0cc6de;fill-opacity:1;stroke:#000000;stroke-width:0;stroke-opacity:1"
             inkscape:connector-curvature="0" />
          <path
             id="path4280"
             transform="translate(160.61133,134.765)"
             d="M 4.25,-6.015625 C 4.25,-6.359375 4.25,-6.5 5.203125,-6.5 H 5.53125 v -0.3125 c -0.359375,0.03125 -1.28125,0.03125 -1.6875,0.03125 -0.40625,0 -1.328125,0 -1.6875,-0.03125 V -6.5 h 0.328125 c 0.9375,0 0.9375,0.125 0.9375,0.484375 V -1.59375 C 2.125,-1.9375 2.078125,-3.484375 2.078125,-4.125 2.0625,-5.328125 1.625,-5.515625 1.1875,-5.515625 h -0.375 c -0.140625,0 -0.25,0 -0.25,0.109375 0,0.046875 0.03125,0.09375 0.09375,0.109375 0.328125,0.03125 0.578125,0.171875 0.59375,1.34375 0,0.234375 0.03125,1.015625 0.5,1.6875 0.390625,0.546875 1,0.828125 1.671875,0.921875 v 0.5625 c 0,0.328125 0,0.46875 -0.9375,0.46875 H 2.15625 V 0 c 0.359375,-0.03125 1.265625,-0.03125 1.6875,-0.03125 0.40625,0 1.328125,0 1.6875,0.03125 V -0.3125 H 5.203125 C 4.25,-0.3125 4.25,-0.4375 4.25,-0.78125 v -0.5625 C 4.96875,-1.4375 5.578125,-1.734375 5.96875,-2.25 6.484375,-2.953125 6.5,-3.75 6.5,-4.1875 c 0,-0.15625 0.015625,-1.046875 0.546875,-1.109375 0.0625,-0.015625 0.125,-0.03125 0.125,-0.109375 0,-0.109375 -0.078125,-0.109375 -0.234375,-0.109375 h -0.375 c -0.390625,0 -0.875,0.0625 -0.890625,1.515625 C 5.65625,-2.90625 5.328125,-1.859375 4.25,-1.59375 Z m 0,0"
             style="fill:#0cc6de;fill-opacity:1;stroke:#000000;stroke-width:0;stroke-opacity:1"
             inkscape:connector-curvature="0" />
          <path
             id="path4282"
             transform="translate(168.36024,134.765)"
             d="m 3.296875,2.390625 c 0,-0.03125 0,-0.046875 -0.171875,-0.21875 C 1.890625,0.921875 1.5625,-0.96875 1.5625,-2.5 c 0,-1.734375 0.375,-3.46875 1.609375,-4.703125 0.125,-0.125 0.125,-0.140625 0.125,-0.171875 0,-0.078125 -0.03125,-0.109375 -0.09375,-0.109375 -0.109375,0 -1,0.6875 -1.59375,1.953125 -0.5,1.09375 -0.625,2.203125 -0.625,3.03125 0,0.78125 0.109375,1.984375 0.65625,3.125 C 2.25,1.84375 3.09375,2.5 3.203125,2.5 c 0.0625,0 0.09375,-0.03125 0.09375,-0.109375 z m 0,0"
             style="fill:#0cc6de;fill-opacity:1;stroke:#000000;stroke-width:0;stroke-opacity:1"
             inkscape:connector-curvature="0" />
        </g>
        <g
           id="g4290"
           style="fill:#0cc6de;fill-opacity:1;stroke:#000000;stroke-opacity:1">
          <path
             id="path4286"
             transform="translate(172.235,134.765)"
             d="M 3.328125,-3.015625 C 3.390625,-3.265625 3.625,-4.1875 4.3125,-4.1875 c 0.046875,0 0.296875,0 0.5,0.125 C 4.53125,-4 4.34375,-3.765625 4.34375,-3.515625 c 0,0.15625 0.109375,0.34375 0.375,0.34375 0.21875,0 0.53125,-0.171875 0.53125,-0.578125 0,-0.515625 -0.578125,-0.65625 -0.921875,-0.65625 -0.578125,0 -0.921875,0.53125 -1.046875,0.75 -0.25,-0.65625 -0.78125,-0.75 -1.078125,-0.75 -1.03125,0 -1.609375,1.28125 -1.609375,1.53125 0,0.109375 0.109375,0.109375 0.125,0.109375 0.078125,0 0.109375,-0.03125 0.125,-0.109375 0.34375,-1.0625 1,-1.3125 1.34375,-1.3125 0.1875,0 0.53125,0.09375 0.53125,0.671875 0,0.3125 -0.171875,0.96875 -0.53125,2.375 -0.15625,0.609375 -0.515625,1.03125 -0.953125,1.03125 -0.0625,0 -0.28125,0 -0.5,-0.125 0.25,-0.0625 0.46875,-0.265625 0.46875,-0.546875 0,-0.265625 -0.21875,-0.34375 -0.359375,-0.34375 -0.3125,0 -0.546875,0.25 -0.546875,0.578125 0,0.453125 0.484375,0.65625 0.921875,0.65625 0.671875,0 1.03125,-0.703125 1.046875,-0.75 0.125,0.359375 0.484375,0.75 1.078125,0.75 1.03125,0 1.59375,-1.28125 1.59375,-1.53125 0,-0.109375 -0.078125,-0.109375 -0.109375,-0.109375 -0.09375,0 -0.109375,0.046875 -0.140625,0.109375 -0.328125,1.078125 -1,1.3125 -1.3125,1.3125 -0.390625,0 -0.546875,-0.3125 -0.546875,-0.65625 0,-0.21875 0.046875,-0.4375 0.15625,-0.875 z m 0,0"
             style="fill:#0cc6de;fill-opacity:1;stroke:#000000;stroke-width:0;stroke-opacity:1"
             inkscape:connector-curvature="0" />
          <path
             id="path4288"
             transform="translate(177.92863,134.765)"
             d="m 2.03125,-0.015625 c 0,-0.65625 -0.25,-1.046875 -0.640625,-1.046875 -0.328125,0 -0.53125,0.25 -0.53125,0.53125 C 0.859375,-0.265625 1.0625,0 1.390625,0 1.5,0 1.640625,-0.046875 1.734375,-0.125 1.765625,-0.15625 1.78125,-0.15625 1.78125,-0.15625 c 0.015625,0 0.015625,0 0.015625,0.140625 0,0.75 -0.34375,1.34375 -0.671875,1.671875 -0.109375,0.109375 -0.109375,0.125 -0.109375,0.15625 0,0.078125 0.046875,0.109375 0.09375,0.109375 0.109375,0 0.921875,-0.765625 0.921875,-1.9375 z m 0,0"
             style="fill:#0cc6de;fill-opacity:1;stroke:#000000;stroke-width:0;stroke-opacity:1"
             inkscape:connector-curvature="0" />
        </g>
        <g
           id="g4294"
           style="fill:#0cc6de;fill-opacity:1;stroke:#000000;stroke-opacity:1">
          <path
             id="path4292"
             transform="translate(182.35999,134.765)"
             d="m 2.046875,-3.984375 h 0.9375 c 0.203125,0 0.3125,0 0.3125,-0.203125 0,-0.109375 -0.109375,-0.109375 -0.28125,-0.109375 h -0.875 C 2.5,-5.71875 2.546875,-5.90625 2.546875,-5.96875 c 0,-0.171875 -0.125,-0.265625 -0.296875,-0.265625 -0.03125,0 -0.3125,0 -0.390625,0.359375 L 1.46875,-4.296875 h -0.9375 c -0.203125,0 -0.296875,0 -0.296875,0.1875 0,0.125 0.078125,0.125 0.28125,0.125 h 0.875 C 0.671875,-1.15625 0.625,-0.984375 0.625,-0.8125 0.625,-0.265625 1,0.109375 1.546875,0.109375 2.5625,0.109375 3.125,-1.34375 3.125,-1.421875 3.125,-1.53125 3.046875,-1.53125 3.015625,-1.53125 2.921875,-1.53125 2.90625,-1.5 2.859375,-1.390625 2.4375,-0.34375 1.90625,-0.109375 1.5625,-0.109375 c -0.203125,0 -0.3125,-0.125 -0.3125,-0.453125 0,-0.25 0.03125,-0.3125 0.0625,-0.484375 z m 0,0"
             style="fill:#0cc6de;fill-opacity:1;stroke:#000000;stroke-width:0;stroke-opacity:1"
             inkscape:connector-curvature="0" />
        </g>
        <g
           id="g4298"
           style="fill:#0cc6de;fill-opacity:1;stroke:#000000;stroke-opacity:1">
          <path
             id="path4296"
             transform="translate(185.955,134.765)"
             d="m 2.875,-2.5 c 0,-0.765625 -0.109375,-1.96875 -0.65625,-3.109375 -0.59375,-1.21875 -1.453125,-1.875 -1.546875,-1.875 -0.0625,0 -0.109375,0.046875 -0.109375,0.109375 0,0.03125 0,0.046875 0.1875,0.234375 0.984375,0.984375 1.546875,2.5625 1.546875,4.640625 0,1.71875 -0.359375,3.46875 -1.59375,4.71875 C 0.5625,2.34375 0.5625,2.359375 0.5625,2.390625 0.5625,2.453125 0.609375,2.5 0.671875,2.5 0.765625,2.5 1.671875,1.8125 2.25,0.546875 2.765625,-0.546875 2.875,-1.65625 2.875,-2.5 Z m 0,0"
             style="fill:#0cc6de;fill-opacity:1;stroke:#000000;stroke-width:0;stroke-opacity:1"
             inkscape:connector-curvature="0" />
        </g>
      </g>
    </g>
    <g
       transform="matrix(0.4,0,0,0.4,-35.361595,209.92938)"
       ns0:version="0.11.0"
       ns0:texconverter="pdflatex"
       ns0:pdfconverter="pdf2svg"
       ns0:text="$t=0$"
       ns0:preamble="/home/phyps/Dropbox/Talks/1710 Bristol Colloquium teleportation/preamble.tex"
       ns0:scale="2.83464566935"
       ns0:alignment="middle center"
       inkscapeversion="0.91"
       ns0:jacobian_sqrt="0.4"
       style="fill-opacity:1;stroke:#000000;stroke-opacity:1"
       id="g5633">
      <g
         id="g5631"
         style="fill-opacity:1;stroke:#000000;stroke-opacity:1">
        <g
           style="fill:#000000;fill-opacity:1;stroke:#000000;stroke-opacity:1"
           id="g5621">
          <path
             inkscape:connector-curvature="0"
             style="fill-opacity:1;stroke:#000000;stroke-width:0;stroke-opacity:1"
             d="m 2.046875,-3.984375 h 0.9375 c 0.203125,0 0.3125,0 0.3125,-0.203125 0,-0.109375 -0.109375,-0.109375 -0.28125,-0.109375 h -0.875 C 2.5,-5.71875 2.546875,-5.90625 2.546875,-5.96875 c 0,-0.171875 -0.125,-0.265625 -0.296875,-0.265625 -0.03125,0 -0.3125,0 -0.390625,0.359375 L 1.46875,-4.296875 h -0.9375 c -0.203125,0 -0.296875,0 -0.296875,0.1875 0,0.125 0.078125,0.125 0.28125,0.125 h 0.875 C 0.671875,-1.15625 0.625,-0.984375 0.625,-0.8125 0.625,-0.265625 1,0.109375 1.546875,0.109375 2.5625,0.109375 3.125,-1.34375 3.125,-1.421875 3.125,-1.53125 3.046875,-1.53125 3.015625,-1.53125 2.921875,-1.53125 2.90625,-1.5 2.859375,-1.390625 2.4375,-0.34375 1.90625,-0.109375 1.5625,-0.109375 c -0.203125,0 -0.3125,-0.125 -0.3125,-0.453125 0,-0.25 0.03125,-0.3125 0.0625,-0.484375 z m 0,0"
             transform="translate(148.712,134.765)"
             id="path5619" />
        </g>
        <g
           style="fill:#000000;fill-opacity:1;stroke:#000000;stroke-opacity:1"
           id="g5625">
          <path
             inkscape:connector-curvature="0"
             style="fill-opacity:1;stroke:#000000;stroke-width:0;stroke-opacity:1"
             d="m 6.84375,-3.265625 c 0.15625,0 0.34375,0 0.34375,-0.1875 C 7.1875,-3.65625 7,-3.65625 6.859375,-3.65625 h -5.96875 c -0.140625,0 -0.328125,0 -0.328125,0.203125 0,0.1875 0.1875,0.1875 0.328125,0.1875 z m 0.015625,1.9375 c 0.140625,0 0.328125,0 0.328125,-0.203125 0,-0.1875 -0.1875,-0.1875 -0.34375,-0.1875 H 0.890625 c -0.140625,0 -0.328125,0 -0.328125,0.1875 0,0.203125 0.1875,0.203125 0.328125,0.203125 z m 0,0"
             transform="translate(155.077,134.765)"
             id="path5623" />
        </g>
        <g
           style="fill:#000000;fill-opacity:1;stroke:#000000;stroke-opacity:1"
           id="g5629">
          <path
             inkscape:connector-curvature="0"
             style="fill-opacity:1;stroke:#000000;stroke-width:0;stroke-opacity:1"
             d="m 4.578125,-3.1875 c 0,-0.796875 -0.046875,-1.59375 -0.390625,-2.328125 -0.453125,-0.96875 -1.28125,-1.125 -1.6875,-1.125 -0.609375,0 -1.328125,0.265625 -1.75,1.1875 -0.3125,0.6875 -0.359375,1.46875 -0.359375,2.265625 0,0.75 0.03125,1.640625 0.453125,2.40625 0.421875,0.796875 1.15625,1 1.640625,1 0.53125,0 1.296875,-0.203125 1.734375,-1.15625 0.3125,-0.6875 0.359375,-1.46875 0.359375,-2.25 z M 2.484375,0 C 2.09375,0 1.5,-0.25 1.328125,-1.203125 1.21875,-1.796875 1.21875,-2.71875 1.21875,-3.3125 c 0,-0.640625 0,-1.296875 0.078125,-1.828125 0.1875,-1.1875 0.9375,-1.28125 1.1875,-1.28125 0.328125,0 0.984375,0.1875 1.171875,1.171875 0.109375,0.5625 0.109375,1.3125 0.109375,1.9375 0,0.75 0,1.421875 -0.109375,2.0625 C 3.5,-0.296875 2.9375,0 2.484375,0 Z m 0,0"
             transform="translate(165.59551,134.765)"
             id="path5627" />
        </g>
      </g>
    </g>
    <g
       id="g6987"
       style="stroke:#000000;stroke-opacity:1;fill-opacity:1"
       ns0:jacobian_sqrt="0.4"
       inkscapeversion="0.91"
       ns0:alignment="middle center"
       ns0:scale="2.83464566935"
       ns0:preamble="/home/phyps/Dropbox/Talks/1710 Bristol Colloquium teleportation/preamble.tex"
       ns0:text="$t=1$"
       ns0:pdfconverter="pdf2svg"
       ns0:texconverter="pdflatex"
       ns0:version="0.11.0"
       transform="matrix(0.400000,0.000000,0.000000,0.400000,31.537036,213.559395)">
      <g
         style="stroke:#000000;stroke-opacity:1;fill-opacity:1"
         id="g6985">
        <g
           id="g6975"
           style="stroke:#000000;fill-opacity:1;stroke-opacity:1;fill:rgb(0%,0%,0%)">
          <path
             id="path6973"
             transform="translate(148.712,134.765)"
             d="M 2.046875 -3.984375 L 2.984375 -3.984375 C 3.1875 -3.984375 3.296875 -3.984375 3.296875 -4.1875 C 3.296875 -4.296875 3.1875 -4.296875 3.015625 -4.296875 L 2.140625 -4.296875 C 2.5 -5.71875 2.546875 -5.90625 2.546875 -5.96875 C 2.546875 -6.140625 2.421875 -6.234375 2.25 -6.234375 C 2.21875 -6.234375 1.9375 -6.234375 1.859375 -5.875 L 1.46875 -4.296875 L 0.53125 -4.296875 C 0.328125 -4.296875 0.234375 -4.296875 0.234375 -4.109375 C 0.234375 -3.984375 0.3125 -3.984375 0.515625 -3.984375 L 1.390625 -3.984375 C 0.671875 -1.15625 0.625 -0.984375 0.625 -0.8125 C 0.625 -0.265625 1 0.109375 1.546875 0.109375 C 2.5625 0.109375 3.125 -1.34375 3.125 -1.421875 C 3.125 -1.53125 3.046875 -1.53125 3.015625 -1.53125 C 2.921875 -1.53125 2.90625 -1.5 2.859375 -1.390625 C 2.4375 -0.34375 1.90625 -0.109375 1.5625 -0.109375 C 1.359375 -0.109375 1.25 -0.234375 1.25 -0.5625 C 1.25 -0.8125 1.28125 -0.875 1.3125 -1.046875 Z M 2.046875 -3.984375 "
             style="stroke:#000000;stroke-width:0;stroke-opacity:1;fill-opacity:1" />
        </g>
        <g
           id="g6979"
           style="stroke:#000000;fill-opacity:1;stroke-opacity:1;fill:rgb(0%,0%,0%)">
          <path
             id="path6977"
             transform="translate(155.077,134.765)"
             d="M 6.84375 -3.265625 C 7 -3.265625 7.1875 -3.265625 7.1875 -3.453125 C 7.1875 -3.65625 7 -3.65625 6.859375 -3.65625 L 0.890625 -3.65625 C 0.75 -3.65625 0.5625 -3.65625 0.5625 -3.453125 C 0.5625 -3.265625 0.75 -3.265625 0.890625 -3.265625 Z M 6.859375 -1.328125 C 7 -1.328125 7.1875 -1.328125 7.1875 -1.53125 C 7.1875 -1.71875 7 -1.71875 6.84375 -1.71875 L 0.890625 -1.71875 C 0.75 -1.71875 0.5625 -1.71875 0.5625 -1.53125 C 0.5625 -1.328125 0.75 -1.328125 0.890625 -1.328125 Z M 6.859375 -1.328125 "
             style="stroke:#000000;stroke-width:0;stroke-opacity:1;fill-opacity:1" />
        </g>
        <g
           id="g6983"
           style="stroke:#000000;fill-opacity:1;stroke-opacity:1;fill:rgb(0%,0%,0%)">
          <path
             id="path6981"
             transform="translate(165.595513,134.765)"
             d="M 2.9375 -6.375 C 2.9375 -6.625 2.9375 -6.640625 2.703125 -6.640625 C 2.078125 -6 1.203125 -6 0.890625 -6 L 0.890625 -5.6875 C 1.09375 -5.6875 1.671875 -5.6875 2.1875 -5.953125 L 2.1875 -0.78125 C 2.1875 -0.421875 2.15625 -0.3125 1.265625 -0.3125 L 0.953125 -0.3125 L 0.953125 0 C 1.296875 -0.03125 2.15625 -0.03125 2.5625 -0.03125 C 2.953125 -0.03125 3.828125 -0.03125 4.171875 0 L 4.171875 -0.3125 L 3.859375 -0.3125 C 2.953125 -0.3125 2.9375 -0.421875 2.9375 -0.78125 Z M 2.9375 -6.375 "
             style="stroke:#000000;stroke-width:0;stroke-opacity:1;fill-opacity:1" />
        </g>
      </g>
    </g>
    <g
       style="font-style:normal;font-variant:normal;font-weight:normal;font-stretch:normal;letter-spacing:normal;word-spacing:normal;text-anchor:start;fill:none;fill-opacity:1;fill-rule:evenodd;stroke:#000000;stroke-linecap:butt;stroke-linejoin:miter;stroke-miterlimit:10.43299961;stroke-dasharray:none;stroke-dashoffset:0;stroke-opacity:1"
       ns0:preamble="/home/phyps/Dropbox/Talks/1710 Bristol Colloquium teleportation/preamble.tex"
       ns0:text="$x$"
       word-spacing="normal"
       letter-spacing="normal"
       font-size-adjust="none"
       font-stretch="normal"
       font-weight="normal"
       font-variant="normal"
       font-style="normal"
       stroke-miterlimit="10.433"
       xml:space="preserve"
       transform="matrix(0.40000002,0,0,-0.39999999,26.982953,564.00366)"
       id="g82074"><path
         id="path82076"
         d="m 226.76,710.12 0.01,0.03 0.01,0.03 v 0.03 l 0.01,0.04 0.01,0.04 0.02,0.04 0.01,0.04 0.01,0.05 0.02,0.04 0.02,0.05 0.02,0.05 0.02,0.05 0.02,0.05 0.02,0.05 0.03,0.05 0.03,0.05 0.03,0.05 0.03,0.04 0.03,0.05 0.04,0.04 0.03,0.05 0.04,0.04 0.05,0.04 0.04,0.03 0.05,0.03 0.04,0.03 0.03,0.01 0.03,0.02 0.02,0.01 0.03,0.01 0.03,0.01 h 0.03 l 0.02,0.01 0.03,0.01 h 0.03 0.04 l 0.03,0.01 h 0.03 c 0.05,0 0.29,0 0.5,-0.13 -0.28,-0.05 -0.48,-0.3 -0.48,-0.54 0,-0.16 0.11,-0.35 0.38,-0.35 0.22,0 0.54,0.18 0.54,0.58 0,0.52 -0.59,0.66 -0.93,0.66 -0.58,0 -0.93,-0.53 -1.05,-0.76 -0.25,0.66 -0.78,0.76 -1.07,0.76 -1.04,0 -1.61,-1.29 -1.61,-1.53 0,-0.1 0.1,-0.1 0.12,-0.1 0.08,0 0.11,0.02 0.13,0.11 0.34,1.05 1,1.3 1.34,1.3 0.18,0 0.53,-0.09 0.53,-0.67 0,-0.31 -0.16,-0.97 -0.53,-2.36 -0.16,-0.62 -0.51,-1.04 -0.95,-1.04 -0.06,0 -0.29,0 -0.5,0.13 0.25,0.05 0.47,0.26 0.47,0.54 0,0.27 -0.22,0.35 -0.37,0.35 -0.3,0 -0.55,-0.26 -0.55,-0.58 0,-0.46 0.5,-0.65 0.94,-0.65 0.66,0 1.02,0.69 1.05,0.75 0.11,-0.37 0.47,-0.75 1.07,-0.75 1.03,0 1.6,1.28 1.6,1.53 0,0.1 -0.09,0.1 -0.12,0.1 -0.09,0 -0.11,-0.05 -0.13,-0.11 -0.33,-1.07 -1.01,-1.31 -1.33,-1.31 -0.39,0 -0.55,0.32 -0.55,0.66 0,0.22 0.06,0.44 0.17,0.87 z"
         inkscape:connector-curvature="0"
         style="fill:#000000;stroke-width:0" /></g>  </g>
</svg>
