<?xml version="1.0" encoding="UTF-8" standalone="no"?>
<svg
   xmlns:ns0="http://www.iki.fi/pav/software/textext/"
   xmlns:dc="http://purl.org/dc/elements/1.1/"
   xmlns:cc="http://creativecommons.org/ns#"
   xmlns:rdf="http://www.w3.org/1999/02/22-rdf-syntax-ns#"
   xmlns:svg="http://www.w3.org/2000/svg"
   xmlns="http://www.w3.org/2000/svg"
   xmlns:sodipodi="http://sodipodi.sourceforge.net/DTD/sodipodi-0.dtd"
   xmlns:inkscape="http://www.inkscape.org/namespaces/inkscape"
   width="8cm"
   height="4cm"
   viewBox="0 0 80 39.999998"
   version="1.1"
   id="svg8"
   inkscape:version="1.0.1 (3bc2e813f5, 2020-09-07)"
   sodipodi:docname="invalid-eigenstate-inf-sq-well.svg">
  <sodipodi:namedview
     id="base"
     pagecolor="#ffffff"
     bordercolor="#666666"
     borderopacity="1.0"
     inkscape:pageopacity="0.0"
     inkscape:pageshadow="2"
     inkscape:zoom="1.979899"
     inkscape:cx="203.61352"
     inkscape:cy="88.353832"
     inkscape:document-units="mm"
     inkscape:current-layer="svg8"
     showgrid="false"
     units="cm"
     inkscape:window-width="1920"
     inkscape:window-height="1017"
     inkscape:window-x="-8"
     inkscape:window-y="-8"
     inkscape:window-maximized="1"
     inkscape:snap-global="false"
     showguides="false"
     inkscape:document-rotation="0" />
  <defs
     id="defs2">
    <marker
       inkscape:isstock="true"
       style="overflow:visible"
       id="marker1584"
       refX="0"
       refY="0"
       orient="auto"
       inkscape:stockid="Arrow2MendH">
      <path
         transform="scale(-0.6)"
         d="M 8.7185878,4.0337352 -2.2072895,0.01601326 8.7185884,-4.0017078 c -1.7454984,2.3720609 -1.7354408,5.6174519 -6e-7,8.035443 z"
         style="fill:#ee7219;fill-opacity:1;fill-rule:evenodd;stroke:#ee7219;stroke-width:0.625;stroke-linejoin:round;stroke-opacity:1"
         id="path1582"
         inkscape:connector-curvature="0" />
    </marker>
    <marker
       inkscape:isstock="true"
       style="overflow:visible"
       id="Arrow2Mend"
       refX="0"
       refY="0"
       orient="auto"
       inkscape:stockid="Arrow2Mend">
      <path
         transform="scale(-0.6)"
         d="M 8.7185878,4.0337352 -2.2072895,0.01601326 8.7185884,-4.0017078 c -1.7454984,2.3720609 -1.7354408,5.6174519 -6e-7,8.035443 z"
         style="fill:#000000;fill-opacity:1;fill-rule:evenodd;stroke:#9278d1;stroke-width:0.625;stroke-linejoin:round;stroke-opacity:1"
         id="path1104"
         inkscape:connector-curvature="0" />
    </marker>
    <marker
       inkscape:isstock="true"
       style="overflow:visible"
       id="Arrow1Send"
       refX="0"
       refY="0"
       orient="auto"
       inkscape:stockid="Arrow1Send">
      <path
         transform="matrix(-0.2,0,0,-0.2,-1.2,0)"
         style="fill:#000000;fill-opacity:1;fill-rule:evenodd;stroke:#000000;stroke-width:1pt;stroke-opacity:1"
         d="M 0,0 5,-5 -12.5,0 5,5 Z"
         id="path1092"
         inkscape:connector-curvature="0" />
    </marker>
    <clipPath
       id="clipPath247"
       clipPathUnits="userSpaceOnUse">
      <rect
         style="color:#000000;display:inline;overflow:visible;visibility:visible;opacity:1;fill:#ab1f2d;fill-opacity:1;fill-rule:nonzero;stroke:none;stroke-width:0.198437;stroke-linecap:butt;stroke-linejoin:miter;stroke-miterlimit:10;stroke-dasharray:none;stroke-dashoffset:0;stroke-opacity:1;marker:none;marker-start:none;marker-mid:none;marker-end:none;enable-background:accumulate"
         id="rect249"
         width="1.0753164"
         height="45.56945"
         x="142.97461"
         y="233.79077"
         ry="0" />
    </clipPath>
    <clipPath
       clipPathUnits="userSpaceOnUse"
       id="clipPath3677">
      <path
         d="M -2.54e-6,1.272e-5 H 570.00002 V 325.00001 H -2.54e-6 Z"
         id="path3679"
         inkscape:connector-curvature="0" />
    </clipPath>
    <clipPath
       clipPathUnits="userSpaceOnUse"
       id="clipPath23193">
      <path
         d="M 3.81e-6,1.272e-5 H 521.00001 V 232.00001 H 3.81e-6 Z"
         id="path23195"
         inkscape:connector-curvature="0" />
    </clipPath>
    <clipPath
       clipPathUnits="userSpaceOnUse"
       id="clipPath23569">
      <path
         d="M -2.54e-6,2.035e-5 H 578.99998 V 249.00002 H -2.54e-6 Z"
         id="path23571"
         inkscape:connector-curvature="0" />
    </clipPath>
    <clipPath
       id="clipPath60734"
       clipPathUnits="userSpaceOnUse">
      <path
         inkscape:connector-curvature="0"
         id="path60736"
         d="M 3.81e-6,-1.272e-5 H 560.00001 V 317.00003 H 3.81e-6 Z" />
    </clipPath>
    <clipPath
       clipPathUnits="userSpaceOnUse"
       id="clipPath69639">
      <rect
         style="color:#000000;clip-rule:nonzero;display:inline;overflow:visible;visibility:visible;opacity:1;isolation:auto;mix-blend-mode:normal;color-interpolation:sRGB;color-interpolation-filters:linearRGB;solid-color:#000000;solid-opacity:1;fill:#0cc6de;fill-opacity:1;fill-rule:evenodd;stroke:#002f5f;stroke-width:0.25;stroke-linecap:butt;stroke-linejoin:miter;stroke-miterlimit:4;stroke-dasharray:none;stroke-dashoffset:0;stroke-opacity:1;marker:none;color-rendering:auto;image-rendering:auto;shape-rendering:auto;text-rendering:auto;enable-background:accumulate"
         id="rect69641"
         width="54.736801"
         height="26.370592"
         x="-18.673229"
         y="-61.491138" />
    </clipPath>
    <clipPath
       clipPathUnits="userSpaceOnUse"
       id="clipPath81171">
      <path
         d="M 3.81e-6,2.035e-5 H 560.00001 V 420.00002 H 3.81e-6 Z"
         id="path81173"
         inkscape:connector-curvature="0" />
    </clipPath>
    <clipPath
       clipPathUnits="userSpaceOnUse"
       id="clipPath83365">
      <rect
         style="color:#000000;clip-rule:nonzero;display:inline;overflow:visible;visibility:visible;opacity:1;isolation:auto;mix-blend-mode:normal;color-interpolation:sRGB;color-interpolation-filters:linearRGB;solid-color:#000000;solid-opacity:1;fill:#ffff00;fill-opacity:1;fill-rule:evenodd;stroke:none;stroke-width:0.25;stroke-linecap:butt;stroke-linejoin:miter;stroke-miterlimit:4;stroke-dasharray:none;stroke-dashoffset:0;stroke-opacity:1;marker:none;color-rendering:auto;image-rendering:auto;shape-rendering:auto;text-rendering:auto;enable-background:accumulate"
         id="rect83367"
         width="49.792061"
         height="29.734123"
         x="16.126984"
         y="6.0325375" />
    </clipPath>
  </defs>
  <metadata
     id="metadata5">
    <rdf:RDF>
      <cc:Work
         rdf:about="">
        <dc:format>image/svg+xml</dc:format>
        <dc:type
           rdf:resource="http://purl.org/dc/dcmitype/StillImage" />
        <dc:title></dc:title>
      </cc:Work>
    </rdf:RDF>
  </metadata>
  <g
     transform="translate(0,-243.00002)"
     id="layer1"
     inkscape:groupmode="layer"
     inkscape:label="Layer 1">
    <g
       transform="translate(31.787256,-1.2116218)"
       id="g13440" />
  </g>
  <path
     style="fill:none;stroke:#000000;stroke-width:0.2;stroke-linecap:butt;stroke-linejoin:miter;stroke-miterlimit:4;stroke-dasharray:none;stroke-opacity:1"
     d="m 51.988464,18.586435 v 3.02381"
     id="path4784"
     inkscape:connector-curvature="0" />
  <path
     inkscape:connector-curvature="0"
     id="path4786"
     style="fill:none;stroke:#262626;stroke-width:0.25;stroke-linecap:square;stroke-linejoin:round;stroke-miterlimit:10;stroke-dasharray:none;stroke-opacity:1"
     d="M 23.924526,38.472215 V 1.7797503" />
  <g
     id="g4814"
     transform="matrix(0.40000002,0,0,-0.39999999,-19.680841,306.96934)"
     xml:space="preserve"
     stroke-miterlimit="10.433"
     font-style="normal"
     font-variant="normal"
     font-weight="normal"
     font-stretch="normal"
     font-size-adjust="none"
     letter-spacing="normal"
     word-spacing="normal"
     ns0:text="$x$"
     ns0:preamble="/home/phyps/Dropbox/Talks/1710 Bristol Colloquium teleportation/preamble.tex"
     style="font-style:normal;font-variant:normal;font-weight:normal;font-stretch:normal;letter-spacing:normal;word-spacing:normal;text-anchor:start;fill:none;fill-opacity:1;fill-rule:evenodd;stroke:#000000;stroke-linecap:butt;stroke-linejoin:miter;stroke-miterlimit:10.433;stroke-dasharray:none;stroke-dashoffset:0;stroke-opacity:1"><path
       style="fill:#000000;stroke-width:0"
       inkscape:connector-curvature="0"
       d="m 226.76,710.12 0.01,0.03 0.01,0.03 v 0.03 l 0.01,0.04 0.01,0.04 0.02,0.04 0.01,0.04 0.01,0.05 0.02,0.04 0.02,0.05 0.02,0.05 0.02,0.05 0.02,0.05 0.02,0.05 0.03,0.05 0.03,0.05 0.03,0.05 0.03,0.04 0.03,0.05 0.04,0.04 0.03,0.05 0.04,0.04 0.05,0.04 0.04,0.03 0.05,0.03 0.04,0.03 0.03,0.01 0.03,0.02 0.02,0.01 0.03,0.01 0.03,0.01 h 0.03 l 0.02,0.01 0.03,0.01 h 0.03 0.04 l 0.03,0.01 h 0.03 c 0.05,0 0.29,0 0.5,-0.13 -0.28,-0.05 -0.48,-0.3 -0.48,-0.54 0,-0.16 0.11,-0.35 0.38,-0.35 0.22,0 0.54,0.18 0.54,0.58 0,0.52 -0.59,0.66 -0.93,0.66 -0.58,0 -0.93,-0.53 -1.05,-0.76 -0.25,0.66 -0.78,0.76 -1.07,0.76 -1.04,0 -1.61,-1.29 -1.61,-1.53 0,-0.1 0.1,-0.1 0.12,-0.1 0.08,0 0.11,0.02 0.13,0.11 0.34,1.05 1,1.3 1.34,1.3 0.18,0 0.53,-0.09 0.53,-0.67 0,-0.31 -0.16,-0.97 -0.53,-2.36 -0.16,-0.62 -0.51,-1.04 -0.95,-1.04 -0.06,0 -0.29,0 -0.5,0.13 0.25,0.05 0.47,0.26 0.47,0.54 0,0.27 -0.22,0.35 -0.37,0.35 -0.3,0 -0.55,-0.26 -0.55,-0.58 0,-0.46 0.5,-0.65 0.94,-0.65 0.66,0 1.02,0.69 1.05,0.75 0.11,-0.37 0.47,-0.75 1.07,-0.75 1.03,0 1.6,1.28 1.6,1.53 0,0.1 -0.09,0.1 -0.12,0.1 -0.09,0 -0.11,-0.05 -0.13,-0.11 -0.33,-1.07 -1.01,-1.31 -1.33,-1.31 -0.39,0 -0.55,0.32 -0.55,0.66 0,0.22 0.06,0.44 0.17,0.87 z"
       id="path4812" /></g>
  <g
     id="g4822"
     style="fill-opacity:1;stroke:#000000;stroke-opacity:1"
     ns0:jacobian_sqrt="0.4"
     inkscapeversion="0.92.3"
     ns0:alignment="middle center"
     ns0:scale="2.83464566935"
     ns0:preamble="/home/phyps/Dropbox/Talks/1710 Bristol Colloquium teleportation/preamble.tex"
     ns0:text="$0$"
     ns0:pdfconverter="pdf2svg"
     ns0:texconverter="pdflatex"
     ns0:version="0.11.0"
     transform="matrix(0.39999999,0,0,0.39999999,-38.540622,-28.913626)">
    <g
       style="fill-opacity:1;stroke:#000000;stroke-opacity:1"
       id="g4820">
      <g
         id="g4818"
         style="fill:#000000;fill-opacity:1;stroke:#000000;stroke-opacity:1">
        <path
           inkscape:connector-curvature="0"
           id="path4816"
           transform="translate(148.712,134.765)"
           d="m 4.578125,-3.1875 c 0,-0.796875 -0.046875,-1.59375 -0.390625,-2.328125 -0.453125,-0.96875 -1.28125,-1.125 -1.6875,-1.125 -0.609375,0 -1.328125,0.265625 -1.75,1.1875 -0.3125,0.6875 -0.359375,1.46875 -0.359375,2.265625 0,0.75 0.03125,1.640625 0.453125,2.40625 0.421875,0.796875 1.15625,1 1.640625,1 0.53125,0 1.296875,-0.203125 1.734375,-1.15625 0.3125,-0.6875 0.359375,-1.46875 0.359375,-2.25 z M 2.484375,0 C 2.09375,0 1.5,-0.25 1.328125,-1.203125 1.21875,-1.796875 1.21875,-2.71875 1.21875,-3.3125 c 0,-0.640625 0,-1.296875 0.078125,-1.828125 0.1875,-1.1875 0.9375,-1.28125 1.1875,-1.28125 0.328125,0 0.984375,0.1875 1.171875,1.171875 0.109375,0.5625 0.109375,1.3125 0.109375,1.9375 0,0.75 0,1.421875 -0.109375,2.0625 C 3.5,-0.296875 2.9375,0 2.484375,0 Z m 0,0"
           style="fill-opacity:1;stroke:#000000;stroke-width:0;stroke-opacity:1" />
      </g>
    </g>
  </g>
  <path
     d="M 12.296362,20.126002 H 71.021951"
     style="fill:none;stroke:#262626;stroke-width:0.25;stroke-linecap:square;stroke-linejoin:round;stroke-miterlimit:10;stroke-dasharray:none;stroke-opacity:1"
     id="path4834"
     inkscape:connector-curvature="0"
     sodipodi:nodetypes="cc" />
  <g
     style="stroke:#0cc6de;stroke-width:3.56428;stroke-miterlimit:4;stroke-dasharray:none"
     id="g1831"
     transform="matrix(0.12252012,0,0,0.10279409,-5.4947619,-0.71475131)">
    <path
       sodipodi:nodetypes="cccccccccccccccccccccccccccccc"
       id="path1833"
       style="fill:none;stroke:#0cc6de;stroke-width:3.56428;stroke-linecap:butt;stroke-linejoin:round;stroke-miterlimit:4;stroke-dasharray:none;stroke-opacity:1"
       d="m 467.75764,202.5 v 0 h 4.8667 5.74042 5.55273 5.05444 5.20368 5.40344 5.85193 4.75525 5.91095 4.69617 5.11651 5.49066 5.09833 5.50879 5.9162 4.69092 5.68817 4.919 5.58234 5.02478 5.2544 5.35278 5.30493 5.30219 5.5144 5.09277 5.72864 4.87848"
       inkscape:connector-curvature="0" />
  </g>
  <g
     transform="matrix(0.4,0,0,0.4,14.899224,0.90388323)"
     ns0:version="1.1.0"
     ns0:texconverter="pdflatex"
     ns0:pdfconverter="inkscape"
     ns0:text="$u(x)$\n"
     ns0:preamble="default_packages.tex"
     ns0:scale="2.83464566935"
     ns0:alignment="middle center"
     ns0:inkscapeversion="1.0.1"
     ns0:jacobian_sqrt="0.4"
     style="fill-opacity:1;stroke:#000000;stroke-width:0;stroke-opacity:1"
     id="g42204">
    <defs
       id="id-4bdba800-9b7b-4e92-be3d-dac733309f1b">
      <g
         id="id-ab2af36d-56a5-41fd-986a-c38cdb44e4d1"
         style="fill-opacity:1;stroke:#000000;stroke-width:0;stroke-opacity:1">
        <symbol
           overflow="visible"
           id="id-7c38f1e9-a352-49a0-8e13-3a0e85264483"
           style="fill-opacity:1;stroke:#000000;stroke-width:0;stroke-opacity:1">
          <path
             style="fill-opacity:1;stroke:#000000;stroke-width:0;stroke-opacity:1"
             d=""
             id="id-9ab658c2-60b1-4ff5-8824-e346e71cc8ae" />
        </symbol>
        <symbol
           overflow="visible"
           id="id-35ae669b-4f56-48fc-969e-31ff8ca73728"
           style="fill-opacity:1;stroke:#000000;stroke-width:0;stroke-opacity:1">
          <path
             style="fill-opacity:1;stroke:#000000;stroke-width:0;stroke-opacity:1"
             d="M 3.484375,-0.5625 C 3.59375,-0.15625 3.953125,0.109375 4.375,0.109375 4.71875,0.109375 4.953125,-0.125 5.109375,-0.4375 5.28125,-0.796875 5.40625,-1.40625 5.40625,-1.421875 c 0,-0.109375 -0.078125,-0.109375 -0.109375,-0.109375 -0.109375,0 -0.109375,0.046875 -0.140625,0.1875 -0.140625,0.5625 -0.328125,1.234375 -0.75,1.234375 -0.203125,0 -0.3125,-0.125 -0.3125,-0.453125 0,-0.21875 0.125,-0.6875 0.203125,-1.046875 L 4.578125,-2.6875 C 4.609375,-2.828125 4.703125,-3.203125 4.75,-3.359375 4.796875,-3.59375 4.890625,-3.96875 4.890625,-4.03125 c 0,-0.171875 -0.140625,-0.265625 -0.28125,-0.265625 -0.046875,0 -0.3125,0.015625 -0.390625,0.34375 -0.1875,0.734375 -0.625,2.484375 -0.75,3 -0.015625,0.046875 -0.40625,0.84375 -1.140625,0.84375 -0.515625,0 -0.609375,-0.453125 -0.609375,-0.8125 0,-0.5625 0.28125,-1.34375 0.53125,-2.03125 0.125,-0.3125 0.171875,-0.453125 0.171875,-0.640625 0,-0.4375 -0.3125,-0.8125 -0.8125,-0.8125 -0.953125,0 -1.3125,1.453125 -1.3125,1.53125 0,0.109375 0.09375,0.109375 0.109375,0.109375 0.109375,0 0.109375,-0.03125 0.15625,-0.1875 0.25,-0.859375 0.640625,-1.234375 1.015625,-1.234375 0.09375,0 0.25,0.015625 0.25,0.328125 0,0.234375 -0.109375,0.53125 -0.171875,0.671875 -0.375,1 -0.578125,1.609375 -0.578125,2.09375 0,0.953125 0.6875,1.203125 1.21875,1.203125 0.65625,0 1.015625,-0.453125 1.1875,-0.671875 z m 0,0"
             id="id-9b9fa07f-a47e-4362-a5e3-0f8f8372f5a8" />
        </symbol>
        <symbol
           overflow="visible"
           id="id-e17b450c-9cb0-4621-b1a6-dc3fe24141a5"
           style="fill-opacity:1;stroke:#000000;stroke-width:0;stroke-opacity:1">
          <path
             style="fill-opacity:1;stroke:#000000;stroke-width:0;stroke-opacity:1"
             d="M 3.328125,-3.015625 C 3.390625,-3.265625 3.625,-4.1875 4.3125,-4.1875 c 0.046875,0 0.296875,0 0.5,0.125 C 4.53125,-4 4.34375,-3.765625 4.34375,-3.515625 c 0,0.15625 0.109375,0.34375 0.375,0.34375 0.21875,0 0.53125,-0.171875 0.53125,-0.578125 0,-0.515625 -0.578125,-0.65625 -0.921875,-0.65625 -0.578125,0 -0.921875,0.53125 -1.046875,0.75 -0.25,-0.65625 -0.78125,-0.75 -1.078125,-0.75 -1.03125,0 -1.609375,1.28125 -1.609375,1.53125 0,0.109375 0.109375,0.109375 0.125,0.109375 0.078125,0 0.109375,-0.03125 0.125,-0.109375 0.34375,-1.0625 1,-1.3125 1.34375,-1.3125 0.1875,0 0.53125,0.09375 0.53125,0.671875 0,0.3125 -0.171875,0.96875 -0.53125,2.375 -0.15625,0.609375 -0.515625,1.03125 -0.953125,1.03125 -0.0625,0 -0.28125,0 -0.5,-0.125 0.25,-0.0625 0.46875,-0.265625 0.46875,-0.546875 0,-0.265625 -0.21875,-0.34375 -0.359375,-0.34375 -0.3125,0 -0.546875,0.25 -0.546875,0.578125 0,0.453125 0.484375,0.65625 0.921875,0.65625 0.671875,0 1.03125,-0.703125 1.046875,-0.75 0.125,0.359375 0.484375,0.75 1.078125,0.75 1.03125,0 1.59375,-1.28125 1.59375,-1.53125 0,-0.109375 -0.078125,-0.109375 -0.109375,-0.109375 -0.09375,0 -0.109375,0.046875 -0.140625,0.109375 -0.328125,1.078125 -1,1.3125 -1.3125,1.3125 -0.390625,0 -0.546875,-0.3125 -0.546875,-0.65625 0,-0.21875 0.046875,-0.4375 0.15625,-0.875 z m 0,0"
             id="id-98481c2a-f66e-4ac5-8b70-83746c7af217" />
        </symbol>
        <symbol
           overflow="visible"
           id="id-835ba4e6-99ee-4ade-ad2b-8f86510e7c6b"
           style="fill-opacity:1;stroke:#000000;stroke-width:0;stroke-opacity:1">
          <path
             style="fill-opacity:1;stroke:#000000;stroke-width:0;stroke-opacity:1"
             d=""
             id="id-1e868c46-9311-45b2-8f34-ee44b3f5e012" />
        </symbol>
        <symbol
           overflow="visible"
           id="id-9553dc95-102e-42f1-9ca1-d58ee54b80a1"
           style="fill-opacity:1;stroke:#000000;stroke-width:0;stroke-opacity:1">
          <path
             style="fill-opacity:1;stroke:#000000;stroke-width:0;stroke-opacity:1"
             d="m 3.296875,2.390625 c 0,-0.03125 0,-0.046875 -0.171875,-0.21875 C 1.890625,0.921875 1.5625,-0.96875 1.5625,-2.5 c 0,-1.734375 0.375,-3.46875 1.609375,-4.703125 0.125,-0.125 0.125,-0.140625 0.125,-0.171875 0,-0.078125 -0.03125,-0.109375 -0.09375,-0.109375 -0.109375,0 -1,0.6875 -1.59375,1.953125 -0.5,1.09375 -0.625,2.203125 -0.625,3.03125 0,0.78125 0.109375,1.984375 0.65625,3.125 C 2.25,1.84375 3.09375,2.5 3.203125,2.5 c 0.0625,0 0.09375,-0.03125 0.09375,-0.109375 z m 0,0"
             id="id-2109b087-030f-49a7-b630-92b3e3f64b59" />
        </symbol>
        <symbol
           overflow="visible"
           id="id-a7ee0f9b-2199-424d-9823-1bc7595e42c0"
           style="fill-opacity:1;stroke:#000000;stroke-width:0;stroke-opacity:1">
          <path
             style="fill-opacity:1;stroke:#000000;stroke-width:0;stroke-opacity:1"
             d="m 2.875,-2.5 c 0,-0.765625 -0.109375,-1.96875 -0.65625,-3.109375 -0.59375,-1.21875 -1.453125,-1.875 -1.546875,-1.875 -0.0625,0 -0.109375,0.046875 -0.109375,0.109375 0,0.03125 0,0.046875 0.1875,0.234375 0.984375,0.984375 1.546875,2.5625 1.546875,4.640625 0,1.71875 -0.359375,3.46875 -1.59375,4.71875 C 0.5625,2.34375 0.5625,2.359375 0.5625,2.390625 0.5625,2.453125 0.609375,2.5 0.671875,2.5 0.765625,2.5 1.671875,1.8125 2.25,0.546875 2.765625,-0.546875 2.875,-1.65625 2.875,-2.5 Z m 0,0"
             id="id-74e0de62-d514-4edc-a58e-1f514ca7c236" />
        </symbol>
      </g>
    </defs>
    <g
       id="id-b5f655f5-ca27-46cf-bac3-42680ecc0ce6"
       transform="translate(-149.009,-127.281)"
       style="fill-opacity:1;stroke:#000000;stroke-width:0;stroke-opacity:1">
      <g
         style="fill:#000000;fill-opacity:1;stroke:#000000;stroke-width:0;stroke-opacity:1"
         id="id-c758e870-8f97-493a-b4a6-bb4b3eacd935">
        <g
           transform="translate(148.712,134.765)"
           style="fill-opacity:1;stroke:#000000;stroke-width:0;stroke-opacity:1"
           id="g42188">
          <path
             style="fill-opacity:1;stroke:#000000;stroke-width:0;stroke-opacity:1"
             d="M 3.484375,-0.5625 C 3.59375,-0.15625 3.953125,0.109375 4.375,0.109375 4.71875,0.109375 4.953125,-0.125 5.109375,-0.4375 5.28125,-0.796875 5.40625,-1.40625 5.40625,-1.421875 c 0,-0.109375 -0.078125,-0.109375 -0.109375,-0.109375 -0.109375,0 -0.109375,0.046875 -0.140625,0.1875 -0.140625,0.5625 -0.328125,1.234375 -0.75,1.234375 -0.203125,0 -0.3125,-0.125 -0.3125,-0.453125 0,-0.21875 0.125,-0.6875 0.203125,-1.046875 L 4.578125,-2.6875 C 4.609375,-2.828125 4.703125,-3.203125 4.75,-3.359375 4.796875,-3.59375 4.890625,-3.96875 4.890625,-4.03125 c 0,-0.171875 -0.140625,-0.265625 -0.28125,-0.265625 -0.046875,0 -0.3125,0.015625 -0.390625,0.34375 -0.1875,0.734375 -0.625,2.484375 -0.75,3 -0.015625,0.046875 -0.40625,0.84375 -1.140625,0.84375 -0.515625,0 -0.609375,-0.453125 -0.609375,-0.8125 0,-0.5625 0.28125,-1.34375 0.53125,-2.03125 0.125,-0.3125 0.171875,-0.453125 0.171875,-0.640625 0,-0.4375 -0.3125,-0.8125 -0.8125,-0.8125 -0.953125,0 -1.3125,1.453125 -1.3125,1.53125 0,0.109375 0.09375,0.109375 0.109375,0.109375 0.109375,0 0.109375,-0.03125 0.15625,-0.1875 0.25,-0.859375 0.640625,-1.234375 1.015625,-1.234375 0.09375,0 0.25,0.015625 0.25,0.328125 0,0.234375 -0.109375,0.53125 -0.171875,0.671875 -0.375,1 -0.578125,1.609375 -0.578125,2.09375 0,0.953125 0.6875,1.203125 1.21875,1.203125 0.65625,0 1.015625,-0.453125 1.1875,-0.671875 z m 0,0"
             id="id-bd128f2d-f4a2-40f7-b156-587daab66c47" />
        </g>
      </g>
      <g
         style="fill:#000000;fill-opacity:1;stroke:#000000;stroke-width:0;stroke-opacity:1"
         id="id-522f5182-7ebc-4b02-bc2f-98af48c292ad">
        <g
           transform="translate(154.415,134.765)"
           style="fill-opacity:1;stroke:#000000;stroke-width:0;stroke-opacity:1"
           id="g42192">
          <path
             style="fill-opacity:1;stroke:#000000;stroke-width:0;stroke-opacity:1"
             d="m 3.296875,2.390625 c 0,-0.03125 0,-0.046875 -0.171875,-0.21875 C 1.890625,0.921875 1.5625,-0.96875 1.5625,-2.5 c 0,-1.734375 0.375,-3.46875 1.609375,-4.703125 0.125,-0.125 0.125,-0.140625 0.125,-0.171875 0,-0.078125 -0.03125,-0.109375 -0.09375,-0.109375 -0.109375,0 -1,0.6875 -1.59375,1.953125 -0.5,1.09375 -0.625,2.203125 -0.625,3.03125 0,0.78125 0.109375,1.984375 0.65625,3.125 C 2.25,1.84375 3.09375,2.5 3.203125,2.5 c 0.0625,0 0.09375,-0.03125 0.09375,-0.109375 z m 0,0"
             id="id-3f28c1d8-c502-4257-a413-764c3a2bc2ce" />
        </g>
      </g>
      <g
         style="fill:#000000;fill-opacity:1;stroke:#000000;stroke-width:0;stroke-opacity:1"
         id="id-9a73828e-5b7b-446d-9837-3c85bd6c49db">
        <g
           transform="translate(158.29,134.765)"
           style="fill-opacity:1;stroke:#000000;stroke-width:0;stroke-opacity:1"
           id="g42196">
          <path
             style="fill-opacity:1;stroke:#000000;stroke-width:0;stroke-opacity:1"
             d="M 3.328125,-3.015625 C 3.390625,-3.265625 3.625,-4.1875 4.3125,-4.1875 c 0.046875,0 0.296875,0 0.5,0.125 C 4.53125,-4 4.34375,-3.765625 4.34375,-3.515625 c 0,0.15625 0.109375,0.34375 0.375,0.34375 0.21875,0 0.53125,-0.171875 0.53125,-0.578125 0,-0.515625 -0.578125,-0.65625 -0.921875,-0.65625 -0.578125,0 -0.921875,0.53125 -1.046875,0.75 -0.25,-0.65625 -0.78125,-0.75 -1.078125,-0.75 -1.03125,0 -1.609375,1.28125 -1.609375,1.53125 0,0.109375 0.109375,0.109375 0.125,0.109375 0.078125,0 0.109375,-0.03125 0.125,-0.109375 0.34375,-1.0625 1,-1.3125 1.34375,-1.3125 0.1875,0 0.53125,0.09375 0.53125,0.671875 0,0.3125 -0.171875,0.96875 -0.53125,2.375 -0.15625,0.609375 -0.515625,1.03125 -0.953125,1.03125 -0.0625,0 -0.28125,0 -0.5,-0.125 0.25,-0.0625 0.46875,-0.265625 0.46875,-0.546875 0,-0.265625 -0.21875,-0.34375 -0.359375,-0.34375 -0.3125,0 -0.546875,0.25 -0.546875,0.578125 0,0.453125 0.484375,0.65625 0.921875,0.65625 0.671875,0 1.03125,-0.703125 1.046875,-0.75 0.125,0.359375 0.484375,0.75 1.078125,0.75 1.03125,0 1.59375,-1.28125 1.59375,-1.53125 0,-0.109375 -0.078125,-0.109375 -0.109375,-0.109375 -0.09375,0 -0.109375,0.046875 -0.140625,0.109375 -0.328125,1.078125 -1,1.3125 -1.3125,1.3125 -0.390625,0 -0.546875,-0.3125 -0.546875,-0.65625 0,-0.21875 0.046875,-0.4375 0.15625,-0.875 z m 0,0"
             id="id-09bed37c-3a4f-4c9b-a566-c98021cc1995" />
        </g>
      </g>
      <g
         style="fill:#000000;fill-opacity:1;stroke:#000000;stroke-width:0;stroke-opacity:1"
         id="id-4c79ffb3-68c1-4536-8b9f-96bd322f7ced">
        <g
           transform="translate(163.984,134.765)"
           style="fill-opacity:1;stroke:#000000;stroke-width:0;stroke-opacity:1"
           id="g42200">
          <path
             style="fill-opacity:1;stroke:#000000;stroke-width:0;stroke-opacity:1"
             d="m 2.875,-2.5 c 0,-0.765625 -0.109375,-1.96875 -0.65625,-3.109375 -0.59375,-1.21875 -1.453125,-1.875 -1.546875,-1.875 -0.0625,0 -0.109375,0.046875 -0.109375,0.109375 0,0.03125 0,0.046875 0.1875,0.234375 0.984375,0.984375 1.546875,2.5625 1.546875,4.640625 0,1.71875 -0.359375,3.46875 -1.59375,4.71875 C 0.5625,2.34375 0.5625,2.359375 0.5625,2.390625 0.5625,2.453125 0.609375,2.5 0.671875,2.5 0.765625,2.5 1.671875,1.8125 2.25,0.546875 2.765625,-0.546875 2.875,-1.65625 2.875,-2.5 Z m 0,0"
             id="id-878fe247-98d1-4449-94f2-dad618c25271" />
        </g>
      </g>
    </g>
  </g>
  <path
     style="font-variation-settings:normal;opacity:1;vector-effect:none;fill:none;fill-opacity:1;stroke:#0cc6de;stroke-width:0.4;stroke-linecap:butt;stroke-linejoin:round;stroke-miterlimit:4;stroke-dasharray:none;stroke-dashoffset:0;stroke-opacity:1;stop-color:#000000;stop-opacity:1"
     d="m 52.009521,19.987505 0.0094,17.421175 -0.07256,0.147644 -0.08197,0.03294 -0.08198,0.02944 -0.08197,0.02593 -0.08198,0.02241 -0.08197,0.01889 -0.08198,0.01537 -0.08198,0.01184 -0.08198,0.0083 -0.08198,0.0048 -0.08198,0.0012 -0.08047,-0.0022 -0.08047,-0.0056 -0.08047,-0.009 -0.08047,-0.01242 -0.08047,-0.01581 -0.08047,-0.01921 -0.08047,-0.0226 -0.08047,-0.02599 -0.08047,-0.02937 -0.08047,-0.03274 -0.08047,-0.03612 -0.08047,-0.03948 -0.08047,-0.04283 -0.08047,-0.04618 -0.08047,-0.04952 -0.08047,-0.05285 -0.07695,-0.05364 -0.07696,-0.05667 -0.15391,-0.122372 -0.153912,-0.134339 -0.15391,-0.146224 -0.153908,-0.157995 -0.153914,-0.169664 -0.153904,-0.181203 -0.153914,-0.192623 -0.170985,-0.227212 -0.170989,-0.240939 -0.341975,-0.522196 -0.341973,-0.574418 -0.341975,-0.624638 -0.301338,-0.590317 -0.301343,-0.626025 -0.602676,-1.35231 -0.69691,-1.71399 -0.696908,-1.851394 -1.14947,-3.282017 -1.44971,-4.36702 L 40.691669,16.026387 39.44236,12.449293 38.769646,10.660017 38.096933,8.9979445 37.470058,7.5833587 36.843185,6.3152573 36.555494,5.786473 36.267802,5.2929976 35.980115,4.8360484 35.692424,4.4167531 35.511373,4.1726512 35.330319,3.9441117 35.149268,3.7313598 34.968218,3.5346024 34.787162,3.3540316 l -0.09052,-0.084159 -0.09052,-0.080049 -0.09052,-0.075917 -0.09053,-0.071766 -0.09052,-0.0676 -0.09052,-0.063416 -0.07283,-0.047969 -0.07283,-0.045244 -0.07283,-0.042511 -0.07282,-0.039772 -0.07283,-0.037028 -0.07282,-0.034275 -0.07283,-0.031519 -0.07283,-0.028758 -0.07282,-0.02599 -0.07283,-0.02322 -0.07282,-0.020447 -0.07283,-0.017669 -0.07283,-0.014888 -0.07283,-0.012107 -0.07282,-0.00932 -0.07283,-0.00654 -0.04481,-0.00264 -0.04481,-0.00158 -0.04481,-5.243e-4 -0.04481,5.345e-4 -0.04481,0.00159 -0.04481,0.00264 -0.04481,0.0037 -0.04481,0.00475 -0.04481,0.0058 -0.04481,0.00686 -0.04481,0.00791 -0.04481,0.00897 -0.04481,0.010019 -0.04481,0.011072 -0.08962,0.025297 -0.08962,0.029498 -0.08962,0.033691 -0.08962,0.037876 -0.08962,0.042053 -0.08962,0.046217 -0.08963,0.050373 -0.08962,0.054517 -0.08962,0.058646 -0.08275,0.057806 -0.08276,0.061305 -0.08275,0.064789 -0.08275,0.068261 -0.165508,0.1468803 -0.165511,0.1605907 -0.165507,0.1741692 -0.165508,0.1876064 -0.165507,0.2008905 -0.165508,0.2140095 -0.318778,0.4485105 -0.318777,0.4951628 -0.318781,0.5403172 -0.318777,0.5838336 -0.619272,1.2518164 -0.619275,1.3949604 -0.680313,1.6784487 -0.680315,1.80881 -1.406637,4.044487 -1.192541,3.604531 v 0 H 23.249586 13.061397"
     id="path43093"
     sodipodi:nodetypes="ccccccccccccccccccccccccccccccccccccccccccccccccccccccccccccccccccccccccccccccccccccccccccccccccccccccccccccccccccccccccccccccccccccc" />
  <g
     transform="matrix(0.39999999,0,0,0.39999999,-8.5045151,-29.867793)"
     ns0:version="0.11.0"
     ns0:texconverter="pdflatex"
     ns0:pdfconverter="pdf2svg"
     ns0:text="$a$"
     ns0:preamble="/home/phyps/Dropbox/Talks/1710 Bristol Colloquium teleportation/preamble.tex"
     ns0:scale="2.83464566935"
     ns0:alignment="middle center"
     inkscapeversion="0.92.3"
     ns0:jacobian_sqrt="0.4"
     style="fill-opacity:1;stroke:#000000;stroke-opacity:1"
     id="g4830">
    <g
       id="g4828"
       style="fill-opacity:1;stroke:#000000;stroke-opacity:1">
      <g
         style="fill:#000000;fill-opacity:1;stroke:#000000;stroke-opacity:1"
         id="g4826">
        <path
           inkscape:connector-curvature="0"
           style="fill-opacity:1;stroke:#000000;stroke-width:0;stroke-opacity:1"
           d="M 3.71875,-3.765625 C 3.53125,-4.140625 3.25,-4.40625 2.796875,-4.40625 c -1.15625,0 -2.390625,1.46875 -2.390625,2.921875 0,0.9375 0.546875,1.59375 1.3125,1.59375 0.203125,0 0.703125,-0.046875 1.296875,-0.75 0.078125,0.421875 0.4375,0.75 0.90625,0.75 0.359375,0 0.578125,-0.234375 0.75,-0.546875 0.15625,-0.359375 0.296875,-0.96875 0.296875,-0.984375 0,-0.109375 -0.09375,-0.109375 -0.125,-0.109375 -0.09375,0 -0.109375,0.046875 -0.140625,0.1875 -0.171875,0.640625 -0.34375,1.234375 -0.75,1.234375 -0.28125,0 -0.296875,-0.265625 -0.296875,-0.453125 0,-0.21875 0.015625,-0.3125 0.125,-0.75 C 3.890625,-1.71875 3.90625,-1.828125 4,-2.203125 L 4.359375,-3.59375 c 0.0625,-0.28125 0.0625,-0.296875 0.0625,-0.34375 0,-0.171875 -0.109375,-0.265625 -0.28125,-0.265625 -0.25,0 -0.390625,0.21875 -0.421875,0.4375 z M 3.078125,-1.1875 C 3.015625,-1 3.015625,-0.984375 2.875,-0.8125 2.4375,-0.265625 2.03125,-0.109375 1.75,-0.109375 c -0.5,0 -0.640625,-0.546875 -0.640625,-0.9375 0,-0.5 0.3125,-1.71875 0.546875,-2.1875 0.3125,-0.578125 0.75,-0.953125 1.15625,-0.953125 0.640625,0 0.78125,0.8125 0.78125,0.875 0,0.0625 -0.015625,0.125 -0.03125,0.171875 z m 0,0"
           transform="translate(148.712,134.765)"
           id="path4824" />
      </g>
    </g>
  </g>
</svg>
