<?xml version="1.0" encoding="UTF-8" standalone="no"?>
<!-- Created with Inkscape (http://www.inkscape.org/) -->

<svg
   xmlns:ns0="http://www.iki.fi/pav/software/textext/"
   xmlns:dc="http://purl.org/dc/elements/1.1/"
   xmlns:cc="http://creativecommons.org/ns#"
   xmlns:rdf="http://www.w3.org/1999/02/22-rdf-syntax-ns#"
   xmlns:svg="http://www.w3.org/2000/svg"
   xmlns="http://www.w3.org/2000/svg"
   xmlns:sodipodi="http://sodipodi.sourceforge.net/DTD/sodipodi-0.dtd"
   xmlns:inkscape="http://www.inkscape.org/namespaces/inkscape"
   width="8cm"
   height="3.8cm"
   viewBox="0 0 80 37.999998"
   version="1.1"
   id="svg8"
   inkscape:version="0.92.3 (2405546, 2018-03-11)"
   sodipodi:docname="energy-levels-inf-sq-well.svg">
  <sodipodi:namedview
     id="base"
     pagecolor="#ffffff"
     bordercolor="#666666"
     borderopacity="1.0"
     inkscape:pageopacity="0.0"
     inkscape:pageshadow="2"
     inkscape:zoom="2.8"
     inkscape:cx="77.621477"
     inkscape:cy="70.46214"
     inkscape:document-units="mm"
     inkscape:current-layer="g855"
     showgrid="false"
     units="cm"
     inkscape:window-width="1853"
     inkscape:window-height="1025"
     inkscape:window-x="67"
     inkscape:window-y="27"
     inkscape:window-maximized="1"
     inkscape:snap-global="false"
     showguides="false" />
  <defs
     id="defs2">
    <marker
       inkscape:stockid="Arrow2MendH"
       orient="auto"
       refY="0.0"
       refX="0.0"
       id="marker1584"
       style="overflow:visible;"
       inkscape:isstock="true">
      <path
         id="path1582"
         style="stroke-linejoin:round;stroke-opacity:1;fill-rule:evenodd;fill-opacity:1;stroke:#ee7219;stroke-width:0.625;fill:#ee7219"
         d="M 8.7185878,4.0337352 L -2.2072895,0.016013256 L 8.7185884,-4.0017078 C 6.9730900,-1.6296469 6.9831476,1.6157441 8.7185878,4.0337352 z "
         transform="scale(0.6) rotate(180) translate(0,0)" />
    </marker>
    <marker
       inkscape:stockid="Arrow2Mend"
       orient="auto"
       refY="0.0"
       refX="0.0"
       id="Arrow2Mend"
       style="overflow:visible;"
       inkscape:isstock="true">
      <path
         id="path1104"
         style="fill-rule:evenodd;stroke-width:0.625;stroke-linejoin:round;stroke:#9278d1;stroke-opacity:1;fill:#000000;fill-opacity:1"
         d="M 8.7185878,4.0337352 L -2.2072895,0.016013256 L 8.7185884,-4.0017078 C 6.9730900,-1.6296469 6.9831476,1.6157441 8.7185878,4.0337352 z "
         transform="scale(0.6) rotate(180) translate(0,0)" />
    </marker>
    <marker
       inkscape:stockid="Arrow1Send"
       orient="auto"
       refY="0.0"
       refX="0.0"
       id="Arrow1Send"
       style="overflow:visible;"
       inkscape:isstock="true">
      <path
         id="path1092"
         d="M 0.0,0.0 L 5.0,-5.0 L -12.5,0.0 L 5.0,5.0 L 0.0,0.0 z "
         style="fill-rule:evenodd;stroke:#000000;stroke-width:1pt;stroke-opacity:1;fill:#000000;fill-opacity:1"
         transform="scale(0.2) rotate(180) translate(6,0)" />
    </marker>
    <clipPath
       clipPathUnits="userSpaceOnUse"
       id="clipPath247">
      <rect
         ry="0"
         y="233.79077"
         x="142.97461"
         height="45.56945"
         width="1.0753164"
         id="rect249"
         style="color:#000000;display:inline;overflow:visible;visibility:visible;opacity:1;vector-effect:none;fill:#ab1f2d;fill-opacity:1;fill-rule:nonzero;stroke:none;stroke-width:0.19843748;stroke-linecap:butt;stroke-linejoin:miter;stroke-miterlimit:10;stroke-dasharray:none;stroke-dashoffset:0;stroke-opacity:1;marker:none;marker-start:none;marker-mid:none;marker-end:none;enable-background:accumulate" />
    </clipPath>
  </defs>
  <metadata
     id="metadata5">
    <rdf:RDF>
      <cc:Work
         rdf:about="">
        <dc:format>image/svg+xml</dc:format>
        <dc:type
           rdf:resource="http://purl.org/dc/dcmitype/StillImage" />
        <dc:title></dc:title>
      </cc:Work>
    </rdf:RDF>
  </metadata>
  <g
     inkscape:label="Layer 1"
     inkscape:groupmode="layer"
     id="layer1"
     transform="translate(0,-259.00002)">
    <g
       transform="matrix(0.35277777,0,0,-0.35277777,-3.0238201,351.19959)"
       inkscape:label="inkscape-clipboard-import"
       inkscape:groupmode="layer"
       id="g855">
      <path
         d="m 35.300086,160.15084 h 0.141671 0.167104 0.161638 0.147136 0.151479 0.157295 0.17035 0.138425 0.172067 0.136707 0.148942 0.159833 0.148414 0.16036 0.172221 0.136553 0.165581 0.143194 0.162502 0.146272 0.152955 0.155819 0.154429 0.154347 0.160523 0.148251 0.166761 0.142013"
         style="fill:none;stroke:#000000;stroke-width:0.56692916;stroke-linecap:butt;stroke-linejoin:round;stroke-miterlimit:10;stroke-dasharray:none;stroke-opacity:1"
         id="path1323"
         inkscape:connector-curvature="0" />
      <path
         d="M 37.461508,157.5562 V 258.63424"
         style="fill:none;stroke:#262626;stroke-width:0.70866144;stroke-linecap:square;stroke-linejoin:round;stroke-miterlimit:10;stroke-dasharray:none;stroke-opacity:1"
         id="path1255"
         inkscape:connector-curvature="0" />
      <g
         transform="matrix(1.133858,0,0,-1.133858,-143.68539,403.57862)"
         ns0:version="0.11.0"
         ns0:texconverter="pdflatex"
         ns0:pdfconverter="pdf2svg"
         ns0:text="$E$"
         ns0:preamble="/home/phyps/Dropbox/Talks/1710 Bristol Colloquium teleportation/preamble.tex"
         ns0:scale="8.03521629938"
         ns0:alignment="middle center"
         inkscapeversion="0.92.3"
         ns0:jacobian_sqrt="1.133858"
         style="fill-opacity:1;stroke:#000000;stroke-opacity:1"
         id="g2360">
        <g
           id="surface1"
           style="fill-opacity:1;stroke:#000000;stroke-opacity:1">
          <g
             style="fill:#000000;fill-opacity:1;stroke:#000000;stroke-opacity:1"
             id="g2357">
            <path
               inkscape:connector-curvature="0"
               style="fill-opacity:1;stroke:#000000;stroke-width:0;stroke-opacity:1"
               d="M 7.0625,-2.328125 C 7.078125,-2.375 7.109375,-2.4375 7.109375,-2.46875 c 0,0 0,-0.109375 -0.125,-0.109375 -0.09375,0 -0.109375,0.0625 -0.125,0.125 C 6.203125,-0.984375 5.84375,-0.3125 4.140625,-0.3125 H 2.6875 c -0.140625,0 -0.171875,0 -0.21875,0 -0.109375,-0.015625 -0.140625,-0.03125 -0.140625,-0.109375 0,-0.03125 0,-0.046875 0.046875,-0.21875 L 3.0625,-3.375 h 0.984375 c 0.84375,0 0.84375,0.21875 0.84375,0.46875 0,0.0625 0,0.1875 -0.0625,0.484375 C 4.8125,-2.375 4.796875,-2.34375 4.796875,-2.3125 c 0,0.046875 0.03125,0.109375 0.125,0.109375 C 5,-2.203125 5.03125,-2.25 5.078125,-2.40625 l 0.5625,-2.328125 c 0,-0.0625 -0.046875,-0.109375 -0.125,-0.109375 -0.078125,0 -0.109375,0.0625 -0.125,0.171875 -0.21875,0.765625 -0.390625,1 -1.3125,1 h -0.9375 l 0.59375,-2.40625 C 3.828125,-6.4375 3.84375,-6.46875 4.28125,-6.46875 H 5.6875 c 1.203125,0 1.515625,0.28125 1.515625,1.109375 0,0.234375 0,0.25 -0.046875,0.53125 0,0.046875 -0.015625,0.125 -0.015625,0.171875 0,0.046875 0.03125,0.125 0.125,0.125 0.109375,0 0.125,-0.0625 0.140625,-0.25 L 7.609375,-6.515625 C 7.640625,-6.78125 7.59375,-6.78125 7.34375,-6.78125 H 2.296875 c -0.1875,0 -0.296875,0 -0.296875,0.203125 0,0.109375 0.09375,0.109375 0.28125,0.109375 0.375,0 0.65625,0 0.65625,0.171875 0,0.046875 0,0.0625 -0.0625,0.25 L 1.5625,-0.78125 c -0.09375,0.390625 -0.109375,0.46875 -0.90625,0.46875 -0.171875,0 -0.28125,0 -0.28125,0.1875 C 0.375,0 0.46875,0 0.65625,0 h 5.171875 c 0.234375,0 0.25,-0.015625 0.3125,-0.171875 z m 0,0"
               transform="translate(148.712,134.765)"
               id="path2355" />
          </g>
        </g>
      </g>
      <g
         id="g2424"
         style="fill-opacity:1;stroke:#000000;stroke-opacity:1"
         ns0:jacobian_sqrt="1.133858"
         inkscapeversion="0.92.3"
         ns0:alignment="middle center"
         ns0:scale="8.03521629938"
         ns0:preamble="/home/phyps/Dropbox/Talks/1710 Bristol Colloquium teleportation/preamble.tex"
         ns0:text="$0$"
         ns0:pdfconverter="pdf2svg"
         ns0:texconverter="pdflatex"
         ns0:version="0.11.0"
         transform="matrix(1.133858,0,0,-1.133858,-140.63162,309.31447)">
        <g
           style="fill-opacity:1;stroke:#000000;stroke-opacity:1"
           id="g2422">
          <g
             id="g2420"
             style="fill:#000000;fill-opacity:1;stroke:#000000;stroke-opacity:1">
            <path
               id="path2418"
               transform="translate(148.712,134.765)"
               d="m 4.578125,-3.1875 c 0,-0.796875 -0.046875,-1.59375 -0.390625,-2.328125 -0.453125,-0.96875 -1.28125,-1.125 -1.6875,-1.125 -0.609375,0 -1.328125,0.265625 -1.75,1.1875 -0.3125,0.6875 -0.359375,1.46875 -0.359375,2.265625 0,0.75 0.03125,1.640625 0.453125,2.40625 0.421875,0.796875 1.15625,1 1.640625,1 0.53125,0 1.296875,-0.203125 1.734375,-1.15625 0.3125,-0.6875 0.359375,-1.46875 0.359375,-2.25 z M 2.484375,0 C 2.09375,0 1.5,-0.25 1.328125,-1.203125 1.21875,-1.796875 1.21875,-2.71875 1.21875,-3.3125 c 0,-0.640625 0,-1.296875 0.078125,-1.828125 0.1875,-1.1875 0.9375,-1.28125 1.1875,-1.28125 0.328125,0 0.984375,0.1875 1.171875,1.171875 0.109375,0.5625 0.109375,1.3125 0.109375,1.9375 0,0.75 0,1.421875 -0.109375,2.0625 C 3.5,-0.296875 2.9375,0 2.484375,0 Z m 0,0"
               style="fill-opacity:1;stroke:#000000;stroke-width:0;stroke-opacity:1"
               inkscape:connector-curvature="0" />
          </g>
        </g>
      </g>
      <g
         transform="matrix(1.133858,0,0,-1.133858,-29.155417,313.69907)"
         ns0:version="0.11.0"
         ns0:texconverter="pdflatex"
         ns0:pdfconverter="pdf2svg"
         ns0:text="$E_1$"
         ns0:preamble="/home/phyps/Dropbox/Talks/1710 Bristol Colloquium teleportation/preamble.tex"
         ns0:scale="8.03521629938"
         ns0:alignment="middle center"
         inkscapeversion="0.92.3"
         ns0:jacobian_sqrt="1.133858"
         style="fill-opacity:1;stroke:#000000;stroke-opacity:1"
         id="g2516">
        <g
           id="g2514"
           style="fill-opacity:1;stroke:#000000;stroke-opacity:1">
          <g
             style="fill:#000000;fill-opacity:1;stroke:#000000;stroke-opacity:1"
             id="g2508">
            <path
               inkscape:connector-curvature="0"
               style="fill-opacity:1;stroke:#000000;stroke-width:0;stroke-opacity:1"
               d="M 7.0625,-2.328125 C 7.078125,-2.375 7.109375,-2.4375 7.109375,-2.46875 c 0,0 0,-0.109375 -0.125,-0.109375 -0.09375,0 -0.109375,0.0625 -0.125,0.125 C 6.203125,-0.984375 5.84375,-0.3125 4.140625,-0.3125 H 2.6875 c -0.140625,0 -0.171875,0 -0.21875,0 -0.109375,-0.015625 -0.140625,-0.03125 -0.140625,-0.109375 0,-0.03125 0,-0.046875 0.046875,-0.21875 L 3.0625,-3.375 h 0.984375 c 0.84375,0 0.84375,0.21875 0.84375,0.46875 0,0.0625 0,0.1875 -0.0625,0.484375 C 4.8125,-2.375 4.796875,-2.34375 4.796875,-2.3125 c 0,0.046875 0.03125,0.109375 0.125,0.109375 C 5,-2.203125 5.03125,-2.25 5.078125,-2.40625 l 0.5625,-2.328125 c 0,-0.0625 -0.046875,-0.109375 -0.125,-0.109375 -0.078125,0 -0.109375,0.0625 -0.125,0.171875 -0.21875,0.765625 -0.390625,1 -1.3125,1 h -0.9375 l 0.59375,-2.40625 C 3.828125,-6.4375 3.84375,-6.46875 4.28125,-6.46875 H 5.6875 c 1.203125,0 1.515625,0.28125 1.515625,1.109375 0,0.234375 0,0.25 -0.046875,0.53125 0,0.046875 -0.015625,0.125 -0.015625,0.171875 0,0.046875 0.03125,0.125 0.125,0.125 0.109375,0 0.125,-0.0625 0.140625,-0.25 L 7.609375,-6.515625 C 7.640625,-6.78125 7.59375,-6.78125 7.34375,-6.78125 H 2.296875 c -0.1875,0 -0.296875,0 -0.296875,0.203125 0,0.109375 0.09375,0.109375 0.28125,0.109375 0.375,0 0.65625,0 0.65625,0.171875 0,0.046875 0,0.0625 -0.0625,0.25 L 1.5625,-0.78125 c -0.09375,0.390625 -0.109375,0.46875 -0.90625,0.46875 -0.171875,0 -0.28125,0 -0.28125,0.1875 C 0.375,0 0.46875,0 0.65625,0 h 5.171875 c 0.234375,0 0.25,-0.015625 0.3125,-0.171875 z m 0,0"
               transform="translate(148.712,134.765)"
               id="path2506" />
          </g>
          <g
             style="fill:#000000;fill-opacity:1;stroke:#000000;stroke-opacity:1"
             id="g2512">
            <path
               inkscape:connector-curvature="0"
               style="fill-opacity:1;stroke:#000000;stroke-width:0;stroke-opacity:1"
               d="m 2.328125,-4.4375 c 0,-0.1875 0,-0.1875 -0.203125,-0.1875 -0.453125,0.4375 -1.078125,0.4375 -1.359375,0.4375 v 0.25 c 0.15625,0 0.625,0 1,-0.1875 v 3.546875 c 0,0.234375 0,0.328125 -0.6875,0.328125 H 0.8125 V 0 c 0.125,0 0.984375,-0.03125 1.234375,-0.03125 0.21875,0 1.09375,0.03125 1.25,0.03125 V -0.25 H 3.03125 c -0.703125,0 -0.703125,-0.09375 -0.703125,-0.328125 z m 0,0"
               transform="translate(156.067,136.259)"
               id="path2510" />
          </g>
        </g>
      </g>
      <g
         id="g2662"
         style="fill-opacity:1;stroke:#000000;stroke-opacity:1"
         ns0:jacobian_sqrt="1.133858"
         inkscapeversion="0.92.3"
         ns0:alignment="middle center"
         ns0:scale="8.03521629938"
         ns0:preamble="/home/phyps/Dropbox/Talks/1710 Bristol Colloquium teleportation/preamble.tex"
         ns0:text="$E_2$"
         ns0:pdfconverter="pdf2svg"
         ns0:texconverter="pdflatex"
         ns0:version="0.11.0"
         transform="matrix(1.133858,0,0,-1.133858,-29.155417,324.92313)">
        <g
           style="fill-opacity:1;stroke:#000000;stroke-opacity:1"
           id="g2660">
          <g
             id="g2654"
             style="fill:#000000;fill-opacity:1;stroke:#000000;stroke-opacity:1">
            <path
               inkscape:connector-curvature="0"
               id="path2652"
               transform="translate(148.712,134.765)"
               d="M 7.0625,-2.328125 C 7.078125,-2.375 7.109375,-2.4375 7.109375,-2.46875 c 0,0 0,-0.109375 -0.125,-0.109375 -0.09375,0 -0.109375,0.0625 -0.125,0.125 C 6.203125,-0.984375 5.84375,-0.3125 4.140625,-0.3125 H 2.6875 c -0.140625,0 -0.171875,0 -0.21875,0 -0.109375,-0.015625 -0.140625,-0.03125 -0.140625,-0.109375 0,-0.03125 0,-0.046875 0.046875,-0.21875 L 3.0625,-3.375 h 0.984375 c 0.84375,0 0.84375,0.21875 0.84375,0.46875 0,0.0625 0,0.1875 -0.0625,0.484375 C 4.8125,-2.375 4.796875,-2.34375 4.796875,-2.3125 c 0,0.046875 0.03125,0.109375 0.125,0.109375 C 5,-2.203125 5.03125,-2.25 5.078125,-2.40625 l 0.5625,-2.328125 c 0,-0.0625 -0.046875,-0.109375 -0.125,-0.109375 -0.078125,0 -0.109375,0.0625 -0.125,0.171875 -0.21875,0.765625 -0.390625,1 -1.3125,1 h -0.9375 l 0.59375,-2.40625 C 3.828125,-6.4375 3.84375,-6.46875 4.28125,-6.46875 H 5.6875 c 1.203125,0 1.515625,0.28125 1.515625,1.109375 0,0.234375 0,0.25 -0.046875,0.53125 0,0.046875 -0.015625,0.125 -0.015625,0.171875 0,0.046875 0.03125,0.125 0.125,0.125 0.109375,0 0.125,-0.0625 0.140625,-0.25 L 7.609375,-6.515625 C 7.640625,-6.78125 7.59375,-6.78125 7.34375,-6.78125 H 2.296875 c -0.1875,0 -0.296875,0 -0.296875,0.203125 0,0.109375 0.09375,0.109375 0.28125,0.109375 0.375,0 0.65625,0 0.65625,0.171875 0,0.046875 0,0.0625 -0.0625,0.25 L 1.5625,-0.78125 c -0.09375,0.390625 -0.109375,0.46875 -0.90625,0.46875 -0.171875,0 -0.28125,0 -0.28125,0.1875 C 0.375,0 0.46875,0 0.65625,0 h 5.171875 c 0.234375,0 0.25,-0.015625 0.3125,-0.171875 z m 0,0"
               style="fill-opacity:1;stroke:#000000;stroke-width:0;stroke-opacity:1" />
          </g>
          <g
             id="g2658"
             style="fill:#000000;fill-opacity:1;stroke:#000000;stroke-opacity:1">
            <path
               inkscape:connector-curvature="0"
               id="path2656"
               transform="translate(156.067,136.259)"
               d="M 3.515625,-1.265625 H 3.28125 c -0.015625,0.15625 -0.09375,0.5625 -0.1875,0.625 C 3.046875,-0.59375 2.515625,-0.59375 2.40625,-0.59375 H 1.125 c 0.734375,-0.640625 0.984375,-0.84375 1.390625,-1.171875 0.515625,-0.40625 1,-0.84375 1,-1.5 0,-0.84375 -0.734375,-1.359375 -1.625,-1.359375 -0.859375,0 -1.453125,0.609375 -1.453125,1.25 0,0.34375 0.296875,0.390625 0.375,0.390625 0.15625,0 0.359375,-0.125 0.359375,-0.375 0,-0.125 -0.046875,-0.375 -0.40625,-0.375 C 0.984375,-4.21875 1.453125,-4.375 1.78125,-4.375 c 0.703125,0 1.0625,0.546875 1.0625,1.109375 0,0.609375 -0.4375,1.078125 -0.65625,1.328125 L 0.515625,-0.265625 C 0.4375,-0.203125 0.4375,-0.1875 0.4375,0 h 2.875 z m 0,0"
               style="fill-opacity:1;stroke:#000000;stroke-width:0;stroke-opacity:1" />
          </g>
        </g>
      </g>
      <g
         transform="matrix(1.133858,0,0,-1.133858,-29.155417,343.70961)"
         ns0:version="0.11.0"
         ns0:texconverter="pdflatex"
         ns0:pdfconverter="pdf2svg"
         ns0:text="$E_3$"
         ns0:preamble="/home/phyps/Dropbox/Talks/1710 Bristol Colloquium teleportation/preamble.tex"
         ns0:scale="8.03521629938"
         ns0:alignment="middle center"
         inkscapeversion="0.92.3"
         ns0:jacobian_sqrt="1.133858"
         style="fill-opacity:1;stroke:#000000;stroke-opacity:1"
         id="g2784">
        <g
           id="g2782"
           style="fill-opacity:1;stroke:#000000;stroke-opacity:1">
          <g
             style="fill:#000000;fill-opacity:1;stroke:#000000;stroke-opacity:1"
             id="g2776">
            <path
               inkscape:connector-curvature="0"
               style="fill-opacity:1;stroke:#000000;stroke-width:0;stroke-opacity:1"
               d="M 7.0625,-2.328125 C 7.078125,-2.375 7.109375,-2.4375 7.109375,-2.46875 c 0,0 0,-0.109375 -0.125,-0.109375 -0.09375,0 -0.109375,0.0625 -0.125,0.125 C 6.203125,-0.984375 5.84375,-0.3125 4.140625,-0.3125 H 2.6875 c -0.140625,0 -0.171875,0 -0.21875,0 -0.109375,-0.015625 -0.140625,-0.03125 -0.140625,-0.109375 0,-0.03125 0,-0.046875 0.046875,-0.21875 L 3.0625,-3.375 h 0.984375 c 0.84375,0 0.84375,0.21875 0.84375,0.46875 0,0.0625 0,0.1875 -0.0625,0.484375 C 4.8125,-2.375 4.796875,-2.34375 4.796875,-2.3125 c 0,0.046875 0.03125,0.109375 0.125,0.109375 C 5,-2.203125 5.03125,-2.25 5.078125,-2.40625 l 0.5625,-2.328125 c 0,-0.0625 -0.046875,-0.109375 -0.125,-0.109375 -0.078125,0 -0.109375,0.0625 -0.125,0.171875 -0.21875,0.765625 -0.390625,1 -1.3125,1 h -0.9375 l 0.59375,-2.40625 C 3.828125,-6.4375 3.84375,-6.46875 4.28125,-6.46875 H 5.6875 c 1.203125,0 1.515625,0.28125 1.515625,1.109375 0,0.234375 0,0.25 -0.046875,0.53125 0,0.046875 -0.015625,0.125 -0.015625,0.171875 0,0.046875 0.03125,0.125 0.125,0.125 0.109375,0 0.125,-0.0625 0.140625,-0.25 L 7.609375,-6.515625 C 7.640625,-6.78125 7.59375,-6.78125 7.34375,-6.78125 H 2.296875 c -0.1875,0 -0.296875,0 -0.296875,0.203125 0,0.109375 0.09375,0.109375 0.28125,0.109375 0.375,0 0.65625,0 0.65625,0.171875 0,0.046875 0,0.0625 -0.0625,0.25 L 1.5625,-0.78125 c -0.09375,0.390625 -0.109375,0.46875 -0.90625,0.46875 -0.171875,0 -0.28125,0 -0.28125,0.1875 C 0.375,0 0.46875,0 0.65625,0 h 5.171875 c 0.234375,0 0.25,-0.015625 0.3125,-0.171875 z m 0,0"
               transform="translate(148.712,134.765)"
               id="path2774" />
          </g>
          <g
             style="fill:#000000;fill-opacity:1;stroke:#000000;stroke-opacity:1"
             id="g2780">
            <path
               inkscape:connector-curvature="0"
               style="fill-opacity:1;stroke:#000000;stroke-width:0;stroke-opacity:1"
               d="m 1.90625,-2.328125 c 0.546875,0 0.9375,0.375 0.9375,1.125 0,0.859375 -0.515625,1.125 -0.90625,1.125 -0.28125,0 -0.90625,-0.078125 -1.1875,-0.5 0.328125,0 0.40625,-0.234375 0.40625,-0.390625 0,-0.21875 -0.171875,-0.375 -0.390625,-0.375 -0.1875,0 -0.390625,0.125 -0.390625,0.40625 0,0.65625 0.71875,1.078125 1.5625,1.078125 0.96875,0 1.640625,-0.65625 1.640625,-1.34375 0,-0.546875 -0.4375,-1.09375 -1.203125,-1.25 0.71875,-0.265625 0.984375,-0.78125 0.984375,-1.21875 0,-0.546875 -0.625,-0.953125 -1.40625,-0.953125 -0.765625,0 -1.359375,0.375 -1.359375,0.9375 0,0.234375 0.15625,0.359375 0.359375,0.359375 0.21875,0 0.359375,-0.15625 0.359375,-0.34375 0,-0.203125 -0.140625,-0.359375 -0.359375,-0.375 0.25,-0.296875 0.71875,-0.375 0.984375,-0.375 0.3125,0 0.75,0.15625 0.75,0.75 0,0.296875 -0.09375,0.625 -0.28125,0.828125 -0.21875,0.265625 -0.421875,0.28125 -0.765625,0.3125 -0.171875,0.015625 -0.1875,0.015625 -0.21875,0.015625 -0.015625,0 -0.078125,0.015625 -0.078125,0.09375 0,0.09375 0.0625,0.09375 0.1875,0.09375 z m 0,0"
               transform="translate(156.067,136.259)"
               id="path2778" />
          </g>
        </g>
      </g>
      <g
         id="g2906"
         style="fill-opacity:1;stroke:#000000;stroke-opacity:1"
         ns0:jacobian_sqrt="1.133858"
         inkscapeversion="0.92.3"
         ns0:alignment="middle center"
         ns0:scale="8.03521629938"
         ns0:preamble="/home/phyps/Dropbox/Talks/1710 Bristol Colloquium teleportation/preamble.tex"
         ns0:text="$E_4$"
         ns0:pdfconverter="pdf2svg"
         ns0:texconverter="pdflatex"
         ns0:version="0.11.0"
         transform="matrix(1.133858,0,0,-1.133858,-29.155417,369.81935)">
        <g
           style="fill-opacity:1;stroke:#000000;stroke-opacity:1"
           id="g2904">
          <g
             id="g2898"
             style="fill:#000000;fill-opacity:1;stroke:#000000;stroke-opacity:1">
            <path
               inkscape:connector-curvature="0"
               id="path2896"
               transform="translate(148.712,134.765)"
               d="M 7.0625,-2.328125 C 7.078125,-2.375 7.109375,-2.4375 7.109375,-2.46875 c 0,0 0,-0.109375 -0.125,-0.109375 -0.09375,0 -0.109375,0.0625 -0.125,0.125 C 6.203125,-0.984375 5.84375,-0.3125 4.140625,-0.3125 H 2.6875 c -0.140625,0 -0.171875,0 -0.21875,0 -0.109375,-0.015625 -0.140625,-0.03125 -0.140625,-0.109375 0,-0.03125 0,-0.046875 0.046875,-0.21875 L 3.0625,-3.375 h 0.984375 c 0.84375,0 0.84375,0.21875 0.84375,0.46875 0,0.0625 0,0.1875 -0.0625,0.484375 C 4.8125,-2.375 4.796875,-2.34375 4.796875,-2.3125 c 0,0.046875 0.03125,0.109375 0.125,0.109375 C 5,-2.203125 5.03125,-2.25 5.078125,-2.40625 l 0.5625,-2.328125 c 0,-0.0625 -0.046875,-0.109375 -0.125,-0.109375 -0.078125,0 -0.109375,0.0625 -0.125,0.171875 -0.21875,0.765625 -0.390625,1 -1.3125,1 h -0.9375 l 0.59375,-2.40625 C 3.828125,-6.4375 3.84375,-6.46875 4.28125,-6.46875 H 5.6875 c 1.203125,0 1.515625,0.28125 1.515625,1.109375 0,0.234375 0,0.25 -0.046875,0.53125 0,0.046875 -0.015625,0.125 -0.015625,0.171875 0,0.046875 0.03125,0.125 0.125,0.125 0.109375,0 0.125,-0.0625 0.140625,-0.25 L 7.609375,-6.515625 C 7.640625,-6.78125 7.59375,-6.78125 7.34375,-6.78125 H 2.296875 c -0.1875,0 -0.296875,0 -0.296875,0.203125 0,0.109375 0.09375,0.109375 0.28125,0.109375 0.375,0 0.65625,0 0.65625,0.171875 0,0.046875 0,0.0625 -0.0625,0.25 L 1.5625,-0.78125 c -0.09375,0.390625 -0.109375,0.46875 -0.90625,0.46875 -0.171875,0 -0.28125,0 -0.28125,0.1875 C 0.375,0 0.46875,0 0.65625,0 h 5.171875 c 0.234375,0 0.25,-0.015625 0.3125,-0.171875 z m 0,0"
               style="fill-opacity:1;stroke:#000000;stroke-width:0;stroke-opacity:1" />
          </g>
          <g
             id="g2902"
             style="fill:#000000;fill-opacity:1;stroke:#000000;stroke-opacity:1">
            <path
               inkscape:connector-curvature="0"
               id="path2900"
               transform="translate(156.067,136.259)"
               d="m 3.6875,-1.140625 v -0.25 H 2.90625 V -4.5 c 0,-0.140625 0,-0.203125 -0.140625,-0.203125 -0.09375,0 -0.125,0 -0.1875,0.109375 l -2.3125,3.203125 v 0.25 h 2.0625 v 0.5625 c 0,0.25 0,0.328125 -0.578125,0.328125 H 1.5625 V 0 C 1.921875,-0.015625 2.359375,-0.03125 2.609375,-0.03125 2.875,-0.03125 3.3125,-0.015625 3.671875,0 v -0.25 h -0.1875 C 2.90625,-0.25 2.90625,-0.328125 2.90625,-0.578125 v -0.5625 z M 2.375,-3.9375 v 2.546875 H 0.53125 Z m 0,0"
               style="fill-opacity:1;stroke:#000000;stroke-width:0;stroke-opacity:1" />
          </g>
        </g>
      </g>
      <g
         transform="matrix(1.133858,0,0,-1.133858,-29.155417,403.57124)"
         ns0:version="0.11.0"
         ns0:texconverter="pdflatex"
         ns0:pdfconverter="pdf2svg"
         ns0:text="$E_5$"
         ns0:preamble="/home/phyps/Dropbox/Talks/1710 Bristol Colloquium teleportation/preamble.tex"
         ns0:scale="8.03521629938"
         ns0:alignment="middle center"
         inkscapeversion="0.92.3"
         ns0:jacobian_sqrt="1.133858"
         style="fill-opacity:1;stroke:#000000;stroke-opacity:1"
         id="g3028">
        <g
           id="g3026"
           style="fill-opacity:1;stroke:#000000;stroke-opacity:1">
          <g
             style="fill:#000000;fill-opacity:1;stroke:#000000;stroke-opacity:1"
             id="g3020">
            <path
               inkscape:connector-curvature="0"
               style="fill-opacity:1;stroke:#000000;stroke-width:0;stroke-opacity:1"
               d="M 7.0625,-2.328125 C 7.078125,-2.375 7.109375,-2.4375 7.109375,-2.46875 c 0,0 0,-0.109375 -0.125,-0.109375 -0.09375,0 -0.109375,0.0625 -0.125,0.125 C 6.203125,-0.984375 5.84375,-0.3125 4.140625,-0.3125 H 2.6875 c -0.140625,0 -0.171875,0 -0.21875,0 -0.109375,-0.015625 -0.140625,-0.03125 -0.140625,-0.109375 0,-0.03125 0,-0.046875 0.046875,-0.21875 L 3.0625,-3.375 h 0.984375 c 0.84375,0 0.84375,0.21875 0.84375,0.46875 0,0.0625 0,0.1875 -0.0625,0.484375 C 4.8125,-2.375 4.796875,-2.34375 4.796875,-2.3125 c 0,0.046875 0.03125,0.109375 0.125,0.109375 C 5,-2.203125 5.03125,-2.25 5.078125,-2.40625 l 0.5625,-2.328125 c 0,-0.0625 -0.046875,-0.109375 -0.125,-0.109375 -0.078125,0 -0.109375,0.0625 -0.125,0.171875 -0.21875,0.765625 -0.390625,1 -1.3125,1 h -0.9375 l 0.59375,-2.40625 C 3.828125,-6.4375 3.84375,-6.46875 4.28125,-6.46875 H 5.6875 c 1.203125,0 1.515625,0.28125 1.515625,1.109375 0,0.234375 0,0.25 -0.046875,0.53125 0,0.046875 -0.015625,0.125 -0.015625,0.171875 0,0.046875 0.03125,0.125 0.125,0.125 0.109375,0 0.125,-0.0625 0.140625,-0.25 L 7.609375,-6.515625 C 7.640625,-6.78125 7.59375,-6.78125 7.34375,-6.78125 H 2.296875 c -0.1875,0 -0.296875,0 -0.296875,0.203125 0,0.109375 0.09375,0.109375 0.28125,0.109375 0.375,0 0.65625,0 0.65625,0.171875 0,0.046875 0,0.0625 -0.0625,0.25 L 1.5625,-0.78125 c -0.09375,0.390625 -0.109375,0.46875 -0.90625,0.46875 -0.171875,0 -0.28125,0 -0.28125,0.1875 C 0.375,0 0.46875,0 0.65625,0 h 5.171875 c 0.234375,0 0.25,-0.015625 0.3125,-0.171875 z m 0,0"
               transform="translate(148.712,134.765)"
               id="path3018" />
          </g>
          <g
             style="fill:#000000;fill-opacity:1;stroke:#000000;stroke-opacity:1"
             id="g3024">
            <path
               inkscape:connector-curvature="0"
               style="fill-opacity:1;stroke:#000000;stroke-width:0;stroke-opacity:1"
               d="m 1.078125,-3.890625 c 0.359375,0.09375 0.5625,0.09375 0.671875,0.09375 0.921875,0 1.46875,-0.625 1.46875,-0.734375 0,-0.078125 -0.046875,-0.09375 -0.078125,-0.09375 -0.015625,0 -0.03125,0 -0.0625,0.015625 -0.171875,0.0625 -0.53125,0.203125 -1.046875,0.203125 -0.203125,0 -0.5625,-0.015625 -1.015625,-0.1875 C 0.9375,-4.625 0.921875,-4.625 0.921875,-4.625 c -0.09375,0 -0.09375,0.078125 -0.09375,0.1875 v 2.046875 c 0,0.125 0,0.203125 0.109375,0.203125 0.0625,0 0.078125,0 0.140625,-0.09375 0.296875,-0.375 0.734375,-0.4375 0.96875,-0.4375 0.421875,0 0.609375,0.328125 0.640625,0.390625 0.125,0.234375 0.171875,0.5 0.171875,0.90625 0,0.203125 0,0.609375 -0.21875,0.921875 -0.171875,0.25 -0.46875,0.421875 -0.8125,0.421875 -0.453125,0 -0.921875,-0.25 -1.09375,-0.71875 0.265625,0.015625 0.40625,-0.15625 0.40625,-0.34375 0,-0.296875 -0.265625,-0.34375 -0.359375,-0.34375 0,0 -0.34375,0 -0.34375,0.375 0,0.625 0.578125,1.25 1.40625,1.25 0.890625,0 1.671875,-0.65625 1.671875,-1.546875 0,-0.78125 -0.59375,-1.5 -1.453125,-1.5 -0.3125,0 -0.671875,0.0625 -0.984375,0.328125 z m 0,0"
               transform="translate(156.067,136.259)"
               id="path3022" />
          </g>
        </g>
      </g>
      <g
         id="g3212"
         style="fill-opacity:1;stroke:#000000;stroke-opacity:1"
         ns0:jacobian_sqrt="1.133858"
         inkscapeversion="0.92.3"
         ns0:alignment="middle center"
         ns0:scale="8.03521629938"
         ns0:preamble="/home/phyps/Dropbox/Talks/1710 Bristol Colloquium teleportation/preamble.tex"
         ns0:text="$E_n= \\frac{\\hbar^2\\pi^2n^2}{2ma^2}$"
         ns0:pdfconverter="pdf2svg"
         ns0:texconverter="pdflatex"
         ns0:version="0.11.0"
         transform="matrix(1.133858,0,0,-1.133858,3.6393938,358.21146)">
        <g
           style="fill-opacity:1;stroke:#000000;stroke-opacity:1"
           id="g3210">
          <g
             id="g3160"
             style="fill:#000000;fill-opacity:1;stroke:#000000;stroke-opacity:1">
            <path
               id="path3158"
               transform="translate(148.712,134.942)"
               d="M 7.0625,-2.328125 C 7.078125,-2.375 7.109375,-2.4375 7.109375,-2.46875 c 0,0 0,-0.109375 -0.125,-0.109375 -0.09375,0 -0.109375,0.0625 -0.125,0.125 C 6.203125,-0.984375 5.84375,-0.3125 4.140625,-0.3125 H 2.6875 c -0.140625,0 -0.171875,0 -0.21875,0 -0.109375,-0.015625 -0.140625,-0.03125 -0.140625,-0.109375 0,-0.03125 0,-0.046875 0.046875,-0.21875 L 3.0625,-3.375 h 0.984375 c 0.84375,0 0.84375,0.21875 0.84375,0.46875 0,0.0625 0,0.1875 -0.0625,0.484375 C 4.8125,-2.375 4.796875,-2.34375 4.796875,-2.3125 c 0,0.046875 0.03125,0.109375 0.125,0.109375 C 5,-2.203125 5.03125,-2.25 5.078125,-2.40625 l 0.5625,-2.328125 c 0,-0.0625 -0.046875,-0.109375 -0.125,-0.109375 -0.078125,0 -0.109375,0.0625 -0.125,0.171875 -0.21875,0.765625 -0.390625,1 -1.3125,1 h -0.9375 l 0.59375,-2.40625 C 3.828125,-6.4375 3.84375,-6.46875 4.28125,-6.46875 H 5.6875 c 1.203125,0 1.515625,0.28125 1.515625,1.109375 0,0.234375 0,0.25 -0.046875,0.53125 0,0.046875 -0.015625,0.125 -0.015625,0.171875 0,0.046875 0.03125,0.125 0.125,0.125 0.109375,0 0.125,-0.0625 0.140625,-0.25 L 7.609375,-6.515625 C 7.640625,-6.78125 7.59375,-6.78125 7.34375,-6.78125 H 2.296875 c -0.1875,0 -0.296875,0 -0.296875,0.203125 0,0.109375 0.09375,0.109375 0.28125,0.109375 0.375,0 0.65625,0 0.65625,0.171875 0,0.046875 0,0.0625 -0.0625,0.25 L 1.5625,-0.78125 c -0.09375,0.390625 -0.109375,0.46875 -0.90625,0.46875 -0.171875,0 -0.28125,0 -0.28125,0.1875 C 0.375,0 0.46875,0 0.65625,0 h 5.171875 c 0.234375,0 0.25,-0.015625 0.3125,-0.171875 z m 0,0"
               style="fill-opacity:1;stroke:#000000;stroke-width:0;stroke-opacity:1"
               inkscape:connector-curvature="0" />
          </g>
          <g
             id="g3164"
             style="fill:#000000;fill-opacity:1;stroke:#000000;stroke-opacity:1">
            <path
               id="path3162"
               transform="translate(156.067,136.436)"
               d="m 0.84375,-0.4375 c -0.015625,0.09375 -0.0625,0.265625 -0.0625,0.28125 0,0.15625 0.125,0.21875 0.234375,0.21875 0.125,0 0.234375,-0.078125 0.28125,-0.140625 0.03125,-0.0625 0.078125,-0.296875 0.125,-0.4375 0.03125,-0.125 0.109375,-0.453125 0.140625,-0.625 0.046875,-0.15625 0.09375,-0.3125 0.125,-0.46875 0.078125,-0.28125 0.09375,-0.34375 0.296875,-0.625 C 2.171875,-2.515625 2.5,-2.875 3.03125,-2.875 c 0.390625,0 0.40625,0.359375 0.40625,0.484375 0,0.421875 -0.296875,1.1875 -0.40625,1.484375 -0.078125,0.203125 -0.109375,0.265625 -0.109375,0.375 0,0.375 0.296875,0.59375 0.65625,0.59375 0.703125,0 1,-0.953125 1,-1.0625 0,-0.09375 -0.078125,-0.09375 -0.109375,-0.09375 -0.09375,0 -0.09375,0.046875 -0.125,0.125 C 4.1875,-0.40625 3.875,-0.125 3.609375,-0.125 c -0.15625,0 -0.1875,-0.09375 -0.1875,-0.25 0,-0.15625 0.046875,-0.25 0.171875,-0.5625 0.078125,-0.21875 0.359375,-0.953125 0.359375,-1.34375 0,-0.671875 -0.53125,-0.796875 -0.90625,-0.796875 -0.578125,0 -0.96875,0.359375 -1.171875,0.640625 -0.046875,-0.484375 -0.453125,-0.640625 -0.75,-0.640625 -0.296875,0 -0.453125,0.21875 -0.546875,0.375 -0.15625,0.265625 -0.25,0.65625 -0.25,0.703125 0,0.078125 0.09375,0.078125 0.125,0.078125 0.09375,0 0.09375,-0.015625 0.140625,-0.203125 0.109375,-0.40625 0.25,-0.75 0.515625,-0.75 0.1875,0 0.234375,0.15625 0.234375,0.34375 0,0.125 -0.0625,0.390625 -0.125,0.578125 -0.046875,0.1875 -0.109375,0.46875 -0.140625,0.625 z m 0,0"
               style="fill-opacity:1;stroke:#000000;stroke-width:0;stroke-opacity:1"
               inkscape:connector-curvature="0" />
          </g>
          <g
             id="g3168"
             style="fill:#000000;fill-opacity:1;stroke:#000000;stroke-opacity:1">
            <path
               id="path3166"
               transform="translate(164.257,134.942)"
               d="m 6.84375,-3.265625 c 0.15625,0 0.34375,0 0.34375,-0.1875 C 7.1875,-3.65625 7,-3.65625 6.859375,-3.65625 h -5.96875 c -0.140625,0 -0.328125,0 -0.328125,0.203125 0,0.1875 0.1875,0.1875 0.328125,0.1875 z m 0.015625,1.9375 c 0.140625,0 0.328125,0 0.328125,-0.203125 0,-0.1875 -0.1875,-0.1875 -0.34375,-0.1875 H 0.890625 c -0.140625,0 -0.328125,0 -0.328125,0.1875 0,0.203125 0.1875,0.203125 0.328125,0.203125 z m 0,0"
               style="fill-opacity:1;stroke:#000000;stroke-width:0;stroke-opacity:1"
               inkscape:connector-curvature="0" />
          </g>
          <g
             id="g3172"
             style="fill:#000000;fill-opacity:1;stroke:#000000;stroke-opacity:1">
            <path
               id="path3170"
               transform="translate(175.969,131.019)"
               d="m 1.984375,-3.796875 h 1.46875 c 0.109375,0 0.234375,0 0.234375,-0.125 0,-0.109375 -0.109375,-0.109375 -0.234375,-0.109375 H 2.03125 c 0.046875,-0.171875 0.046875,-0.1875 0.09375,-0.359375 0.03125,-0.125 0.078125,-0.328125 0.078125,-0.34375 0,-0.03125 -0.015625,-0.109375 -0.109375,-0.109375 l -0.890625,0.078125 c -0.046875,0 -0.140625,0.015625 -0.140625,0.15625 0,0.09375 0.09375,0.09375 0.171875,0.09375 0.34375,0 0.34375,0.0625 0.34375,0.125 0,0 0,0.046875 -0.078125,0.359375 H 1.09375 c -0.125,0 -0.234375,0 -0.234375,0.109375 0,0.125 0.125,0.125 0.234375,0.125 H 1.4375 l -0.890625,3.53125 c 0,0.03125 -0.015625,0.078125 -0.015625,0.109375 0,0.109375 0.078125,0.21875 0.234375,0.21875 0.25,0 0.296875,-0.203125 0.328125,-0.3125 C 1.125,-0.375 1.203125,-0.703125 1.25,-0.859375 c 0.015625,-0.109375 0.09375,-0.375 0.109375,-0.484375 0.015625,-0.0625 0.109375,-0.421875 0.125,-0.46875 0,-0.0625 0.4375,-1.0625 1.28125,-1.0625 0.40625,0 0.40625,0.359375 0.40625,0.484375 0,0.40625 -0.296875,1.171875 -0.4375,1.546875 C 2.6875,-0.734375 2.65625,-0.640625 2.65625,-0.515625 2.65625,-0.1875 2.9375,0.0625 3.3125,0.0625 4,0.0625 4.328125,-0.875 4.328125,-1 c 0,-0.09375 -0.09375,-0.09375 -0.125,-0.09375 -0.09375,0 -0.09375,0.046875 -0.125,0.125 -0.1875,0.625 -0.515625,0.84375 -0.734375,0.84375 -0.15625,0 -0.1875,-0.109375 -0.1875,-0.25 0,-0.109375 0.015625,-0.203125 0.109375,-0.40625 0.125,-0.34375 0.421875,-1.109375 0.421875,-1.5 0,-0.578125 -0.421875,-0.796875 -0.90625,-0.796875 -0.453125,0 -0.8125,0.21875 -1.125,0.578125 z m 0,0"
               style="fill-opacity:1;stroke:#000000;stroke-width:0;stroke-opacity:1"
               inkscape:connector-curvature="0" />
          </g>
          <g
             id="g3176"
             style="fill:#000000;fill-opacity:1;stroke:#000000;stroke-opacity:1">
            <path
               id="path3174"
               transform="translate(180.383,128.012)"
               d="M 2.9375,-0.96875 H 2.71875 c 0,0.09375 -0.0625,0.40625 -0.140625,0.453125 -0.03125,0.03125 -0.453125,0.03125 -0.53125,0.03125 H 1.078125 C 1.40625,-0.71875 1.765625,-1 2.0625,-1.203125 c 0.453125,-0.3125 0.875,-0.59375 0.875,-1.125 0,-0.640625 -0.609375,-0.984375 -1.3125,-0.984375 -0.671875,0 -1.171875,0.375 -1.171875,0.875 0,0.25 0.21875,0.296875 0.296875,0.296875 0.125,0 0.28125,-0.09375 0.28125,-0.296875 0,-0.171875 -0.125,-0.28125 -0.28125,-0.28125 0.140625,-0.234375 0.4375,-0.375 0.765625,-0.375 0.484375,0 0.890625,0.28125 0.890625,0.765625 0,0.421875 -0.296875,0.75 -0.671875,1.0625 l -1.21875,1.03125 C 0.46875,-0.1875 0.453125,-0.1875 0.453125,-0.15625 V 0 h 2.3125 z m 0,0"
               style="fill-opacity:1;stroke:#000000;stroke-width:0;stroke-opacity:1"
               inkscape:connector-curvature="0" />
          </g>
          <g
             id="g3180"
             style="fill:#000000;fill-opacity:1;stroke:#000000;stroke-opacity:1">
            <path
               id="path3178"
               transform="translate(184.271,131.019)"
               d="M 2.171875,-2.53125 H 3 c -0.109375,0.421875 -0.265625,1.046875 -0.265625,1.609375 0,0.28125 0.046875,0.46875 0.078125,0.609375 0.109375,0.359375 0.203125,0.375 0.3125,0.375 0.171875,0 0.328125,-0.140625 0.328125,-0.3125 0,-0.046875 -0.015625,-0.078125 -0.046875,-0.140625 C 3.265625,-0.65625 3.140625,-1.046875 3.140625,-1.625 c 0,-0.125 0,-0.40625 0.09375,-0.90625 h 0.875 c 0.125,0 0.1875,0 0.265625,-0.046875 0.09375,-0.078125 0.109375,-0.1875 0.109375,-0.21875 C 4.484375,-3 4.3125,-3 4.1875,-3 h -2.625 c -0.28125,0 -0.484375,0.0625 -0.796875,0.359375 -0.1875,0.15625 -0.453125,0.53125 -0.453125,0.59375 0,0.078125 0.09375,0.078125 0.125,0.078125 0.078125,0 0.078125,-0.015625 0.125,-0.078125 C 0.90625,-2.53125 1.34375,-2.53125 1.5,-2.53125 h 0.421875 c -0.21875,0.765625 -0.59375,1.59375 -0.796875,2.015625 -0.046875,0.078125 -0.109375,0.234375 -0.140625,0.25 0,0.03125 -0.015625,0.0625 -0.015625,0.109375 0,0.109375 0.078125,0.21875 0.25,0.21875 0.265625,0 0.34375,-0.3125 0.515625,-0.9375 z m 0,0"
               style="fill-opacity:1;stroke:#000000;stroke-width:0;stroke-opacity:1"
               inkscape:connector-curvature="0" />
          </g>
          <g
             id="g3184"
             style="fill:#000000;fill-opacity:1;stroke:#000000;stroke-opacity:1">
            <path
               id="path3182"
               transform="translate(189.18,128.012)"
               d="M 2.9375,-0.96875 H 2.71875 c 0,0.09375 -0.0625,0.40625 -0.140625,0.453125 -0.03125,0.03125 -0.453125,0.03125 -0.53125,0.03125 H 1.078125 C 1.40625,-0.71875 1.765625,-1 2.0625,-1.203125 c 0.453125,-0.3125 0.875,-0.59375 0.875,-1.125 0,-0.640625 -0.609375,-0.984375 -1.3125,-0.984375 -0.671875,0 -1.171875,0.375 -1.171875,0.875 0,0.25 0.21875,0.296875 0.296875,0.296875 0.125,0 0.28125,-0.09375 0.28125,-0.296875 0,-0.171875 -0.125,-0.28125 -0.28125,-0.28125 0.140625,-0.234375 0.4375,-0.375 0.765625,-0.375 0.484375,0 0.890625,0.28125 0.890625,0.765625 0,0.421875 -0.296875,0.75 -0.671875,1.0625 l -1.21875,1.03125 C 0.46875,-0.1875 0.453125,-0.1875 0.453125,-0.15625 V 0 h 2.3125 z m 0,0"
               style="fill-opacity:1;stroke:#000000;stroke-width:0;stroke-opacity:1"
               inkscape:connector-curvature="0" />
          </g>
          <g
             id="g3188"
             style="fill:#000000;fill-opacity:1;stroke:#000000;stroke-opacity:1">
            <path
               id="path3186"
               transform="translate(193.068,131.019)"
               d="m 0.84375,-0.4375 c -0.015625,0.09375 -0.0625,0.265625 -0.0625,0.28125 0,0.15625 0.125,0.21875 0.234375,0.21875 0.125,0 0.234375,-0.078125 0.28125,-0.140625 0.03125,-0.0625 0.078125,-0.296875 0.125,-0.4375 0.03125,-0.125 0.109375,-0.453125 0.140625,-0.625 0.046875,-0.15625 0.09375,-0.3125 0.125,-0.46875 0.078125,-0.28125 0.09375,-0.34375 0.296875,-0.625 C 2.171875,-2.515625 2.5,-2.875 3.03125,-2.875 c 0.390625,0 0.40625,0.359375 0.40625,0.484375 0,0.421875 -0.296875,1.1875 -0.40625,1.484375 -0.078125,0.203125 -0.109375,0.265625 -0.109375,0.375 0,0.375 0.296875,0.59375 0.65625,0.59375 0.703125,0 1,-0.953125 1,-1.0625 0,-0.09375 -0.078125,-0.09375 -0.109375,-0.09375 -0.09375,0 -0.09375,0.046875 -0.125,0.125 C 4.1875,-0.40625 3.875,-0.125 3.609375,-0.125 c -0.15625,0 -0.1875,-0.09375 -0.1875,-0.25 0,-0.15625 0.046875,-0.25 0.171875,-0.5625 0.078125,-0.21875 0.359375,-0.953125 0.359375,-1.34375 0,-0.671875 -0.53125,-0.796875 -0.90625,-0.796875 -0.578125,0 -0.96875,0.359375 -1.171875,0.640625 -0.046875,-0.484375 -0.453125,-0.640625 -0.75,-0.640625 -0.296875,0 -0.453125,0.21875 -0.546875,0.375 -0.15625,0.265625 -0.25,0.65625 -0.25,0.703125 0,0.078125 0.09375,0.078125 0.125,0.078125 0.09375,0 0.09375,-0.015625 0.140625,-0.203125 0.109375,-0.40625 0.25,-0.75 0.515625,-0.75 0.1875,0 0.234375,0.15625 0.234375,0.34375 0,0.125 -0.0625,0.390625 -0.125,0.578125 -0.046875,0.1875 -0.109375,0.46875 -0.140625,0.625 z m 0,0"
               style="fill-opacity:1;stroke:#000000;stroke-width:0;stroke-opacity:1"
               inkscape:connector-curvature="0" />
          </g>
          <g
             id="g3192"
             style="fill:#000000;fill-opacity:1;stroke:#000000;stroke-opacity:1">
            <path
               id="path3190"
               transform="translate(197.993,128.012)"
               d="M 2.9375,-0.96875 H 2.71875 c 0,0.09375 -0.0625,0.40625 -0.140625,0.453125 -0.03125,0.03125 -0.453125,0.03125 -0.53125,0.03125 H 1.078125 C 1.40625,-0.71875 1.765625,-1 2.0625,-1.203125 c 0.453125,-0.3125 0.875,-0.59375 0.875,-1.125 0,-0.640625 -0.609375,-0.984375 -1.3125,-0.984375 -0.671875,0 -1.171875,0.375 -1.171875,0.875 0,0.25 0.21875,0.296875 0.296875,0.296875 0.125,0 0.28125,-0.09375 0.28125,-0.296875 0,-0.171875 -0.125,-0.28125 -0.28125,-0.28125 0.140625,-0.234375 0.4375,-0.375 0.765625,-0.375 0.484375,0 0.890625,0.28125 0.890625,0.765625 0,0.421875 -0.296875,0.75 -0.671875,1.0625 l -1.21875,1.03125 C 0.46875,-0.1875 0.453125,-0.1875 0.453125,-0.15625 V 0 h 2.3125 z m 0,0"
               style="fill-opacity:1;stroke:#000000;stroke-width:0;stroke-opacity:1"
               inkscape:connector-curvature="0" />
          </g>
          <path
             id="path3194"
             transform="matrix(1,0,0,-1,175.969,132.451)"
             d="M -2.5e-4,0.00178125 H 25.913813"
             style="fill:none;fill-opacity:1;stroke:#000000;stroke-width:0.398;stroke-linecap:butt;stroke-linejoin:miter;stroke-miterlimit:10;stroke-opacity:1"
             inkscape:connector-curvature="0" />
          <g
             id="g3198"
             style="fill:#000000;fill-opacity:1;stroke:#000000;stroke-opacity:1">
            <path
               id="path3196"
               transform="translate(179.3,138.377)"
               d="M 3.515625,-1.265625 H 3.28125 c -0.015625,0.15625 -0.09375,0.5625 -0.1875,0.625 C 3.046875,-0.59375 2.515625,-0.59375 2.40625,-0.59375 H 1.125 c 0.734375,-0.640625 0.984375,-0.84375 1.390625,-1.171875 0.515625,-0.40625 1,-0.84375 1,-1.5 0,-0.84375 -0.734375,-1.359375 -1.625,-1.359375 -0.859375,0 -1.453125,0.609375 -1.453125,1.25 0,0.34375 0.296875,0.390625 0.375,0.390625 0.15625,0 0.359375,-0.125 0.359375,-0.375 0,-0.125 -0.046875,-0.375 -0.40625,-0.375 C 0.984375,-4.21875 1.453125,-4.375 1.78125,-4.375 c 0.703125,0 1.0625,0.546875 1.0625,1.109375 0,0.609375 -0.4375,1.078125 -0.65625,1.328125 L 0.515625,-0.265625 C 0.4375,-0.203125 0.4375,-0.1875 0.4375,0 h 2.875 z m 0,0"
               style="fill-opacity:1;stroke:#000000;stroke-width:0;stroke-opacity:1"
               inkscape:connector-curvature="0" />
          </g>
          <g
             id="g3204"
             style="fill:#000000;fill-opacity:1;stroke:#000000;stroke-opacity:1">
            <path
               id="path3200"
               transform="translate(183.271,138.377)"
               d="m 3.03125,-0.5625 c -0.046875,0.140625 -0.109375,0.375 -0.109375,0.40625 0,0.15625 0.125,0.21875 0.234375,0.21875 0.140625,0 0.25,-0.078125 0.28125,-0.140625 0.03125,-0.0625 0.09375,-0.296875 0.125,-0.4375 0.03125,-0.125 0.109375,-0.453125 0.15625,-0.625 0.03125,-0.15625 0.078125,-0.3125 0.109375,-0.46875 0.078125,-0.296875 0.078125,-0.3125 0.21875,-0.53125 C 4.265625,-2.484375 4.625,-2.875 5.15625,-2.875 c 0.390625,0 0.421875,0.3125 0.421875,0.484375 0,0.421875 -0.296875,1.1875 -0.421875,1.484375 -0.0625,0.203125 -0.09375,0.265625 -0.09375,0.375 0,0.375 0.296875,0.59375 0.65625,0.59375 0.703125,0 1,-0.953125 1,-1.0625 0,-0.09375 -0.078125,-0.09375 -0.109375,-0.09375 -0.09375,0 -0.09375,0.046875 -0.125,0.125 C 6.328125,-0.40625 6.015625,-0.125 5.75,-0.125 c -0.15625,0 -0.1875,-0.09375 -0.1875,-0.25 0,-0.15625 0.046875,-0.25 0.171875,-0.5625 0.078125,-0.21875 0.359375,-0.953125 0.359375,-1.34375 0,-0.109375 0,-0.40625 -0.25,-0.609375 -0.125,-0.078125 -0.328125,-0.1875 -0.65625,-0.1875 -0.625,0 -1,0.421875 -1.234375,0.703125 C 3.90625,-2.96875 3.40625,-3.078125 3.046875,-3.078125 2.46875,-3.078125 2.078125,-2.71875 1.875,-2.4375 1.828125,-2.921875 1.421875,-3.078125 1.125,-3.078125 c -0.296875,0 -0.453125,0.21875 -0.546875,0.375 -0.15625,0.265625 -0.25,0.65625 -0.25,0.703125 0,0.078125 0.09375,0.078125 0.125,0.078125 0.09375,0 0.09375,-0.015625 0.140625,-0.203125 0.109375,-0.40625 0.25,-0.75 0.515625,-0.75 0.1875,0 0.234375,0.15625 0.234375,0.34375 0,0.125 -0.0625,0.390625 -0.125,0.578125 -0.046875,0.1875 -0.109375,0.46875 -0.140625,0.625 L 0.84375,-0.4375 c -0.015625,0.09375 -0.0625,0.265625 -0.0625,0.28125 0,0.15625 0.125,0.21875 0.234375,0.21875 0.125,0 0.234375,-0.078125 0.28125,-0.140625 0.03125,-0.0625 0.078125,-0.296875 0.125,-0.4375 0.03125,-0.125 0.109375,-0.453125 0.140625,-0.625 0.046875,-0.15625 0.09375,-0.3125 0.125,-0.46875 0.078125,-0.28125 0.09375,-0.34375 0.296875,-0.625 C 2.171875,-2.515625 2.5,-2.875 3.03125,-2.875 c 0.390625,0 0.40625,0.359375 0.40625,0.484375 0,0.171875 -0.015625,0.265625 -0.125,0.65625 z m 0,0"
               style="fill-opacity:1;stroke:#000000;stroke-width:0;stroke-opacity:1"
               inkscape:connector-curvature="0" />
            <path
               id="path3202"
               transform="translate(190.34034,138.377)"
               d="m 2.9375,-2.65625 c -0.140625,-0.234375 -0.375,-0.421875 -0.71875,-0.421875 -0.890625,0 -1.796875,0.984375 -1.796875,1.984375 0,0.6875 0.453125,1.15625 1.0625,1.15625 0.375,0 0.703125,-0.203125 0.984375,-0.484375 C 2.59375,0 3,0.0625 3.1875,0.0625 c 0.25,0 0.421875,-0.140625 0.546875,-0.359375 0.15625,-0.28125 0.25,-0.671875 0.25,-0.703125 0,-0.09375 -0.09375,-0.09375 -0.109375,-0.09375 -0.109375,0 -0.109375,0.03125 -0.15625,0.21875 C 3.625,-0.53125 3.5,-0.125 3.203125,-0.125 3.03125,-0.125 2.96875,-0.28125 2.96875,-0.46875 c 0,-0.109375 0.0625,-0.375 0.109375,-0.546875 0.046875,-0.1875 0.125,-0.46875 0.15625,-0.625 L 3.375,-2.171875 C 3.421875,-2.359375 3.5,-2.6875 3.5,-2.71875 3.5,-2.875 3.375,-2.9375 3.265625,-2.9375 c -0.125,0 -0.28125,0.078125 -0.328125,0.28125 z M 2.5,-0.875 C 2.453125,-0.671875 2.296875,-0.53125 2.140625,-0.40625 2.078125,-0.34375 1.796875,-0.125 1.5,-0.125 c -0.265625,0 -0.515625,-0.1875 -0.515625,-0.671875 0,-0.375 0.203125,-1.140625 0.375,-1.421875 0.3125,-0.5625 0.671875,-0.65625 0.859375,-0.65625 0.484375,0 0.625,0.53125 0.625,0.609375 0,0.015625 -0.015625,0.078125 -0.015625,0.09375 z m 0,0"
               style="fill-opacity:1;stroke:#000000;stroke-width:0;stroke-opacity:1"
               inkscape:connector-curvature="0" />
          </g>
          <g
             id="g3208"
             style="fill:#000000;fill-opacity:1;stroke:#000000;stroke-opacity:1">
            <path
               id="path3206"
               transform="translate(194.662,136.385)"
               d="M 2.9375,-0.96875 H 2.71875 c 0,0.09375 -0.0625,0.40625 -0.140625,0.453125 -0.03125,0.03125 -0.453125,0.03125 -0.53125,0.03125 H 1.078125 C 1.40625,-0.71875 1.765625,-1 2.0625,-1.203125 c 0.453125,-0.3125 0.875,-0.59375 0.875,-1.125 0,-0.640625 -0.609375,-0.984375 -1.3125,-0.984375 -0.671875,0 -1.171875,0.375 -1.171875,0.875 0,0.25 0.21875,0.296875 0.296875,0.296875 0.125,0 0.28125,-0.09375 0.28125,-0.296875 0,-0.171875 -0.125,-0.28125 -0.28125,-0.28125 0.140625,-0.234375 0.4375,-0.375 0.765625,-0.375 0.484375,0 0.890625,0.28125 0.890625,0.765625 0,0.421875 -0.296875,0.75 -0.671875,1.0625 l -1.21875,1.03125 C 0.46875,-0.1875 0.453125,-0.1875 0.453125,-0.15625 V 0 h 2.3125 z m 0,0"
               style="fill-opacity:1;stroke:#000000;stroke-width:0;stroke-opacity:1"
               inkscape:connector-curvature="0" />
          </g>
        </g>
      </g>
      <path
         inkscape:connector-curvature="0"
         id="path3328"
         style="fill:none;stroke:#000000;stroke-width:0.56692916;stroke-linecap:butt;stroke-linejoin:round;stroke-miterlimit:10;stroke-dasharray:none;stroke-opacity:1"
         d="m 35.300086,163.89219 h 0.141671 0.167104 0.161638 0.147136 0.151479 0.157295 0.17035 0.138425 0.172067 0.136707 0.148942 0.159833 0.148414 0.16036 0.172221 0.136553 0.165581 0.143194 0.162502 0.146272 0.152955 0.155819 0.154429 0.154347 0.160523 0.148251 0.166761 0.142013" />
      <path
         d="m 35.300086,167.63354 h 0.141671 0.167104 0.161638 0.147136 0.151479 0.157295 0.17035 0.138425 0.172067 0.136707 0.148942 0.159833 0.148414 0.16036 0.172221 0.136553 0.165581 0.143194 0.162502 0.146272 0.152955 0.155819 0.154429 0.154347 0.160523 0.148251 0.166761 0.142013"
         style="fill:none;stroke:#000000;stroke-width:0.56692916;stroke-linecap:butt;stroke-linejoin:round;stroke-miterlimit:10;stroke-dasharray:none;stroke-opacity:1"
         id="path3330"
         inkscape:connector-curvature="0" />
      <path
         inkscape:connector-curvature="0"
         id="path3332"
         style="fill:none;stroke:#000000;stroke-width:0.56692916;stroke-linecap:butt;stroke-linejoin:round;stroke-miterlimit:10;stroke-dasharray:none;stroke-opacity:1"
         d="m 35.300086,171.3749 h 0.141671 0.167104 0.161638 0.147136 0.151479 0.157295 0.17035 0.138425 0.172067 0.136707 0.148942 0.159833 0.148414 0.16036 0.172221 0.136553 0.165581 0.143194 0.162502 0.146272 0.152955 0.155819 0.154429 0.154347 0.160523 0.148251 0.166761 0.142013" />
      <path
         d="m 35.300086,175.11625 h 0.141671 0.167104 0.161638 0.147136 0.151479 0.157295 0.17035 0.138425 0.172067 0.136707 0.148942 0.159833 0.148414 0.16036 0.172221 0.136553 0.165581 0.143194 0.162502 0.146272 0.152955 0.155819 0.154429 0.154347 0.160523 0.148251 0.166761 0.142013"
         style="fill:none;stroke:#000000;stroke-width:0.56692916;stroke-linecap:butt;stroke-linejoin:round;stroke-miterlimit:10;stroke-dasharray:none;stroke-opacity:1"
         id="path3334"
         inkscape:connector-curvature="0" />
      <path
         inkscape:connector-curvature="0"
         id="path3336"
         style="fill:none;stroke:#000000;stroke-width:0.56692916;stroke-linecap:butt;stroke-linejoin:round;stroke-miterlimit:10;stroke-dasharray:none;stroke-opacity:1"
         d="m 35.300086,178.8576 h 0.141671 0.167104 0.161638 0.147136 0.151479 0.157295 0.17035 0.138425 0.172067 0.136707 0.148942 0.159833 0.148414 0.16036 0.172221 0.136553 0.165581 0.143194 0.162502 0.146272 0.152955 0.155819 0.154429 0.154347 0.160523 0.148251 0.166761 0.142013" />
      <path
         d="m 35.300086,182.59895 h 0.141671 0.167104 0.161638 0.147136 0.151479 0.157295 0.17035 0.138425 0.172067 0.136707 0.148942 0.159833 0.148414 0.16036 0.172221 0.136553 0.165581 0.143194 0.162502 0.146272 0.152955 0.155819 0.154429 0.154347 0.160523 0.148251 0.166761 0.142013"
         style="fill:none;stroke:#000000;stroke-width:0.56692916;stroke-linecap:butt;stroke-linejoin:round;stroke-miterlimit:10;stroke-dasharray:none;stroke-opacity:1"
         id="path3338"
         inkscape:connector-curvature="0" />
      <path
         inkscape:connector-curvature="0"
         id="path3340"
         style="fill:none;stroke:#000000;stroke-width:0.56692916;stroke-linecap:butt;stroke-linejoin:round;stroke-miterlimit:10;stroke-dasharray:none;stroke-opacity:1"
         d="m 35.300086,186.34031 h 0.141671 0.167104 0.161638 0.147136 0.151479 0.157295 0.17035 0.138425 0.172067 0.136707 0.148942 0.159833 0.148414 0.16036 0.172221 0.136553 0.165581 0.143194 0.162502 0.146272 0.152955 0.155819 0.154429 0.154347 0.160523 0.148251 0.166761 0.142013" />
      <path
         d="m 35.300086,190.08166 h 0.141671 0.167104 0.161638 0.147136 0.151479 0.157295 0.17035 0.138425 0.172067 0.136707 0.148942 0.159833 0.148414 0.16036 0.172221 0.136553 0.165581 0.143194 0.162502 0.146272 0.152955 0.155819 0.154429 0.154347 0.160523 0.148251 0.166761 0.142013"
         style="fill:none;stroke:#000000;stroke-width:0.56692916;stroke-linecap:butt;stroke-linejoin:round;stroke-miterlimit:10;stroke-dasharray:none;stroke-opacity:1"
         id="path3342"
         inkscape:connector-curvature="0" />
      <path
         inkscape:connector-curvature="0"
         id="path3344"
         style="fill:none;stroke:#000000;stroke-width:0.56692916;stroke-linecap:butt;stroke-linejoin:round;stroke-miterlimit:10;stroke-dasharray:none;stroke-opacity:1"
         d="m 35.300086,193.82301 h 0.141671 0.167104 0.161638 0.147136 0.151479 0.157295 0.17035 0.138425 0.172067 0.136707 0.148942 0.159833 0.148414 0.16036 0.172221 0.136553 0.165581 0.143194 0.162502 0.146272 0.152955 0.155819 0.154429 0.154347 0.160523 0.148251 0.166761 0.142013" />
      <path
         d="m 35.300086,197.56436 h 0.141671 0.167104 0.161638 0.147136 0.151479 0.157295 0.17035 0.138425 0.172067 0.136707 0.148942 0.159833 0.148414 0.16036 0.172221 0.136553 0.165581 0.143194 0.162502 0.146272 0.152955 0.155819 0.154429 0.154347 0.160523 0.148251 0.166761 0.142013"
         style="fill:none;stroke:#000000;stroke-width:0.56692916;stroke-linecap:butt;stroke-linejoin:round;stroke-miterlimit:10;stroke-dasharray:none;stroke-opacity:1"
         id="path3346"
         inkscape:connector-curvature="0" />
      <path
         inkscape:connector-curvature="0"
         id="path3348"
         style="fill:none;stroke:#000000;stroke-width:0.56692916;stroke-linecap:butt;stroke-linejoin:round;stroke-miterlimit:10;stroke-dasharray:none;stroke-opacity:1"
         d="m 35.300086,201.30572 h 0.141671 0.167104 0.161638 0.147136 0.151479 0.157295 0.17035 0.138425 0.172067 0.136707 0.148942 0.159833 0.148414 0.16036 0.172221 0.136553 0.165581 0.143194 0.162502 0.146272 0.152955 0.155819 0.154429 0.154347 0.160523 0.148251 0.166761 0.142013" />
      <path
         d="m 35.300086,205.04707 h 0.141671 0.167104 0.161638 0.147136 0.151479 0.157295 0.17035 0.138425 0.172067 0.136707 0.148942 0.159833 0.148414 0.16036 0.172221 0.136553 0.165581 0.143194 0.162502 0.146272 0.152955 0.155819 0.154429 0.154347 0.160523 0.148251 0.166761 0.142013"
         style="fill:none;stroke:#000000;stroke-width:0.56692916;stroke-linecap:butt;stroke-linejoin:round;stroke-miterlimit:10;stroke-dasharray:none;stroke-opacity:1"
         id="path3350"
         inkscape:connector-curvature="0" />
      <path
         inkscape:connector-curvature="0"
         id="path3352"
         style="fill:none;stroke:#000000;stroke-width:0.56692916;stroke-linecap:butt;stroke-linejoin:round;stroke-miterlimit:10;stroke-dasharray:none;stroke-opacity:1"
         d="m 35.300086,208.78842 h 0.141671 0.167104 0.161638 0.147136 0.151479 0.157295 0.17035 0.138425 0.172067 0.136707 0.148942 0.159833 0.148414 0.16036 0.172221 0.136553 0.165581 0.143194 0.162502 0.146272 0.152955 0.155819 0.154429 0.154347 0.160523 0.148251 0.166761 0.142013" />
      <path
         d="m 35.300086,212.52977 h 0.141671 0.167104 0.161638 0.147136 0.151479 0.157295 0.17035 0.138425 0.172067 0.136707 0.148942 0.159833 0.148414 0.16036 0.172221 0.136553 0.165581 0.143194 0.162502 0.146272 0.152955 0.155819 0.154429 0.154347 0.160523 0.148251 0.166761 0.142013"
         style="fill:none;stroke:#000000;stroke-width:0.56692916;stroke-linecap:butt;stroke-linejoin:round;stroke-miterlimit:10;stroke-dasharray:none;stroke-opacity:1"
         id="path3354"
         inkscape:connector-curvature="0" />
      <path
         inkscape:connector-curvature="0"
         id="path3356"
         style="fill:none;stroke:#000000;stroke-width:0.56692916;stroke-linecap:butt;stroke-linejoin:round;stroke-miterlimit:10;stroke-dasharray:none;stroke-opacity:1"
         d="m 35.300086,216.27112 h 0.141671 0.167104 0.161638 0.147136 0.151479 0.157295 0.17035 0.138425 0.172067 0.136707 0.148942 0.159833 0.148414 0.16036 0.172221 0.136553 0.165581 0.143194 0.162502 0.146272 0.152955 0.155819 0.154429 0.154347 0.160523 0.148251 0.166761 0.142013" />
      <path
         d="m 35.300086,220.01247 h 0.141671 0.167104 0.161638 0.147136 0.151479 0.157295 0.17035 0.138425 0.172067 0.136707 0.148942 0.159833 0.148414 0.16036 0.172221 0.136553 0.165581 0.143194 0.162502 0.146272 0.152955 0.155819 0.154429 0.154347 0.160523 0.148251 0.166761 0.142013"
         style="fill:none;stroke:#000000;stroke-width:0.56692916;stroke-linecap:butt;stroke-linejoin:round;stroke-miterlimit:10;stroke-dasharray:none;stroke-opacity:1"
         id="path3358"
         inkscape:connector-curvature="0" />
      <path
         inkscape:connector-curvature="0"
         id="path3360"
         style="fill:none;stroke:#000000;stroke-width:0.56692916;stroke-linecap:butt;stroke-linejoin:round;stroke-miterlimit:10;stroke-dasharray:none;stroke-opacity:1"
         d="m 35.300086,223.75383 h 0.141671 0.167104 0.161638 0.147136 0.151479 0.157295 0.17035 0.138425 0.172067 0.136707 0.148942 0.159833 0.148414 0.16036 0.172221 0.136553 0.165581 0.143194 0.162502 0.146272 0.152955 0.155819 0.154429 0.154347 0.160523 0.148251 0.166761 0.142013" />
      <path
         d="m 35.300086,227.49518 h 0.141671 0.167104 0.161638 0.147136 0.151479 0.157295 0.17035 0.138425 0.172067 0.136707 0.148942 0.159833 0.148414 0.16036 0.172221 0.136553 0.165581 0.143194 0.162502 0.146272 0.152955 0.155819 0.154429 0.154347 0.160523 0.148251 0.166761 0.142013"
         style="fill:none;stroke:#000000;stroke-width:0.56692916;stroke-linecap:butt;stroke-linejoin:round;stroke-miterlimit:10;stroke-dasharray:none;stroke-opacity:1"
         id="path3362"
         inkscape:connector-curvature="0" />
      <path
         inkscape:connector-curvature="0"
         id="path3364"
         style="fill:none;stroke:#000000;stroke-width:0.56692916;stroke-linecap:butt;stroke-linejoin:round;stroke-miterlimit:10;stroke-dasharray:none;stroke-opacity:1"
         d="m 35.300086,231.23653 h 0.141671 0.167104 0.161638 0.147136 0.151479 0.157295 0.17035 0.138425 0.172067 0.136707 0.148942 0.159833 0.148414 0.16036 0.172221 0.136553 0.165581 0.143194 0.162502 0.146272 0.152955 0.155819 0.154429 0.154347 0.160523 0.148251 0.166761 0.142013" />
      <path
         d="m 35.300086,234.97789 h 0.141671 0.167104 0.161638 0.147136 0.151479 0.157295 0.17035 0.138425 0.172067 0.136707 0.148942 0.159833 0.148414 0.16036 0.172221 0.136553 0.165581 0.143194 0.162502 0.146272 0.152955 0.155819 0.154429 0.154347 0.160523 0.148251 0.166761 0.142013"
         style="fill:none;stroke:#000000;stroke-width:0.56692916;stroke-linecap:butt;stroke-linejoin:round;stroke-miterlimit:10;stroke-dasharray:none;stroke-opacity:1"
         id="path3366"
         inkscape:connector-curvature="0" />
      <path
         inkscape:connector-curvature="0"
         id="path3368"
         style="fill:none;stroke:#000000;stroke-width:0.56692916;stroke-linecap:butt;stroke-linejoin:round;stroke-miterlimit:10;stroke-dasharray:none;stroke-opacity:1"
         d="m 35.300086,238.71923 h 0.141671 0.167104 0.161638 0.147136 0.151479 0.157295 0.17035 0.138425 0.172067 0.136707 0.148942 0.159833 0.148414 0.16036 0.172221 0.136553 0.165581 0.143194 0.162502 0.146272 0.152955 0.155819 0.154429 0.154347 0.160523 0.148251 0.166761 0.142013" />
      <path
         d="m 35.300086,242.46059 h 0.141671 0.167104 0.161638 0.147136 0.151479 0.157295 0.17035 0.138425 0.172067 0.136707 0.148942 0.159833 0.148414 0.16036 0.172221 0.136553 0.165581 0.143194 0.162502 0.146272 0.152955 0.155819 0.154429 0.154347 0.160523 0.148251 0.166761 0.142013"
         style="fill:none;stroke:#000000;stroke-width:0.56692916;stroke-linecap:butt;stroke-linejoin:round;stroke-miterlimit:10;stroke-dasharray:none;stroke-opacity:1"
         id="path3370"
         inkscape:connector-curvature="0" />
      <path
         inkscape:connector-curvature="0"
         id="path3372"
         style="fill:none;stroke:#000000;stroke-width:0.56692916;stroke-linecap:butt;stroke-linejoin:round;stroke-miterlimit:10;stroke-dasharray:none;stroke-opacity:1"
         d="m 35.300086,246.20194 h 0.141671 0.167104 0.161638 0.147136 0.151479 0.157295 0.17035 0.138425 0.172067 0.136707 0.148942 0.159833 0.148414 0.16036 0.172221 0.136553 0.165581 0.143194 0.162502 0.146272 0.152955 0.155819 0.154429 0.154347 0.160523 0.148251 0.166761 0.142013" />
      <path
         d="m 35.300086,249.94329 h 0.141671 0.167104 0.161638 0.147136 0.151479 0.157295 0.17035 0.138425 0.172067 0.136707 0.148942 0.159833 0.148414 0.16036 0.172221 0.136553 0.165581 0.143194 0.162502 0.146272 0.152955 0.155819 0.154429 0.154347 0.160523 0.148251 0.166761 0.142013"
         style="fill:none;stroke:#000000;stroke-width:0.56692916;stroke-linecap:butt;stroke-linejoin:round;stroke-miterlimit:10;stroke-dasharray:none;stroke-opacity:1"
         id="path3374"
         inkscape:connector-curvature="0" />
      <path
         inkscape:connector-curvature="0"
         id="path3376"
         style="fill:none;stroke:#000000;stroke-width:0.56692916;stroke-linecap:butt;stroke-linejoin:round;stroke-miterlimit:10;stroke-dasharray:none;stroke-opacity:1"
         d="m 35.300086,253.68464 h 0.141671 0.167104 0.161638 0.147136 0.151479 0.157295 0.17035 0.138425 0.172067 0.136707 0.148942 0.159833 0.148414 0.16036 0.172221 0.136553 0.165581 0.143194 0.162502 0.146272 0.152955 0.155819 0.154429 0.154347 0.160523 0.148251 0.166761 0.142013" />
      <path
         d="m 37.461506,253.68464 h 3.275544 3.863587 3.737227 3.401905 3.502332 3.6368 3.93864 3.200491 3.978355 3.160773 3.44366 3.69548 3.43147 3.70766 3.98189 3.15724 3.82837 3.31076 3.75719 3.38194 3.53646 3.60267 3.57051 3.56863 3.71145 3.42768 3.85566 3.28347"
         style="fill:#9278d1;stroke:#9278d1;stroke-width:0.70866144;stroke-linecap:butt;stroke-linejoin:round;stroke-miterlimit:10;stroke-dasharray:none;stroke-opacity:1"
         id="path1343"
         inkscape:connector-curvature="0" />
      <path
         d="m 37.461506,220.01247 h 3.275544 3.863587 3.737227 3.401905 3.502332 3.6368 3.93864 3.200491 3.978355 3.160773 3.44366 3.69548 3.43147 3.70766 3.98189 3.15724 3.82837 3.31076 3.75719 3.38194 3.53646 3.60267 3.57051 3.56863 3.71145 3.42768 3.85566 3.28347"
         style="fill:#9278d1;stroke:#9278d1;stroke-width:0.70866144;stroke-linecap:butt;stroke-linejoin:round;stroke-miterlimit:10;stroke-dasharray:none;stroke-opacity:1"
         id="path1339"
         inkscape:connector-curvature="0" />
      <path
         d="m 37.461506,193.82301 h 3.275544 3.863587 3.737227 3.401905 3.502332 3.6368 3.93864 3.200491 3.978355 3.160773 3.44366 3.69548 3.43147 3.70766 3.98189 3.15724 3.82837 3.31076 3.75719 3.38194 3.53646 3.60267 3.57051 3.56863 3.71145 3.42768 3.85566 3.28347"
         style="fill:#9278d1;stroke:#9278d1;stroke-width:0.70866144;stroke-linecap:butt;stroke-linejoin:round;stroke-miterlimit:10;stroke-dasharray:none;stroke-opacity:1"
         id="path1335"
         inkscape:connector-curvature="0" />
      <path
         d="m 37.461506,175.11625 h 3.275544 3.863587 3.737227 3.401905 3.502332 3.6368 3.93864 3.200491 3.978355 3.160773 3.44366 3.69548 3.43147 3.70766 3.98189 3.15724 3.82837 3.31076 3.75719 3.38194 3.53646 3.60267 3.57051 3.56863 3.71145 3.42768 3.85566 3.28347"
         style="fill:#9278d1;stroke:#9278d1;stroke-width:0.70866144;stroke-linecap:butt;stroke-linejoin:round;stroke-miterlimit:10;stroke-dasharray:none;stroke-opacity:1"
         id="path1331"
         inkscape:connector-curvature="0" />
      <path
         d="m 37.461506,163.89219 h 3.275544 3.863587 3.737227 3.401905 3.502332 3.6368 3.93864 3.200491 3.978355 3.160773 3.44366 3.69548 3.43147 3.70766 3.98189 3.15724 3.82837 3.31076 3.75719 3.38194 3.53646 3.60267 3.57051 3.56863 3.71145 3.42768 3.85566 3.28347"
         style="fill:#9278d1;stroke:#9278d1;stroke-width:0.70866144;stroke-linecap:butt;stroke-linejoin:round;stroke-miterlimit:10;stroke-dasharray:none;stroke-opacity:1"
         id="path1327"
         inkscape:connector-curvature="0" />
    </g>
  </g>
</svg>
