<?xml version="1.0" encoding="UTF-8" standalone="no"?>
<!-- Created with Inkscape (http://www.inkscape.org/) -->

<svg
   xmlns:ns0="http://www.iki.fi/pav/software/textext/"
   xmlns:dc="http://purl.org/dc/elements/1.1/"
   xmlns:cc="http://creativecommons.org/ns#"
   xmlns:rdf="http://www.w3.org/1999/02/22-rdf-syntax-ns#"
   xmlns:svg="http://www.w3.org/2000/svg"
   xmlns="http://www.w3.org/2000/svg"
   xmlns:sodipodi="http://sodipodi.sourceforge.net/DTD/sodipodi-0.dtd"
   xmlns:inkscape="http://www.inkscape.org/namespaces/inkscape"
   width="8.5cm"
   height="4cm"
   viewBox="0 0 85 39.999997"
   version="1.1"
   id="svg8"
   inkscape:version="0.92.3 (2405546, 2018-03-11)"
   sodipodi:docname="finite-square-well-numerical.svg">
  <sodipodi:namedview
     id="base"
     pagecolor="#ffffff"
     bordercolor="#666666"
     borderopacity="1.0"
     inkscape:pageopacity="0.0"
     inkscape:pageshadow="2"
     inkscape:zoom="2.3151042"
     inkscape:cx="280.00443"
     inkscape:cy="53.951653"
     inkscape:document-units="mm"
     inkscape:current-layer="layer1"
     showgrid="false"
     units="cm"
     inkscape:window-width="1853"
     inkscape:window-height="1025"
     inkscape:window-x="67"
     inkscape:window-y="27"
     inkscape:window-maximized="1"
     inkscape:snap-global="false"
     showguides="false" />
  <defs
     id="defs2">
    <marker
       inkscape:isstock="true"
       style="overflow:visible"
       id="Arrow2Lstart"
       refX="0"
       refY="0"
       orient="auto"
       inkscape:stockid="Arrow2Lstart">
      <path
         inkscape:connector-curvature="0"
         transform="matrix(1.1,0,0,1.1,1.1,0)"
         d="M 8.7185878,4.0337352 -2.2072895,0.01601326 8.7185884,-4.0017078 c -1.7454984,2.3720609 -1.7354408,5.6174519 -6e-7,8.035443 z"
         style="fill:#000000;fill-opacity:1;fill-rule:evenodd;stroke:#000000;stroke-width:0.625;stroke-linejoin:round;stroke-opacity:1"
         id="path18140" />
    </marker>
    <marker
       inkscape:isstock="true"
       style="overflow:visible"
       id="Arrow2Mstart"
       refX="0"
       refY="0"
       orient="auto"
       inkscape:stockid="Arrow2Mstart">
      <path
         inkscape:connector-curvature="0"
         transform="scale(0.6)"
         d="M 8.7185878,4.0337352 -2.2072895,0.01601326 8.7185884,-4.0017078 c -1.7454984,2.3720609 -1.7354408,5.6174519 -6e-7,8.035443 z"
         style="fill:#000000;fill-opacity:1;fill-rule:evenodd;stroke:#000000;stroke-width:0.625;stroke-linejoin:round;stroke-opacity:1"
         id="path18146" />
    </marker>
    <marker
       inkscape:isstock="true"
       style="overflow:visible"
       id="Arrow1Mstart"
       refX="0"
       refY="0"
       orient="auto"
       inkscape:stockid="Arrow1Mstart">
      <path
         inkscape:connector-curvature="0"
         transform="matrix(0.4,0,0,0.4,4,0)"
         style="fill:#000000;fill-opacity:1;fill-rule:evenodd;stroke:#000000;stroke-width:1.00000003pt;stroke-opacity:1"
         d="M 0,0 5,-5 -12.5,0 5,5 Z"
         id="path18128" />
    </marker>
    <marker
       inkscape:stockid="Arrow2MendH"
       orient="auto"
       refY="0"
       refX="0"
       id="marker1584"
       style="overflow:visible"
       inkscape:isstock="true">
      <path
         inkscape:connector-curvature="0"
         id="path1582"
         style="fill:#ee7219;fill-opacity:1;fill-rule:evenodd;stroke:#ee7219;stroke-width:0.625;stroke-linejoin:round;stroke-opacity:1"
         d="M 8.7185878,4.0337352 -2.2072895,0.01601326 8.7185884,-4.0017078 c -1.7454984,2.3720609 -1.7354408,5.6174519 -6e-7,8.035443 z"
         transform="scale(-0.6)" />
    </marker>
    <marker
       inkscape:stockid="Arrow2Mend"
       orient="auto"
       refY="0"
       refX="0"
       id="Arrow2Mend"
       style="overflow:visible"
       inkscape:isstock="true">
      <path
         inkscape:connector-curvature="0"
         id="path1104"
         style="fill:#000000;fill-opacity:1;fill-rule:evenodd;stroke:#9278d1;stroke-width:0.625;stroke-linejoin:round;stroke-opacity:1"
         d="M 8.7185878,4.0337352 -2.2072895,0.01601326 8.7185884,-4.0017078 c -1.7454984,2.3720609 -1.7354408,5.6174519 -6e-7,8.035443 z"
         transform="scale(-0.6)" />
    </marker>
    <marker
       inkscape:stockid="Arrow1Send"
       orient="auto"
       refY="0"
       refX="0"
       id="Arrow1Send"
       style="overflow:visible"
       inkscape:isstock="true">
      <path
         inkscape:connector-curvature="0"
         id="path1092"
         d="M 0,0 5,-5 -12.5,0 5,5 Z"
         style="fill:#000000;fill-opacity:1;fill-rule:evenodd;stroke:#000000;stroke-width:1.00000003pt;stroke-opacity:1"
         transform="matrix(-0.2,0,0,-0.2,-1.2,0)" />
    </marker>
    <clipPath
       clipPathUnits="userSpaceOnUse"
       id="clipPath247">
      <rect
         ry="0"
         y="233.79077"
         x="142.97461"
         height="45.56945"
         width="1.0753164"
         id="rect249"
         style="color:#000000;display:inline;overflow:visible;visibility:visible;opacity:1;vector-effect:none;fill:#ab1f2d;fill-opacity:1;fill-rule:nonzero;stroke:none;stroke-width:0.19843748;stroke-linecap:butt;stroke-linejoin:miter;stroke-miterlimit:10;stroke-dasharray:none;stroke-dashoffset:0;stroke-opacity:1;marker:none;marker-start:none;marker-mid:none;marker-end:none;enable-background:accumulate" />
    </clipPath>
    <marker
       inkscape:isstock="true"
       style="overflow:visible"
       id="Arrow1Mstart-3"
       refX="0"
       refY="0"
       orient="auto"
       inkscape:stockid="Arrow1Mstart">
      <path
         inkscape:connector-curvature="0"
         transform="matrix(0.4,0,0,0.4,4,0)"
         style="fill:#000000;fill-opacity:1;fill-rule:evenodd;stroke:#000000;stroke-width:1.00000003pt;stroke-opacity:1"
         d="M 0,0 5,-5 -12.5,0 5,5 Z"
         id="path18128-6" />
    </marker>
    <clipPath
       id="clipPath1"
       clipPathUnits="userSpaceOnUse">
      <path
         inkscape:connector-curvature="0"
         id="path25980"
         d="M 0,0 H 837 V 588 H 0 Z" />
    </clipPath>
    <defs
       id="defs1">
      <clipPath
         id="clipPath26124"
         clipPathUnits="userSpaceOnUse">
        <path
           id="path26122"
           d="M 0,0 H 837 V 588 H 0 Z"
           inkscape:connector-curvature="0" />
      </clipPath>
    </defs>
  </defs>
  <metadata
     id="metadata5">
    <rdf:RDF>
      <cc:Work
         rdf:about="">
        <dc:format>image/svg+xml</dc:format>
        <dc:type
           rdf:resource="http://purl.org/dc/dcmitype/StillImage" />
        <dc:title></dc:title>
      </cc:Work>
    </rdf:RDF>
  </metadata>
  <g
     inkscape:label="Layer 1"
     inkscape:groupmode="layer"
     id="layer1"
     transform="translate(0,-257.00002)">
    <line
       id="line29191"
       y1="285.85428"
       x2="76.20224"
       x1="76.20224"
       style="font-style:normal;font-weight:normal;font-size:medium;font-family:Dialog;color-interpolation:linearRGB;fill:none;fill-opacity:1;stroke:#000000;stroke-width:0.09999999;stroke-linecap:square;stroke-linejoin:round;stroke-miterlimit:10;stroke-dasharray:none;stroke-dashoffset:0;stroke-opacity:1;color-rendering:optimizeQuality;image-rendering:optimizeQuality;shape-rendering:auto;text-rendering:geometricPrecision"
       y2="284.68362" />
    <line
       y2="284.68362"
       style="font-style:normal;font-weight:normal;font-size:medium;font-family:Dialog;color-interpolation:linearRGB;fill:none;fill-opacity:1;stroke:#000000;stroke-width:0.09999999;stroke-linecap:square;stroke-linejoin:round;stroke-miterlimit:10;stroke-dasharray:none;stroke-dashoffset:0;stroke-opacity:1;color-rendering:optimizeQuality;image-rendering:optimizeQuality;shape-rendering:auto;text-rendering:geometricPrecision"
       x1="53.505196"
       x2="53.505196"
       y1="285.85428"
       id="line28878" />
    <path
       style="opacity:1;vector-effect:none;fill:none;fill-opacity:1;stroke:#9278d1;stroke-width:0.1;stroke-linecap:butt;stroke-linejoin:miter;stroke-miterlimit:4;stroke-dasharray:0.3, 0.3;stroke-dashoffset:0;stroke-opacity:1"
       d="m 70.073151,285.29015 v -2.24893"
       id="path27184-1"
       inkscape:connector-curvature="0" />
    <line
       id="line28926"
       y1="285.85428"
       x2="70.073151"
       x1="70.073151"
       style="font-style:normal;font-weight:normal;font-size:medium;font-family:Dialog;color-interpolation:linearRGB;fill:#42145f;fill-opacity:1;stroke:#9278d1;stroke-width:0.09999999;stroke-linecap:square;stroke-linejoin:round;stroke-miterlimit:10;stroke-dasharray:none;stroke-dashoffset:0;stroke-opacity:1;color-rendering:optimizeQuality;image-rendering:optimizeQuality;shape-rendering:auto;text-rendering:geometricPrecision"
       y2="284.68362" />
    <path
       inkscape:connector-curvature="0"
       d="m 47.837198,296.79815 0.02291,-0.34217 0.0776,-0.96725 0.07759,-0.81961 0.0776,-0.70384 0.0776,-0.61138 0.07761,-0.53636 0.07759,-0.47465 0.0776,-0.42331 0.07761,-0.3801 0.0776,-0.34342 0.07759,-0.31202 0.0776,-0.28492 0.0776,-0.26138 0.155216,-0.46352 0.155199,-0.39923 0.155216,-0.34839 0.155203,-0.30745 0.176144,-0.30881 0.176131,-0.27411 0.176144,-0.24579 0.176139,-0.22241 0.176131,-0.20288 0.176135,-0.18648 0.17614,-0.17256 0.176144,-0.16072 0.176131,-0.15056 0.176144,-0.14183 0.17613,-0.13432 0.176143,-0.12782 0.352275,-0.23958 0.352275,-0.22288 0.317093,-0.19013 0.317091,-0.18311 0.634185,-0.35453 0.634184,-0.35304 0.634185,-0.36847 0.331578,-0.20526 0.331588,-0.2184 0.331578,-0.2359 0.165786,-0.1262 0.165789,-0.13281 0.165802,-0.14039 0.165786,-0.14915 0.165789,-0.15926 0.16579,-0.17101 0.165789,-0.18469 0.16579,-0.20076 0.165784,-0.21974 0.16579,-0.24239 0.168903,-0.27492 0.168889,-0.3094 0.168898,-0.352 0.168903,-0.40549 0.168886,-0.47389 0.08444,-0.26879 0.08444,-0.29436 0.08444,-0.32404 0.08446,-0.35875 0.08443,-0.39971 0.08446,-0.44848 0.08444,-0.50721 0.08445,-0.5788 0.08444,-0.6673 0.08444,-0.77843 0.08444,-0.92069 0.08444,-1.10689 0.08444,-1.35716 0.08446,-1.70468 0.08444,-2.20741 0.08444,-2.97382 0.06525,-3.26641"
       style="font-style:normal;font-weight:normal;font-size:medium;font-family:Dialog;opacity:1;color-interpolation:linearRGB;vector-effect:none;fill:none;fill-opacity:1;fill-rule:evenodd;stroke:#0cc6de;stroke-width:0.25;stroke-linecap:butt;stroke-linejoin:round;stroke-miterlimit:10;stroke-dasharray:none;stroke-dashoffset:0;stroke-opacity:1;color-rendering:optimizeQuality;image-rendering:optimizeQuality;shape-rendering:auto;text-rendering:geometricPrecision"
       id="path26100" />
    <path
       style="opacity:1;vector-effect:none;fill:none;fill-opacity:1;stroke:#9278d1;stroke-width:0.1;stroke-linecap:butt;stroke-linejoin:miter;stroke-miterlimit:4;stroke-dasharray:0.3, 0.3;stroke-dashoffset:0;stroke-opacity:1"
       d="M 59.256717,285.27075 V 273.84963"
       id="path27184-7"
       inkscape:connector-curvature="0" />
    <line
       y2="284.68362"
       style="font-style:normal;font-weight:normal;font-size:medium;font-family:Dialog;color-interpolation:linearRGB;fill:#42145f;fill-opacity:1;stroke:#9278d1;stroke-width:0.09999999;stroke-linecap:square;stroke-linejoin:round;stroke-miterlimit:10;stroke-dasharray:none;stroke-dashoffset:0;stroke-opacity:1;color-rendering:optimizeQuality;image-rendering:optimizeQuality;shape-rendering:auto;text-rendering:geometricPrecision"
       x1="59.256718"
       x2="59.256718"
       y1="285.85428"
       id="line28924" />
    <path
       style="fill:none;stroke:#9278d1;stroke-width:0.1;stroke-linecap:butt;stroke-linejoin:miter;stroke-miterlimit:4;stroke-dasharray:0.3, 0.3;stroke-dashoffset:0;stroke-opacity:1"
       d="M 47.936276,295.25091 V 285.23664"
       id="path27184-8"
       inkscape:connector-curvature="0" />
    <line
       id="line28922"
       y1="285.85428"
       x2="47.936275"
       x1="47.936275"
       style="font-style:normal;font-weight:normal;font-size:medium;font-family:Dialog;color-interpolation:linearRGB;fill:#42145f;fill-opacity:1;stroke:#9278d1;stroke-width:0.09999999;stroke-linecap:square;stroke-linejoin:round;stroke-miterlimit:10;stroke-dasharray:none;stroke-dashoffset:0;stroke-opacity:1;color-rendering:optimizeQuality;image-rendering:optimizeQuality;shape-rendering:auto;text-rendering:geometricPrecision"
       y2="284.68362" />
    <path
       inkscape:connector-curvature="0"
       id="path27182"
       d="m 12.977782,286.1444 v -0.91428"
       style="opacity:1;vector-effect:none;fill:none;fill-opacity:1;stroke:#9278d1;stroke-width:0.1;stroke-linecap:butt;stroke-linejoin:miter;stroke-miterlimit:4;stroke-dasharray:0.3, 0.3;stroke-dashoffset:0;stroke-opacity:1" />
    <line
       y2="284.68362"
       style="font-style:normal;font-weight:normal;font-size:medium;font-family:Dialog;color-interpolation:linearRGB;fill:#42145f;fill-opacity:1;stroke:#9278d1;stroke-width:0.09999999;stroke-linecap:square;stroke-linejoin:round;stroke-miterlimit:10;stroke-dasharray:none;stroke-dashoffset:0;stroke-opacity:1;color-rendering:optimizeQuality;image-rendering:optimizeQuality;shape-rendering:auto;text-rendering:geometricPrecision"
       x1="12.977782"
       x2="12.977782"
       y1="285.85428"
       id="line28920" />
    <path
       style="opacity:1;vector-effect:none;fill:none;fill-opacity:1;stroke:#9278d1;stroke-width:0.1;stroke-linecap:butt;stroke-linejoin:miter;stroke-miterlimit:4;stroke-dasharray:0.3, 0.3;stroke-dashoffset:0;stroke-opacity:1"
       d="m 24.72467,286.90154 v -1.64285"
       id="path27184"
       inkscape:connector-curvature="0" />
    <line
       id="line28918"
       y1="285.85428"
       x2="24.72467"
       x1="24.72467"
       style="font-style:normal;font-weight:normal;font-size:medium;font-family:Dialog;color-interpolation:linearRGB;fill:#42145f;fill-opacity:1;stroke:#9278d1;stroke-width:0.09999999;stroke-linecap:square;stroke-linejoin:round;stroke-miterlimit:10;stroke-dasharray:none;stroke-dashoffset:0;stroke-opacity:1;color-rendering:optimizeQuality;image-rendering:optimizeQuality;shape-rendering:auto;text-rendering:geometricPrecision"
       y2="284.68362" />
    <line
       y2="284.68362"
       style="font-style:normal;font-weight:normal;font-size:medium;font-family:Dialog;color-interpolation:linearRGB;fill:#42145f;fill-opacity:1;stroke:#9278d1;stroke-width:0.09999999;stroke-linecap:square;stroke-linejoin:round;stroke-miterlimit:10;stroke-dasharray:none;stroke-dashoffset:0;stroke-opacity:1;color-rendering:optimizeQuality;image-rendering:optimizeQuality;shape-rendering:auto;text-rendering:geometricPrecision"
       x1="36.422009"
       x2="36.422009"
       y1="285.85428"
       id="line28916" />
    <path
       style="opacity:1;vector-effect:none;fill:none;fill-opacity:1;stroke:#9278d1;stroke-width:0.1;stroke-linecap:butt;stroke-linejoin:miter;stroke-miterlimit:4;stroke-dasharray:0.3, 0.3;stroke-dashoffset:0;stroke-opacity:1"
       d="m 36.422007,288.50808 v -3.24285"
       id="path27184-4"
       inkscape:connector-curvature="0" />
    <line
       id="line28880"
       y1="285.85428"
       x2="66.629463"
       x1="66.629463"
       style="font-style:normal;font-weight:normal;font-size:medium;font-family:Dialog;color-interpolation:linearRGB;fill:none;fill-opacity:1;stroke:#000000;stroke-width:0.09999999;stroke-linecap:square;stroke-linejoin:round;stroke-miterlimit:10;stroke-dasharray:none;stroke-dashoffset:0;stroke-opacity:1;color-rendering:optimizeQuality;image-rendering:optimizeQuality;shape-rendering:auto;text-rendering:geometricPrecision"
       y2="284.68362" />
    <line
       id="line28876"
       y1="285.85428"
       x2="40.433163"
       x1="40.433163"
       style="font-style:normal;font-weight:normal;font-size:medium;font-family:Dialog;color-interpolation:linearRGB;fill:none;fill-opacity:1;stroke:#000000;stroke-width:0.09999999;stroke-linecap:square;stroke-linejoin:round;stroke-miterlimit:10;stroke-dasharray:none;stroke-dashoffset:0;stroke-opacity:1;color-rendering:optimizeQuality;image-rendering:optimizeQuality;shape-rendering:auto;text-rendering:geometricPrecision"
       y2="284.68362" />
    <line
       y2="284.68362"
       style="font-style:normal;font-weight:normal;font-size:medium;font-family:Dialog;color-interpolation:linearRGB;fill:none;fill-opacity:1;stroke:#000000;stroke-width:0.09999999;stroke-linecap:square;stroke-linejoin:round;stroke-miterlimit:10;stroke-dasharray:none;stroke-dashoffset:0;stroke-opacity:1;color-rendering:optimizeQuality;image-rendering:optimizeQuality;shape-rendering:auto;text-rendering:geometricPrecision"
       x1="27.389702"
       x2="27.389702"
       y1="285.85428"
       id="line28874" />
    <line
       id="line28870"
       y1="285.85428"
       x2="14.246243"
       x1="14.246243"
       style="font-style:normal;font-weight:normal;font-size:medium;font-family:Dialog;color-interpolation:linearRGB;fill:none;fill-opacity:1;stroke:#000000;stroke-width:0.09999999;stroke-linecap:square;stroke-linejoin:round;stroke-miterlimit:10;stroke-dasharray:none;stroke-dashoffset:0;stroke-opacity:1;color-rendering:optimizeQuality;image-rendering:optimizeQuality;shape-rendering:auto;text-rendering:geometricPrecision"
       y2="284.68362" />
    <line
       y2="285.26895"
       style="font-style:normal;font-weight:normal;font-size:medium;font-family:Dialog;color-interpolation:linearRGB;fill:#000000;fill-opacity:1;stroke:#000000;stroke-width:0.17639776;stroke-linecap:square;stroke-linejoin:round;stroke-miterlimit:10;stroke-dasharray:none;stroke-dashoffset:0;stroke-opacity:1;color-rendering:optimizeQuality;image-rendering:optimizeQuality;shape-rendering:auto;text-rendering:geometricPrecision"
       x1="1.2270062"
       x2="84.406158"
       y1="285.26895"
       id="line25994" />
    <line
       y2="284.80121"
       style="font-style:normal;font-weight:normal;font-size:medium;font-family:Dialog;color-interpolation:linearRGB;fill:none;fill-opacity:1;stroke:#262626;stroke-width:0.17639774;stroke-linecap:square;stroke-linejoin:round;stroke-miterlimit:10;stroke-dasharray:none;stroke-dashoffset:0;stroke-opacity:1;color-rendering:optimizeQuality;image-rendering:optimizeQuality;shape-rendering:auto;text-rendering:geometricPrecision"
       x1="1.2176706"
       x2="1.2176706"
       y1="285.26895"
       id="line25996" />
    <line
       y2="285.26895"
       style="font-style:normal;font-weight:normal;font-size:medium;font-family:Dialog;color-interpolation:linearRGB;fill:none;fill-opacity:1;stroke:#262626;stroke-width:0.17639774;stroke-linecap:square;stroke-linejoin:round;stroke-miterlimit:10;stroke-dasharray:none;stroke-dashoffset:0;stroke-opacity:1;color-rendering:optimizeQuality;image-rendering:optimizeQuality;shape-rendering:auto;text-rendering:geometricPrecision"
       x1="1.2176706"
       x2="1.9673636"
       y1="285.26895"
       id="line26062" />
    <path
       inkscape:connector-curvature="0"
       d="m 1.2176706,285.2689 0.6142389,-0.34242 0.6142272,-0.35788 0.3071194,-0.19026 0.3071079,-0.20144 0.3071194,-0.21606 0.1535598,-0.1148 0.1535596,-0.12016 0.1811295,-0.14962 0.1811178,-0.15948 0.1811294,-0.17105 0.1811295,-0.18463 0.1811294,-0.20069 0.1811179,-0.21981 0.1811294,-0.24276 0.1811294,-0.27058 0.1811179,-0.30471 0.1811294,-0.34711 0.1811295,-0.40068 0.1811178,-0.46957 0.090565,-0.26709 0.090565,-0.29315 0.090565,-0.32356 0.090565,-0.35928 0.090565,-0.40169 0.090553,-0.45255 0.090565,-0.5142 0.090565,-0.59001 0.087603,-0.66045 0.087603,-0.77191 0.087603,-0.91505 0.087603,-1.10314 0.087591,-1.35722 0.087603,-1.71222 0.087603,-2.22973 0.087603,-3.02677 0.068734,-3.41264"
       style="font-style:normal;font-weight:normal;font-size:medium;font-family:Dialog;color-interpolation:linearRGB;fill:none;fill-opacity:1;fill-rule:evenodd;stroke:#0cc6de;stroke-width:0.25;stroke-linecap:butt;stroke-linejoin:round;stroke-miterlimit:10;stroke-dasharray:none;stroke-dashoffset:0;stroke-opacity:1;color-rendering:optimizeQuality;image-rendering:optimizeQuality;shape-rendering:auto;text-rendering:geometricPrecision"
       id="path26092" />
    <path
       inkscape:connector-curvature="0"
       d="m 8.5823819,296.79815 0.00506,-0.0802 0.087603,-1.12699 0.087603,-0.93293 0.087603,-0.78569 0.087603,-0.67128 0.087591,-0.58066 0.087603,-0.50764 0.087603,-0.44796 0.087603,-0.39854 0.087603,-0.35719 0.079736,-0.29458 0.079748,-0.26955 0.1594832,-0.47635 0.1594718,-0.4087 0.1594831,-0.35545 0.159483,-0.31287 0.159484,-0.27825 0.159482,-0.24978 0.159484,-0.2261 0.159483,-0.20621 0.159483,-0.18935 0.159484,-0.17499 0.159482,-0.16266 0.159484,-0.15201 0.159483,-0.14277 0.159471,-0.13476 0.159484,-0.12776 0.328384,-0.24459 0.328384,-0.22475 0.328372,-0.20973 0.328384,-0.19856 0.656768,-0.37581 0.656756,-0.36435 0.681977,-0.38612 0.340983,-0.20278 0.340995,-0.21357 0.340982,-0.22841 0.340994,-0.24827 0.170487,-0.13356 0.170496,-0.14113 0.170498,-0.14988 0.170485,-0.16005 0.184647,-0.18672 0.184647,-0.20315 0.184646,-0.22277 0.184647,-0.24638 0.184646,-0.27512 0.184634,-0.31049 0.184647,-0.35463 0.184646,-0.41062 0.184635,-0.48312 0.09234,-0.27571 0.09232,-0.30341 0.09231,-0.33584 0.09232,-0.37417 0.09232,-0.41988 0.09232,-0.47502 0.09232,-0.54234 0.09232,-0.62573 0.09232,-0.73076 0.09232,-0.86554 0.09232,-1.04254 0.09231,-1.28145 0.09232,-1.61485 0.09234,-2.10024 0.07501,-2.23834 0.07501,-2.9675 0.03936,-2.16447"
       style="font-style:normal;font-weight:normal;font-size:medium;font-family:Dialog;opacity:1;color-interpolation:linearRGB;vector-effect:none;fill:none;fill-opacity:1;fill-rule:evenodd;stroke:#0cc6de;stroke-width:0.25;stroke-linecap:butt;stroke-linejoin:round;stroke-miterlimit:10;stroke-dasharray:none;stroke-dashoffset:0;stroke-opacity:1;color-rendering:optimizeQuality;image-rendering:optimizeQuality;shape-rendering:auto;text-rendering:geometricPrecision"
       id="path26094" />
    <path
       inkscape:connector-curvature="0"
       d="m 21.666797,296.79815 0.07043,-0.93947 0.07501,-0.84778 0.07503,-0.72782 0.07501,-0.63202 0.07503,-0.55431 0.07501,-0.4904 0.07501,-0.4372 0.07503,-0.39246 0.07501,-0.35448 0.07501,-0.32194 0.07503,-0.29389 0.07501,-0.2695 0.07503,-0.24819 0.186498,-0.54041 0.186509,-0.45383 0.186509,-0.38795 0.18651,-0.33671 0.186497,-0.2961 0.186509,-0.26343 0.186509,-0.23676 0.186509,-0.21478 0.186498,-0.19647 0.186509,-0.1811 0.186509,-0.16813 0.186509,-0.15709 0.186498,-0.14769 0.186509,-0.13965 0.373019,-0.25967 0.296348,-0.19157 0.29636,-0.18178 0.592708,-0.34364 1.185429,-0.66052 0.645753,-0.37663 0.322877,-0.20107 0.322888,-0.21387 0.322877,-0.23079 0.322877,-0.25297 0.161439,-0.13687 0.161437,-0.14516 0.16144,-0.15474 0.161438,-0.16578 0.17325,-0.19225 0.17324,-0.20971 0.17325,-0.23051 0.17324,-0.25552 0.17325,-0.28585 0.173239,-0.32311 0.17324,-0.36955 0.17325,-0.42834 0.173239,-0.50431 0.08663,-0.28789 0.08662,-0.31683 0.08662,-0.35067 0.08663,-0.39061 0.08662,-0.43818 0.08662,-0.49546 0.08662,-0.56528 0.08663,-0.65159 0.08662,-0.76001 0.08662,-0.89879 0.08662,-1.08042 0.08662,-1.3246 0.08662,-1.6637 0.08663,-2.15427 0.08043,-2.66188 0.08043,-3.67341 0.0049,-0.32626"
       style="font-style:normal;font-weight:normal;font-size:medium;font-family:Dialog;opacity:1;color-interpolation:linearRGB;vector-effect:none;fill:none;fill-opacity:1;fill-rule:evenodd;stroke:#0cc6de;stroke-width:0.25;stroke-linecap:butt;stroke-linejoin:round;stroke-miterlimit:10;stroke-dasharray:none;stroke-dashoffset:0;stroke-opacity:1;color-rendering:optimizeQuality;image-rendering:optimizeQuality;shape-rendering:auto;text-rendering:geometricPrecision"
       id="path26096" />
    <path
       inkscape:connector-curvature="0"
       d="m 34.752958,296.79815 0.04221,-0.60343 0.08043,-0.95716 0.08044,-0.80958 0.08043,-0.69418 0.08044,-0.60221 0.08043,-0.52777 0.08043,-0.46666 0.08044,-0.41586 0.08043,-0.3732 0.08043,-0.33702 0.08043,-0.30609 0.08044,-0.27941 0.08043,-0.25626 0.160872,-0.45434 0.173817,-0.42049 0.173818,-0.36332 0.173818,-0.31813 0.173817,-0.28177 0.173818,-0.25215 0.173806,-0.22773 0.173817,-0.20736 0.173818,-0.19026 0.173818,-0.17577 0.173817,-0.16343 0.173817,-0.15285 0.173807,-0.14377 0.173818,-0.1359 0.173817,-0.12911 0.347636,-0.24144 0.373342,-0.23981 0.373342,-0.22525 0.746696,-0.42467 0.746685,-0.41458 0.746684,-0.43201 0.296025,-0.18288 0.296024,-0.19307 0.296024,-0.20626 0.296025,-0.22319 0.296024,-0.24486 0.148007,-0.13242 0.148018,-0.14032 0.148018,-0.14932 0.148006,-0.15965 0.148006,-0.17152 0.148018,-0.18528 0.179476,-0.24635 0.179475,-0.27492 0.179475,-0.30997 0.179475,-0.35358 0.179474,-0.40873 0.179476,-0.4798 0.08974,-0.27328 0.08973,-0.30024 0.08975,-0.33172 0.08973,-0.3688 0.08974,-0.41286 0.08973,-0.46579 0.08974,-0.5301 0.08973,-0.60934 0.08974,-0.70851 0.08973,-0.83484 0.08974,-0.99931 0.08973,-1.21892 0.08974,-1.52149 0.08973,-1.95471 0.08974,-2.60655 0.08973,-3.6537 0.02463,-1.50837"
       style="font-style:normal;font-weight:normal;font-size:medium;font-family:Dialog;opacity:1;color-interpolation:linearRGB;vector-effect:none;fill:none;fill-opacity:1;fill-rule:evenodd;stroke:#0cc6de;stroke-width:0.25;stroke-linecap:butt;stroke-linejoin:round;stroke-miterlimit:10;stroke-dasharray:none;stroke-dashoffset:0;stroke-opacity:1;color-rendering:optimizeQuality;image-rendering:optimizeQuality;shape-rendering:auto;text-rendering:geometricPrecision"
       id="path26098" />
    <path
       inkscape:connector-curvature="0"
       d="m 60.922343,296.79815 0.03669,-0.53345 0.08369,-1.00423 0.0837,-0.84328 0.08369,-0.7187 0.08369,-0.62028 0.08371,-0.5412 0.08368,-0.47669 0.0837,-0.4234 0.08369,-0.37886 0.08368,-0.34124 0.08371,-0.30923 0.08369,-0.28171 0.08367,-0.25793 0.167399,-0.45625 0.167386,-0.39199 0.167371,-0.34146 0.167399,-0.30099 0.167386,-0.26815 0.167302,-0.24102 0.167281,-0.21858 0.167301,-0.19977 0.167308,-0.18384 0.167293,-0.17026 0.167302,-0.15866 0.167294,-0.14864 0.167303,-0.13999 0.167293,-0.13249 0.167302,-0.12596 0.334597,-0.23565 0.334586,-0.21844 0.334609,-0.2056 0.695975,-0.40138 0.695979,-0.3864 0.695962,-0.39361 0.347993,-0.20677 0.347985,-0.21799 0.321382,-0.21498 0.321386,-0.23238 0.160686,-0.12432 0.160696,-0.13082 0.160686,-0.13823 0.160687,-0.14676 0.160699,-0.15657 0.160674,-0.16793 0.160699,-0.18111 0.160701,-0.19653 0.160685,-0.21468 0.160687,-0.23617 0.160695,-0.26193 0.160678,-0.29303 0.18077,-0.37551 0.180749,-0.43697 0.180757,-0.51702 0.09037,-0.29645 0.09037,-0.32737 0.09038,-0.36378 0.09038,-0.40701 0.09038,-0.45891 0.09036,-0.52191 0.09038,-0.59947 0.09038,-0.6964 0.09038,-0.81976 0.09037,-0.98008 0.09038,-1.19379 0.09037,-1.48752 0.09038,-1.90689 0.09037,-2.53554 0.09038,-3.54034 0.03327,-1.94937"
       style="font-style:normal;font-weight:normal;font-size:medium;font-family:Dialog;opacity:1;color-interpolation:linearRGB;vector-effect:none;fill:none;fill-opacity:1;fill-rule:evenodd;stroke:#0cc6de;stroke-width:0.25;stroke-linecap:butt;stroke-linejoin:round;stroke-miterlimit:10;stroke-dasharray:none;stroke-dashoffset:0;stroke-opacity:1;color-rendering:optimizeQuality;image-rendering:optimizeQuality;shape-rendering:auto;text-rendering:geometricPrecision"
       id="path26102" />
    <path
       inkscape:connector-curvature="0"
       d="m 74.006466,296.79815 0.02545,-0.37743 0.07697,-0.95437 0.07697,-0.81013 0.07696,-0.6967 0.07697,-0.60594 0.07696,-0.53216 0.07696,-0.4714 0.07697,-0.42074 0.07696,-0.37809 0.07697,-0.34181 0.07696,-0.31075 0.07696,-0.28389 0.07697,-0.26058 0.153931,-0.46233 0.153931,-0.3985 0.153931,-0.34791 0.153927,-0.30719 0.15393,-0.27391 0.15393,-0.2464 0.153932,-0.22343 0.15393,-0.20405"
       style="font-style:normal;font-weight:normal;font-size:medium;font-family:Dialog;opacity:1;color-interpolation:linearRGB;vector-effect:none;fill:none;fill-opacity:1;fill-rule:evenodd;stroke:#0cc6de;stroke-width:0.25;stroke-linecap:butt;stroke-linejoin:round;stroke-miterlimit:10;stroke-dasharray:none;stroke-dashoffset:0;stroke-opacity:1;color-rendering:optimizeQuality;image-rendering:optimizeQuality;shape-rendering:auto;text-rendering:geometricPrecision"
       id="path26104" />
    <path
       inkscape:connector-curvature="0"
       d="m 1.2176706,285.2689 2.4569322,0.15133 2.898013,0.18051 2.8032368,0.17895 2.5517084,0.16877 2.627048,0.18202 2.727897,0.20092 2.954321,0.23591 2.400636,0.21014 2.984101,0.29195 2.370845,0.26403 2.583026,0.33141 1.385959,0.20213 1.385959,0.22353 1.286938,0.23075 1.286949,0.25789 1.39053,0.31638 0.695258,0.17593 0.695271,0.18987 0.746685,0.2217 0.746695,0.24295 0.746685,0.26781 0.746685,0.29709 0.592048,0.26 0.592049,0.28528 0.592049,0.31471 0.296024,0.16994 0.296025,0.17934 0.35895,0.23122 0.35895,0.24797 0.35895,0.26667 0.35895,0.28768 0.35895,0.3114 0.35895,0.33827 0.35895,0.36894 0.35895,0.40412 0.310417,0.38201 0.310428,0.4166 0.310417,0.45625 0.310415,0.50199 0.310419,0.55512 0.26637,0.52977"
       style="font-style:normal;font-weight:normal;font-size:medium;font-family:Dialog;color-interpolation:linearRGB;fill:none;fill-opacity:1;fill-rule:evenodd;stroke:#e0249a;stroke-width:0.25;stroke-linecap:butt;stroke-linejoin:round;stroke-miterlimit:10;stroke-dasharray:none;stroke-dashoffset:0;stroke-opacity:1;color-rendering:optimizeQuality;image-rendering:optimizeQuality;shape-rendering:auto;text-rendering:geometricPrecision"
       id="path26106" />
    <path
       inkscape:connector-curvature="0"
       d="m 56.804019,262.21453 0.03551,0.33004 0.0829,0.72365 0.08289,0.68066 0.0829,0.64139 0.08289,0.60545 0.08289,0.57246 0.0829,0.54211 0.08289,0.51413 0.08446,0.49719 0.08444,0.47239 0.16889,0.87746 0.168898,0.79799 0.168903,0.72893 0.168884,0.66856 0.16889,0.61545 0.337792,1.09533 0.337789,0.94587 0.337792,0.82547 0.337775,0.7271 0.337801,0.64565 0.334757,0.57262 0.334785,0.51597 0.334771,0.4676 0.33477,0.42599 0.33478,0.38994 0.334771,0.35849 0.334757,0.33095 0.334785,0.30666 0.334583,0.285 0.334609,0.2659 0.334595,0.24883 0.334596,0.23355 0.334596,0.2198 0.334596,0.20741 0.334587,0.19622 0.334609,0.18605 0.695975,0.35845 0.695978,0.32558 0.695962,0.29843 0.695979,0.27598 0.642768,0.23837 0.642754,0.2253 1.285519,0.42099 1.446039,0.44549 1.446039,0.44585 0.615731,0.20272 0.307849,0.1081 0.307857,0.11534 0.15393,0.0614 0.153931,0.0649 0.153931,0.0693 0.07696,0.0367 0.07697,0.0386 0.07697,0.0407 0.07696,0.0434 0.07697,0.0467 0.07696,0.0512 0.07697,0.0577 0.07696,0.0678 0.07697,0.0876 0.07696,0.20948"
       style="font-style:normal;font-weight:normal;font-size:medium;font-family:Dialog;opacity:1;color-interpolation:linearRGB;vector-effect:none;fill:none;fill-opacity:1;fill-rule:evenodd;stroke:#e0249a;stroke-width:0.25;stroke-linecap:butt;stroke-linejoin:round;stroke-miterlimit:10;stroke-dasharray:none;stroke-dashoffset:0;stroke-opacity:1;color-rendering:optimizeQuality;image-rendering:optimizeQuality;shape-rendering:auto;text-rendering:geometricPrecision"
       id="path26108" />
    <circle
       style="opacity:1;vector-effect:none;fill:#42145f;fill-opacity:1;stroke:#42145f;stroke-width:0.25;stroke-linecap:butt;stroke-linejoin:miter;stroke-miterlimit:4;stroke-dasharray:none;stroke-dashoffset:0;stroke-opacity:1"
       id="path26576"
       cx="12.977782"
       cy="286.01968"
       r="0.19038604" />
    <circle
       r="0.19038604"
       cy="286.96951"
       cx="24.72467"
       id="circle26578"
       style="opacity:1;vector-effect:none;fill:#42145f;fill-opacity:1;stroke:#42145f;stroke-width:0.25;stroke-linecap:butt;stroke-linejoin:miter;stroke-miterlimit:4;stroke-dasharray:none;stroke-dashoffset:0;stroke-opacity:1" />
    <circle
       r="0.19038604"
       cy="295.33688"
       cx="47.936279"
       id="circle26578-9"
       style="opacity:1;vector-effect:none;fill:#42145f;fill-opacity:1;stroke:#42145f;stroke-width:0.25;stroke-linecap:butt;stroke-linejoin:miter;stroke-miterlimit:4;stroke-dasharray:none;stroke-dashoffset:0;stroke-opacity:1" />
    <circle
       r="0.19038604"
       cy="273.85907"
       cx="59.25671"
       id="circle26578-5"
       style="opacity:1;vector-effect:none;fill:#42145f;fill-opacity:1;stroke:#42145f;stroke-width:0.25;stroke-linecap:butt;stroke-linejoin:miter;stroke-miterlimit:4;stroke-dasharray:none;stroke-dashoffset:0;stroke-opacity:1" />
    <circle
       r="0.19038604"
       cy="282.81461"
       cx="70.073151"
       id="circle26578-0"
       style="opacity:1;vector-effect:none;fill:#42145f;fill-opacity:1;stroke:#42145f;stroke-width:0.25;stroke-linecap:butt;stroke-linejoin:miter;stroke-miterlimit:4;stroke-dasharray:none;stroke-dashoffset:0;stroke-opacity:1" />
    <g
       transform="matrix(0.4,0,0,0.4,22.484714,234.93372)"
       ns0:version="0.11.0"
       ns0:texconverter="pdflatex"
       ns0:pdfconverter="pdf2svg"
       ns0:text="$k$"
       ns0:preamble="/home/phyps/Dropbox/Talks/1710 Bristol Colloquium teleportation/preamble.tex"
       ns0:scale="2.83464566935"
       ns0:alignment="middle center"
       inkscapeversion="0.92.3"
       ns0:jacobian_sqrt="0.4"
       style="fill-opacity:1;stroke:#000000;stroke-opacity:1"
       id="g26667">
      <g
         id="surface1"
         style="fill-opacity:1;stroke:#000000;stroke-opacity:1">
        <g
           style="fill:#000000;fill-opacity:1;stroke:#000000;stroke-opacity:1"
           id="g26664">
          <path
             inkscape:connector-curvature="0"
             style="fill-opacity:1;stroke:#000000;stroke-width:0;stroke-opacity:1"
             d="m 2.859375,-6.8125 c 0,0 0,-0.109375 -0.125,-0.109375 -0.234375,0 -0.953125,0.078125 -1.21875,0.109375 -0.078125,0 -0.1875,0.015625 -0.1875,0.1875 0,0.125 0.09375,0.125 0.234375,0.125 0.484375,0 0.5,0.0625 0.5,0.171875 L 2.03125,-6.125 0.59375,-0.390625 c -0.046875,0.140625 -0.046875,0.15625 -0.046875,0.21875 0,0.234375 0.203125,0.28125 0.296875,0.28125 0.125,0 0.265625,-0.09375 0.328125,-0.203125 0.046875,-0.09375 0.5,-1.9375 0.5625,-2.1875 0.34375,0.03125 1.15625,0.1875 1.15625,0.84375 0,0.078125 0,0.109375 -0.03125,0.21875 -0.015625,0.109375 -0.03125,0.234375 -0.03125,0.34375 0,0.578125 0.390625,0.984375 0.90625,0.984375 0.296875,0 0.578125,-0.15625 0.796875,-0.53125 0.25,-0.4375 0.359375,-0.984375 0.359375,-1 0,-0.109375 -0.09375,-0.109375 -0.125,-0.109375 -0.09375,0 -0.109375,0.046875 -0.140625,0.1875 -0.203125,0.71875 -0.421875,1.234375 -0.859375,1.234375 -0.203125,0 -0.328125,-0.109375 -0.328125,-0.46875 0,-0.171875 0.046875,-0.40625 0.078125,-0.5625 C 3.5625,-1.3125 3.5625,-1.34375 3.5625,-1.453125 3.5625,-2.09375 2.9375,-2.375 2.078125,-2.5 2.390625,-2.671875 2.71875,-2.984375 2.9375,-3.234375 3.421875,-3.765625 3.875,-4.1875 4.359375,-4.1875 c 0.0625,0 0.078125,0 0.09375,0.015625 0.125,0.015625 0.125,0.015625 0.21875,0.078125 0.015625,0 0.015625,0.015625 0.03125,0.03125 -0.46875,0.03125 -0.5625,0.421875 -0.5625,0.546875 0,0.15625 0.109375,0.34375 0.375,0.34375 0.265625,0 0.546875,-0.21875 0.546875,-0.609375 0,-0.296875 -0.234375,-0.625 -0.671875,-0.625 -0.28125,0 -0.734375,0.078125 -1.453125,0.875 -0.34375,0.375 -0.734375,0.78125 -1.109375,0.921875 z m 0,0"
             transform="translate(148.712,134.765)"
             id="path26662" />
        </g>
      </g>
    </g>
    <g
       id="g26825"
       style="fill:#0cc6de;fill-opacity:1;stroke:#0cc6de;stroke-opacity:1"
       ns0:jacobian_sqrt="0.4"
       inkscapeversion="0.92.3"
       ns0:alignment="middle center"
       ns0:scale="2.83464566935"
       ns0:preamble="/home/phyps/Dropbox/Talks/1710 Bristol Colloquium teleportation/preamble.tex"
       ns0:text="$\\tan ka$"
       ns0:pdfconverter="pdf2svg"
       ns0:texconverter="pdflatex"
       ns0:version="0.11.0"
       transform="matrix(0.4,0,0,0.4,-50.76729,208.22769)">
      <g
         style="fill:#0cc6de;fill-opacity:1;stroke:#0cc6de;stroke-opacity:1"
         id="g26823">
        <g
           id="g26813"
           style="fill:#0cc6de;fill-opacity:1;stroke:#0cc6de;stroke-opacity:1">
          <path
             id="path26807"
             transform="translate(148.712,134.765)"
             d="m 1.71875,-3.984375 h 1.4375 v -0.3125 H 1.71875 V -6.125 h -0.25 c 0,0.8125 -0.296875,1.875 -1.28125,1.921875 v 0.21875 h 0.84375 v 2.75 c 0,1.21875 0.9375,1.34375 1.296875,1.34375 0.703125,0 0.984375,-0.703125 0.984375,-1.34375 v -0.5625 h -0.25 V -1.25 c 0,0.734375 -0.296875,1.109375 -0.671875,1.109375 -0.671875,0 -0.671875,-0.90625 -0.671875,-1.078125 z m 0,0"
             style="fill:#0cc6de;fill-opacity:1;stroke:#0cc6de;stroke-width:0;stroke-opacity:1"
             inkscape:connector-curvature="0" />
          <path
             id="path26809"
             transform="translate(152.58645,134.765)"
             d="m 3.3125,-0.75 c 0.046875,0.390625 0.3125,0.8125 0.78125,0.8125 0.21875,0 0.828125,-0.140625 0.828125,-0.953125 v -0.5625 h -0.25 v 0.5625 c 0,0.578125 -0.25,0.640625 -0.359375,0.640625 -0.328125,0 -0.375,-0.453125 -0.375,-0.5 v -1.984375 c 0,-0.421875 0,-0.8125 -0.359375,-1.1875 C 3.1875,-4.3125 2.6875,-4.46875 2.21875,-4.46875 c -0.828125,0 -1.515625,0.46875 -1.515625,1.125 0,0.296875 0.203125,0.46875 0.46875,0.46875 0.28125,0 0.453125,-0.203125 0.453125,-0.453125 0,-0.125 -0.046875,-0.453125 -0.515625,-0.453125 C 1.390625,-4.140625 1.875,-4.25 2.1875,-4.25 c 0.5,0 1.0625,0.390625 1.0625,1.28125 v 0.359375 c -0.515625,0.03125 -1.203125,0.0625 -1.828125,0.359375 -0.75,0.34375 -1,0.859375 -1,1.296875 0,0.8125 0.96875,1.0625 1.59375,1.0625 0.65625,0 1.109375,-0.40625 1.296875,-0.859375 z M 3.25,-2.390625 v 1 c 0,0.9375 -0.71875,1.28125 -1.171875,1.28125 -0.484375,0 -0.890625,-0.34375 -0.890625,-0.84375 0,-0.546875 0.421875,-1.375 2.0625,-1.4375 z m 0,0"
             style="fill:#0cc6de;fill-opacity:1;stroke:#0cc6de;stroke-width:0;stroke-opacity:1"
             inkscape:connector-curvature="0" />
          <path
             id="path26811"
             transform="translate(157.56775,134.765)"
             d="M 1.09375,-3.421875 V -0.75 c 0,0.4375 -0.109375,0.4375 -0.78125,0.4375 V 0 c 0.359375,-0.015625 0.859375,-0.03125 1.140625,-0.03125 0.25,0 0.765625,0.015625 1.109375,0.03125 v -0.3125 c -0.671875,0 -0.78125,0 -0.78125,-0.4375 V -2.59375 C 1.78125,-3.625 2.5,-4.1875 3.125,-4.1875 c 0.640625,0 0.75,0.53125 0.75,1.109375 V -0.75 c 0,0.4375 -0.109375,0.4375 -0.78125,0.4375 V 0 c 0.34375,-0.015625 0.859375,-0.03125 1.125,-0.03125 0.25,0 0.78125,0.015625 1.109375,0.03125 v -0.3125 c -0.515625,0 -0.765625,0 -0.765625,-0.296875 v -1.90625 c 0,-0.859375 0,-1.15625 -0.3125,-1.515625 -0.140625,-0.171875 -0.46875,-0.375 -1.046875,-0.375 C 2.46875,-4.40625 2,-3.984375 1.71875,-3.359375 V -4.40625 L 0.3125,-4.296875 v 0.3125 c 0.703125,0 0.78125,0.0625 0.78125,0.5625 z m 0,0"
             style="fill:#0cc6de;fill-opacity:1;stroke:#0cc6de;stroke-width:0;stroke-opacity:1"
             inkscape:connector-curvature="0" />
        </g>
        <g
           id="g26817"
           style="fill:#0cc6de;fill-opacity:1;stroke:#0cc6de;stroke-opacity:1">
          <path
             id="path26815"
             transform="translate(164.763,134.765)"
             d="m 2.859375,-6.8125 c 0,0 0,-0.109375 -0.125,-0.109375 -0.234375,0 -0.953125,0.078125 -1.21875,0.109375 -0.078125,0 -0.1875,0.015625 -0.1875,0.1875 0,0.125 0.09375,0.125 0.234375,0.125 0.484375,0 0.5,0.0625 0.5,0.171875 L 2.03125,-6.125 0.59375,-0.390625 c -0.046875,0.140625 -0.046875,0.15625 -0.046875,0.21875 0,0.234375 0.203125,0.28125 0.296875,0.28125 0.125,0 0.265625,-0.09375 0.328125,-0.203125 0.046875,-0.09375 0.5,-1.9375 0.5625,-2.1875 0.34375,0.03125 1.15625,0.1875 1.15625,0.84375 0,0.078125 0,0.109375 -0.03125,0.21875 -0.015625,0.109375 -0.03125,0.234375 -0.03125,0.34375 0,0.578125 0.390625,0.984375 0.90625,0.984375 0.296875,0 0.578125,-0.15625 0.796875,-0.53125 0.25,-0.4375 0.359375,-0.984375 0.359375,-1 0,-0.109375 -0.09375,-0.109375 -0.125,-0.109375 -0.09375,0 -0.109375,0.046875 -0.140625,0.1875 -0.203125,0.71875 -0.421875,1.234375 -0.859375,1.234375 -0.203125,0 -0.328125,-0.109375 -0.328125,-0.46875 0,-0.171875 0.046875,-0.40625 0.078125,-0.5625 C 3.5625,-1.3125 3.5625,-1.34375 3.5625,-1.453125 3.5625,-2.09375 2.9375,-2.375 2.078125,-2.5 2.390625,-2.671875 2.71875,-2.984375 2.9375,-3.234375 3.421875,-3.765625 3.875,-4.1875 4.359375,-4.1875 c 0.0625,0 0.078125,0 0.09375,0.015625 0.125,0.015625 0.125,0.015625 0.21875,0.078125 0.015625,0 0.015625,0.015625 0.03125,0.03125 -0.46875,0.03125 -0.5625,0.421875 -0.5625,0.546875 0,0.15625 0.109375,0.34375 0.375,0.34375 0.265625,0 0.546875,-0.21875 0.546875,-0.609375 0,-0.296875 -0.234375,-0.625 -0.671875,-0.625 -0.28125,0 -0.734375,0.078125 -1.453125,0.875 -0.34375,0.375 -0.734375,0.78125 -1.109375,0.921875 z m 0,0"
             style="fill:#0cc6de;fill-opacity:1;stroke:#0cc6de;stroke-width:0;stroke-opacity:1"
             inkscape:connector-curvature="0" />
        </g>
        <g
           id="g26821"
           style="fill:#0cc6de;fill-opacity:1;stroke:#0cc6de;stroke-opacity:1">
          <path
             id="path26819"
             transform="translate(170.26833,134.765)"
             d="M 3.71875,-3.765625 C 3.53125,-4.140625 3.25,-4.40625 2.796875,-4.40625 c -1.15625,0 -2.390625,1.46875 -2.390625,2.921875 0,0.9375 0.546875,1.59375 1.3125,1.59375 0.203125,0 0.703125,-0.046875 1.296875,-0.75 0.078125,0.421875 0.4375,0.75 0.90625,0.75 0.359375,0 0.578125,-0.234375 0.75,-0.546875 0.15625,-0.359375 0.296875,-0.96875 0.296875,-0.984375 0,-0.109375 -0.09375,-0.109375 -0.125,-0.109375 -0.09375,0 -0.109375,0.046875 -0.140625,0.1875 -0.171875,0.640625 -0.34375,1.234375 -0.75,1.234375 -0.28125,0 -0.296875,-0.265625 -0.296875,-0.453125 0,-0.21875 0.015625,-0.3125 0.125,-0.75 C 3.890625,-1.71875 3.90625,-1.828125 4,-2.203125 L 4.359375,-3.59375 c 0.0625,-0.28125 0.0625,-0.296875 0.0625,-0.34375 0,-0.171875 -0.109375,-0.265625 -0.28125,-0.265625 -0.25,0 -0.390625,0.21875 -0.421875,0.4375 z M 3.078125,-1.1875 C 3.015625,-1 3.015625,-0.984375 2.875,-0.8125 2.4375,-0.265625 2.03125,-0.109375 1.75,-0.109375 c -0.5,0 -0.640625,-0.546875 -0.640625,-0.9375 0,-0.5 0.3125,-1.71875 0.546875,-2.1875 0.3125,-0.578125 0.75,-0.953125 1.15625,-0.953125 0.640625,0 0.78125,0.8125 0.78125,0.875 0,0.0625 -0.015625,0.125 -0.03125,0.171875 z m 0,0"
             style="fill:#0cc6de;fill-opacity:1;stroke:#0cc6de;stroke-width:0;stroke-opacity:1"
             inkscape:connector-curvature="0" />
        </g>
      </g>
    </g>
    <g
       transform="matrix(0.4,0,0,0.4,-19.654869,207.38878)"
       ns0:version="0.11.0"
       ns0:texconverter="pdflatex"
       ns0:pdfconverter="pdf2svg"
       ns0:text="$\\frac{2k\\sqrt{k_0^2 - k^2}}{2k^2-k_0^2}$"
       ns0:preamble="/home/phyps/Dropbox/Talks/1710 Bristol Colloquium teleportation/preamble.tex"
       ns0:scale="2.83464566935"
       ns0:alignment="middle center"
       inkscapeversion="0.92.3"
       ns0:jacobian_sqrt="0.4"
       style="fill:#e0249a;fill-opacity:1;stroke:#e0249a;stroke-opacity:1"
       id="g27037">
      <g
         id="g27035"
         style="fill:#e0249a;fill-opacity:1;stroke:#e0249a;stroke-opacity:1">
        <g
           style="fill:#e0249a;fill-opacity:1;stroke:#e0249a;stroke-opacity:1"
           id="g26969">
          <path
             inkscape:connector-curvature="0"
             style="fill:#e0249a;fill-opacity:1;stroke:#e0249a;stroke-width:0;stroke-opacity:1"
             d="M 3.515625,-1.265625 H 3.28125 c -0.015625,0.15625 -0.09375,0.5625 -0.1875,0.625 C 3.046875,-0.59375 2.515625,-0.59375 2.40625,-0.59375 H 1.125 c 0.734375,-0.640625 0.984375,-0.84375 1.390625,-1.171875 0.515625,-0.40625 1,-0.84375 1,-1.5 0,-0.84375 -0.734375,-1.359375 -1.625,-1.359375 -0.859375,0 -1.453125,0.609375 -1.453125,1.25 0,0.34375 0.296875,0.390625 0.375,0.390625 0.15625,0 0.359375,-0.125 0.359375,-0.375 0,-0.125 -0.046875,-0.375 -0.40625,-0.375 C 0.984375,-4.21875 1.453125,-4.375 1.78125,-4.375 c 0.703125,0 1.0625,0.546875 1.0625,1.109375 0,0.609375 -0.4375,1.078125 -0.65625,1.328125 L 0.515625,-0.265625 C 0.4375,-0.203125 0.4375,-0.1875 0.4375,0 h 2.875 z m 0,0"
             transform="translate(149.908,132.318)"
             id="path26967" />
        </g>
        <g
           style="fill:#e0249a;fill-opacity:1;stroke:#e0249a;stroke-opacity:1"
           id="g26973">
          <path
             inkscape:connector-curvature="0"
             style="fill:#e0249a;fill-opacity:1;stroke:#e0249a;stroke-width:0;stroke-opacity:1"
             d="m 2.1875,-4.625 c 0,-0.015625 0.015625,-0.109375 0.015625,-0.109375 0,-0.046875 -0.015625,-0.109375 -0.109375,-0.109375 -0.140625,0 -0.71875,0.0625 -0.890625,0.078125 -0.046875,0 -0.15625,0.015625 -0.15625,0.15625 0,0.09375 0.109375,0.09375 0.1875,0.09375 0.328125,0 0.328125,0.0625 0.328125,0.109375 0,0.046875 -0.015625,0.09375 -0.015625,0.15625 L 0.5625,-0.3125 c -0.046875,0.125 -0.046875,0.140625 -0.046875,0.15625 0,0.109375 0.09375,0.21875 0.25,0.21875 0.1875,0 0.265625,-0.125 0.3125,-0.28125 0.015625,-0.03125 0.3125,-1.265625 0.34375,-1.359375 0.5,0.046875 0.890625,0.21875 0.890625,0.578125 0,0.03125 0,0.0625 -0.015625,0.140625 -0.03125,0.09375 -0.03125,0.140625 -0.03125,0.21875 0,0.484375 0.40625,0.703125 0.75,0.703125 0.671875,0 0.875,-1.046875 0.875,-1.0625 0,-0.09375 -0.078125,-0.09375 -0.109375,-0.09375 -0.09375,0 -0.109375,0.046875 -0.140625,0.171875 C 3.5625,-0.625 3.375,-0.125 3.03125,-0.125 c -0.1875,0 -0.25,-0.171875 -0.25,-0.359375 0,-0.125 0,-0.140625 0.046875,-0.3125 0.015625,-0.03125 0.03125,-0.140625 0.03125,-0.21875 0,-0.625 -0.828125,-0.71875 -1.125,-0.734375 C 1.9375,-1.875 2.1875,-2.109375 2.3125,-2.21875 2.671875,-2.546875 3.015625,-2.875 3.40625,-2.875 c 0.078125,0 0.171875,0.015625 0.234375,0.09375 C 3.34375,-2.734375 3.28125,-2.5 3.28125,-2.390625 c 0,0.140625 0.109375,0.25 0.265625,0.25 0.203125,0 0.40625,-0.15625 0.40625,-0.4375 0,-0.234375 -0.171875,-0.5 -0.53125,-0.5 -0.40625,0 -0.765625,0.296875 -1.125,0.625 C 2,-2.1875 1.78125,-1.96875 1.484375,-1.84375 Z m 0,0"
             transform="translate(153.879,132.318)"
             id="path26971" />
        </g>
        <g
           style="fill:#e0249a;fill-opacity:1;stroke:#e0249a;stroke-opacity:1"
           id="g26977">
          <path
             inkscape:connector-curvature="0"
             style="fill:#e0249a;fill-opacity:1;stroke:#e0249a;stroke-width:0;stroke-opacity:1"
             d="m 3.875,8.515625 -1.75,-3.875 C 2.046875,4.484375 2,4.484375 1.96875,4.484375 c 0,0 -0.0625,0 -0.171875,0.078125 l -0.9375,0.71875 c -0.125,0.109375 -0.125,0.125 -0.125,0.15625 0,0.0625 0.015625,0.109375 0.09375,0.109375 0.0625,0 0.234375,-0.140625 0.34375,-0.21875 C 1.21875,5.28125 1.375,5.171875 1.484375,5.09375 l 1.96875,4.3125 C 3.515625,9.5625 3.5625,9.5625 3.65625,9.5625 c 0.15625,0 0.1875,-0.046875 0.25,-0.1875 L 8.4375,0 C 8.5,-0.140625 8.5,-0.171875 8.5,-0.203125 8.5,-0.296875 8.421875,-0.40625 8.296875,-0.40625 c -0.078125,0 -0.140625,0.0625 -0.21875,0.21875 z m 0,0"
             transform="translate(158.283,125.599)"
             id="path26975" />
        </g>
        <path
           inkscape:connector-curvature="0"
           style="fill:#e0249a;fill-opacity:1;stroke:#e0249a;stroke-width:0.398;stroke-linecap:butt;stroke-linejoin:miter;stroke-miterlimit:10;stroke-opacity:1"
           d="M 9.375e-4,0.0015625 H 22.809531"
           transform="matrix(1,0,0,-1,166.585,125.4)"
           id="path26979" />
        <g
           style="fill:#e0249a;fill-opacity:1;stroke:#e0249a;stroke-opacity:1"
           id="g26983">
          <path
             inkscape:connector-curvature="0"
             style="fill:#e0249a;fill-opacity:1;stroke:#e0249a;stroke-width:0;stroke-opacity:1"
             d="m 2.1875,-4.625 c 0,-0.015625 0.015625,-0.109375 0.015625,-0.109375 0,-0.046875 -0.015625,-0.109375 -0.109375,-0.109375 -0.140625,0 -0.71875,0.0625 -0.890625,0.078125 -0.046875,0 -0.15625,0.015625 -0.15625,0.15625 0,0.09375 0.109375,0.09375 0.1875,0.09375 0.328125,0 0.328125,0.0625 0.328125,0.109375 0,0.046875 -0.015625,0.09375 -0.015625,0.15625 L 0.5625,-0.3125 c -0.046875,0.125 -0.046875,0.140625 -0.046875,0.15625 0,0.109375 0.09375,0.21875 0.25,0.21875 0.1875,0 0.265625,-0.125 0.3125,-0.28125 0.015625,-0.03125 0.3125,-1.265625 0.34375,-1.359375 0.5,0.046875 0.890625,0.21875 0.890625,0.578125 0,0.03125 0,0.0625 -0.015625,0.140625 -0.03125,0.09375 -0.03125,0.140625 -0.03125,0.21875 0,0.484375 0.40625,0.703125 0.75,0.703125 0.671875,0 0.875,-1.046875 0.875,-1.0625 0,-0.09375 -0.078125,-0.09375 -0.109375,-0.09375 -0.09375,0 -0.109375,0.046875 -0.140625,0.171875 C 3.5625,-0.625 3.375,-0.125 3.03125,-0.125 c -0.1875,0 -0.25,-0.171875 -0.25,-0.359375 0,-0.125 0,-0.140625 0.046875,-0.3125 0.015625,-0.03125 0.03125,-0.140625 0.03125,-0.21875 0,-0.625 -0.828125,-0.71875 -1.125,-0.734375 C 1.9375,-1.875 2.1875,-2.109375 2.3125,-2.21875 2.671875,-2.546875 3.015625,-2.875 3.40625,-2.875 c 0.078125,0 0.171875,0.015625 0.234375,0.09375 C 3.34375,-2.734375 3.28125,-2.5 3.28125,-2.390625 c 0,0.140625 0.109375,0.25 0.265625,0.25 0.203125,0 0.40625,-0.15625 0.40625,-0.4375 0,-0.234375 -0.171875,-0.5 -0.53125,-0.5 -0.40625,0 -0.765625,0.296875 -1.125,0.625 C 2,-2.1875 1.78125,-1.96875 1.484375,-1.84375 Z m 0,0"
             transform="translate(166.585,132.318)"
             id="path26981" />
        </g>
        <g
           style="fill:#e0249a;fill-opacity:1;stroke:#e0249a;stroke-opacity:1"
           id="g26987">
          <path
             inkscape:connector-curvature="0"
             style="fill:#e0249a;fill-opacity:1;stroke:#e0249a;stroke-width:0;stroke-opacity:1"
             d="M 2.9375,-0.96875 H 2.71875 c 0,0.09375 -0.0625,0.40625 -0.140625,0.453125 -0.03125,0.03125 -0.453125,0.03125 -0.53125,0.03125 H 1.078125 C 1.40625,-0.71875 1.765625,-1 2.0625,-1.203125 c 0.453125,-0.3125 0.875,-0.59375 0.875,-1.125 0,-0.640625 -0.609375,-0.984375 -1.3125,-0.984375 -0.671875,0 -1.171875,0.375 -1.171875,0.875 0,0.25 0.21875,0.296875 0.296875,0.296875 0.125,0 0.28125,-0.09375 0.28125,-0.296875 0,-0.171875 -0.125,-0.28125 -0.28125,-0.28125 0.140625,-0.234375 0.4375,-0.375 0.765625,-0.375 0.484375,0 0.890625,0.28125 0.890625,0.765625 0,0.421875 -0.296875,0.75 -0.671875,1.0625 l -1.21875,1.03125 C 0.46875,-0.1875 0.453125,-0.1875 0.453125,-0.15625 V 0 h 2.3125 z m 0,0"
             transform="translate(170.989,129.916)"
             id="path26985" />
        </g>
        <g
           style="fill:#e0249a;fill-opacity:1;stroke:#e0249a;stroke-opacity:1"
           id="g26991">
          <path
             inkscape:connector-curvature="0"
             style="fill:#e0249a;fill-opacity:1;stroke:#e0249a;stroke-width:0;stroke-opacity:1"
             d="M 3,-1.59375 C 3,-1.953125 3,-3.3125 1.6875,-3.3125 c -1.296875,0 -1.296875,1.359375 -1.296875,1.71875 0,0.359375 0,1.703125 1.296875,1.703125 C 3,0.109375 3,-1.234375 3,-1.59375 Z M 1.6875,-0.0625 C 1.515625,-0.0625 1.09375,-0.125 0.96875,-0.625 0.890625,-0.890625 0.890625,-1.25 0.890625,-1.65625 c 0,-0.375 0,-0.71875 0.078125,-1 0.125,-0.421875 0.515625,-0.5 0.71875,-0.5 0.375,0 0.640625,0.1875 0.734375,0.546875 C 2.5,-2.359375 2.5,-1.953125 2.5,-1.65625 c 0,0.34375 0,0.75 -0.078125,1.046875 C 2.296875,-0.125 1.890625,-0.0625 1.6875,-0.0625 Z m 0,0"
             transform="translate(170.82,134.481)"
             id="path26989" />
        </g>
        <g
           style="fill:#e0249a;fill-opacity:1;stroke:#e0249a;stroke-opacity:1"
           id="g26995">
          <path
             inkscape:connector-curvature="0"
             style="fill:#e0249a;fill-opacity:1;stroke:#e0249a;stroke-width:0;stroke-opacity:1"
             d="m 5.1875,-1.578125 c 0.109375,0 0.28125,0 0.28125,-0.15625 0,-0.1875 -0.171875,-0.1875 -0.28125,-0.1875 H 1.03125 c -0.109375,0 -0.28125,0 -0.28125,0.171875 0,0.171875 0.15625,0.171875 0.28125,0.171875 z m 0,0"
             transform="translate(174.877,132.318)"
             id="path26993" />
        </g>
        <g
           style="fill:#e0249a;fill-opacity:1;stroke:#e0249a;stroke-opacity:1"
           id="g26999">
          <path
             inkscape:connector-curvature="0"
             style="fill:#e0249a;fill-opacity:1;stroke:#e0249a;stroke-width:0;stroke-opacity:1"
             d="m 2.1875,-4.625 c 0,-0.015625 0.015625,-0.109375 0.015625,-0.109375 0,-0.046875 -0.015625,-0.109375 -0.109375,-0.109375 -0.140625,0 -0.71875,0.0625 -0.890625,0.078125 -0.046875,0 -0.15625,0.015625 -0.15625,0.15625 0,0.09375 0.109375,0.09375 0.1875,0.09375 0.328125,0 0.328125,0.0625 0.328125,0.109375 0,0.046875 -0.015625,0.09375 -0.015625,0.15625 L 0.5625,-0.3125 c -0.046875,0.125 -0.046875,0.140625 -0.046875,0.15625 0,0.109375 0.09375,0.21875 0.25,0.21875 0.1875,0 0.265625,-0.125 0.3125,-0.28125 0.015625,-0.03125 0.3125,-1.265625 0.34375,-1.359375 0.5,0.046875 0.890625,0.21875 0.890625,0.578125 0,0.03125 0,0.0625 -0.015625,0.140625 -0.03125,0.09375 -0.03125,0.140625 -0.03125,0.21875 0,0.484375 0.40625,0.703125 0.75,0.703125 0.671875,0 0.875,-1.046875 0.875,-1.0625 0,-0.09375 -0.078125,-0.09375 -0.109375,-0.09375 -0.09375,0 -0.109375,0.046875 -0.140625,0.171875 C 3.5625,-0.625 3.375,-0.125 3.03125,-0.125 c -0.1875,0 -0.25,-0.171875 -0.25,-0.359375 0,-0.125 0,-0.140625 0.046875,-0.3125 0.015625,-0.03125 0.03125,-0.140625 0.03125,-0.21875 0,-0.625 -0.828125,-0.71875 -1.125,-0.734375 C 1.9375,-1.875 2.1875,-2.109375 2.3125,-2.21875 2.671875,-2.546875 3.015625,-2.875 3.40625,-2.875 c 0.078125,0 0.171875,0.015625 0.234375,0.09375 C 3.34375,-2.734375 3.28125,-2.5 3.28125,-2.390625 c 0,0.140625 0.109375,0.25 0.265625,0.25 0.203125,0 0.40625,-0.15625 0.40625,-0.4375 0,-0.234375 -0.171875,-0.5 -0.53125,-0.5 -0.40625,0 -0.765625,0.296875 -1.125,0.625 C 2,-2.1875 1.78125,-1.96875 1.484375,-1.84375 Z m 0,0"
             transform="translate(181.104,132.318)"
             id="path26997" />
        </g>
        <g
           style="fill:#e0249a;fill-opacity:1;stroke:#e0249a;stroke-opacity:1"
           id="g27003">
          <path
             inkscape:connector-curvature="0"
             style="fill:#e0249a;fill-opacity:1;stroke:#e0249a;stroke-width:0;stroke-opacity:1"
             d="M 2.9375,-0.96875 H 2.71875 c 0,0.09375 -0.0625,0.40625 -0.140625,0.453125 -0.03125,0.03125 -0.453125,0.03125 -0.53125,0.03125 H 1.078125 C 1.40625,-0.71875 1.765625,-1 2.0625,-1.203125 c 0.453125,-0.3125 0.875,-0.59375 0.875,-1.125 0,-0.640625 -0.609375,-0.984375 -1.3125,-0.984375 -0.671875,0 -1.171875,0.375 -1.171875,0.875 0,0.25 0.21875,0.296875 0.296875,0.296875 0.125,0 0.28125,-0.09375 0.28125,-0.296875 0,-0.171875 -0.125,-0.28125 -0.28125,-0.28125 0.140625,-0.234375 0.4375,-0.375 0.765625,-0.375 0.484375,0 0.890625,0.28125 0.890625,0.765625 0,0.421875 -0.296875,0.75 -0.671875,1.0625 l -1.21875,1.03125 C 0.46875,-0.1875 0.453125,-0.1875 0.453125,-0.15625 V 0 h 2.3125 z m 0,0"
             transform="translate(185.507,130.325)"
             id="path27001" />
        </g>
        <path
           inkscape:connector-curvature="0"
           style="fill:#e0249a;fill-opacity:1;stroke:#e0249a;stroke-width:0.398;stroke-linecap:butt;stroke-linejoin:miter;stroke-miterlimit:10;stroke-opacity:1"
           d="M -0.00175,-7.1875e-4 H 39.486531"
           transform="matrix(1,0,0,-1,149.908,135.761)"
           id="path27005" />
        <g
           style="fill:#e0249a;fill-opacity:1;stroke:#e0249a;stroke-opacity:1"
           id="g27009">
          <path
             inkscape:connector-curvature="0"
             style="fill:#e0249a;fill-opacity:1;stroke:#e0249a;stroke-width:0;stroke-opacity:1"
             d="M 3.515625,-1.265625 H 3.28125 c -0.015625,0.15625 -0.09375,0.5625 -0.1875,0.625 C 3.046875,-0.59375 2.515625,-0.59375 2.40625,-0.59375 H 1.125 c 0.734375,-0.640625 0.984375,-0.84375 1.390625,-1.171875 0.515625,-0.40625 1,-0.84375 1,-1.5 0,-0.84375 -0.734375,-1.359375 -1.625,-1.359375 -0.859375,0 -1.453125,0.609375 -1.453125,1.25 0,0.34375 0.296875,0.390625 0.375,0.390625 0.15625,0 0.359375,-0.125 0.359375,-0.375 0,-0.125 -0.046875,-0.375 -0.40625,-0.375 C 0.984375,-4.21875 1.453125,-4.375 1.78125,-4.375 c 0.703125,0 1.0625,0.546875 1.0625,1.109375 0,0.609375 -0.4375,1.078125 -0.65625,1.328125 L 0.515625,-0.265625 C 0.4375,-0.203125 0.4375,-0.1875 0.4375,0 h 2.875 z m 0,0"
             transform="translate(156.261,141.971)"
             id="path27007" />
        </g>
        <g
           style="fill:#e0249a;fill-opacity:1;stroke:#e0249a;stroke-opacity:1"
           id="g27013">
          <path
             inkscape:connector-curvature="0"
             style="fill:#e0249a;fill-opacity:1;stroke:#e0249a;stroke-width:0;stroke-opacity:1"
             d="m 2.1875,-4.625 c 0,-0.015625 0.015625,-0.109375 0.015625,-0.109375 0,-0.046875 -0.015625,-0.109375 -0.109375,-0.109375 -0.140625,0 -0.71875,0.0625 -0.890625,0.078125 -0.046875,0 -0.15625,0.015625 -0.15625,0.15625 0,0.09375 0.109375,0.09375 0.1875,0.09375 0.328125,0 0.328125,0.0625 0.328125,0.109375 0,0.046875 -0.015625,0.09375 -0.015625,0.15625 L 0.5625,-0.3125 c -0.046875,0.125 -0.046875,0.140625 -0.046875,0.15625 0,0.109375 0.09375,0.21875 0.25,0.21875 0.1875,0 0.265625,-0.125 0.3125,-0.28125 0.015625,-0.03125 0.3125,-1.265625 0.34375,-1.359375 0.5,0.046875 0.890625,0.21875 0.890625,0.578125 0,0.03125 0,0.0625 -0.015625,0.140625 -0.03125,0.09375 -0.03125,0.140625 -0.03125,0.21875 0,0.484375 0.40625,0.703125 0.75,0.703125 0.671875,0 0.875,-1.046875 0.875,-1.0625 0,-0.09375 -0.078125,-0.09375 -0.109375,-0.09375 -0.09375,0 -0.109375,0.046875 -0.140625,0.171875 C 3.5625,-0.625 3.375,-0.125 3.03125,-0.125 c -0.1875,0 -0.25,-0.171875 -0.25,-0.359375 0,-0.125 0,-0.140625 0.046875,-0.3125 0.015625,-0.03125 0.03125,-0.140625 0.03125,-0.21875 0,-0.625 -0.828125,-0.71875 -1.125,-0.734375 C 1.9375,-1.875 2.1875,-2.109375 2.3125,-2.21875 2.671875,-2.546875 3.015625,-2.875 3.40625,-2.875 c 0.078125,0 0.171875,0.015625 0.234375,0.09375 C 3.34375,-2.734375 3.28125,-2.5 3.28125,-2.390625 c 0,0.140625 0.109375,0.25 0.265625,0.25 0.203125,0 0.40625,-0.15625 0.40625,-0.4375 0,-0.234375 -0.171875,-0.5 -0.53125,-0.5 -0.40625,0 -0.765625,0.296875 -1.125,0.625 C 2,-2.1875 1.78125,-1.96875 1.484375,-1.84375 Z m 0,0"
             transform="translate(160.232,141.971)"
             id="path27011" />
        </g>
        <g
           style="fill:#e0249a;fill-opacity:1;stroke:#e0249a;stroke-opacity:1"
           id="g27017">
          <path
             inkscape:connector-curvature="0"
             style="fill:#e0249a;fill-opacity:1;stroke:#e0249a;stroke-width:0;stroke-opacity:1"
             d="M 2.9375,-0.96875 H 2.71875 c 0,0.09375 -0.0625,0.40625 -0.140625,0.453125 -0.03125,0.03125 -0.453125,0.03125 -0.53125,0.03125 H 1.078125 C 1.40625,-0.71875 1.765625,-1 2.0625,-1.203125 c 0.453125,-0.3125 0.875,-0.59375 0.875,-1.125 0,-0.640625 -0.609375,-0.984375 -1.3125,-0.984375 -0.671875,0 -1.171875,0.375 -1.171875,0.875 0,0.25 0.21875,0.296875 0.296875,0.296875 0.125,0 0.28125,-0.09375 0.28125,-0.296875 0,-0.171875 -0.125,-0.28125 -0.28125,-0.28125 0.140625,-0.234375 0.4375,-0.375 0.765625,-0.375 0.484375,0 0.890625,0.28125 0.890625,0.765625 0,0.421875 -0.296875,0.75 -0.671875,1.0625 l -1.21875,1.03125 C 0.46875,-0.1875 0.453125,-0.1875 0.453125,-0.15625 V 0 h 2.3125 z m 0,0"
             transform="translate(164.636,139.979)"
             id="path27015" />
        </g>
        <g
           style="fill:#e0249a;fill-opacity:1;stroke:#e0249a;stroke-opacity:1"
           id="g27021">
          <path
             inkscape:connector-curvature="0"
             style="fill:#e0249a;fill-opacity:1;stroke:#e0249a;stroke-width:0;stroke-opacity:1"
             d="m 5.1875,-1.578125 c 0.109375,0 0.28125,0 0.28125,-0.15625 0,-0.1875 -0.171875,-0.1875 -0.28125,-0.1875 H 1.03125 c -0.109375,0 -0.28125,0 -0.28125,0.171875 0,0.171875 0.15625,0.171875 0.28125,0.171875 z m 0,0"
             transform="translate(168.524,141.971)"
             id="path27019" />
        </g>
        <g
           style="fill:#e0249a;fill-opacity:1;stroke:#e0249a;stroke-opacity:1"
           id="g27025">
          <path
             inkscape:connector-curvature="0"
             style="fill:#e0249a;fill-opacity:1;stroke:#e0249a;stroke-width:0;stroke-opacity:1"
             d="m 2.1875,-4.625 c 0,-0.015625 0.015625,-0.109375 0.015625,-0.109375 0,-0.046875 -0.015625,-0.109375 -0.109375,-0.109375 -0.140625,0 -0.71875,0.0625 -0.890625,0.078125 -0.046875,0 -0.15625,0.015625 -0.15625,0.15625 0,0.09375 0.109375,0.09375 0.1875,0.09375 0.328125,0 0.328125,0.0625 0.328125,0.109375 0,0.046875 -0.015625,0.09375 -0.015625,0.15625 L 0.5625,-0.3125 c -0.046875,0.125 -0.046875,0.140625 -0.046875,0.15625 0,0.109375 0.09375,0.21875 0.25,0.21875 0.1875,0 0.265625,-0.125 0.3125,-0.28125 0.015625,-0.03125 0.3125,-1.265625 0.34375,-1.359375 0.5,0.046875 0.890625,0.21875 0.890625,0.578125 0,0.03125 0,0.0625 -0.015625,0.140625 -0.03125,0.09375 -0.03125,0.140625 -0.03125,0.21875 0,0.484375 0.40625,0.703125 0.75,0.703125 0.671875,0 0.875,-1.046875 0.875,-1.0625 0,-0.09375 -0.078125,-0.09375 -0.109375,-0.09375 -0.09375,0 -0.109375,0.046875 -0.140625,0.171875 C 3.5625,-0.625 3.375,-0.125 3.03125,-0.125 c -0.1875,0 -0.25,-0.171875 -0.25,-0.359375 0,-0.125 0,-0.140625 0.046875,-0.3125 0.015625,-0.03125 0.03125,-0.140625 0.03125,-0.21875 0,-0.625 -0.828125,-0.71875 -1.125,-0.734375 C 1.9375,-1.875 2.1875,-2.109375 2.3125,-2.21875 2.671875,-2.546875 3.015625,-2.875 3.40625,-2.875 c 0.078125,0 0.171875,0.015625 0.234375,0.09375 C 3.34375,-2.734375 3.28125,-2.5 3.28125,-2.390625 c 0,0.140625 0.109375,0.25 0.265625,0.25 0.203125,0 0.40625,-0.15625 0.40625,-0.4375 0,-0.234375 -0.171875,-0.5 -0.53125,-0.5 -0.40625,0 -0.765625,0.296875 -1.125,0.625 C 2,-2.1875 1.78125,-1.96875 1.484375,-1.84375 Z m 0,0"
             transform="translate(174.751,141.971)"
             id="path27023" />
        </g>
        <g
           style="fill:#e0249a;fill-opacity:1;stroke:#e0249a;stroke-opacity:1"
           id="g27029">
          <path
             inkscape:connector-curvature="0"
             style="fill:#e0249a;fill-opacity:1;stroke:#e0249a;stroke-width:0;stroke-opacity:1"
             d="M 2.9375,-0.96875 H 2.71875 c 0,0.09375 -0.0625,0.40625 -0.140625,0.453125 -0.03125,0.03125 -0.453125,0.03125 -0.53125,0.03125 H 1.078125 C 1.40625,-0.71875 1.765625,-1 2.0625,-1.203125 c 0.453125,-0.3125 0.875,-0.59375 0.875,-1.125 0,-0.640625 -0.609375,-0.984375 -1.3125,-0.984375 -0.671875,0 -1.171875,0.375 -1.171875,0.875 0,0.25 0.21875,0.296875 0.296875,0.296875 0.125,0 0.28125,-0.09375 0.28125,-0.296875 0,-0.171875 -0.125,-0.28125 -0.28125,-0.28125 0.140625,-0.234375 0.4375,-0.375 0.765625,-0.375 0.484375,0 0.890625,0.28125 0.890625,0.765625 0,0.421875 -0.296875,0.75 -0.671875,1.0625 l -1.21875,1.03125 C 0.46875,-0.1875 0.453125,-0.1875 0.453125,-0.15625 V 0 h 2.3125 z m 0,0"
             transform="translate(179.154,139.569)"
             id="path27027" />
        </g>
        <g
           style="fill:#e0249a;fill-opacity:1;stroke:#e0249a;stroke-opacity:1"
           id="g27033">
          <path
             inkscape:connector-curvature="0"
             style="fill:#e0249a;fill-opacity:1;stroke:#e0249a;stroke-width:0;stroke-opacity:1"
             d="M 3,-1.59375 C 3,-1.953125 3,-3.3125 1.6875,-3.3125 c -1.296875,0 -1.296875,1.359375 -1.296875,1.71875 0,0.359375 0,1.703125 1.296875,1.703125 C 3,0.109375 3,-1.234375 3,-1.59375 Z M 1.6875,-0.0625 C 1.515625,-0.0625 1.09375,-0.125 0.96875,-0.625 0.890625,-0.890625 0.890625,-1.25 0.890625,-1.65625 c 0,-0.375 0,-0.71875 0.078125,-1 0.125,-0.421875 0.515625,-0.5 0.71875,-0.5 0.375,0 0.640625,0.1875 0.734375,0.546875 C 2.5,-2.359375 2.5,-1.953125 2.5,-1.65625 c 0,0.34375 0,0.75 -0.078125,1.046875 C 2.296875,-0.125 1.890625,-0.0625 1.6875,-0.0625 Z m 0,0"
             transform="translate(178.986,144.134)"
             id="path27031" />
        </g>
      </g>
    </g>
    <g
       id="g27357"
       style="fill:#9278d1;fill-opacity:1;stroke:#000000;stroke-opacity:1"
       ns0:jacobian_sqrt="0.4"
       inkscapeversion="0.92.3"
       ns0:alignment="middle center"
       ns0:scale="2.83464566935"
       ns0:preamble="/home/phyps/Dropbox/Talks/1710 Bristol Colloquium teleportation/preamble.tex"
       ns0:text="$k_1$"
       ns0:pdfconverter="pdf2svg"
       ns0:texconverter="pdflatex"
       ns0:version="0.11.0"
       transform="matrix(0.4,0,0,0.4,-48.313168,229.65087)">
      <g
         style="fill:#9278d1;fill-opacity:1;stroke:#000000;stroke-opacity:1"
         id="g27355">
        <g
           id="g27349"
           style="fill:#9278d1;fill-opacity:1;stroke:#000000;stroke-opacity:1">
          <path
             id="path27347"
             transform="translate(148.712,134.765)"
             d="m 2.859375,-6.8125 c 0,0 0,-0.109375 -0.125,-0.109375 -0.234375,0 -0.953125,0.078125 -1.21875,0.109375 -0.078125,0 -0.1875,0.015625 -0.1875,0.1875 0,0.125 0.09375,0.125 0.234375,0.125 0.484375,0 0.5,0.0625 0.5,0.171875 L 2.03125,-6.125 0.59375,-0.390625 c -0.046875,0.140625 -0.046875,0.15625 -0.046875,0.21875 0,0.234375 0.203125,0.28125 0.296875,0.28125 0.125,0 0.265625,-0.09375 0.328125,-0.203125 0.046875,-0.09375 0.5,-1.9375 0.5625,-2.1875 0.34375,0.03125 1.15625,0.1875 1.15625,0.84375 0,0.078125 0,0.109375 -0.03125,0.21875 -0.015625,0.109375 -0.03125,0.234375 -0.03125,0.34375 0,0.578125 0.390625,0.984375 0.90625,0.984375 0.296875,0 0.578125,-0.15625 0.796875,-0.53125 0.25,-0.4375 0.359375,-0.984375 0.359375,-1 0,-0.109375 -0.09375,-0.109375 -0.125,-0.109375 -0.09375,0 -0.109375,0.046875 -0.140625,0.1875 -0.203125,0.71875 -0.421875,1.234375 -0.859375,1.234375 -0.203125,0 -0.328125,-0.109375 -0.328125,-0.46875 0,-0.171875 0.046875,-0.40625 0.078125,-0.5625 C 3.5625,-1.3125 3.5625,-1.34375 3.5625,-1.453125 3.5625,-2.09375 2.9375,-2.375 2.078125,-2.5 2.390625,-2.671875 2.71875,-2.984375 2.9375,-3.234375 3.421875,-3.765625 3.875,-4.1875 4.359375,-4.1875 c 0.0625,0 0.078125,0 0.09375,0.015625 0.125,0.015625 0.125,0.015625 0.21875,0.078125 0.015625,0 0.015625,0.015625 0.03125,0.03125 -0.46875,0.03125 -0.5625,0.421875 -0.5625,0.546875 0,0.15625 0.109375,0.34375 0.375,0.34375 0.265625,0 0.546875,-0.21875 0.546875,-0.609375 0,-0.296875 -0.234375,-0.625 -0.671875,-0.625 -0.28125,0 -0.734375,0.078125 -1.453125,0.875 -0.34375,0.375 -0.734375,0.78125 -1.109375,0.921875 z m 0,0"
             style="fill:#9278d1;fill-opacity:1;stroke:#000000;stroke-width:0;stroke-opacity:1"
             inkscape:connector-curvature="0" />
        </g>
        <g
           id="g27353"
           style="fill:#9278d1;fill-opacity:1;stroke:#000000;stroke-opacity:1">
          <path
             id="path27351"
             transform="translate(153.899,136.259)"
             d="m 2.328125,-4.4375 c 0,-0.1875 0,-0.1875 -0.203125,-0.1875 -0.453125,0.4375 -1.078125,0.4375 -1.359375,0.4375 v 0.25 c 0.15625,0 0.625,0 1,-0.1875 v 3.546875 c 0,0.234375 0,0.328125 -0.6875,0.328125 H 0.8125 V 0 c 0.125,0 0.984375,-0.03125 1.234375,-0.03125 0.21875,0 1.09375,0.03125 1.25,0.03125 V -0.25 H 3.03125 c -0.703125,0 -0.703125,-0.09375 -0.703125,-0.328125 z m 0,0"
             style="fill:#9278d1;fill-opacity:1;stroke:#000000;stroke-width:0;stroke-opacity:1"
             inkscape:connector-curvature="0" />
        </g>
      </g>
    </g>
    <g
       transform="matrix(0.4,0,0,0.4,-36.61003,229.65087)"
       ns0:version="0.11.0"
       ns0:texconverter="pdflatex"
       ns0:pdfconverter="pdf2svg"
       ns0:text="$k_2$"
       ns0:preamble="/home/phyps/Dropbox/Talks/1710 Bristol Colloquium teleportation/preamble.tex"
       ns0:scale="2.83464566935"
       ns0:alignment="middle center"
       inkscapeversion="0.92.3"
       ns0:jacobian_sqrt="0.4"
       style="fill:#9278d1;fill-opacity:1;stroke:#000000;stroke-opacity:1"
       id="g27617">
      <g
         id="g27615"
         style="fill:#9278d1;fill-opacity:1;stroke:#000000;stroke-opacity:1">
        <g
           style="fill:#9278d1;fill-opacity:1;stroke:#000000;stroke-opacity:1"
           id="g27609">
          <path
             inkscape:connector-curvature="0"
             style="fill:#9278d1;fill-opacity:1;stroke:#000000;stroke-width:0;stroke-opacity:1"
             d="m 2.859375,-6.8125 c 0,0 0,-0.109375 -0.125,-0.109375 -0.234375,0 -0.953125,0.078125 -1.21875,0.109375 -0.078125,0 -0.1875,0.015625 -0.1875,0.1875 0,0.125 0.09375,0.125 0.234375,0.125 0.484375,0 0.5,0.0625 0.5,0.171875 L 2.03125,-6.125 0.59375,-0.390625 c -0.046875,0.140625 -0.046875,0.15625 -0.046875,0.21875 0,0.234375 0.203125,0.28125 0.296875,0.28125 0.125,0 0.265625,-0.09375 0.328125,-0.203125 0.046875,-0.09375 0.5,-1.9375 0.5625,-2.1875 0.34375,0.03125 1.15625,0.1875 1.15625,0.84375 0,0.078125 0,0.109375 -0.03125,0.21875 -0.015625,0.109375 -0.03125,0.234375 -0.03125,0.34375 0,0.578125 0.390625,0.984375 0.90625,0.984375 0.296875,0 0.578125,-0.15625 0.796875,-0.53125 0.25,-0.4375 0.359375,-0.984375 0.359375,-1 0,-0.109375 -0.09375,-0.109375 -0.125,-0.109375 -0.09375,0 -0.109375,0.046875 -0.140625,0.1875 -0.203125,0.71875 -0.421875,1.234375 -0.859375,1.234375 -0.203125,0 -0.328125,-0.109375 -0.328125,-0.46875 0,-0.171875 0.046875,-0.40625 0.078125,-0.5625 C 3.5625,-1.3125 3.5625,-1.34375 3.5625,-1.453125 3.5625,-2.09375 2.9375,-2.375 2.078125,-2.5 2.390625,-2.671875 2.71875,-2.984375 2.9375,-3.234375 3.421875,-3.765625 3.875,-4.1875 4.359375,-4.1875 c 0.0625,0 0.078125,0 0.09375,0.015625 0.125,0.015625 0.125,0.015625 0.21875,0.078125 0.015625,0 0.015625,0.015625 0.03125,0.03125 -0.46875,0.03125 -0.5625,0.421875 -0.5625,0.546875 0,0.15625 0.109375,0.34375 0.375,0.34375 0.265625,0 0.546875,-0.21875 0.546875,-0.609375 0,-0.296875 -0.234375,-0.625 -0.671875,-0.625 -0.28125,0 -0.734375,0.078125 -1.453125,0.875 -0.34375,0.375 -0.734375,0.78125 -1.109375,0.921875 z m 0,0"
             transform="translate(148.712,134.765)"
             id="path27607" />
        </g>
        <g
           style="fill:#9278d1;fill-opacity:1;stroke:#000000;stroke-opacity:1"
           id="g27613">
          <path
             inkscape:connector-curvature="0"
             style="fill:#9278d1;fill-opacity:1;stroke:#000000;stroke-width:0;stroke-opacity:1"
             d="M 3.515625,-1.265625 H 3.28125 c -0.015625,0.15625 -0.09375,0.5625 -0.1875,0.625 C 3.046875,-0.59375 2.515625,-0.59375 2.40625,-0.59375 H 1.125 c 0.734375,-0.640625 0.984375,-0.84375 1.390625,-1.171875 0.515625,-0.40625 1,-0.84375 1,-1.5 0,-0.84375 -0.734375,-1.359375 -1.625,-1.359375 -0.859375,0 -1.453125,0.609375 -1.453125,1.25 0,0.34375 0.296875,0.390625 0.375,0.390625 0.15625,0 0.359375,-0.125 0.359375,-0.375 0,-0.125 -0.046875,-0.375 -0.40625,-0.375 C 0.984375,-4.21875 1.453125,-4.375 1.78125,-4.375 c 0.703125,0 1.0625,0.546875 1.0625,1.109375 0,0.609375 -0.4375,1.078125 -0.65625,1.328125 L 0.515625,-0.265625 C 0.4375,-0.203125 0.4375,-0.1875 0.4375,0 h 2.875 z m 0,0"
             transform="translate(153.899,136.259)"
             id="path27611" />
        </g>
      </g>
    </g>
    <g
       id="g27881"
       style="fill:#9278d1;fill-opacity:1;stroke:#000000;stroke-opacity:1"
       ns0:jacobian_sqrt="0.4"
       inkscapeversion="0.92.3"
       ns0:alignment="middle center"
       ns0:scale="2.83464566935"
       ns0:preamble="/home/phyps/Dropbox/Talks/1710 Bristol Colloquium teleportation/preamble.tex"
       ns0:text="$k_3$"
       ns0:pdfconverter="pdf2svg"
       ns0:texconverter="pdflatex"
       ns0:version="0.11.0"
       transform="matrix(0.4,0,0,0.4,-24.925193,229.65087)">
      <g
         style="fill:#9278d1;fill-opacity:1;stroke:#000000;stroke-opacity:1"
         id="g27879">
        <g
           id="g27873"
           style="fill:#9278d1;fill-opacity:1;stroke:#000000;stroke-opacity:1">
          <path
             inkscape:connector-curvature="0"
             id="path27871"
             transform="translate(148.712,134.765)"
             d="m 2.859375,-6.8125 c 0,0 0,-0.109375 -0.125,-0.109375 -0.234375,0 -0.953125,0.078125 -1.21875,0.109375 -0.078125,0 -0.1875,0.015625 -0.1875,0.1875 0,0.125 0.09375,0.125 0.234375,0.125 0.484375,0 0.5,0.0625 0.5,0.171875 L 2.03125,-6.125 0.59375,-0.390625 c -0.046875,0.140625 -0.046875,0.15625 -0.046875,0.21875 0,0.234375 0.203125,0.28125 0.296875,0.28125 0.125,0 0.265625,-0.09375 0.328125,-0.203125 0.046875,-0.09375 0.5,-1.9375 0.5625,-2.1875 0.34375,0.03125 1.15625,0.1875 1.15625,0.84375 0,0.078125 0,0.109375 -0.03125,0.21875 -0.015625,0.109375 -0.03125,0.234375 -0.03125,0.34375 0,0.578125 0.390625,0.984375 0.90625,0.984375 0.296875,0 0.578125,-0.15625 0.796875,-0.53125 0.25,-0.4375 0.359375,-0.984375 0.359375,-1 0,-0.109375 -0.09375,-0.109375 -0.125,-0.109375 -0.09375,0 -0.109375,0.046875 -0.140625,0.1875 -0.203125,0.71875 -0.421875,1.234375 -0.859375,1.234375 -0.203125,0 -0.328125,-0.109375 -0.328125,-0.46875 0,-0.171875 0.046875,-0.40625 0.078125,-0.5625 C 3.5625,-1.3125 3.5625,-1.34375 3.5625,-1.453125 3.5625,-2.09375 2.9375,-2.375 2.078125,-2.5 2.390625,-2.671875 2.71875,-2.984375 2.9375,-3.234375 3.421875,-3.765625 3.875,-4.1875 4.359375,-4.1875 c 0.0625,0 0.078125,0 0.09375,0.015625 0.125,0.015625 0.125,0.015625 0.21875,0.078125 0.015625,0 0.015625,0.015625 0.03125,0.03125 -0.46875,0.03125 -0.5625,0.421875 -0.5625,0.546875 0,0.15625 0.109375,0.34375 0.375,0.34375 0.265625,0 0.546875,-0.21875 0.546875,-0.609375 0,-0.296875 -0.234375,-0.625 -0.671875,-0.625 -0.28125,0 -0.734375,0.078125 -1.453125,0.875 -0.34375,0.375 -0.734375,0.78125 -1.109375,0.921875 z m 0,0"
             style="fill:#9278d1;fill-opacity:1;stroke:#000000;stroke-width:0;stroke-opacity:1" />
        </g>
        <g
           id="g27877"
           style="fill:#9278d1;fill-opacity:1;stroke:#000000;stroke-opacity:1">
          <path
             inkscape:connector-curvature="0"
             id="path27875"
             transform="translate(153.899,136.259)"
             d="m 1.90625,-2.328125 c 0.546875,0 0.9375,0.375 0.9375,1.125 0,0.859375 -0.515625,1.125 -0.90625,1.125 -0.28125,0 -0.90625,-0.078125 -1.1875,-0.5 0.328125,0 0.40625,-0.234375 0.40625,-0.390625 0,-0.21875 -0.171875,-0.375 -0.390625,-0.375 -0.1875,0 -0.390625,0.125 -0.390625,0.40625 0,0.65625 0.71875,1.078125 1.5625,1.078125 0.96875,0 1.640625,-0.65625 1.640625,-1.34375 0,-0.546875 -0.4375,-1.09375 -1.203125,-1.25 0.71875,-0.265625 0.984375,-0.78125 0.984375,-1.21875 0,-0.546875 -0.625,-0.953125 -1.40625,-0.953125 -0.765625,0 -1.359375,0.375 -1.359375,0.9375 0,0.234375 0.15625,0.359375 0.359375,0.359375 0.21875,0 0.359375,-0.15625 0.359375,-0.34375 0,-0.203125 -0.140625,-0.359375 -0.359375,-0.375 0.25,-0.296875 0.71875,-0.375 0.984375,-0.375 0.3125,0 0.75,0.15625 0.75,0.75 0,0.296875 -0.09375,0.625 -0.28125,0.828125 -0.21875,0.265625 -0.421875,0.28125 -0.765625,0.3125 -0.171875,0.015625 -0.1875,0.015625 -0.21875,0.015625 -0.015625,0 -0.078125,0.015625 -0.078125,0.09375 0,0.09375 0.0625,0.09375 0.1875,0.09375 z m 0,0"
             style="fill:#9278d1;fill-opacity:1;stroke:#000000;stroke-width:0;stroke-opacity:1" />
        </g>
      </g>
    </g>
    <g
       transform="matrix(0.4,0,0,0.4,-13.432799,229.65087)"
       ns0:version="0.11.0"
       ns0:texconverter="pdflatex"
       ns0:pdfconverter="pdf2svg"
       ns0:text="$k_4$"
       ns0:preamble="/home/phyps/Dropbox/Talks/1710 Bristol Colloquium teleportation/preamble.tex"
       ns0:scale="2.83464566935"
       ns0:alignment="middle center"
       inkscapeversion="0.92.3"
       ns0:jacobian_sqrt="0.4"
       style="fill:#9278d1;fill-opacity:1;stroke:#000000;stroke-opacity:1"
       id="g28149">
      <g
         id="g28147"
         style="fill:#9278d1;fill-opacity:1;stroke:#000000;stroke-opacity:1">
        <g
           style="fill:#9278d1;fill-opacity:1;stroke:#000000;stroke-opacity:1"
           id="g28141">
          <path
             inkscape:connector-curvature="0"
             style="fill:#9278d1;fill-opacity:1;stroke:#000000;stroke-width:0;stroke-opacity:1"
             d="m 2.859375,-6.8125 c 0,0 0,-0.109375 -0.125,-0.109375 -0.234375,0 -0.953125,0.078125 -1.21875,0.109375 -0.078125,0 -0.1875,0.015625 -0.1875,0.1875 0,0.125 0.09375,0.125 0.234375,0.125 0.484375,0 0.5,0.0625 0.5,0.171875 L 2.03125,-6.125 0.59375,-0.390625 c -0.046875,0.140625 -0.046875,0.15625 -0.046875,0.21875 0,0.234375 0.203125,0.28125 0.296875,0.28125 0.125,0 0.265625,-0.09375 0.328125,-0.203125 0.046875,-0.09375 0.5,-1.9375 0.5625,-2.1875 0.34375,0.03125 1.15625,0.1875 1.15625,0.84375 0,0.078125 0,0.109375 -0.03125,0.21875 -0.015625,0.109375 -0.03125,0.234375 -0.03125,0.34375 0,0.578125 0.390625,0.984375 0.90625,0.984375 0.296875,0 0.578125,-0.15625 0.796875,-0.53125 0.25,-0.4375 0.359375,-0.984375 0.359375,-1 0,-0.109375 -0.09375,-0.109375 -0.125,-0.109375 -0.09375,0 -0.109375,0.046875 -0.140625,0.1875 -0.203125,0.71875 -0.421875,1.234375 -0.859375,1.234375 -0.203125,0 -0.328125,-0.109375 -0.328125,-0.46875 0,-0.171875 0.046875,-0.40625 0.078125,-0.5625 C 3.5625,-1.3125 3.5625,-1.34375 3.5625,-1.453125 3.5625,-2.09375 2.9375,-2.375 2.078125,-2.5 2.390625,-2.671875 2.71875,-2.984375 2.9375,-3.234375 3.421875,-3.765625 3.875,-4.1875 4.359375,-4.1875 c 0.0625,0 0.078125,0 0.09375,0.015625 0.125,0.015625 0.125,0.015625 0.21875,0.078125 0.015625,0 0.015625,0.015625 0.03125,0.03125 -0.46875,0.03125 -0.5625,0.421875 -0.5625,0.546875 0,0.15625 0.109375,0.34375 0.375,0.34375 0.265625,0 0.546875,-0.21875 0.546875,-0.609375 0,-0.296875 -0.234375,-0.625 -0.671875,-0.625 -0.28125,0 -0.734375,0.078125 -1.453125,0.875 -0.34375,0.375 -0.734375,0.78125 -1.109375,0.921875 z m 0,0"
             transform="translate(148.712,134.765)"
             id="path28139" />
        </g>
        <g
           style="fill:#9278d1;fill-opacity:1;stroke:#000000;stroke-opacity:1"
           id="g28145">
          <path
             inkscape:connector-curvature="0"
             style="fill:#9278d1;fill-opacity:1;stroke:#000000;stroke-width:0;stroke-opacity:1"
             d="m 3.6875,-1.140625 v -0.25 H 2.90625 V -4.5 c 0,-0.140625 0,-0.203125 -0.140625,-0.203125 -0.09375,0 -0.125,0 -0.1875,0.109375 l -2.3125,3.203125 v 0.25 h 2.0625 v 0.5625 c 0,0.25 0,0.328125 -0.578125,0.328125 H 1.5625 V 0 C 1.921875,-0.015625 2.359375,-0.03125 2.609375,-0.03125 2.875,-0.03125 3.3125,-0.015625 3.671875,0 v -0.25 h -0.1875 C 2.90625,-0.25 2.90625,-0.328125 2.90625,-0.578125 v -0.5625 z M 2.375,-3.9375 v 2.546875 H 0.53125 Z m 0,0"
             transform="translate(153.899,136.259)"
             id="path28143" />
        </g>
      </g>
    </g>
    <g
       id="g28421"
       style="fill:#9278d1;fill-opacity:1;stroke:#000000;stroke-opacity:1"
       ns0:jacobian_sqrt="0.4"
       inkscapeversion="0.92.3"
       ns0:alignment="middle center"
       ns0:scale="2.83464566935"
       ns0:preamble="/home/phyps/Dropbox/Talks/1710 Bristol Colloquium teleportation/preamble.tex"
       ns0:text="$k_5$"
       ns0:pdfconverter="pdf2svg"
       ns0:texconverter="pdflatex"
       ns0:version="0.11.0"
       transform="matrix(0.4,0,0,0.4,-2.077983,234.65403)">
      <g
         style="fill:#9278d1;fill-opacity:1;stroke:#000000;stroke-opacity:1"
         id="g28419">
        <g
           id="g28413"
           style="fill:#9278d1;fill-opacity:1;stroke:#000000;stroke-opacity:1">
          <path
             inkscape:connector-curvature="0"
             id="path28411"
             transform="translate(148.712,134.765)"
             d="m 2.859375,-6.8125 c 0,0 0,-0.109375 -0.125,-0.109375 -0.234375,0 -0.953125,0.078125 -1.21875,0.109375 -0.078125,0 -0.1875,0.015625 -0.1875,0.1875 0,0.125 0.09375,0.125 0.234375,0.125 0.484375,0 0.5,0.0625 0.5,0.171875 L 2.03125,-6.125 0.59375,-0.390625 c -0.046875,0.140625 -0.046875,0.15625 -0.046875,0.21875 0,0.234375 0.203125,0.28125 0.296875,0.28125 0.125,0 0.265625,-0.09375 0.328125,-0.203125 0.046875,-0.09375 0.5,-1.9375 0.5625,-2.1875 0.34375,0.03125 1.15625,0.1875 1.15625,0.84375 0,0.078125 0,0.109375 -0.03125,0.21875 -0.015625,0.109375 -0.03125,0.234375 -0.03125,0.34375 0,0.578125 0.390625,0.984375 0.90625,0.984375 0.296875,0 0.578125,-0.15625 0.796875,-0.53125 0.25,-0.4375 0.359375,-0.984375 0.359375,-1 0,-0.109375 -0.09375,-0.109375 -0.125,-0.109375 -0.09375,0 -0.109375,0.046875 -0.140625,0.1875 -0.203125,0.71875 -0.421875,1.234375 -0.859375,1.234375 -0.203125,0 -0.328125,-0.109375 -0.328125,-0.46875 0,-0.171875 0.046875,-0.40625 0.078125,-0.5625 C 3.5625,-1.3125 3.5625,-1.34375 3.5625,-1.453125 3.5625,-2.09375 2.9375,-2.375 2.078125,-2.5 2.390625,-2.671875 2.71875,-2.984375 2.9375,-3.234375 3.421875,-3.765625 3.875,-4.1875 4.359375,-4.1875 c 0.0625,0 0.078125,0 0.09375,0.015625 0.125,0.015625 0.125,0.015625 0.21875,0.078125 0.015625,0 0.015625,0.015625 0.03125,0.03125 -0.46875,0.03125 -0.5625,0.421875 -0.5625,0.546875 0,0.15625 0.109375,0.34375 0.375,0.34375 0.265625,0 0.546875,-0.21875 0.546875,-0.609375 0,-0.296875 -0.234375,-0.625 -0.671875,-0.625 -0.28125,0 -0.734375,0.078125 -1.453125,0.875 -0.34375,0.375 -0.734375,0.78125 -1.109375,0.921875 z m 0,0"
             style="fill:#9278d1;fill-opacity:1;stroke:#000000;stroke-width:0;stroke-opacity:1" />
        </g>
        <g
           id="g28417"
           style="fill:#9278d1;fill-opacity:1;stroke:#000000;stroke-opacity:1">
          <path
             inkscape:connector-curvature="0"
             id="path28415"
             transform="translate(153.899,136.259)"
             d="m 1.078125,-3.890625 c 0.359375,0.09375 0.5625,0.09375 0.671875,0.09375 0.921875,0 1.46875,-0.625 1.46875,-0.734375 0,-0.078125 -0.046875,-0.09375 -0.078125,-0.09375 -0.015625,0 -0.03125,0 -0.0625,0.015625 -0.171875,0.0625 -0.53125,0.203125 -1.046875,0.203125 -0.203125,0 -0.5625,-0.015625 -1.015625,-0.1875 C 0.9375,-4.625 0.921875,-4.625 0.921875,-4.625 c -0.09375,0 -0.09375,0.078125 -0.09375,0.1875 v 2.046875 c 0,0.125 0,0.203125 0.109375,0.203125 0.0625,0 0.078125,0 0.140625,-0.09375 0.296875,-0.375 0.734375,-0.4375 0.96875,-0.4375 0.421875,0 0.609375,0.328125 0.640625,0.390625 0.125,0.234375 0.171875,0.5 0.171875,0.90625 0,0.203125 0,0.609375 -0.21875,0.921875 -0.171875,0.25 -0.46875,0.421875 -0.8125,0.421875 -0.453125,0 -0.921875,-0.25 -1.09375,-0.71875 0.265625,0.015625 0.40625,-0.15625 0.40625,-0.34375 0,-0.296875 -0.265625,-0.34375 -0.359375,-0.34375 0,0 -0.34375,0 -0.34375,0.375 0,0.625 0.578125,1.25 1.40625,1.25 0.890625,0 1.671875,-0.65625 1.671875,-1.546875 0,-0.78125 -0.59375,-1.5 -1.453125,-1.5 -0.3125,0 -0.671875,0.0625 -0.984375,0.328125 z m 0,0"
             style="fill:#9278d1;fill-opacity:1;stroke:#000000;stroke-width:0;stroke-opacity:1" />
        </g>
      </g>
    </g>
    <g
       transform="matrix(0.4,0,0,0.4,8.725951,234.65403)"
       ns0:version="0.11.0"
       ns0:texconverter="pdflatex"
       ns0:pdfconverter="pdf2svg"
       ns0:text="$k_6$"
       ns0:preamble="/home/phyps/Dropbox/Talks/1710 Bristol Colloquium teleportation/preamble.tex"
       ns0:scale="2.83464566935"
       ns0:alignment="middle center"
       inkscapeversion="0.92.3"
       ns0:jacobian_sqrt="0.4"
       style="fill:#9278d1;fill-opacity:1;stroke:#000000;stroke-opacity:1"
       id="g28697">
      <g
         id="g28695"
         style="fill:#9278d1;fill-opacity:1;stroke:#000000;stroke-opacity:1">
        <g
           style="fill:#9278d1;fill-opacity:1;stroke:#000000;stroke-opacity:1"
           id="g28689">
          <path
             inkscape:connector-curvature="0"
             style="fill:#9278d1;fill-opacity:1;stroke:#000000;stroke-width:0;stroke-opacity:1"
             d="m 2.859375,-6.8125 c 0,0 0,-0.109375 -0.125,-0.109375 -0.234375,0 -0.953125,0.078125 -1.21875,0.109375 -0.078125,0 -0.1875,0.015625 -0.1875,0.1875 0,0.125 0.09375,0.125 0.234375,0.125 0.484375,0 0.5,0.0625 0.5,0.171875 L 2.03125,-6.125 0.59375,-0.390625 c -0.046875,0.140625 -0.046875,0.15625 -0.046875,0.21875 0,0.234375 0.203125,0.28125 0.296875,0.28125 0.125,0 0.265625,-0.09375 0.328125,-0.203125 0.046875,-0.09375 0.5,-1.9375 0.5625,-2.1875 0.34375,0.03125 1.15625,0.1875 1.15625,0.84375 0,0.078125 0,0.109375 -0.03125,0.21875 -0.015625,0.109375 -0.03125,0.234375 -0.03125,0.34375 0,0.578125 0.390625,0.984375 0.90625,0.984375 0.296875,0 0.578125,-0.15625 0.796875,-0.53125 0.25,-0.4375 0.359375,-0.984375 0.359375,-1 0,-0.109375 -0.09375,-0.109375 -0.125,-0.109375 -0.09375,0 -0.109375,0.046875 -0.140625,0.1875 -0.203125,0.71875 -0.421875,1.234375 -0.859375,1.234375 -0.203125,0 -0.328125,-0.109375 -0.328125,-0.46875 0,-0.171875 0.046875,-0.40625 0.078125,-0.5625 C 3.5625,-1.3125 3.5625,-1.34375 3.5625,-1.453125 3.5625,-2.09375 2.9375,-2.375 2.078125,-2.5 2.390625,-2.671875 2.71875,-2.984375 2.9375,-3.234375 3.421875,-3.765625 3.875,-4.1875 4.359375,-4.1875 c 0.0625,0 0.078125,0 0.09375,0.015625 0.125,0.015625 0.125,0.015625 0.21875,0.078125 0.015625,0 0.015625,0.015625 0.03125,0.03125 -0.46875,0.03125 -0.5625,0.421875 -0.5625,0.546875 0,0.15625 0.109375,0.34375 0.375,0.34375 0.265625,0 0.546875,-0.21875 0.546875,-0.609375 0,-0.296875 -0.234375,-0.625 -0.671875,-0.625 -0.28125,0 -0.734375,0.078125 -1.453125,0.875 -0.34375,0.375 -0.734375,0.78125 -1.109375,0.921875 z m 0,0"
             transform="translate(148.712,134.765)"
             id="path28687" />
        </g>
        <g
           style="fill:#9278d1;fill-opacity:1;stroke:#000000;stroke-opacity:1"
           id="g28693">
          <path
             inkscape:connector-curvature="0"
             style="fill:#9278d1;fill-opacity:1;stroke:#000000;stroke-width:0;stroke-opacity:1"
             d="m 1.046875,-2.28125 c 0,-0.5625 0.046875,-1.078125 0.3125,-1.515625 0.234375,-0.375 0.609375,-0.625 1.0625,-0.625 0.203125,0 0.484375,0.046875 0.625,0.234375 C 2.875,-4.171875 2.71875,-4.046875 2.71875,-3.84375 c 0,0.171875 0.125,0.328125 0.328125,0.328125 0.21875,0 0.34375,-0.140625 0.34375,-0.34375 0,-0.40625 -0.296875,-0.765625 -0.984375,-0.765625 -1,0 -2.03125,0.921875 -2.03125,2.421875 0,1.796875 0.84375,2.34375 1.625,2.34375 0.84375,0 1.578125,-0.65625 1.578125,-1.5625 0,-0.890625 -0.703125,-1.546875 -1.515625,-1.546875 -0.5625,0 -0.859375,0.375 -1.015625,0.6875 z M 2,-0.078125 c -0.359375,0 -0.625,-0.203125 -0.78125,-0.515625 C 1.125,-0.796875 1.0625,-1.15625 1.0625,-1.5625 c 0,-0.6875 0.40625,-1.203125 0.96875,-1.203125 0.3125,0 0.53125,0.125 0.703125,0.375 0.171875,0.265625 0.171875,0.5625 0.171875,0.96875 0,0.390625 0,0.6875 -0.1875,0.96875 -0.15625,0.234375 -0.390625,0.375 -0.71875,0.375 z m 0,0"
             transform="translate(153.899,136.259)"
             id="path28691" />
        </g>
      </g>
    </g>
    <circle
       r="0.19038604"
       cy="288.66867"
       cx="36.422005"
       id="circle26578-4"
       style="opacity:1;vector-effect:none;fill:#42145f;fill-opacity:1;stroke:#42145f;stroke-width:0.25;stroke-linecap:butt;stroke-linejoin:miter;stroke-miterlimit:4;stroke-dasharray:none;stroke-dashoffset:0;stroke-opacity:1" />
    <line
       y2="262.21872"
       style="font-style:normal;font-weight:normal;font-size:medium;font-family:Dialog;color-interpolation:linearRGB;fill:none;fill-opacity:1;stroke:#000000;stroke-width:0.17639774;stroke-linecap:square;stroke-linejoin:round;stroke-miterlimit:10;stroke-dasharray:none;stroke-dashoffset:0;stroke-opacity:1;color-rendering:optimizeQuality;image-rendering:optimizeQuality;shape-rendering:auto;text-rendering:geometricPrecision"
       x1="1.2176706"
       x2="1.2176706"
       y1="296.7941"
       id="line26058" />
    <g
       id="g29358"
       style="fill-opacity:1;stroke:#000000;stroke-opacity:1"
       ns0:jacobian_sqrt="0.4"
       inkscapeversion="0.92.3"
       ns0:alignment="middle center"
       ns0:scale="2.83464566935"
       ns0:preamble="/home/phyps/Dropbox/Talks/1710 Bristol Colloquium teleportation/preamble.tex"
       ns0:text="$k_0$"
       ns0:pdfconverter="pdf2svg"
       ns0:texconverter="pdflatex"
       ns0:version="0.11.0"
       transform="matrix(0.4,0,0,0.4,14.851915,234.93372)">
      <g
         style="fill-opacity:1;stroke:#000000;stroke-opacity:1"
         id="g29356">
        <g
           id="g29350"
           style="fill:#000000;fill-opacity:1;stroke:#000000;stroke-opacity:1">
          <path
             id="path29348"
             transform="translate(148.712,134.765)"
             d="m 2.859375,-6.8125 c 0,0 0,-0.109375 -0.125,-0.109375 -0.234375,0 -0.953125,0.078125 -1.21875,0.109375 -0.078125,0 -0.1875,0.015625 -0.1875,0.1875 0,0.125 0.09375,0.125 0.234375,0.125 0.484375,0 0.5,0.0625 0.5,0.171875 L 2.03125,-6.125 0.59375,-0.390625 c -0.046875,0.140625 -0.046875,0.15625 -0.046875,0.21875 0,0.234375 0.203125,0.28125 0.296875,0.28125 0.125,0 0.265625,-0.09375 0.328125,-0.203125 0.046875,-0.09375 0.5,-1.9375 0.5625,-2.1875 0.34375,0.03125 1.15625,0.1875 1.15625,0.84375 0,0.078125 0,0.109375 -0.03125,0.21875 -0.015625,0.109375 -0.03125,0.234375 -0.03125,0.34375 0,0.578125 0.390625,0.984375 0.90625,0.984375 0.296875,0 0.578125,-0.15625 0.796875,-0.53125 0.25,-0.4375 0.359375,-0.984375 0.359375,-1 0,-0.109375 -0.09375,-0.109375 -0.125,-0.109375 -0.09375,0 -0.109375,0.046875 -0.140625,0.1875 -0.203125,0.71875 -0.421875,1.234375 -0.859375,1.234375 -0.203125,0 -0.328125,-0.109375 -0.328125,-0.46875 0,-0.171875 0.046875,-0.40625 0.078125,-0.5625 C 3.5625,-1.3125 3.5625,-1.34375 3.5625,-1.453125 3.5625,-2.09375 2.9375,-2.375 2.078125,-2.5 2.390625,-2.671875 2.71875,-2.984375 2.9375,-3.234375 3.421875,-3.765625 3.875,-4.1875 4.359375,-4.1875 c 0.0625,0 0.078125,0 0.09375,0.015625 0.125,0.015625 0.125,0.015625 0.21875,0.078125 0.015625,0 0.015625,0.015625 0.03125,0.03125 -0.46875,0.03125 -0.5625,0.421875 -0.5625,0.546875 0,0.15625 0.109375,0.34375 0.375,0.34375 0.265625,0 0.546875,-0.21875 0.546875,-0.609375 0,-0.296875 -0.234375,-0.625 -0.671875,-0.625 -0.28125,0 -0.734375,0.078125 -1.453125,0.875 -0.34375,0.375 -0.734375,0.78125 -1.109375,0.921875 z m 0,0"
             style="fill-opacity:1;stroke:#000000;stroke-width:0;stroke-opacity:1"
             inkscape:connector-curvature="0" />
        </g>
        <g
           id="g29354"
           style="fill:#000000;fill-opacity:1;stroke:#000000;stroke-opacity:1">
          <path
             id="path29352"
             transform="translate(153.899,136.259)"
             d="M 3.59375,-2.21875 C 3.59375,-2.984375 3.5,-3.546875 3.1875,-4.03125 2.96875,-4.34375 2.53125,-4.625 1.984375,-4.625 c -1.625,0 -1.625,1.90625 -1.625,2.40625 0,0.5 0,2.359375 1.625,2.359375 1.609375,0 1.609375,-1.859375 1.609375,-2.359375 z M 1.984375,-0.0625 c -0.328125,0 -0.75,-0.1875 -0.890625,-0.75 C 1,-1.21875 1,-1.796875 1,-2.3125 1,-2.828125 1,-3.359375 1.09375,-3.734375 1.25,-4.28125 1.6875,-4.4375 1.984375,-4.4375 c 0.375,0 0.734375,0.234375 0.859375,0.640625 0.109375,0.375 0.125,0.875 0.125,1.484375 0,0.515625 0,1.03125 -0.09375,1.46875 -0.140625,0.640625 -0.609375,0.78125 -0.890625,0.78125 z m 0,0"
             style="fill-opacity:1;stroke:#000000;stroke-width:0;stroke-opacity:1"
             inkscape:connector-curvature="0" />
        </g>
      </g>
    </g>
  </g>
</svg>
