<?xml version="1.0" encoding="UTF-8" standalone="no"?>
<!-- Created with Inkscape (http://www.inkscape.org/) -->

<svg
   xmlns:ns0="http://www.iki.fi/pav/software/textext/"
   xmlns:dc="http://purl.org/dc/elements/1.1/"
   xmlns:cc="http://creativecommons.org/ns#"
   xmlns:rdf="http://www.w3.org/1999/02/22-rdf-syntax-ns#"
   xmlns:svg="http://www.w3.org/2000/svg"
   xmlns="http://www.w3.org/2000/svg"
   xmlns:sodipodi="http://sodipodi.sourceforge.net/DTD/sodipodi-0.dtd"
   xmlns:inkscape="http://www.inkscape.org/namespaces/inkscape"
   width="8cm"
   height="3.8cm"
   viewBox="0 0 80 37.999998"
   version="1.1"
   id="svg8"
   inkscape:version="0.92.3 (2405546, 2018-03-11)"
   sodipodi:docname="photoelectric.svg">
  <sodipodi:namedview
     id="base"
     pagecolor="#ffffff"
     bordercolor="#666666"
     borderopacity="1.0"
     inkscape:pageopacity="0.0"
     inkscape:pageshadow="2"
     inkscape:zoom="2.8"
     inkscape:cx="94.342303"
     inkscape:cy="85.359848"
     inkscape:document-units="mm"
     inkscape:current-layer="layer1"
     showgrid="false"
     units="cm"
     inkscape:window-width="1853"
     inkscape:window-height="1025"
     inkscape:window-x="67"
     inkscape:window-y="27"
     inkscape:window-maximized="1"
     inkscape:snap-global="false"
     showguides="true">
    <inkscape:grid
       id="grid6583"
       type="xygrid" />
  </sodipodi:namedview>
  <defs
     id="defs2">
    <marker
       inkscape:stockid="Arrow2Mend"
       orient="auto"
       refY="0.0"
       refX="0.0"
       id="Arrow2Mend"
       style="overflow:visible;"
       inkscape:isstock="true">
      <path
         id="path6739"
         style="fill-rule:evenodd;stroke-width:0.625;stroke-linejoin:round;stroke:#0cc6de;stroke-opacity:1;fill:#0cc6de;fill-opacity:1"
         d="M 8.7185878,4.0337352 L -2.2072895,0.016013256 L 8.7185884,-4.0017078 C 6.9730900,-1.6296469 6.9831476,1.6157441 8.7185878,4.0337352 z "
         transform="scale(0.6) rotate(180) translate(0,0)" />
    </marker>
    <marker
       inkscape:stockid="Arrow1Sstart"
       orient="auto"
       refY="0.0"
       refX="0.0"
       id="Arrow1Sstart"
       style="overflow:visible"
       inkscape:isstock="true">
      <path
         id="path6724"
         d="M 0.0,0.0 L 5.0,-5.0 L -12.5,0.0 L 5.0,5.0 L 0.0,0.0 z "
         style="fill-rule:evenodd;stroke:#0cc6de;stroke-width:1pt;stroke-opacity:1;fill:#0cc6de;fill-opacity:1"
         transform="scale(0.2) translate(6,0)" />
    </marker>
    <marker
       inkscape:stockid="Arrow1Lend"
       orient="auto"
       refY="0.0"
       refX="0.0"
       id="Arrow1Lend"
       style="overflow:visible;"
       inkscape:isstock="true">
      <path
         id="path6715"
         d="M 0.0,0.0 L 5.0,-5.0 L -12.5,0.0 L 5.0,5.0 L 0.0,0.0 z "
         style="fill-rule:evenodd;stroke:#0cc6de;stroke-width:1pt;stroke-opacity:1;fill:#0cc6de;fill-opacity:1"
         transform="scale(0.8) rotate(180) translate(12.5,0)" />
    </marker>
  </defs>
  <metadata
     id="metadata5">
    <rdf:RDF>
      <cc:Work
         rdf:about="">
        <dc:format>image/svg+xml</dc:format>
        <dc:type
           rdf:resource="http://purl.org/dc/dcmitype/StillImage" />
        <dc:title></dc:title>
      </cc:Work>
    </rdf:RDF>
  </metadata>
  <g
     transform="translate(0,-259.00002)"
     id="layer1"
     inkscape:groupmode="layer"
     inkscape:label="Layer 1">
    <g
       transform="translate(12.756696,-8.7879464)"
       id="g7158">
      <circle
         r="0.69925594"
         cy="277.77048"
         cx="27.828499"
         id="circle7154"
         style="opacity:1;vector-effect:none;fill:#0cc6de;fill-opacity:1;stroke:none;stroke-width:0.26499996;stroke-linecap:butt;stroke-linejoin:round;stroke-miterlimit:4;stroke-dasharray:none;stroke-dashoffset:0;stroke-opacity:1" />
      <path
         inkscape:connector-curvature="0"
         id="path7156"
         d="m 29.009673,277.81773 h 4.346726"
         style="fill:none;stroke:#0cc6de;stroke-width:0.26458332px;stroke-linecap:butt;stroke-linejoin:miter;stroke-opacity:1;marker-end:url(#Arrow2Mend)" />
    </g>
    <rect
       ry="3.7797618"
       y="262.9444"
       x="19.087797"
       height="18.331844"
       width="35.71875"
       id="rect6575"
       style="opacity:1;vector-effect:none;fill:none;fill-opacity:1;stroke:#000000;stroke-width:0.25;stroke-linecap:butt;stroke-linejoin:round;stroke-miterlimit:10;stroke-dasharray:none;stroke-dashoffset:0;stroke-opacity:1" />
    <path
       sodipodi:nodetypes="ccscsccsscc"
       inkscape:connector-curvature="0"
       id="path39"
       d="m 3.690582,332.72366 c 0,0 3.5907781,0.0945 6.992558,-1.22842 3.40179,-1.32292 5.008186,-14.93007 9.165926,-15.68602 4.15774,-0.75595 4.34673,12.47322 7.9375,14.55208 3.59077,2.07887 3.59077,-5.48065 5.66964,-5.48065 2.07887,0 1.88988,3.2128 5.66965,3.40179 3.77976,0.18898 4.15773,-16.63096 8.50446,-16.81995 4.34673,-0.18898 2.64583,15.30804 7.37054,17.38691 4.7247,2.07887 4.7247,-4.91369 7.370531,-5.10268 2.645833,-0.18899 3.732515,8.50447 8.457217,8.69346 4.724704,0.18898 6.047619,0.23623 6.047619,0.23623"
       style="fill:#0cc6de;fill-rule:evenodd;stroke:#002f5f;stroke-width:0.26458332px;stroke-linecap:butt;stroke-linejoin:miter;stroke-opacity:1" />
    <path
       inkscape:connector-curvature="0"
       id="path35"
       d="M 13.423476,306.49077 V 337.6738"
       style="fill:none;fill-rule:evenodd;stroke:#000000;stroke-width:0.22313127px;stroke-linecap:butt;stroke-linejoin:miter;stroke-opacity:1" />
    <path
       inkscape:connector-curvature="0"
       id="path33"
       d="M 2.2731761,332.76011 H 78.246387"
       style="fill:none;fill-rule:evenodd;stroke:#000000;stroke-width:0.27616099px;stroke-linecap:butt;stroke-linejoin:miter;stroke-opacity:1" />
    <g
       id="g674"
       transform="matrix(0.4,0,0,-0.4,-13.948661,619.67337)"
       xml:space="preserve"
       stroke-miterlimit="10.433"
       font-style="normal"
       font-variant="normal"
       font-weight="normal"
       font-stretch="normal"
       font-size-adjust="none"
       letter-spacing="normal"
       word-spacing="normal"
       ns0:text="$x$"
       ns0:preamble="/home/phyps/Dropbox/Talks/1710 Bristol Colloquium teleportation/preamble.tex"
       style="font-style:normal;font-variant:normal;font-weight:normal;font-stretch:normal;letter-spacing:normal;word-spacing:normal;text-anchor:start;fill:none;fill-opacity:1;fill-rule:evenodd;stroke:#000000;stroke-linecap:butt;stroke-linejoin:miter;stroke-miterlimit:10.43299961;stroke-dasharray:none;stroke-dashoffset:0;stroke-opacity:1">
<path
   style="fill:#000000;stroke-width:0"
   inkscape:connector-curvature="0"
   d="m 226.76,710.12 0.01,0.03 0.01,0.03 v 0.03 l 0.01,0.04 0.01,0.04 0.02,0.04 0.01,0.04 0.01,0.05 0.02,0.04 0.02,0.05 0.02,0.05 0.02,0.05 0.02,0.05 0.02,0.05 0.03,0.05 0.03,0.05 0.03,0.05 0.03,0.04 0.03,0.05 0.04,0.04 0.03,0.05 0.04,0.04 0.05,0.04 0.04,0.03 0.05,0.03 0.04,0.03 0.03,0.01 0.03,0.02 0.02,0.01 0.03,0.01 0.03,0.01 h 0.03 l 0.02,0.01 0.03,0.01 h 0.03 0.04 l 0.03,0.01 h 0.03 c 0.05,0 0.29,0 0.5,-0.13 -0.28,-0.05 -0.48,-0.3 -0.48,-0.54 0,-0.16 0.11,-0.35 0.38,-0.35 0.22,0 0.54,0.18 0.54,0.58 0,0.52 -0.59,0.66 -0.93,0.66 -0.58,0 -0.93,-0.53 -1.05,-0.76 -0.25,0.66 -0.78,0.76 -1.07,0.76 -1.04,0 -1.61,-1.29 -1.61,-1.53 0,-0.1 0.1,-0.1 0.12,-0.1 0.08,0 0.11,0.02 0.13,0.11 0.34,1.05 1,1.3 1.34,1.3 0.18,0 0.53,-0.09 0.53,-0.67 0,-0.31 -0.16,-0.97 -0.53,-2.36 -0.16,-0.62 -0.51,-1.04 -0.95,-1.04 -0.06,0 -0.29,0 -0.5,0.13 0.25,0.05 0.47,0.26 0.47,0.54 0,0.27 -0.22,0.35 -0.37,0.35 -0.3,0 -0.55,-0.26 -0.55,-0.58 0,-0.46 0.5,-0.65 0.94,-0.65 0.66,0 1.02,0.69 1.05,0.75 0.11,-0.37 0.47,-0.75 1.07,-0.75 1.03,0 1.6,1.28 1.6,1.53 0,0.1 -0.09,0.1 -0.12,0.1 -0.09,0 -0.11,-0.05 -0.13,-0.11 -0.33,-1.07 -1.01,-1.31 -1.33,-1.31 -0.39,0 -0.55,0.32 -0.55,0.66 0,0.22 0.06,0.44 0.17,0.87 z"
   id="path672" />
</g>    <path
       id="path2850"
       d="m 37.756487,304.08393 0.016,-0.104 0.272,-1.08 c 0.036,-0.14 0.044,-0.152 0.216,-0.152 h 0.384 c 0.328,0 0.54,0.108 0.54,0.38 0,0.156 -0.08,0.496 -0.236,0.64 -0.196,0.18 -0.436,0.212 -0.612,0.212 h -0.564 l -0.016,0.104 h 0.68 c 0.568,0 1.12,-0.416 1.12,-0.86 0,-0.304 -0.264,-0.6 -0.784,-0.6 h -1.292 c -0.076,0 -0.12,0 -0.12,0.076 0,0.048 0.036,0.048 0.116,0.048 0.052,0 0.12,0.004 0.168,0.008 0.064,0.008 0.088,0.02 0.088,0.064 0,0.016 -0.004,0.028 -0.016,0.076 l -0.532,2.132 c -0.04,0.156 -0.048,0.188 -0.364,0.188 -0.068,0 -0.112,0 -0.112,0.076 0,0.048 0.048,0.048 0.06,0.048 0.112,0 0.396,-0.016 0.508,-0.016 0.084,0 0.172,0.004 0.252,0.004 0.088,0 0.176,0.012 0.26,0.012 0.028,0 0.08,0 0.08,-0.08 0,-0.044 -0.036,-0.044 -0.112,-0.044 -0.144,0 -0.26,0 -0.26,-0.072 0,-0.024 0.008,-0.044 0.016,-0.068 z"
       inkscape:connector-curvature="0"
       style="font-style:normal;font-variant:normal;font-weight:normal;font-stretch:normal;letter-spacing:normal;word-spacing:normal;text-anchor:start;fill:#000000;fill-opacity:1;fill-rule:evenodd;stroke:#000000;stroke-width:0;stroke-linecap:butt;stroke-linejoin:miter;stroke-miterlimit:10.43299961;stroke-dasharray:none;stroke-dashoffset:0;stroke-opacity:1" />
    <path
       id="path2852"
       d="m 40.980487,306.29193 v -0.004 0 0 -0.004 0 0 -0.004 0 0 l -0.004,-0.004 v 0 -0.004 0 l -0.004,-0.004 v 0 l -0.004,-0.004 v -0.004 h -0.004 v -0.004 h -0.004 v -0.004 0 h -0.004 v -0.004 0 l -0.004,-0.004 v 0 l -0.004,-0.004 v 0 l -0.004,-0.004 v 0 l -0.004,-0.004 v -0.004 h -0.004 l -0.004,-0.004 v -0.004 h -0.004 l -0.004,-0.004 v -0.004 h -0.004 l -0.004,-0.004 -0.004,-0.004 c -0.496,-0.5 -0.624,-1.252 -0.624,-1.86 0,-0.692 0.152,-1.384 0.64,-1.88 0.052,-0.048 0.052,-0.056 0.052,-0.068 0,-0.028 -0.016,-0.04 -0.04,-0.04 -0.04,0 -0.396,0.272 -0.632,0.776 -0.204,0.436 -0.252,0.88 -0.252,1.212 0,0.312 0.044,0.792 0.264,1.24 0.24,0.488 0.58,0.748 0.62,0.748 0.024,0 0.04,-0.012 0.04,-0.04 z"
       inkscape:connector-curvature="0"
       style="font-style:normal;font-variant:normal;font-weight:normal;font-stretch:normal;letter-spacing:normal;word-spacing:normal;text-anchor:start;fill:#000000;fill-opacity:1;fill-rule:evenodd;stroke:#000000;stroke-width:0;stroke-linecap:butt;stroke-linejoin:miter;stroke-miterlimit:10.43299961;stroke-dasharray:none;stroke-dashoffset:0;stroke-opacity:1" />
    <path
       id="path2854"
       d="m 43.840487,304.42393 h 0.012 0.012 0.012 0.008 0.004 0.008 l 0.004,-0.004 h 0.008 0.004 0.008 l 0.004,-0.004 h 0.004 0.008 l 0.004,-0.004 0.004,-0.004 h 0.004 l 0.004,-0.004 0.004,-0.004 h 0.004 l 0.004,-0.004 0.004,-0.004 v -0.004 0 l 0.004,-0.004 v -0.004 0 -0.004 l 0.004,-0.004 v 0 -0.004 -0.004 -0.004 0 l 0.004,-0.004 v -0.004 -0.004 -0.004 c 0,-0.08 -0.072,-0.08 -0.14,-0.08 h -2.16 c -0.068,0 -0.14,0 -0.14,0.08 0,0.08 0.072,0.08 0.14,0.08 z"
       inkscape:connector-curvature="0"
       style="font-style:normal;font-variant:normal;font-weight:normal;font-stretch:normal;letter-spacing:normal;word-spacing:normal;text-anchor:start;fill:#000000;fill-opacity:1;fill-rule:evenodd;stroke:#000000;stroke-width:0;stroke-linecap:butt;stroke-linejoin:miter;stroke-miterlimit:10.43299961;stroke-dasharray:none;stroke-dashoffset:0;stroke-opacity:1" />
    <path
       id="path2856"
       d="m 46.336487,304.12393 -0.02,-0.024 -0.02,-0.024 -0.016,-0.02 -0.016,-0.024 -0.016,-0.02 -0.016,-0.02 -0.016,-0.016 -0.012,-0.016 -0.016,-0.02 -0.012,-0.016 -0.012,-0.012 -0.012,-0.016 -0.012,-0.012 -0.012,-0.012 -0.008,-0.012 -0.012,-0.012 -0.008,-0.012 -0.012,-0.012 -0.008,-0.008 -0.012,-0.012 -0.016,-0.02 -0.02,-0.016 -0.02,-0.02 -0.02,-0.016 -0.02,-0.016 -0.012,-0.012 -0.012,-0.008 c -0.22,-0.18 -0.444,-0.252 -0.648,-0.252 -0.468,0 -0.772,0.44 -0.772,0.904 h 0.088 c 0,-0.388 0.268,-0.712 0.62,-0.712 0.232,0 0.412,0.168 0.492,0.252 0.1,0.104 0.192,0.228 0.436,0.544 v 0 c -0.164,0.284 -0.46,0.688 -0.908,0.688 -0.424,0 -0.64,-0.416 -0.64,-0.772 h -0.088 c 0,0.456 0.296,0.896 0.756,0.896 0.456,0 0.788,-0.36 0.984,-0.676 0.216,0.268 0.264,0.328 0.388,0.428 0.224,0.176 0.448,0.248 0.648,0.248 0.468,0 0.772,-0.436 0.772,-0.9 h -0.088 c 0,0.388 -0.268,0.712 -0.62,0.712 -0.232,0 -0.408,-0.168 -0.492,-0.252 -0.1,-0.108 -0.192,-0.232 -0.436,-0.544 v 0 c 0.164,-0.288 0.46,-0.688 0.908,-0.688 0.424,0 0.64,0.416 0.64,0.772 h 0.088 c 0,-0.456 -0.296,-0.9 -0.756,-0.9 -0.456,0 -0.788,0.364 -0.984,0.68 z"
       inkscape:connector-curvature="0"
       style="font-style:normal;font-variant:normal;font-weight:normal;font-stretch:normal;letter-spacing:normal;word-spacing:normal;text-anchor:start;fill:#000000;fill-opacity:1;fill-rule:evenodd;stroke:#000000;stroke-width:0;stroke-linecap:butt;stroke-linejoin:miter;stroke-miterlimit:10.43299961;stroke-dasharray:none;stroke-dashoffset:0;stroke-opacity:1" />
    <path
       id="path2858"
       d="m 52.096487,302.97593 0.008,-0.004 h 0.004 0.004 l 0.004,-0.004 h 0.004 l 0.004,-0.004 v 0 l 0.004,-0.004 h 0.004 l 0.004,-0.004 0.004,-0.004 v 0 l 0.004,-0.004 h 0.004 v -0.004 l 0.004,-0.004 h 0.004 v -0.004 l 0.004,-0.004 v 0 l 0.004,-0.004 v -0.004 -0.004 l 0.004,-0.004 v 0 -0.004 -0.004 l 0.004,-0.004 v -0.004 -0.004 -0.004 c 0,-0.044 -0.032,-0.08 -0.08,-0.08 -0.02,0 -0.056,0.016 -0.072,0.024 l -2.208,1.036 c -0.068,0.032 -0.08,0.06 -0.08,0.092 0,0.036 0.024,0.064 0.08,0.088 l 2.208,1.032 c 0.052,0.028 0.06,0.028 0.072,0.028 0.044,0 0.08,-0.036 0.08,-0.08 0,-0.036 -0.016,-0.06 -0.084,-0.092 l -2.088,-0.976 z"
       inkscape:connector-curvature="0"
       style="font-style:normal;font-variant:normal;font-weight:normal;font-stretch:normal;letter-spacing:normal;word-spacing:normal;text-anchor:start;fill:#000000;fill-opacity:1;fill-rule:evenodd;stroke:#000000;stroke-width:0;stroke-linecap:butt;stroke-linejoin:miter;stroke-miterlimit:10.43299961;stroke-dasharray:none;stroke-dashoffset:0;stroke-opacity:1" />
    <path
       id="path2860"
       d="m 52.032487,305.88393 h 0.012 0.012 l 0.012,-0.004 h 0.008 0.004 0.008 0.004 0.008 0.004 l 0.008,-0.004 h 0.004 0.004 l 0.008,-0.004 h 0.004 l 0.004,-0.004 0.004,-0.004 h 0.004 l 0.004,-0.004 0.004,-0.004 0.004,-0.004 0.004,-0.004 v 0 -0.004 h 0.004 v -0.004 -0.004 h 0.004 v -0.004 -0.004 0 -0.004 -0.004 l 0.004,-0.004 v -0.004 0 -0.004 -0.004 c 0,-0.08 -0.084,-0.08 -0.144,-0.08 h -2.152 c -0.06,0 -0.144,0 -0.144,0.08 0,0.08 0.072,0.08 0.14,0.08 z"
       inkscape:connector-curvature="0"
       style="font-style:normal;font-variant:normal;font-weight:normal;font-stretch:normal;letter-spacing:normal;word-spacing:normal;text-anchor:start;fill:#000000;fill-opacity:1;fill-rule:evenodd;stroke:#000000;stroke-width:0;stroke-linecap:butt;stroke-linejoin:miter;stroke-miterlimit:10.43299961;stroke-dasharray:none;stroke-dashoffset:0;stroke-opacity:1" />
    <path
       id="path2862"
       d="m 54.940487,304.13993 0.004,-0.012 0.004,-0.012 v -0.012 l 0.004,-0.016 0.004,-0.016 0.008,-0.016 0.004,-0.016 0.004,-0.02 0.008,-0.016 0.008,-0.02 0.008,-0.02 0.008,-0.02 0.008,-0.02 0.008,-0.02 0.012,-0.02 0.012,-0.02 0.012,-0.02 0.012,-0.016 0.012,-0.02 0.016,-0.016 0.012,-0.02 0.016,-0.016 0.016,-0.016 0.02,-0.012 0.02,-0.012 0.016,-0.012 0.012,-0.004 0.008,-0.008 0.012,-0.004 0.012,-0.004 0.012,-0.004 h 0.008 l 0.012,-0.004 0.012,-0.004 h 0.012 0.012 l 0.016,-0.004 h 0.012 c 0.02,0 0.116,0 0.2,0.052 -0.112,0.02 -0.192,0.12 -0.192,0.216 0,0.064 0.044,0.14 0.152,0.14 0.088,0 0.216,-0.072 0.216,-0.232 0,-0.208 -0.236,-0.264 -0.372,-0.264 -0.232,0 -0.372,0.212 -0.42,0.304 -0.1,-0.264 -0.316,-0.304 -0.428,-0.304 -0.416,0 -0.644,0.516 -0.644,0.612 0,0.04 0.04,0.04 0.048,0.04 0.032,0 0.044,-0.008 0.052,-0.044 0.136,-0.42 0.4,-0.52 0.536,-0.52 0.072,0 0.212,0.036 0.212,0.268 0,0.124 -0.068,0.388 -0.212,0.944 -0.064,0.248 -0.204,0.416 -0.38,0.416 -0.024,0 -0.116,0 -0.2,-0.052 0.1,-0.02 0.188,-0.104 0.188,-0.216 0,-0.108 -0.088,-0.14 -0.148,-0.14 -0.12,0 -0.22,0.104 -0.22,0.232 0,0.184 0.2,0.26 0.376,0.26 0.264,0 0.408,-0.276 0.42,-0.3 0.044,0.148 0.188,0.3 0.428,0.3 0.412,0 0.64,-0.512 0.64,-0.612 0,-0.04 -0.036,-0.04 -0.048,-0.04 -0.036,0 -0.044,0.02 -0.052,0.044 -0.132,0.428 -0.404,0.524 -0.532,0.524 -0.156,0 -0.22,-0.128 -0.22,-0.264 0,-0.088 0.024,-0.176 0.068,-0.348 z"
       inkscape:connector-curvature="0"
       style="font-style:normal;font-variant:normal;font-weight:normal;font-stretch:normal;letter-spacing:normal;word-spacing:normal;text-anchor:start;fill:#000000;fill-opacity:1;fill-rule:evenodd;stroke:#000000;stroke-width:0;stroke-linecap:butt;stroke-linejoin:miter;stroke-miterlimit:10.43299961;stroke-dasharray:none;stroke-dashoffset:0;stroke-opacity:1" />
    <path
       id="path2864"
       d="m 59.684487,302.97593 0.008,-0.004 h 0.004 0.004 l 0.004,-0.004 h 0.004 l 0.004,-0.004 h 0.004 l 0.004,-0.004 h 0.004 v -0.004 l 0.004,-0.004 h 0.004 l 0.004,-0.004 v 0 l 0.004,-0.004 0.004,-0.004 v 0 l 0.004,-0.004 v -0.004 h 0.004 v -0.004 l 0.004,-0.004 v -0.004 -0.004 0 l 0.004,-0.004 v -0.004 -0.004 -0.004 -0.004 -0.004 c 0,-0.044 -0.032,-0.08 -0.08,-0.08 -0.02,0 -0.056,0.016 -0.072,0.024 l -2.204,1.036 c -0.068,0.032 -0.08,0.06 -0.08,0.092 0,0.036 0.024,0.064 0.08,0.088 l 2.204,1.032 c 0.052,0.028 0.06,0.028 0.072,0.028 0.044,0 0.08,-0.036 0.08,-0.08 0,-0.036 -0.016,-0.06 -0.084,-0.092 l -2.084,-0.976 z"
       inkscape:connector-curvature="0"
       style="font-style:normal;font-variant:normal;font-weight:normal;font-stretch:normal;letter-spacing:normal;word-spacing:normal;text-anchor:start;fill:#000000;fill-opacity:1;fill-rule:evenodd;stroke:#000000;stroke-width:0;stroke-linecap:butt;stroke-linejoin:miter;stroke-miterlimit:10.43299961;stroke-dasharray:none;stroke-dashoffset:0;stroke-opacity:1" />
    <path
       id="path2866"
       d="m 59.620487,305.88393 h 0.016 0.012 l 0.012,-0.004 h 0.004 0.008 0.004 0.008 0.004 0.008 l 0.004,-0.004 h 0.008 0.004 l 0.004,-0.004 h 0.004 l 0.008,-0.004 0.004,-0.004 h 0.004 l 0.004,-0.004 0.004,-0.004 v -0.004 l 0.004,-0.004 h 0.004 v -0.004 0 l 0.004,-0.004 v -0.004 0 -0.004 -0.004 h 0.004 v -0.004 -0.004 -0.004 -0.004 0 -0.004 -0.004 c 0,-0.08 -0.084,-0.08 -0.144,-0.08 h -2.148 c -0.06,0 -0.144,0 -0.144,0.08 0,0.08 0.072,0.08 0.14,0.08 z"
       inkscape:connector-curvature="0"
       style="font-style:normal;font-variant:normal;font-weight:normal;font-stretch:normal;letter-spacing:normal;word-spacing:normal;text-anchor:start;fill:#000000;fill-opacity:1;fill-rule:evenodd;stroke:#000000;stroke-width:0;stroke-linecap:butt;stroke-linejoin:miter;stroke-miterlimit:10.43299961;stroke-dasharray:none;stroke-dashoffset:0;stroke-opacity:1" />
    <path
       id="path2868"
       d="m 63.228487,304.25993 -0.02,-0.024 -0.02,-0.024 -0.016,-0.02 -0.02,-0.024 -0.016,-0.02 -0.016,-0.02 -0.012,-0.016 -0.016,-0.016 -0.012,-0.02 -0.012,-0.016 -0.016,-0.012 -0.008,-0.016 -0.012,-0.012 -0.012,-0.012 -0.012,-0.012 -0.008,-0.012 -0.012,-0.012 -0.008,-0.012 -0.012,-0.008 -0.008,-0.012 -0.02,-0.02 -0.02,-0.016 -0.016,-0.02 -0.02,-0.016 -0.024,-0.016 -0.008,-0.012 -0.012,-0.008 c -0.224,-0.18 -0.448,-0.252 -0.652,-0.252 -0.464,0 -0.768,0.44 -0.768,0.904 h 0.088 c 0,-0.388 0.268,-0.712 0.616,-0.712 0.232,0 0.412,0.168 0.496,0.252 0.1,0.104 0.192,0.228 0.436,0.544 v 0 c -0.164,0.284 -0.46,0.688 -0.912,0.688 -0.42,0 -0.636,-0.416 -0.636,-0.772 h -0.088 c 0,0.456 0.296,0.896 0.752,0.896 0.46,0 0.792,-0.36 0.988,-0.676 0.212,0.268 0.26,0.328 0.384,0.428 0.224,0.18 0.448,0.248 0.652,0.248 0.468,0 0.768,-0.436 0.768,-0.9 h -0.084 c 0,0.388 -0.268,0.712 -0.62,0.712 -0.232,0 -0.412,-0.168 -0.496,-0.252 -0.1,-0.108 -0.192,-0.228 -0.432,-0.544 v 0 c 0.16,-0.288 0.456,-0.688 0.908,-0.688 0.424,0 0.64,0.416 0.64,0.772 h 0.084 c 0,-0.456 -0.292,-0.9 -0.752,-0.9 -0.46,0 -0.792,0.364 -0.984,0.68 z"
       inkscape:connector-curvature="0"
       style="font-style:normal;font-variant:normal;font-weight:normal;font-stretch:normal;letter-spacing:normal;word-spacing:normal;text-anchor:start;fill:#000000;fill-opacity:1;fill-rule:evenodd;stroke:#000000;stroke-width:0;stroke-linecap:butt;stroke-linejoin:miter;stroke-miterlimit:10.43299961;stroke-dasharray:none;stroke-dashoffset:0;stroke-opacity:1" />
    <path
       id="path2870"
       d="m 65.996487,305.33193 -0.004,-0.024 v -0.02 -0.024 l -0.004,-0.024 v -0.02 l -0.004,-0.02 -0.004,-0.024 -0.004,-0.016 -0.004,-0.02 -0.004,-0.02 -0.008,-0.016 -0.004,-0.016 -0.008,-0.016 -0.008,-0.016 -0.008,-0.016 -0.008,-0.012 -0.008,-0.016 -0.008,-0.012 -0.012,-0.008 -0.008,-0.012 -0.012,-0.012 -0.008,-0.008 -0.012,-0.008 -0.012,-0.008 -0.012,-0.004 -0.012,-0.008 -0.012,-0.004 -0.012,-0.004 -0.016,-0.004 h -0.012 l -0.016,-0.004 h -0.012 c -0.132,0 -0.212,0.1 -0.212,0.212 0,0.108 0.08,0.212 0.212,0.212 0.048,0 0.1,-0.016 0.14,-0.052 0.012,-0.008 0.016,-0.012 0.02,-0.012 0.004,0 0.008,0.004 0.008,0.056 0,0.296 -0.14,0.536 -0.272,0.664 -0.044,0.044 -0.044,0.052 -0.044,0.064 0,0.028 0.02,0.044 0.04,0.044 0.044,0 0.364,-0.304 0.364,-0.772 z"
       inkscape:connector-curvature="0"
       style="font-style:normal;font-variant:normal;font-weight:normal;font-stretch:normal;letter-spacing:normal;word-spacing:normal;text-anchor:start;fill:#000000;fill-opacity:1;fill-rule:evenodd;stroke:#000000;stroke-width:0;stroke-linecap:butt;stroke-linejoin:miter;stroke-miterlimit:10.43299961;stroke-dasharray:none;stroke-dashoffset:0;stroke-opacity:1" />
    <path
       id="path2872"
       d="m 67.780487,303.74793 h 0.372 c 0.08,0 0.12,0 0.12,-0.08 0,-0.044 -0.04,-0.044 -0.112,-0.044 h -0.348 c 0.144,-0.564 0.16,-0.644 0.16,-0.668 0,-0.064 -0.044,-0.104 -0.112,-0.104 -0.012,0 -0.124,0.004 -0.16,0.14 l -0.156,0.632 h -0.376 c -0.08,0 -0.12,0 -0.12,0.076 0,0.048 0.032,0.048 0.112,0.048 h 0.352 c -0.288,1.128 -0.304,1.196 -0.304,1.268 0,0.216 0.152,0.364 0.368,0.364 0.408,0 0.632,-0.58 0.632,-0.612 0,-0.04 -0.032,-0.04 -0.048,-0.04 -0.036,0 -0.04,0.016 -0.06,0.056 -0.168,0.416 -0.38,0.512 -0.516,0.512 -0.084,0 -0.124,-0.052 -0.124,-0.184 0,-0.096 0.008,-0.124 0.024,-0.192 z"
       inkscape:connector-curvature="0"
       style="font-style:normal;font-variant:normal;font-weight:normal;font-stretch:normal;letter-spacing:normal;word-spacing:normal;text-anchor:start;fill:#000000;fill-opacity:1;fill-rule:evenodd;stroke:#000000;stroke-width:0;stroke-linecap:butt;stroke-linejoin:miter;stroke-miterlimit:10.43299961;stroke-dasharray:none;stroke-dashoffset:0;stroke-opacity:1" />
    <path
       id="path2874"
       d="m 69.836487,305.04793 v -0.056 -0.056 l -0.004,-0.052 v -0.048 l -0.008,-0.052 -0.004,-0.048 -0.008,-0.044 -0.008,-0.044 -0.012,-0.044 -0.012,-0.044 -0.012,-0.04 -0.016,-0.04 -0.016,-0.04 -0.02,-0.036 -0.02,-0.04 -0.012,-0.016 -0.012,-0.02 c -0.084,-0.128 -0.26,-0.24 -0.484,-0.24 v 0.08 c 0.152,0 0.296,0.092 0.348,0.252 0.044,0.152 0.048,0.352 0.048,0.592 0,0.208 0,0.412 -0.036,0.588 -0.056,0.252 -0.248,0.312 -0.36,0.312 v 0 c -0.128,0 -0.296,-0.072 -0.356,-0.304 -0.036,-0.16 -0.036,-0.388 -0.036,-0.596 0,-0.204 0,-0.416 0.04,-0.568 0.06,-0.22 0.24,-0.276 0.352,-0.276 v -0.08 c -0.648,0 -0.648,0.76 -0.648,0.96 0,0.2 0,0.944 0.648,0.944 0.648,0 0.648,-0.744 0.648,-0.944 z"
       inkscape:connector-curvature="0"
       style="font-style:normal;font-variant:normal;font-weight:normal;font-stretch:normal;letter-spacing:normal;word-spacing:normal;text-anchor:start;fill:#000000;fill-opacity:1;fill-rule:evenodd;stroke:#000000;stroke-width:0;stroke-linecap:butt;stroke-linejoin:miter;stroke-miterlimit:10.43299961;stroke-dasharray:none;stroke-dashoffset:0;stroke-opacity:1" />
    <path
       id="path2876"
       d="m 71.336487,304.34393 v -0.028 -0.032 l -0.004,-0.032 v -0.032 l -0.004,-0.068 -0.004,-0.068 -0.004,-0.072 -0.012,-0.076 -0.008,-0.08 -0.016,-0.08 -0.012,-0.08 -0.02,-0.084 -0.02,-0.084 -0.028,-0.084 -0.028,-0.084 -0.028,-0.084 -0.02,-0.044 -0.016,-0.044 -0.02,-0.04 -0.02,-0.044 c -0.24,-0.488 -0.584,-0.748 -0.624,-0.748 -0.024,0 -0.04,0.016 -0.04,0.04 0,0.012 0,0.02 0.076,0.092 0.392,0.396 0.62,1.028 0.62,1.856 0,0.68 -0.148,1.38 -0.644,1.88 -0.052,0.048 -0.052,0.056 -0.052,0.068 0,0.024 0.016,0.04 0.04,0.04 0.04,0 0.4,-0.272 0.636,-0.776 0.204,-0.436 0.252,-0.876 0.252,-1.212 z"
       inkscape:connector-curvature="0"
       style="font-style:normal;font-variant:normal;font-weight:normal;font-stretch:normal;letter-spacing:normal;word-spacing:normal;text-anchor:start;fill:#000000;fill-opacity:1;fill-rule:evenodd;stroke:#000000;stroke-width:0;stroke-linecap:butt;stroke-linejoin:miter;stroke-miterlimit:10.43299961;stroke-dasharray:none;stroke-dashoffset:0;stroke-opacity:1" />
    <path
       id="path2878"
       d="m 75.580487,304.03993 h 0.012 0.012 0.012 l 0.004,-0.004 h 0.008 0.004 0.008 0.004 0.004 l 0.008,-0.004 h 0.004 0.004 l 0.008,-0.004 h 0.004 l 0.004,-0.004 h 0.004 l 0.004,-0.004 0.004,-0.004 0.004,-0.004 0.004,-0.004 0.004,-0.004 v 0 l 0.004,-0.004 v 0 -0.004 -0.004 h 0.004 v -0.004 -0.004 0 l 0.004,-0.004 v -0.004 -0.004 -0.004 0 -0.004 -0.004 c 0,-0.08 -0.076,-0.08 -0.132,-0.08 h -2.388 c -0.056,0 -0.132,0 -0.132,0.08 0,0.08 0.076,0.08 0.136,0.08 z"
       inkscape:connector-curvature="0"
       style="font-style:normal;font-variant:normal;font-weight:normal;font-stretch:normal;letter-spacing:normal;word-spacing:normal;text-anchor:start;fill:#000000;fill-opacity:1;fill-rule:evenodd;stroke:#000000;stroke-width:0;stroke-linecap:butt;stroke-linejoin:miter;stroke-miterlimit:10.43299961;stroke-dasharray:none;stroke-dashoffset:0;stroke-opacity:1" />
    <path
       id="path2880"
       d="m 75.584487,304.80793 h 0.004 0.008 0.012 0.008 0.008 0.004 0.008 0.004 0.004 l 0.008,-0.004 h 0.004 0.004 l 0.008,-0.004 h 0.004 l 0.004,-0.004 h 0.004 l 0.004,-0.004 h 0.004 l 0.004,-0.004 0.004,-0.004 0.004,-0.004 v 0 l 0.004,-0.004 v -0.004 h 0.004 v -0.004 0 -0.004 l 0.004,-0.004 v 0 -0.004 -0.004 h 0.004 v -0.004 -0.004 -0.004 -0.004 -0.004 -0.004 c 0,-0.076 -0.076,-0.076 -0.136,-0.076 h -2.38 c -0.06,0 -0.136,0 -0.136,0.076 0,0.08 0.076,0.08 0.132,0.08 z"
       inkscape:connector-curvature="0"
       style="font-style:normal;font-variant:normal;font-weight:normal;font-stretch:normal;letter-spacing:normal;word-spacing:normal;text-anchor:start;fill:#000000;fill-opacity:1;fill-rule:evenodd;stroke:#000000;stroke-width:0;stroke-linecap:butt;stroke-linejoin:miter;stroke-miterlimit:10.43299961;stroke-dasharray:none;stroke-dashoffset:0;stroke-opacity:1" />
    <path
       id="path2882"
       d="m 78.220487,302.79593 v -0.004 -0.004 -0.008 -0.004 0 -0.004 -0.004 -0.004 -0.004 -0.004 -0.004 -0.004 0 -0.004 -0.004 0 -0.004 l -0.004,-0.004 v -0.004 -0.004 -0.004 l -0.004,-0.004 v -0.004 0 l -0.004,-0.004 v -0.004 h -0.004 l -0.004,-0.004 h -0.004 v -0.004 h -0.004 v 0 h -0.004 -0.004 v 0 h -0.004 v -0.004 h -0.004 -0.004 v 0 h -0.004 -0.004 -0.004 v 0 h -0.004 -0.004 -0.004 -0.004 -0.004 -0.004 -0.004 -0.004 c -0.248,0.256 -0.596,0.256 -0.724,0.256 v 0.12 c 0.08,0 0.312,0 0.52,-0.1 v 2.056 c 0,0.144 -0.012,0.192 -0.368,0.192 h -0.128 v 0.124 c 0.14,-0.016 0.484,-0.016 0.644,-0.016 0.16,0 0.508,0 0.648,0.016 v -0.124 h -0.128 c -0.36,0 -0.372,-0.044 -0.372,-0.192 z"
       inkscape:connector-curvature="0"
       style="font-style:normal;font-variant:normal;font-weight:normal;font-stretch:normal;letter-spacing:normal;word-spacing:normal;text-anchor:start;fill:#000000;fill-opacity:1;fill-rule:evenodd;stroke:#000000;stroke-width:0;stroke-linecap:butt;stroke-linejoin:miter;stroke-miterlimit:10.43299961;stroke-dasharray:none;stroke-dashoffset:0;stroke-opacity:1" />
    <g
       transform="translate(0.19842809,3.7041668)"
       id="g6579">
      <rect
         style="opacity:1;vector-effect:none;fill:#e3e6e5;fill-opacity:1;stroke:#000000;stroke-width:0.25;stroke-linecap:butt;stroke-linejoin:round;stroke-miterlimit:10;stroke-dasharray:none;stroke-dashoffset:0;stroke-opacity:1"
         id="rect6571"
         width="1.0394346"
         height="13.51265"
         x="24.851933"
         y="261.84824" />
      <rect
         y="261.84824"
         x="47.606121"
         height="13.51265"
         width="1.0394346"
         id="rect6573"
         style="opacity:1;vector-effect:none;fill:#e3e6e5;fill-opacity:1;stroke:#000000;stroke-width:0.25;stroke-linecap:butt;stroke-linejoin:round;stroke-miterlimit:10;stroke-dasharray:none;stroke-dashoffset:0;stroke-opacity:1" />
    </g>
    <path
       inkscape:connector-curvature="0"
       id="path6585"
       d="M 24.946429,271.88353 H 7.8430064 v 22.30059 H 66.145833 V 271.88353 H 48.947917"
       style="fill:none;stroke:#000000;stroke-width:0.26458332px;stroke-linecap:butt;stroke-linejoin:miter;stroke-opacity:1" />
    <g
       transform="translate(-0.44884673,5.3696243)"
       id="g6601">
      <rect
         style="opacity:1;vector-effect:none;fill:#ffffff;fill-opacity:1;stroke:none;stroke-width:0.5;stroke-linecap:butt;stroke-linejoin:round;stroke-miterlimit:10;stroke-dasharray:none;stroke-dashoffset:0;stroke-opacity:1"
         id="rect6595"
         width="0.94494045"
         height="4.7247024"
         x="30.675129"
         y="286.29858"
         ry="0" />
      <g
         id="g6593"
         transform="translate(2.7403274,-4.3467262)">
        <path
           inkscape:connector-curvature="0"
           id="path6587"
           d="m 28.064732,291.89734 v 2.36235"
           style="fill:none;stroke:#000000;stroke-width:0.5;stroke-linecap:butt;stroke-linejoin:miter;stroke-opacity:1" />
        <path
           inkscape:connector-curvature="0"
           id="path6589"
           d="m 28.89628,290.29094 v 5.29167"
           style="fill:none;stroke:#000000;stroke-width:0.26458332px;stroke-linecap:butt;stroke-linejoin:miter;stroke-opacity:1" />
      </g>
    </g>
    <circle
       r="2.4838383"
       cy="294.18411"
       cx="54.42857"
       id="path6605"
       style="opacity:1;vector-effect:none;fill:#ffffff;fill-opacity:1;stroke:#000000;stroke-width:0.25;stroke-linecap:butt;stroke-linejoin:round;stroke-miterlimit:10;stroke-dasharray:none;stroke-dashoffset:0;stroke-opacity:1" />
    <g
       id="g6649"
       style="fill-opacity:1;stroke:#000000;stroke-opacity:1"
       ns0:jacobian_sqrt="0.4"
       inkscapeversion="0.92.4"
       ns0:alignment="middle center"
       ns0:scale="2.83464566935"
       ns0:preamble="/home/phyps/Dropbox/Talks/1710 Bristol Colloquium teleportation/preamble.tex"
       ns0:text="$A$"
       ns0:pdfconverter="pdf2svg"
       ns0:texconverter="pdflatex"
       ns0:version="0.11.0"
       transform="matrix(0.4,0,0,0.4,-6.8288181,241.63703)">
      <g
         style="fill-opacity:1;stroke:#000000;stroke-opacity:1"
         id="surface1">
        <g
           id="g6646"
           style="fill:#000000;fill-opacity:1;stroke:#000000;stroke-opacity:1">
          <path
             id="path6644"
             transform="translate(148.712,134.765)"
             d="M 1.78125,-1.140625 C 1.390625,-0.484375 1,-0.34375 0.5625,-0.3125 0.4375,-0.296875 0.34375,-0.296875 0.34375,-0.109375 0.34375,-0.046875 0.40625,0 0.484375,0 0.75,0 1.0625,-0.03125 1.328125,-0.03125 c 0.34375,0 0.6875,0.03125 1,0.03125 0.0625,0 0.1875,0 0.1875,-0.1875 0,-0.109375 -0.078125,-0.125 -0.15625,-0.125 -0.21875,-0.015625 -0.46875,-0.09375 -0.46875,-0.34375 0,-0.125 0.0625,-0.234375 0.140625,-0.375 l 0.765625,-1.265625 h 2.5 c 0.015625,0.203125 0.15625,1.5625 0.15625,1.65625 0,0.296875 -0.515625,0.328125 -0.71875,0.328125 C 4.59375,-0.3125 4.5,-0.3125 4.5,-0.109375 4.5,0 4.609375,0 4.640625,0 5.046875,0 5.46875,-0.03125 5.875,-0.03125 6.125,-0.03125 6.765625,0 7.015625,0 7.0625,0 7.1875,0 7.1875,-0.203125 7.1875,-0.3125 7.09375,-0.3125 6.953125,-0.3125 6.34375,-0.3125 6.34375,-0.375 6.3125,-0.671875 l -0.609375,-6.21875 c -0.015625,-0.203125 -0.015625,-0.25 -0.1875,-0.25 -0.15625,0 -0.203125,0.078125 -0.265625,0.171875 z M 2.984375,-2.609375 4.9375,-5.90625 5.265625,-2.609375 Z m 0,0"
             style="fill-opacity:1;stroke:#000000;stroke-width:0;stroke-opacity:1"
             inkscape:connector-curvature="0" />
        </g>
      </g>
    </g>
    <g
       id="g7058"
       transform="translate(0,-0.09449404)">
      <g
         transform="translate(-0.93544334,5.8346971)"
         id="g6986">
        <path
           style="fill:none;stroke:#ab1f2d;stroke-width:0.26458332px;stroke-linecap:butt;stroke-linejoin:miter;stroke-opacity:1"
           d="m 29.568064,260.14395 c 0.804183,-0.46143 1.886666,1.178 2.690849,0.71657 0.804183,-0.46144 -0.08317,-2.21282 0.721011,-2.67425 0.804183,-0.46143 1.886666,1.17799 2.690849,0.71656 0.804184,-0.46143 -0.08317,-2.21282 0.721011,-2.67425 0.804183,-0.46143 1.886666,1.17799 2.69085,0.71656 0.804183,-0.46143 -0.08317,-2.21282 0.72101,-2.67425 0.804183,-0.46143 1.886666,1.17799 2.690849,0.71656 0.804183,-0.46142 -0.08317,-2.21282 0.721011,-2.67425 0.804183,-0.46143 1.886666,1.178 2.690849,0.71657 0.804184,-0.46143 -0.08317,-2.21282 0.721011,-2.67425 0.804183,-0.46143 1.886666,1.17799 2.69085,0.71656"
           id="path6696"
           inkscape:connector-curvature="0"
           sodipodi:nodetypes="cssssssssssc" />
        <path
           style="fill:#ab1f2d;stroke:none;stroke-width:0.26458332px;stroke-linecap:butt;stroke-linejoin:miter;stroke-opacity:1"
           d="m 28.150912,260.78083 1.665698,-0.16008 -0.429173,-0.96741 z"
           id="path6982"
           inkscape:connector-curvature="0"
           sodipodi:nodetypes="cccc"
           inkscape:transform-center-x="0.15599015"
           inkscape:transform-center-y="-0.07211961" />
      </g>
      <g
         id="g6992"
         transform="translate(-0.93544334,9.040144)">
        <path
           sodipodi:nodetypes="cssssssssssc"
           inkscape:connector-curvature="0"
           id="path6988"
           d="m 29.568064,260.14395 c 0.804183,-0.46143 1.886666,1.178 2.690849,0.71657 0.804183,-0.46144 -0.08317,-2.21282 0.721011,-2.67425 0.804183,-0.46143 1.886666,1.17799 2.690849,0.71656 0.804184,-0.46143 -0.08317,-2.21282 0.721011,-2.67425 0.804183,-0.46143 1.886666,1.17799 2.69085,0.71656 0.804183,-0.46143 -0.08317,-2.21282 0.72101,-2.67425 0.804183,-0.46143 1.886666,1.17799 2.690849,0.71656 0.804183,-0.46142 -0.08317,-2.21282 0.721011,-2.67425 0.804183,-0.46143 1.886666,1.178 2.690849,0.71657 0.804184,-0.46143 -0.08317,-2.21282 0.721011,-2.67425 0.804183,-0.46143 1.886666,1.17799 2.69085,0.71656"
           style="fill:none;stroke:#ab1f2d;stroke-width:0.26458332px;stroke-linecap:butt;stroke-linejoin:miter;stroke-opacity:1" />
        <path
           inkscape:transform-center-y="-0.07211961"
           inkscape:transform-center-x="0.15599015"
           sodipodi:nodetypes="cccc"
           inkscape:connector-curvature="0"
           id="path6990"
           d="m 28.150912,260.78083 1.665698,-0.16008 -0.429173,-0.96741 z"
           style="fill:#ab1f2d;stroke:none;stroke-width:0.26458332px;stroke-linecap:butt;stroke-linejoin:miter;stroke-opacity:1" />
      </g>
      <g
         transform="translate(-0.93544334,12.245581)"
         id="g6998">
        <path
           style="fill:none;stroke:#ab1f2d;stroke-width:0.26458332px;stroke-linecap:butt;stroke-linejoin:miter;stroke-opacity:1"
           d="m 29.568064,260.14395 c 0.804183,-0.46143 1.886666,1.178 2.690849,0.71657 0.804183,-0.46144 -0.08317,-2.21282 0.721011,-2.67425 0.804183,-0.46143 1.886666,1.17799 2.690849,0.71656 0.804184,-0.46143 -0.08317,-2.21282 0.721011,-2.67425 0.804183,-0.46143 1.886666,1.17799 2.69085,0.71656 0.804183,-0.46143 -0.08317,-2.21282 0.72101,-2.67425 0.804183,-0.46143 1.886666,1.17799 2.690849,0.71656 0.804183,-0.46142 -0.08317,-2.21282 0.721011,-2.67425 0.804183,-0.46143 1.886666,1.178 2.690849,0.71657 0.804184,-0.46143 -0.08317,-2.21282 0.721011,-2.67425 0.804183,-0.46143 1.886666,1.17799 2.69085,0.71656"
           id="path6994"
           inkscape:connector-curvature="0"
           sodipodi:nodetypes="cssssssssssc" />
        <path
           style="fill:#ab1f2d;stroke:none;stroke-width:0.26458332px;stroke-linecap:butt;stroke-linejoin:miter;stroke-opacity:1"
           d="m 28.150912,260.78083 1.665698,-0.16008 -0.429173,-0.96741 z"
           id="path6996"
           inkscape:connector-curvature="0"
           sodipodi:nodetypes="cccc"
           inkscape:transform-center-x="0.15599015"
           inkscape:transform-center-y="-0.07211961" />
      </g>
      <g
         id="g7004"
         transform="translate(-0.93544334,15.451027)">
        <path
           sodipodi:nodetypes="cssssssssssc"
           inkscape:connector-curvature="0"
           id="path7000"
           d="m 29.568064,260.14395 c 0.804183,-0.46143 1.886666,1.178 2.690849,0.71657 0.804183,-0.46144 -0.08317,-2.21282 0.721011,-2.67425 0.804183,-0.46143 1.886666,1.17799 2.690849,0.71656 0.804184,-0.46143 -0.08317,-2.21282 0.721011,-2.67425 0.804183,-0.46143 1.886666,1.17799 2.69085,0.71656 0.804183,-0.46143 -0.08317,-2.21282 0.72101,-2.67425 0.804183,-0.46143 1.886666,1.17799 2.690849,0.71656 0.804183,-0.46142 -0.08317,-2.21282 0.721011,-2.67425 0.804183,-0.46143 1.886666,1.178 2.690849,0.71657 0.804184,-0.46143 -0.08317,-2.21282 0.721011,-2.67425 0.804183,-0.46143 1.886666,1.17799 2.69085,0.71656"
           style="fill:none;stroke:#ab1f2d;stroke-width:0.26458332px;stroke-linecap:butt;stroke-linejoin:miter;stroke-opacity:1" />
        <path
           inkscape:transform-center-y="-0.07211961"
           inkscape:transform-center-x="0.15599015"
           sodipodi:nodetypes="cccc"
           inkscape:connector-curvature="0"
           id="path7002"
           d="m 28.150912,260.78083 1.665698,-0.16008 -0.429173,-0.96741 z"
           style="fill:#ab1f2d;stroke:none;stroke-width:0.26458332px;stroke-linecap:butt;stroke-linejoin:miter;stroke-opacity:1" />
      </g>
    </g>
    <g
       id="g7146">
      <circle
         r="0.69925594"
         cy="277.77048"
         cx="27.828499"
         id="path7134"
         style="opacity:1;vector-effect:none;fill:#0cc6de;fill-opacity:1;stroke:none;stroke-width:0.26499996;stroke-linecap:butt;stroke-linejoin:round;stroke-miterlimit:4;stroke-dasharray:none;stroke-dashoffset:0;stroke-opacity:1" />
      <path
         inkscape:connector-curvature="0"
         id="path7136"
         d="m 29.009673,277.81773 h 4.346726"
         style="fill:none;stroke:#0cc6de;stroke-width:0.26458332px;stroke-linecap:butt;stroke-linejoin:miter;stroke-opacity:1;marker-end:url(#Arrow2Mend)" />
    </g>
    <g
       id="g7152"
       transform="translate(8.6934524,-4.2522321)">
      <circle
         style="opacity:1;vector-effect:none;fill:#0cc6de;fill-opacity:1;stroke:none;stroke-width:0.26499996;stroke-linecap:butt;stroke-linejoin:round;stroke-miterlimit:4;stroke-dasharray:none;stroke-dashoffset:0;stroke-opacity:1"
         id="circle7148"
         cx="27.828499"
         cy="277.77048"
         r="0.69925594" />
      <path
         style="fill:none;stroke:#0cc6de;stroke-width:0.26458332px;stroke-linecap:butt;stroke-linejoin:miter;stroke-opacity:1;marker-end:url(#Arrow2Mend)"
         d="m 29.009673,277.81773 h 4.346726"
         id="path7150"
         inkscape:connector-curvature="0" />
    </g>
  </g>
</svg>
