<?xml version="1.0" encoding="UTF-8" standalone="no"?>
<!-- Created with Inkscape (http://www.inkscape.org/) -->

<svg
   xmlns:ns0="http://www.iki.fi/pav/software/textext/"
   xmlns:dc="http://purl.org/dc/elements/1.1/"
   xmlns:cc="http://creativecommons.org/ns#"
   xmlns:rdf="http://www.w3.org/1999/02/22-rdf-syntax-ns#"
   xmlns:svg="http://www.w3.org/2000/svg"
   xmlns="http://www.w3.org/2000/svg"
   xmlns:sodipodi="http://sodipodi.sourceforge.net/DTD/sodipodi-0.dtd"
   xmlns:inkscape="http://www.inkscape.org/namespaces/inkscape"
   width="8cm"
   height="3.8cm"
   viewBox="0 0 80 37.999998"
   version="1.1"
   id="svg8"
   inkscape:version="0.92.3 (2405546, 2018-03-11)"
   sodipodi:docname="R-T.svg">
  <sodipodi:namedview
     id="base"
     pagecolor="#ffffff"
     bordercolor="#666666"
     borderopacity="1.0"
     inkscape:pageopacity="0.0"
     inkscape:pageshadow="2"
     inkscape:zoom="1.4"
     inkscape:cx="-1.3527004"
     inkscape:cy="86.433197"
     inkscape:document-units="mm"
     inkscape:current-layer="layer1"
     showgrid="false"
     units="cm"
     inkscape:window-width="1853"
     inkscape:window-height="1025"
     inkscape:window-x="67"
     inkscape:window-y="27"
     inkscape:window-maximized="1"
     inkscape:snap-global="false"
     showguides="false" />
  <defs
     id="defs2">
    <marker
       inkscape:isstock="true"
       style="overflow:visible"
       id="Arrow2Lstart"
       refX="0.0"
       refY="0.0"
       orient="auto"
       inkscape:stockid="Arrow2Lstart">
      <path
         transform="scale(1.1) translate(1,0)"
         d="M 8.7185878,4.0337352 L -2.2072895,0.016013256 L 8.7185884,-4.0017078 C 6.9730900,-1.6296469 6.9831476,1.6157441 8.7185878,4.0337352 z "
         style="fill-rule:evenodd;stroke-width:0.625;stroke-linejoin:round;stroke:#000000;stroke-opacity:1;fill:#000000;fill-opacity:1"
         id="path18140" />
    </marker>
    <marker
       inkscape:isstock="true"
       style="overflow:visible"
       id="Arrow2Mstart"
       refX="0.0"
       refY="0.0"
       orient="auto"
       inkscape:stockid="Arrow2Mstart">
      <path
         transform="scale(0.6) translate(0,0)"
         d="M 8.7185878,4.0337352 L -2.2072895,0.016013256 L 8.7185884,-4.0017078 C 6.9730900,-1.6296469 6.9831476,1.6157441 8.7185878,4.0337352 z "
         style="fill-rule:evenodd;stroke-width:0.625;stroke-linejoin:round;stroke:#000000;stroke-opacity:1;fill:#000000;fill-opacity:1"
         id="path18146" />
    </marker>
    <marker
       inkscape:isstock="true"
       style="overflow:visible"
       id="Arrow1Mstart"
       refX="0.0"
       refY="0.0"
       orient="auto"
       inkscape:stockid="Arrow1Mstart">
      <path
         transform="scale(0.4) translate(10,0)"
         style="fill-rule:evenodd;stroke:#000000;stroke-width:1pt;stroke-opacity:1;fill:#000000;fill-opacity:1"
         d="M 0.0,0.0 L 5.0,-5.0 L -12.5,0.0 L 5.0,5.0 L 0.0,0.0 z "
         id="path18128" />
    </marker>
    <marker
       inkscape:stockid="Arrow2MendH"
       orient="auto"
       refY="0.0"
       refX="0.0"
       id="marker1584"
       style="overflow:visible;"
       inkscape:isstock="true">
      <path
         id="path1582"
         style="stroke-linejoin:round;stroke-opacity:1;fill-rule:evenodd;fill-opacity:1;stroke:#ee7219;stroke-width:0.625;fill:#ee7219"
         d="M 8.7185878,4.0337352 L -2.2072895,0.016013256 L 8.7185884,-4.0017078 C 6.9730900,-1.6296469 6.9831476,1.6157441 8.7185878,4.0337352 z "
         transform="scale(0.6) rotate(180) translate(0,0)" />
    </marker>
    <marker
       inkscape:stockid="Arrow2Mend"
       orient="auto"
       refY="0.0"
       refX="0.0"
       id="Arrow2Mend"
       style="overflow:visible;"
       inkscape:isstock="true">
      <path
         id="path1104"
         style="fill-rule:evenodd;stroke-width:0.625;stroke-linejoin:round;stroke:#9278d1;stroke-opacity:1;fill:#000000;fill-opacity:1"
         d="M 8.7185878,4.0337352 L -2.2072895,0.016013256 L 8.7185884,-4.0017078 C 6.9730900,-1.6296469 6.9831476,1.6157441 8.7185878,4.0337352 z "
         transform="scale(0.6) rotate(180) translate(0,0)" />
    </marker>
    <marker
       inkscape:stockid="Arrow1Send"
       orient="auto"
       refY="0.0"
       refX="0.0"
       id="Arrow1Send"
       style="overflow:visible;"
       inkscape:isstock="true">
      <path
         id="path1092"
         d="M 0.0,0.0 L 5.0,-5.0 L -12.5,0.0 L 5.0,5.0 L 0.0,0.0 z "
         style="fill-rule:evenodd;stroke:#000000;stroke-width:1pt;stroke-opacity:1;fill:#000000;fill-opacity:1"
         transform="scale(0.2) rotate(180) translate(6,0)" />
    </marker>
    <clipPath
       clipPathUnits="userSpaceOnUse"
       id="clipPath247">
      <rect
         ry="0"
         y="233.79077"
         x="142.97461"
         height="45.56945"
         width="1.0753164"
         id="rect249"
         style="color:#000000;display:inline;overflow:visible;visibility:visible;opacity:1;vector-effect:none;fill:#ab1f2d;fill-opacity:1;fill-rule:nonzero;stroke:none;stroke-width:0.19843748;stroke-linecap:butt;stroke-linejoin:miter;stroke-miterlimit:10;stroke-dasharray:none;stroke-dashoffset:0;stroke-opacity:1;marker:none;marker-start:none;marker-mid:none;marker-end:none;enable-background:accumulate" />
    </clipPath>
    <marker
       inkscape:isstock="true"
       style="overflow:visible"
       id="Arrow1Mstart-3"
       refX="0"
       refY="0"
       orient="auto"
       inkscape:stockid="Arrow1Mstart">
      <path
         inkscape:connector-curvature="0"
         transform="matrix(0.4,0,0,0.4,4,0)"
         style="fill:#000000;fill-opacity:1;fill-rule:evenodd;stroke:#000000;stroke-width:1.00000003pt;stroke-opacity:1"
         d="M 0,0 5,-5 -12.5,0 5,5 Z"
         id="path18128-6" />
    </marker>
  </defs>
  <metadata
     id="metadata5">
    <rdf:RDF>
      <cc:Work
         rdf:about="">
        <dc:format>image/svg+xml</dc:format>
        <dc:type
           rdf:resource="http://purl.org/dc/dcmitype/StillImage" />
        <dc:title></dc:title>
      </cc:Work>
    </rdf:RDF>
  </metadata>
  <g
     inkscape:label="Layer 1"
     inkscape:groupmode="layer"
     id="layer1"
     transform="translate(0,-259.00002)">
    <path
       d="M 7.5348879,292.49901 H 77.218555"
       style="fill:none;stroke:#262626;stroke-width:0.25;stroke-linecap:square;stroke-linejoin:round;stroke-miterlimit:10;stroke-dasharray:none;stroke-opacity:1"
       id="path23291"
       inkscape:connector-curvature="0" />
    <path
       d="M 7.5348879,292.49684 V 259.95086"
       style="fill:none;stroke:#262626;stroke-width:0.25;stroke-linecap:square;stroke-linejoin:round;stroke-miterlimit:10;stroke-dasharray:none;stroke-opacity:1"
       id="path23363"
       inkscape:connector-curvature="0" />
    <path
       d="m 6.7368844,276.70854 h 1.596007"
       style="fill:none;stroke:#262626;stroke-width:0.17638896;stroke-linecap:square;stroke-linejoin:round;stroke-miterlimit:10;stroke-dasharray:none;stroke-opacity:1"
       id="path23387"
       inkscape:connector-curvature="0" />
    <path
       d="M 6.7159124,260.9181 H 8.3538633"
       style="fill:none;stroke:#262626;stroke-width:0.17638896;stroke-linecap:square;stroke-linejoin:round;stroke-miterlimit:10;stroke-dasharray:none;stroke-opacity:1"
       id="path23407"
       inkscape:connector-curvature="0" />
    <path
       d="m 7.5348879,260.91809 0.7038765,14.84465 0.7038777,3.85852 0.7038704,2.33925 0.7038765,1.63397 0.703878,1.22478 0.703877,0.95886 0.703869,0.77352 0.703877,0.63794 0.703877,0.53517 0.703878,0.45517 0.703869,0.39147 0.703878,0.33989 0.703877,0.2975 0.703878,0.26221 0.703874,0.23253 0.703872,0.20732 0.703877,0.18574 0.703877,0.16712 0.703875,0.15098 0.703871,0.13686 0.703878,0.12449 0.703877,0.11356 0.703878,0.1039 0.703869,0.0953 0.703877,0.0876 0.703877,0.0807 0.703878,0.0745 0.703871,0.069 0.703875,0.0639 0.703877,0.0593 0.703878,0.0552 0.703876,0.0514 0.703869,0.048 0.703878,0.0448 0.703878,0.0419 0.703877,0.0393 0.703868,0.0368 0.70388,0.0345 0.703876,0.0325 0.703878,0.0305 0.703868,0.0288 0.703878,0.0271 0.703878,0.0256 0.703877,0.0242 0.703878,0.0229 0.703868,0.0217 0.703877,0.0205 0.703878,0.0194 0.703877,0.0184 0.703869,0.0174 0.703877,0.0166 0.703877,0.0158 0.703878,0.015 0.703868,0.0143 0.703878,0.0136 0.703877,0.0129 0.703878,0.0124 0.703877,0.0117 0.703868,0.0112 0.703878,0.0107 0.703878,0.0103 0.703879,0.01 0.703868,0.009 0.703878,0.009 0.703876,0.009 0.703879,0.008 0.703868,0.008 0.703877,0.008 0.703878,0.007 0.703877,0.007 0.703878,0.007 0.703868,0.006 0.703877,0.006 0.703879,0.006 0.703876,0.006 0.703869,0.006 0.703877,0.005 0.703878,0.005 0.703878,0.005 0.703877,0.005 0.703868,0.005 0.703873,0.005 0.703882,0.004 0.703868,0.004 0.703889,0.004 0.703867,0.004 0.703867,0.003 0.703889,0.003 0.703868,0.003 0.703883,0.003 0.703875,0.003 0.703863,0.003 0.703887,0.003 0.703869,0.003 0.703874,0.003 0.703881,0.003 0.703869,0.002 0.703887,0.002 0.703869,0.002"
       style="fill:none;stroke:#ab1f2d;stroke-width:0.25;stroke-linecap:butt;stroke-linejoin:round;stroke-miterlimit:10;stroke-dasharray:none;stroke-opacity:1"
       id="path23527"
       inkscape:connector-curvature="0" />
    <path
       d="m 7.5348879,292.49901 0.7038765,-14.84464 0.7038777,-3.85853 0.7038704,-2.33925 0.7038765,-1.63397 0.703878,-1.22477 0.703877,-0.95887 0.703869,-0.77351 0.703877,-0.63795 0.703877,-0.53517 0.703878,-0.45516 0.703869,-0.39147 0.703878,-0.3399 0.703877,-0.2975 0.703878,-0.26221 0.703874,-0.23253 0.703872,-0.20732 0.703877,-0.18573 0.703877,-0.16713 0.703875,-0.15097 0.703871,-0.13687 0.703878,-0.12449 0.703877,-0.11356 0.703878,-0.10389 0.703869,-0.0953 0.703877,-0.0876 0.703877,-0.0807 0.703878,-0.0745 0.703871,-0.069 0.703875,-0.0639 0.703877,-0.0593 0.703878,-0.0552 0.703876,-0.0514 0.703869,-0.048 0.703878,-0.0448 0.703878,-0.0419 0.703877,-0.0393 0.703868,-0.0368 0.70388,-0.0345 0.703876,-0.0325 0.703878,-0.0306 0.703868,-0.0288 0.703878,-0.0271 0.703878,-0.0256 0.703877,-0.0242 0.703878,-0.0229 0.703868,-0.0216 0.703877,-0.0205 0.703878,-0.0194 0.703877,-0.0184 0.703869,-0.0174 0.703877,-0.0166 0.703877,-0.0158 0.703878,-0.015 0.703868,-0.0142 0.703878,-0.0136 0.703877,-0.0129 0.703878,-0.0124 0.703877,-0.0117 0.703868,-0.0112 0.703878,-0.0107 0.703878,-0.0103 0.703879,-0.01 0.703868,-0.009 0.703878,-0.009 0.703876,-0.009 0.703879,-0.008 0.703868,-0.008 0.703877,-0.008 0.703878,-0.007 0.703877,-0.007 0.703878,-0.007 0.703868,-0.006 0.703877,-0.006 0.703879,-0.006 0.703876,-0.006 0.703869,-0.006 0.703877,-0.005 0.703878,-0.005 0.703878,-0.005 0.703877,-0.005 0.703868,-0.005 0.703873,-0.005 0.703882,-0.004 0.703868,-0.004 0.703889,-0.004 0.703867,-0.004 0.703867,-0.003 0.703889,-0.003 0.703868,-0.003 0.703883,-0.003 0.703875,-0.003 0.703863,-0.003 0.703887,-0.003 0.703869,-0.003 0.703874,-0.003 0.703881,-0.003 0.703869,-0.002 0.703887,-0.002 0.703869,-0.002"
       style="fill:none;stroke:#53682b;stroke-width:0.25;stroke-linecap:butt;stroke-linejoin:round;stroke-miterlimit:10;stroke-dasharray:none;stroke-opacity:1"
       id="path23531"
       inkscape:connector-curvature="0" />
    <g
       transform="matrix(0.400000,0.000000,0.000000,0.400000,16.848509,242.236387)"
       ns0:version="0.11.0"
       ns0:texconverter="pdflatex"
       ns0:pdfconverter="pdf2svg"
       ns0:text="$k$"
       ns0:preamble="/home/phyps/Dropbox/Talks/1710 Bristol Colloquium teleportation/preamble.tex"
       ns0:scale="2.83464566935"
       ns0:alignment="middle center"
       inkscapeversion="0.92.3"
       ns0:jacobian_sqrt="0.4"
       style="stroke:#000000;stroke-opacity:1;fill-opacity:1"
       id="g24057">
      <g
         id="g24055"
         style="stroke:#000000;stroke-opacity:1;fill-opacity:1">
        <g
           style="stroke:#000000;fill-opacity:1;stroke-opacity:1;fill:rgb(0%,0%,0%)"
           id="g24053">
          <path
             style="stroke:#000000;stroke-width:0;stroke-opacity:1;fill-opacity:1"
             d="M 2.859375 -6.8125 C 2.859375 -6.8125 2.859375 -6.921875 2.734375 -6.921875 C 2.5 -6.921875 1.78125 -6.84375 1.515625 -6.8125 C 1.4375 -6.8125 1.328125 -6.796875 1.328125 -6.625 C 1.328125 -6.5 1.421875 -6.5 1.5625 -6.5 C 2.046875 -6.5 2.0625 -6.4375 2.0625 -6.328125 L 2.03125 -6.125 L 0.59375 -0.390625 C 0.546875 -0.25 0.546875 -0.234375 0.546875 -0.171875 C 0.546875 0.0625 0.75 0.109375 0.84375 0.109375 C 0.96875 0.109375 1.109375 0.015625 1.171875 -0.09375 C 1.21875 -0.1875 1.671875 -2.03125 1.734375 -2.28125 C 2.078125 -2.25 2.890625 -2.09375 2.890625 -1.4375 C 2.890625 -1.359375 2.890625 -1.328125 2.859375 -1.21875 C 2.84375 -1.109375 2.828125 -0.984375 2.828125 -0.875 C 2.828125 -0.296875 3.21875 0.109375 3.734375 0.109375 C 4.03125 0.109375 4.3125 -0.046875 4.53125 -0.421875 C 4.78125 -0.859375 4.890625 -1.40625 4.890625 -1.421875 C 4.890625 -1.53125 4.796875 -1.53125 4.765625 -1.53125 C 4.671875 -1.53125 4.65625 -1.484375 4.625 -1.34375 C 4.421875 -0.625 4.203125 -0.109375 3.765625 -0.109375 C 3.5625 -0.109375 3.4375 -0.21875 3.4375 -0.578125 C 3.4375 -0.75 3.484375 -0.984375 3.515625 -1.140625 C 3.5625 -1.3125 3.5625 -1.34375 3.5625 -1.453125 C 3.5625 -2.09375 2.9375 -2.375 2.078125 -2.5 C 2.390625 -2.671875 2.71875 -2.984375 2.9375 -3.234375 C 3.421875 -3.765625 3.875 -4.1875 4.359375 -4.1875 C 4.421875 -4.1875 4.4375 -4.1875 4.453125 -4.171875 C 4.578125 -4.15625 4.578125 -4.15625 4.671875 -4.09375 C 4.6875 -4.09375 4.6875 -4.078125 4.703125 -4.0625 C 4.234375 -4.03125 4.140625 -3.640625 4.140625 -3.515625 C 4.140625 -3.359375 4.25 -3.171875 4.515625 -3.171875 C 4.78125 -3.171875 5.0625 -3.390625 5.0625 -3.78125 C 5.0625 -4.078125 4.828125 -4.40625 4.390625 -4.40625 C 4.109375 -4.40625 3.65625 -4.328125 2.9375 -3.53125 C 2.59375 -3.15625 2.203125 -2.75 1.828125 -2.609375 Z M 2.859375 -6.8125 "
             transform="translate(148.712,134.765)"
             id="path24051" />
        </g>
      </g>
    </g>
    <g
       id="g24199"
       style="stroke:#000000;stroke-opacity:1;fill-opacity:1"
       ns0:jacobian_sqrt="0.4"
       inkscapeversion="0.92.3"
       ns0:alignment="middle center"
       ns0:scale="2.83464566935"
       ns0:preamble="/home/phyps/Dropbox/Talks/1710 Bristol Colloquium teleportation/preamble.tex"
       ns0:text="$k_0$"
       ns0:pdfconverter="pdf2svg"
       ns0:texconverter="pdflatex"
       ns0:version="0.11.0"
       transform="matrix(0.400000,0.000000,0.000000,0.400000,-53.726242,241.931340)">
      <g
         style="stroke:#000000;stroke-opacity:1;fill-opacity:1"
         id="g24197">
        <g
           id="g24191"
           style="stroke:#000000;fill-opacity:1;stroke-opacity:1;fill:rgb(0%,0%,0%)">
          <path
             id="path24189"
             transform="translate(148.712,134.765)"
             d="M 2.859375 -6.8125 C 2.859375 -6.8125 2.859375 -6.921875 2.734375 -6.921875 C 2.5 -6.921875 1.78125 -6.84375 1.515625 -6.8125 C 1.4375 -6.8125 1.328125 -6.796875 1.328125 -6.625 C 1.328125 -6.5 1.421875 -6.5 1.5625 -6.5 C 2.046875 -6.5 2.0625 -6.4375 2.0625 -6.328125 L 2.03125 -6.125 L 0.59375 -0.390625 C 0.546875 -0.25 0.546875 -0.234375 0.546875 -0.171875 C 0.546875 0.0625 0.75 0.109375 0.84375 0.109375 C 0.96875 0.109375 1.109375 0.015625 1.171875 -0.09375 C 1.21875 -0.1875 1.671875 -2.03125 1.734375 -2.28125 C 2.078125 -2.25 2.890625 -2.09375 2.890625 -1.4375 C 2.890625 -1.359375 2.890625 -1.328125 2.859375 -1.21875 C 2.84375 -1.109375 2.828125 -0.984375 2.828125 -0.875 C 2.828125 -0.296875 3.21875 0.109375 3.734375 0.109375 C 4.03125 0.109375 4.3125 -0.046875 4.53125 -0.421875 C 4.78125 -0.859375 4.890625 -1.40625 4.890625 -1.421875 C 4.890625 -1.53125 4.796875 -1.53125 4.765625 -1.53125 C 4.671875 -1.53125 4.65625 -1.484375 4.625 -1.34375 C 4.421875 -0.625 4.203125 -0.109375 3.765625 -0.109375 C 3.5625 -0.109375 3.4375 -0.21875 3.4375 -0.578125 C 3.4375 -0.75 3.484375 -0.984375 3.515625 -1.140625 C 3.5625 -1.3125 3.5625 -1.34375 3.5625 -1.453125 C 3.5625 -2.09375 2.9375 -2.375 2.078125 -2.5 C 2.390625 -2.671875 2.71875 -2.984375 2.9375 -3.234375 C 3.421875 -3.765625 3.875 -4.1875 4.359375 -4.1875 C 4.421875 -4.1875 4.4375 -4.1875 4.453125 -4.171875 C 4.578125 -4.15625 4.578125 -4.15625 4.671875 -4.09375 C 4.6875 -4.09375 4.6875 -4.078125 4.703125 -4.0625 C 4.234375 -4.03125 4.140625 -3.640625 4.140625 -3.515625 C 4.140625 -3.359375 4.25 -3.171875 4.515625 -3.171875 C 4.78125 -3.171875 5.0625 -3.390625 5.0625 -3.78125 C 5.0625 -4.078125 4.828125 -4.40625 4.390625 -4.40625 C 4.109375 -4.40625 3.65625 -4.328125 2.9375 -3.53125 C 2.59375 -3.15625 2.203125 -2.75 1.828125 -2.609375 Z M 2.859375 -6.8125 "
             style="stroke:#000000;stroke-width:0;stroke-opacity:1;fill-opacity:1" />
        </g>
        <g
           id="g24195"
           style="stroke:#000000;fill-opacity:1;stroke-opacity:1;fill:rgb(0%,0%,0%)">
          <path
             id="path24193"
             transform="translate(153.899,136.259)"
             d="M 3.59375 -2.21875 C 3.59375 -2.984375 3.5 -3.546875 3.1875 -4.03125 C 2.96875 -4.34375 2.53125 -4.625 1.984375 -4.625 C 0.359375 -4.625 0.359375 -2.71875 0.359375 -2.21875 C 0.359375 -1.71875 0.359375 0.140625 1.984375 0.140625 C 3.59375 0.140625 3.59375 -1.71875 3.59375 -2.21875 Z M 1.984375 -0.0625 C 1.65625 -0.0625 1.234375 -0.25 1.09375 -0.8125 C 1 -1.21875 1 -1.796875 1 -2.3125 C 1 -2.828125 1 -3.359375 1.09375 -3.734375 C 1.25 -4.28125 1.6875 -4.4375 1.984375 -4.4375 C 2.359375 -4.4375 2.71875 -4.203125 2.84375 -3.796875 C 2.953125 -3.421875 2.96875 -2.921875 2.96875 -2.3125 C 2.96875 -1.796875 2.96875 -1.28125 2.875 -0.84375 C 2.734375 -0.203125 2.265625 -0.0625 1.984375 -0.0625 Z M 1.984375 -0.0625 "
             style="stroke:#000000;stroke-width:0;stroke-opacity:1;fill-opacity:1" />
        </g>
      </g>
    </g>
    <g
       transform="matrix(0.4,0,0,0.4,-59.058666,224.08692)"
       ns0:version="0.11.0"
       ns0:texconverter="pdflatex"
       ns0:pdfconverter="pdf2svg"
       ns0:text="$0.5$"
       ns0:preamble="/home/phyps/Dropbox/Talks/1710 Bristol Colloquium teleportation/preamble.tex"
       ns0:scale="2.83464566935"
       ns0:alignment="middle center"
       inkscapeversion="0.92.3"
       ns0:jacobian_sqrt="0.4"
       style="fill-opacity:1;stroke:#000000;stroke-opacity:1"
       id="g24357">
      <g
         id="g24355"
         style="fill-opacity:1;stroke:#000000;stroke-opacity:1">
        <g
           style="fill:#000000;fill-opacity:1;stroke:#000000;stroke-opacity:1"
           id="g24345">
          <path
             inkscape:connector-curvature="0"
             style="fill-opacity:1;stroke:#000000;stroke-width:0;stroke-opacity:1"
             d="m 4.578125,-3.1875 c 0,-0.796875 -0.046875,-1.59375 -0.390625,-2.328125 -0.453125,-0.96875 -1.28125,-1.125 -1.6875,-1.125 -0.609375,0 -1.328125,0.265625 -1.75,1.1875 -0.3125,0.6875 -0.359375,1.46875 -0.359375,2.265625 0,0.75 0.03125,1.640625 0.453125,2.40625 0.421875,0.796875 1.15625,1 1.640625,1 0.53125,0 1.296875,-0.203125 1.734375,-1.15625 0.3125,-0.6875 0.359375,-1.46875 0.359375,-2.25 z M 2.484375,0 C 2.09375,0 1.5,-0.25 1.328125,-1.203125 1.21875,-1.796875 1.21875,-2.71875 1.21875,-3.3125 c 0,-0.640625 0,-1.296875 0.078125,-1.828125 0.1875,-1.1875 0.9375,-1.28125 1.1875,-1.28125 0.328125,0 0.984375,0.1875 1.171875,1.171875 0.109375,0.5625 0.109375,1.3125 0.109375,1.9375 0,0.75 0,1.421875 -0.109375,2.0625 C 3.5,-0.296875 2.9375,0 2.484375,0 Z m 0,0"
             transform="translate(148.712,134.765)"
             id="path24343" />
        </g>
        <g
           style="fill:#000000;fill-opacity:1;stroke:#000000;stroke-opacity:1"
           id="g24349">
          <path
             inkscape:connector-curvature="0"
             style="fill-opacity:1;stroke:#000000;stroke-width:0;stroke-opacity:1"
             d="m 1.90625,-0.53125 c 0,-0.28125 -0.234375,-0.53125 -0.515625,-0.53125 -0.296875,0 -0.53125,0.25 -0.53125,0.53125 C 0.859375,-0.234375 1.09375,0 1.390625,0 1.671875,0 1.90625,-0.234375 1.90625,-0.53125 Z m 0,0"
             transform="translate(153.694,134.765)"
             id="path24347" />
        </g>
        <g
           style="fill:#000000;fill-opacity:1;stroke:#000000;stroke-opacity:1"
           id="g24353">
          <path
             inkscape:connector-curvature="0"
             style="fill-opacity:1;stroke:#000000;stroke-width:0;stroke-opacity:1"
             d="m 4.46875,-2 c 0,-1.1875 -0.8125,-2.1875 -1.890625,-2.1875 -0.46875,0 -0.90625,0.15625 -1.265625,0.515625 V -5.625 c 0.203125,0.0625 0.53125,0.125 0.84375,0.125 1.234375,0 1.9375,-0.90625 1.9375,-1.03125 0,-0.0625 -0.03125,-0.109375 -0.109375,-0.109375 0,0 -0.03125,0 -0.078125,0.03125 C 3.703125,-6.515625 3.21875,-6.3125 2.546875,-6.3125 2.15625,-6.3125 1.6875,-6.390625 1.21875,-6.59375 1.140625,-6.625 1.125,-6.625 1.109375,-6.625 1,-6.625 1,-6.546875 1,-6.390625 V -3.4375 c 0,0.171875 0,0.25 0.140625,0.25 0.078125,0 0.09375,-0.015625 0.140625,-0.078125 C 1.390625,-3.421875 1.75,-3.96875 2.5625,-3.96875 c 0.515625,0 0.765625,0.453125 0.84375,0.640625 0.15625,0.375 0.1875,0.75 0.1875,1.25 0,0.359375 0,0.953125 -0.25,1.375 C 3.109375,-0.3125 2.734375,-0.0625 2.28125,-0.0625 c -0.71875,0 -1.296875,-0.53125 -1.46875,-1.109375 0.03125,0 0.0625,0.015625 0.171875,0.015625 0.328125,0 0.5,-0.25 0.5,-0.484375 0,-0.25 -0.171875,-0.5 -0.5,-0.5 C 0.84375,-2.140625 0.5,-2.0625 0.5,-1.609375 0.5,-0.75 1.1875,0.21875 2.296875,0.21875 3.453125,0.21875 4.46875,-0.734375 4.46875,-2 Z m 0,0"
             transform="translate(156.461,134.765)"
             id="path24351" />
        </g>
      </g>
    </g>
    <g
       id="g24531"
       style="fill-opacity:1;stroke:#000000;stroke-opacity:1"
       ns0:jacobian_sqrt="0.4"
       inkscapeversion="0.92.3"
       ns0:alignment="middle center"
       ns0:scale="2.83464566935"
       ns0:preamble="/home/phyps/Dropbox/Talks/1710 Bristol Colloquium teleportation/preamble.tex"
       ns0:text="$1$"
       ns0:pdfconverter="pdf2svg"
       ns0:texconverter="pdflatex"
       ns0:version="0.11.0"
       transform="matrix(0.4,0,0,0.4,-55.840316,208.34022)">
      <g
         style="fill-opacity:1;stroke:#000000;stroke-opacity:1"
         id="g24529">
        <g
           id="g24527"
           style="fill:#000000;fill-opacity:1;stroke:#000000;stroke-opacity:1">
          <path
             id="path24525"
             transform="translate(148.712,134.765)"
             d="m 2.9375,-6.375 c 0,-0.25 0,-0.265625 -0.234375,-0.265625 C 2.078125,-6 1.203125,-6 0.890625,-6 v 0.3125 c 0.203125,0 0.78125,0 1.296875,-0.265625 v 5.171875 c 0,0.359375 -0.03125,0.46875 -0.921875,0.46875 h -0.3125 V 0 c 0.34375,-0.03125 1.203125,-0.03125 1.609375,-0.03125 0.390625,0 1.265625,0 1.609375,0.03125 v -0.3125 h -0.3125 c -0.90625,0 -0.921875,-0.109375 -0.921875,-0.46875 z m 0,0"
             style="fill-opacity:1;stroke:#000000;stroke-width:0;stroke-opacity:1"
             inkscape:connector-curvature="0" />
        </g>
      </g>
    </g>
    <g
       transform="matrix(0.4,0,0,0.4,-46.431539,209.67701)"
       ns0:version="0.11.0"
       ns0:texconverter="pdflatex"
       ns0:pdfconverter="pdf2svg"
       ns0:text="$T$"
       ns0:preamble="/home/phyps/Dropbox/Talks/1710 Bristol Colloquium teleportation/preamble.tex"
       ns0:scale="2.83464566935"
       ns0:alignment="middle center"
       inkscapeversion="0.92.3"
       ns0:jacobian_sqrt="0.4"
       style="fill:#53682b;fill-opacity:1;stroke:#00434f;stroke-opacity:1"
       id="g24717">
      <g
         id="g24715"
         style="fill:#53682b;fill-opacity:1;stroke:#00434f;stroke-opacity:1">
        <g
           style="fill:#53682b;fill-opacity:1;stroke:#00434f;stroke-opacity:1"
           id="g24713">
          <path
             style="fill:#53682b;fill-opacity:1;stroke:#00434f;stroke-width:0;stroke-opacity:1"
             d="m 4.25,-6.046875 c 0.078125,-0.28125 0.109375,-0.34375 0.234375,-0.375 0.09375,-0.015625 0.421875,-0.015625 0.625,-0.015625 1.015625,0 1.453125,0.03125 1.453125,0.8125 0,0.15625 -0.03125,0.546875 -0.078125,0.796875 0,0.046875 -0.03125,0.15625 -0.03125,0.1875 0,0.0625 0.03125,0.140625 0.125,0.140625 0.109375,0 0.125,-0.078125 0.15625,-0.234375 L 7,-6.46875 C 7.015625,-6.515625 7.015625,-6.609375 7.015625,-6.640625 7.015625,-6.75 6.921875,-6.75 6.75,-6.75 H 1.21875 c -0.234375,0 -0.25,0.015625 -0.328125,0.203125 l -0.59375,1.75 c 0,0.015625 -0.0625,0.15625 -0.0625,0.1875 0,0.046875 0.0625,0.109375 0.125,0.109375 0.09375,0 0.109375,-0.0625 0.171875,-0.21875 C 1.0625,-6.265625 1.328125,-6.4375 2.796875,-6.4375 H 3.1875 c 0.28125,0 0.28125,0.03125 0.28125,0.125 0,0.046875 -0.03125,0.171875 -0.046875,0.203125 L 2.09375,-0.78125 C 2,-0.421875 1.96875,-0.3125 0.90625,-0.3125 c -0.359375,0 -0.421875,0 -0.421875,0.1875 C 0.484375,0 0.59375,0 0.65625,0 c 0.265625,0 0.546875,-0.015625 0.8125,-0.015625 0.28125,0 0.578125,-0.015625 0.859375,-0.015625 0.28125,0 0.546875,0.015625 0.828125,0.015625 C 3.4375,-0.015625 3.734375,0 4.015625,0 c 0.09375,0 0.21875,0 0.21875,-0.203125 0,-0.109375 -0.078125,-0.109375 -0.34375,-0.109375 -0.234375,0 -0.375,0 -0.625,-0.015625 -0.296875,-0.03125 -0.375,-0.0625 -0.375,-0.21875 0,-0.015625 0,-0.0625 0.046875,-0.203125 z m 0,0"
             transform="translate(148.712,134.765)"
             id="path24711"
             inkscape:connector-curvature="0" />
        </g>
      </g>
    </g>
    <g
       id="g24880"
       style="fill:#ab1f2d;fill-opacity:1;stroke:#000000;stroke-opacity:1"
       ns0:jacobian_sqrt="0.4"
       inkscapeversion="0.92.3"
       ns0:alignment="middle center"
       ns0:scale="2.83464566935"
       ns0:preamble="/home/phyps/Dropbox/Talks/1710 Bristol Colloquium teleportation/preamble.tex"
       ns0:text="$R$"
       ns0:pdfconverter="pdf2svg"
       ns0:texconverter="pdflatex"
       ns0:version="0.11.0"
       transform="matrix(0.4,0,0,0.4,-45.907581,232.22984)">
      <g
         style="fill:#ab1f2d;fill-opacity:1;stroke:#000000;stroke-opacity:1"
         id="surface1">
        <g
           id="g24877"
           style="fill:#ab1f2d;fill-opacity:1;stroke:#000000;stroke-opacity:1">
          <path
             id="path24875"
             transform="translate(148.712,134.765)"
             d="m 3.734375,-6.125 c 0.0625,-0.234375 0.09375,-0.328125 0.28125,-0.359375 C 4.109375,-6.5 4.421875,-6.5 4.625,-6.5 c 0.703125,0 1.8125,0 1.8125,0.984375 0,0.34375 -0.15625,1.03125 -0.546875,1.421875 -0.265625,0.25 -0.78125,0.578125 -1.6875,0.578125 H 3.09375 Z m 1.4375,2.734375 c 1.015625,-0.21875 2.1875,-0.921875 2.1875,-1.921875 0,-0.859375 -0.890625,-1.5 -2.203125,-1.5 H 2.328125 c -0.203125,0 -0.296875,0 -0.296875,0.203125 C 2.03125,-6.5 2.125,-6.5 2.3125,-6.5 c 0.015625,0 0.203125,0 0.375,0.015625 0.1875,0.03125 0.265625,0.03125 0.265625,0.171875 0,0.03125 0,0.0625 -0.03125,0.1875 l -1.34375,5.34375 C 1.484375,-0.390625 1.46875,-0.3125 0.671875,-0.3125 0.5,-0.3125 0.40625,-0.3125 0.40625,-0.109375 0.40625,0 0.53125,0 0.546875,0 c 0.28125,0 0.984375,-0.03125 1.25,-0.03125 0.28125,0 1,0.03125 1.28125,0.03125 0.078125,0 0.1875,0 0.1875,-0.203125 0,-0.109375 -0.078125,-0.109375 -0.28125,-0.109375 -0.359375,0 -0.640625,0 -0.640625,-0.171875 0,-0.0625 0.015625,-0.109375 0.03125,-0.171875 l 0.65625,-2.640625 h 1.1875 c 0.90625,0 1.078125,0.5625 1.078125,0.90625 0,0.140625 -0.078125,0.453125 -0.140625,0.6875 C 5.09375,-1.421875 5,-1.0625 5,-0.859375 5,0.21875 6.203125,0.21875 6.328125,0.21875 c 0.84375,0 1.203125,-1 1.203125,-1.140625 0,-0.125 -0.109375,-0.125 -0.125,-0.125 -0.09375,0 -0.109375,0.0625 -0.125,0.140625 C 7.03125,-0.171875 6.59375,0 6.375,0 6.046875,0 5.96875,-0.21875 5.96875,-0.609375 c 0,-0.3125 0.0625,-0.8125 0.109375,-1.140625 0.015625,-0.140625 0.03125,-0.328125 0.03125,-0.46875 0,-0.765625 -0.671875,-1.078125 -0.9375,-1.171875 z m 0,0"
             style="fill:#ab1f2d;fill-opacity:1;stroke:#000000;stroke-width:0;stroke-opacity:1"
             inkscape:connector-curvature="0" />
        </g>
      </g>
    </g>
  </g>
</svg>
